<svg width="50" height="70" viewBox="0 0 50 70" fill="none" xmlns="http://www.w3.org/2000/svg">
<path d="M50 25C50 38.8071 38.8071 50 25 50C11.1929 50 0 38.8071 0 25C0 11.1929 11.1929 0 25 0C38.8071 0 50 11.1929 50 25Z" fill="white"/>
<path fill-rule="evenodd" clip-rule="evenodd" d="M25 47C37.1503 47 47 37.1503 47 25C47 12.8497 37.1503 3 25 3C12.8497 3 3 12.8497 3 25C3 37.1503 12.8497 47 25 47ZM25 50C38.8071 50 50 38.8071 50 25C50 11.1929 38.8071 0 25 0C11.1929 0 0 11.1929 0 25C0 38.8071 11.1929 50 25 50Z" fill="#D0D0D0"/>
<path fill-rule="evenodd" clip-rule="evenodd" d="M22.4853 35.6066L12.9393 26.0606C12.3536 25.4748 12.3536 24.5251 12.9393 23.9393L22.4853 14.3934C23.0711 13.8076 24.0208 13.8076 24.6066 14.3934C25.1924 14.9791 25.1924 15.9289 24.6066 16.5147L17.6213 23.5H35V26.5H17.6213L24.6066 33.4852C25.1924 34.071 25.1924 35.0208 24.6066 35.6066C24.0208 36.1923 23.0711 36.1923 22.4853 35.6066Z" fill="#D0D0D0"/>
<path d="M3.80518 55.7578V65H2.58008V55.7578H3.80518ZM9.38477 55.7578L5.54443 60.0679L3.38623 62.3086L3.18311 61.001L4.80811 59.2109L7.91211 55.7578H9.38477ZM8.2041 65L4.78271 60.4932L5.5127 59.522L9.66406 65H8.2041Z" fill="#D0D0D0"/>
<path d="M13.2505 65.127C12.7723 65.127 12.3385 65.0465 11.9492 64.8857C11.5641 64.7207 11.2319 64.4901 10.9526 64.1938C10.6776 63.8976 10.466 63.5464 10.3179 63.1401C10.1698 62.7339 10.0957 62.2896 10.0957 61.8071V61.5405C10.0957 60.9819 10.1782 60.4847 10.3433 60.0488C10.5083 59.6087 10.7326 59.2363 11.0161 58.9316C11.2996 58.627 11.6213 58.3963 11.981 58.2397C12.3407 58.0832 12.7131 58.0049 13.0981 58.0049C13.589 58.0049 14.0122 58.0895 14.3677 58.2588C14.7274 58.4281 15.0215 58.665 15.25 58.9697C15.4785 59.2702 15.6478 59.6257 15.7578 60.0361C15.8678 60.4424 15.9229 60.8867 15.9229 61.3691V61.896H10.7939V60.9375H14.7485V60.8486C14.7316 60.5439 14.6681 60.2477 14.5581 59.96C14.4523 59.6722 14.283 59.4352 14.0503 59.249C13.8175 59.0628 13.5002 58.9697 13.0981 58.9697C12.8315 58.9697 12.5861 59.0269 12.3618 59.1411C12.1375 59.2511 11.945 59.4162 11.7842 59.6362C11.6234 59.8563 11.4985 60.125 11.4097 60.4424C11.3208 60.7598 11.2764 61.1258 11.2764 61.5405V61.8071C11.2764 62.133 11.3208 62.4398 11.4097 62.7275C11.5028 63.0111 11.6361 63.2607 11.8096 63.4766C11.9873 63.6924 12.201 63.8617 12.4507 63.9844C12.7046 64.1071 12.9924 64.1685 13.314 64.1685C13.7287 64.1685 14.0799 64.0838 14.3677 63.9146C14.6554 63.7453 14.9072 63.5189 15.123 63.2354L15.834 63.8003C15.6859 64.0246 15.4976 64.2383 15.269 64.4414C15.0405 64.6445 14.7591 64.8096 14.4248 64.9365C14.0947 65.0635 13.7033 65.127 13.2505 65.127Z" fill="#D0D0D0"/>
<path d="M18.4619 59.4966V65H17.2812V58.1318H18.3984L18.4619 59.4966ZM18.2207 61.3057L17.6748 61.2866C17.679 60.8169 17.7404 60.3831 17.8589 59.9854C17.9774 59.5833 18.153 59.2342 18.3857 58.938C18.6185 58.6418 18.9084 58.4132 19.2554 58.2524C19.6024 58.0874 20.0044 58.0049 20.4614 58.0049C20.783 58.0049 21.0793 58.0514 21.3501 58.1445C21.6209 58.2334 21.8558 58.3752 22.0547 58.5698C22.2536 58.7645 22.408 59.0142 22.5181 59.3188C22.6281 59.6235 22.6831 59.9917 22.6831 60.4233V65H21.5088V60.4805C21.5088 60.1208 21.4474 59.833 21.3247 59.6172C21.2062 59.4014 21.0369 59.2448 20.8169 59.1475C20.5968 59.0459 20.3387 58.9951 20.0425 58.9951C19.6955 58.9951 19.4056 59.0565 19.1729 59.1792C18.9401 59.3019 18.7539 59.4712 18.6143 59.687C18.4746 59.9028 18.373 60.1504 18.3096 60.4297C18.2503 60.7048 18.2207 60.9967 18.2207 61.3057ZM22.6704 60.6582L21.8833 60.8994C21.8875 60.5228 21.9489 60.161 22.0674 59.814C22.1901 59.467 22.3657 59.158 22.5942 58.8872C22.827 58.6164 23.1126 58.4027 23.4512 58.2461C23.7897 58.0853 24.1769 58.0049 24.6128 58.0049C24.981 58.0049 25.3068 58.0535 25.5903 58.1509C25.8781 58.2482 26.1193 58.3984 26.314 58.6016C26.5129 58.8005 26.6631 59.0565 26.7646 59.3696C26.8662 59.6828 26.917 60.0552 26.917 60.4868V65H25.7363V60.4741C25.7363 60.089 25.675 59.7907 25.5522 59.5791C25.4338 59.3633 25.2645 59.2131 25.0444 59.1284C24.8286 59.0396 24.5705 58.9951 24.27 58.9951C24.0119 58.9951 23.7834 59.0396 23.5845 59.1284C23.3856 59.2173 23.2184 59.34 23.083 59.4966C22.9476 59.6489 22.8439 59.8245 22.772 60.0234C22.7043 60.2223 22.6704 60.4339 22.6704 60.6582Z" fill="#D0D0D0"/>
<path d="M28.688 55.25H29.8687V63.667L29.7671 65H28.688V55.25ZM34.5088 61.5088V61.6421C34.5088 62.1414 34.4495 62.6048 34.3311 63.0322C34.2126 63.4554 34.0391 63.8236 33.8105 64.1367C33.582 64.4499 33.3027 64.6932 32.9727 64.8667C32.6426 65.0402 32.2638 65.127 31.8364 65.127C31.4006 65.127 31.0176 65.0529 30.6875 64.9048C30.3617 64.7524 30.0866 64.5345 29.8623 64.251C29.638 63.9674 29.4582 63.6247 29.3228 63.2227C29.1916 62.8206 29.1006 62.3678 29.0498 61.8643V61.2803C29.1006 60.7725 29.1916 60.3175 29.3228 59.9155C29.4582 59.5135 29.638 59.1707 29.8623 58.8872C30.0866 58.5994 30.3617 58.3815 30.6875 58.2334C31.0133 58.0811 31.3921 58.0049 31.8237 58.0049C32.2554 58.0049 32.6383 58.0895 32.9727 58.2588C33.307 58.4238 33.5863 58.6608 33.8105 58.9697C34.0391 59.2786 34.2126 59.6489 34.3311 60.0806C34.4495 60.508 34.5088 60.984 34.5088 61.5088ZM33.3281 61.6421V61.5088C33.3281 61.166 33.2964 60.8444 33.2329 60.5439C33.1694 60.2393 33.0679 59.9727 32.9282 59.7441C32.7886 59.5114 32.6045 59.3294 32.376 59.1982C32.1475 59.0628 31.866 58.9951 31.5317 58.9951C31.2355 58.9951 30.9774 59.0459 30.7573 59.1475C30.5415 59.249 30.3574 59.3866 30.2051 59.5601C30.0527 59.7293 29.9279 59.924 29.8306 60.144C29.7375 60.3599 29.6676 60.5841 29.6211 60.8169V62.3467C29.6888 62.6429 29.7988 62.9285 29.9512 63.2036C30.1077 63.4744 30.3151 63.6966 30.5732 63.8701C30.8356 64.0436 31.1593 64.1304 31.5444 64.1304C31.8618 64.1304 32.1326 64.0669 32.3569 63.9399C32.5854 63.8088 32.7695 63.6289 32.9092 63.4004C33.0531 63.1719 33.1589 62.9074 33.2266 62.6069C33.2943 62.3065 33.3281 61.9849 33.3281 61.6421Z" fill="#D0D0D0"/>
<path d="M40.0439 63.8257V60.29C40.0439 60.0192 39.9889 59.7843 39.8789 59.5854C39.7731 59.3823 39.6123 59.2257 39.3965 59.1157C39.1807 59.0057 38.9141 58.9507 38.5967 58.9507C38.3005 58.9507 38.0402 59.0015 37.8159 59.103C37.5959 59.2046 37.4224 59.3379 37.2954 59.5029C37.1727 59.668 37.1113 59.8457 37.1113 60.0361H35.937C35.937 59.7907 36.0005 59.5474 36.1274 59.3062C36.2544 59.0649 36.4364 58.847 36.6733 58.6523C36.9146 58.4535 37.2023 58.2969 37.5366 58.1826C37.8752 58.0641 38.2518 58.0049 38.6665 58.0049C39.1659 58.0049 39.606 58.0895 39.9868 58.2588C40.3719 58.4281 40.6724 58.6841 40.8882 59.0269C41.1082 59.3654 41.2183 59.7907 41.2183 60.3027V63.502C41.2183 63.7305 41.2373 63.9738 41.2754 64.2319C41.3177 64.4901 41.3791 64.7122 41.4595 64.8984V65H40.2344C40.1751 64.8646 40.1286 64.6847 40.0947 64.4604C40.0609 64.2319 40.0439 64.0203 40.0439 63.8257ZM40.2471 60.8359L40.2598 61.6611H39.0728C38.7384 61.6611 38.4401 61.6886 38.1777 61.7437C37.9154 61.7944 37.6953 61.8727 37.5176 61.9785C37.3398 62.0843 37.2044 62.2176 37.1113 62.3784C37.0182 62.535 36.9717 62.7191 36.9717 62.9307C36.9717 63.1465 37.0203 63.3433 37.1177 63.521C37.215 63.6987 37.361 63.8405 37.5557 63.9463C37.7546 64.0479 37.9979 64.0986 38.2856 64.0986C38.6453 64.0986 38.9627 64.0225 39.2378 63.8701C39.5129 63.7178 39.7308 63.5316 39.8916 63.3115C40.0566 63.0915 40.1455 62.8778 40.1582 62.6704L40.6597 63.2354C40.63 63.4131 40.5496 63.6099 40.4185 63.8257C40.2873 64.0415 40.1117 64.2489 39.8916 64.4478C39.6758 64.6424 39.4176 64.8053 39.1172 64.9365C38.821 65.0635 38.4867 65.127 38.1143 65.127C37.6488 65.127 37.2404 65.036 36.8892 64.854C36.5422 64.672 36.2713 64.4287 36.0767 64.124C35.8862 63.8151 35.791 63.4702 35.791 63.0894C35.791 62.7212 35.863 62.3975 36.0068 62.1182C36.1507 61.8346 36.3581 61.5998 36.6289 61.4136C36.8997 61.2231 37.2256 61.0793 37.6064 60.9819C37.9873 60.8846 38.4126 60.8359 38.8823 60.8359H40.2471Z" fill="#D0D0D0"/>
<path d="M44.3413 55.25V65H43.1606V55.25H44.3413Z" fill="#D0D0D0"/>
<path d="M47.5024 58.1318V65H46.3218V58.1318H47.5024ZM46.2329 56.3101C46.2329 56.1196 46.29 55.9588 46.4043 55.8276C46.5228 55.6965 46.6963 55.6309 46.9248 55.6309C47.1491 55.6309 47.3205 55.6965 47.439 55.8276C47.5617 55.9588 47.623 56.1196 47.623 56.3101C47.623 56.492 47.5617 56.6486 47.439 56.7798C47.3205 56.9067 47.1491 56.9702 46.9248 56.9702C46.6963 56.9702 46.5228 56.9067 46.4043 56.7798C46.29 56.6486 46.2329 56.492 46.2329 56.3101Z" fill="#D0D0D0"/>
</svg>
