<svg width="432" height="450" viewBox="0 0 432 450" fill="none" xmlns="http://www.w3.org/2000/svg">
<mask id="mask0_923_1675" style="mask-type:alpha" maskUnits="userSpaceOnUse" x="0" y="0" width="432" height="450">
<rect width="432" height="450" fill="#D9D9D9"/>
</mask>
<g mask="url(#mask0_923_1675)">
<path d="M418.371 157.445C418.371 157.608 242.291 157.739 25.1363 157.739C-192.095 157.739 -368.137 157.607 -368.137 157.445C-368.137 157.282 -192.095 157.15 25.1363 157.15C242.291 157.15 418.371 157.282 418.371 157.445Z" fill="#E0E0E0"/>
<path d="M234.495 324.947C234.331 324.947 234.199 233.841 234.199 121.484C234.199 9.08625 234.331 -82 234.495 -82C234.658 -82 234.789 9.08625 234.789 121.484C234.789 233.842 234.658 324.947 234.495 324.947Z" fill="#E0E0E0"/>
<path d="M351.885 227.527H312.623V318.283H351.885V227.527Z" fill="#EBEBEB"/>
<path d="M341.342 246.551H322.889C320.405 246.551 318.391 244.539 318.391 242.054V240.445C318.391 237.961 320.404 235.946 322.889 235.946H341.342C343.825 235.946 345.839 237.96 345.839 240.443V242.054C345.839 244.539 343.825 246.551 341.342 246.551Z" fill="#E0E0E0"/>
<path d="M332.527 253.841C343.368 253.841 352.157 253.752 352.157 253.642C352.157 253.532 343.368 253.443 332.527 253.443C321.686 253.443 312.897 253.532 312.897 253.642C312.897 253.752 321.686 253.841 332.527 253.841Z" fill="#E0E0E0"/>
<path d="M332.527 286.664C343.368 286.664 352.157 286.574 352.157 286.464C352.157 286.355 343.368 286.265 332.527 286.265C321.686 286.265 312.897 286.355 312.897 286.464C312.897 286.574 321.686 286.664 332.527 286.664Z" fill="#E0E0E0"/>
<path d="M248.58 88.0383C248.698 88.0383 248.794 81.0782 248.794 72.4925C248.794 63.9068 248.698 56.9467 248.58 56.9467C248.462 56.9467 248.366 63.9068 248.366 72.4925C248.366 81.0782 248.462 88.0383 248.58 88.0383Z" fill="#263238"/>
<path d="M353.286 88.4953C353.404 88.4953 353.5 81.4329 353.5 72.721C353.5 64.0091 353.404 56.9467 353.286 56.9467C353.168 56.9467 353.072 64.0091 353.072 72.721C353.072 81.4329 353.168 88.4953 353.286 88.4953Z" fill="#263238"/>
<path d="M372.87 124.21H232.478C229.548 124.21 227.173 121.834 227.173 118.905V92.4044C227.173 89.4737 229.55 87.0984 232.478 87.0984H372.87C375.801 87.0984 378.175 89.4737 378.175 92.4044V118.905C378.175 121.834 375.801 124.21 372.87 124.21Z" fill="#9DA9B8"/>
<path d="M372.827 124.228H232.522C229.562 124.228 227.155 121.821 227.155 118.861V92.4474C227.155 89.4873 229.562 87.0803 232.522 87.0803H372.827C375.786 87.0803 378.194 89.4873 378.194 92.4474V118.861C378.194 121.821 375.786 124.228 372.827 124.228ZM232.522 87.1165C229.582 87.1165 227.191 89.5077 227.191 92.4474V118.861C227.191 121.801 229.582 124.192 232.522 124.192H372.827C375.767 124.192 378.158 121.801 378.158 118.861V92.4474C378.158 89.5077 375.767 87.1165 372.827 87.1165H232.522Z" fill="#263238"/>
<path d="M274.347 102.338H277.383C279.769 102.338 281.377 103.872 281.377 106.066C281.377 108.26 279.769 109.794 277.383 109.794H274.347V102.338ZM277.341 109.113C279.322 109.113 280.6 107.857 280.6 106.067C280.6 104.278 279.322 103.021 277.341 103.021H275.136V109.114H277.341V109.113Z" fill="#FAFAFA"/>
<path d="M287.868 107.227H283.181C283.265 108.399 284.16 109.176 285.385 109.176C286.067 109.176 286.675 108.932 287.101 108.441L287.526 108.932C287.026 109.528 286.248 109.848 285.364 109.848C283.617 109.848 282.424 108.655 282.424 106.993C282.424 105.332 283.584 104.15 285.162 104.15C286.739 104.15 287.878 105.31 287.878 106.993C287.878 107.058 287.868 107.143 287.868 107.227ZM283.181 106.663H287.154C287.058 105.566 286.259 104.799 285.162 104.799C284.075 104.799 283.277 105.566 283.181 106.663Z" fill="#FAFAFA"/>
<path d="M295.101 106.993C295.101 108.698 293.908 109.848 292.311 109.848C291.415 109.848 290.648 109.465 290.18 108.741V111.862H289.423V104.192H290.148V105.3C290.605 104.554 291.383 104.15 292.311 104.15C293.908 104.15 295.101 105.3 295.101 106.993ZM294.345 106.993C294.345 105.695 293.44 104.81 292.258 104.81C291.063 104.81 290.168 105.695 290.168 106.993C290.168 108.303 291.063 109.178 292.258 109.178C293.44 109.176 294.345 108.303 294.345 106.993Z" fill="#FAFAFA"/>
<path d="M300.842 106.321V109.794H300.118V108.922C299.777 109.496 299.116 109.848 298.191 109.848C296.923 109.848 296.145 109.188 296.145 108.219C296.145 107.356 296.698 106.633 298.306 106.633H300.086V106.291C300.086 105.333 299.543 104.81 298.499 104.81C297.775 104.81 297.093 105.066 296.636 105.47L296.294 104.905C296.859 104.426 297.689 104.15 298.573 104.15C300.023 104.15 300.842 104.874 300.842 106.321ZM300.087 108.112V107.196H298.329C297.242 107.196 296.891 107.621 296.891 108.197C296.891 108.846 297.414 109.251 298.308 109.251C299.16 109.251 299.789 108.846 300.087 108.112Z" fill="#FAFAFA"/>
<path d="M305.723 104.15V104.885C305.66 104.885 305.597 104.874 305.543 104.874C304.372 104.874 303.658 105.619 303.658 106.94V109.795H302.901V104.192H303.626V105.289C303.977 104.543 304.692 104.15 305.723 104.15Z" fill="#FAFAFA"/>
<path d="M310.284 109.453C309.986 109.719 309.538 109.847 309.102 109.847C308.046 109.847 307.462 109.251 307.462 108.218V104.831H306.459V104.192H307.462V102.967H308.218V104.192H309.922V104.831H308.218V108.175C308.218 108.836 308.559 109.198 309.187 109.198C309.495 109.198 309.805 109.103 310.017 108.91L310.284 109.453Z" fill="#FAFAFA"/>
<path d="M316.708 104.192V109.795H315.983V108.772C315.59 109.455 314.866 109.848 313.97 109.848C312.543 109.848 311.606 109.05 311.606 107.441V104.192H312.363V107.367C312.363 108.56 312.98 109.166 314.045 109.166C315.217 109.166 315.952 108.411 315.952 107.132V104.192H316.708Z" fill="#FAFAFA"/>
<path d="M321.651 104.15V104.885C321.588 104.885 321.524 104.874 321.47 104.874C320.299 104.874 319.586 105.619 319.586 106.94V109.795H318.829V104.192H319.554V105.289C319.905 104.543 320.618 104.15 321.651 104.15Z" fill="#FAFAFA"/>
<path d="M327.841 107.227H323.153C323.238 108.399 324.133 109.176 325.358 109.176C326.04 109.176 326.647 108.932 327.074 108.441L327.5 108.932C326.999 109.528 326.221 109.848 325.338 109.848C323.59 109.848 322.397 108.655 322.397 106.993C322.397 105.332 323.557 104.15 325.135 104.15C326.712 104.15 327.851 105.31 327.851 106.993C327.852 107.058 327.841 107.143 327.841 107.227ZM323.154 106.663H327.128C327.032 105.566 326.233 104.799 325.136 104.799C324.049 104.799 323.251 105.566 323.154 106.663Z" fill="#FAFAFA"/>
<path d="M328.62 109.156L328.962 108.56C329.408 108.912 330.164 109.188 330.953 109.188C332.019 109.188 332.454 108.826 332.454 108.272C332.454 106.813 328.824 107.963 328.824 105.747C328.824 104.831 329.611 104.149 331.038 104.149C331.763 104.149 332.552 104.351 333.02 104.67L332.69 105.278C332.2 104.937 331.614 104.798 331.038 104.798C330.026 104.798 329.579 105.193 329.579 105.725C329.579 107.237 333.212 106.098 333.212 108.249C333.212 109.219 332.359 109.847 330.9 109.847C329.973 109.849 329.078 109.55 328.62 109.156Z" fill="#FAFAFA"/>
<path d="M352.503 102.227C352.187 102.54 352.184 103.052 352.498 103.368L356.026 106.934L345.919 106.882C345.473 106.879 345.11 107.238 345.108 107.684C345.106 108.129 345.464 108.492 345.911 108.495L356.018 108.547L352.452 112.076C352.137 112.389 352.133 112.9 352.447 113.216C352.76 113.532 353.271 113.535 353.588 113.221L359.11 107.755L353.645 102.233C353.33 101.917 352.82 101.914 352.503 102.227Z" fill="#FAFAFA"/>
<path d="M259.493 112.239H238.625V113.755H259.493V112.239Z" fill="#FAFAFA"/>
<path d="M261.771 99.2059C261.659 99.043 261.513 98.9141 261.352 98.8055C261.349 98.8043 259.219 98.0465 258.032 98.0465C256.222 98.0465 254.868 98.7534 253.36 99.6481C252.807 99.9773 252.17 100.355 251.493 100.757C251.486 100.76 251.478 100.761 251.471 100.76L244.916 99.6334C244.81 99.6153 244.703 99.6289 244.606 99.673L243.563 100.146C243.308 100.261 243.304 100.621 243.556 100.743L247.891 102.837C247.914 102.847 247.915 102.879 247.893 102.891C245.47 104.329 243.395 105.559 243.395 105.559C243.372 105.573 243.35 105.586 243.327 105.599C242.48 106.086 241.479 106.24 240.522 106.023L238.202 105.498C238.085 105.472 237.96 105.471 237.848 105.512C237.424 105.663 237.319 106.205 237.646 106.505L240.25 108.894C240.657 109.268 241.245 109.373 241.758 109.165L243.053 108.64L250.414 105.541L260.814 101.163C261.846 100.743 262.245 99.8947 261.771 99.2059Z" fill="#FAFAFA"/>
<path d="M252.376 105.655L249.289 106.946L248.706 109.499C248.672 109.648 248.784 109.791 248.937 109.792L249.241 109.794C249.655 109.797 250.042 109.587 250.265 109.237L252.376 105.655Z" fill="#FAFAFA"/>
<path d="M408.861 318.284C408.861 318.448 237.172 318.579 25.4325 318.579C-186.382 318.579 -358.034 318.448 -358.034 318.284C-358.034 318.121 -186.382 317.99 25.4325 317.99C237.172 317.99 408.861 318.121 408.861 318.284Z" fill="#263238"/>
<path d="M173.674 341.178C169.82 339.207 174.404 323.412 174.453 323.254C179.121 308.345 193.527 284.221 237.584 290.157L236.98 294.641C215.15 291.697 198.707 296.172 188.096 307.927C177.374 319.808 176.168 335.912 176.741 338.294C176.694 338.095 176.419 337.501 175.733 337.15L173.674 341.178Z" fill="#455A64"/>
<path d="M272.437 339.165H260.896V409.082H272.437V339.165Z" fill="#E0E0E0"/>
<path d="M322.664 247.165L314.875 293.595L307.058 340.185L172.559 340.282L172.552 333.155L226.516 333.121L245.336 247.226L322.664 247.165Z" fill="#455A64"/>
<path d="M126.934 353.55L112.601 371.691C112.601 371.691 89.3477 363.213 86.3729 366.307L120.547 395.362L144.041 368.015L126.934 353.55Z" fill="#263238"/>
<path d="M124.428 379.193C124.935 379.936 124.76 381.067 124.039 381.606C123.317 382.144 122.164 381.976 121.643 381.241C121.123 380.508 121.291 379.142 122.069 378.689C122.847 378.235 124.189 378.506 124.518 379.343" fill="#E0E0E0"/>
<path d="M120.547 395.361L122.808 392.512L89.1974 365.719C89.1974 365.719 87.1128 365.087 86.3741 366.306L120.547 395.361Z" fill="#455A64"/>
<path d="M112.195 371.045C112.059 371.216 112.829 372.002 113.194 373.236C113.591 374.462 113.401 375.544 113.61 375.609C113.791 375.707 114.389 374.499 113.921 373.011C113.467 371.52 112.289 370.86 112.195 371.045Z" fill="white"/>
<path d="M107.351 369.48C107.175 369.609 107.657 370.507 107.623 371.695C107.624 372.884 107.119 373.768 107.292 373.902C107.425 374.062 108.372 373.182 108.385 371.706C108.412 370.229 107.489 369.324 107.351 369.48Z" fill="white"/>
<path d="M101.668 372.039C101.789 372.203 102.73 371.566 103.078 370.288C103.436 369.012 102.956 367.983 102.768 368.062C102.556 368.119 102.647 369.04 102.344 370.085C102.066 371.137 101.515 371.882 101.668 372.039Z" fill="white"/>
<path d="M115.921 367.273C115.861 367.485 116.822 367.906 117.711 368.771C118.618 369.619 119.082 370.56 119.29 370.491C119.49 370.452 119.298 369.225 118.237 368.219C117.184 367.207 115.95 367.072 115.921 367.273Z" fill="white"/>
<path d="M158.087 322.726C158.087 324.369 150.741 399.91 150.741 399.91L175.555 402.788C175.555 402.788 181.732 364.69 182.691 357.667C183.648 350.644 186.863 338.062 186.863 338.062L239.804 332.825C239.804 332.825 213.839 296.498 211.314 296.346C208.791 296.195 158.087 322.726 158.087 322.726Z" fill="#263238"/>
<path d="M115.192 364.465C115.192 364.465 159.63 304.228 162.193 301.074C164.756 297.919 167.714 294.568 176.981 294.568C186.248 294.568 211.314 296.346 211.314 296.346L224.559 290.312L272.638 297.727C272.638 297.727 274.411 320.6 271.257 325.924C268.102 331.248 249.37 332.628 245.427 332.826C241.484 333.023 180.407 324.732 180.407 324.732C180.407 324.732 168.437 341.345 162.691 347.732C158.595 352.284 136.731 380.342 136.731 380.342L115.192 364.465Z" fill="#263238"/>
<path d="M136.797 380.833L114.695 364.541L114.906 364.255C115.351 363.653 159.378 303.976 161.917 300.851C164.321 297.893 167.311 294.213 176.981 294.213C185.877 294.213 209.588 295.87 211.25 295.986L224.51 289.946L224.614 289.962L272.972 297.419L272.993 297.7C273.066 298.639 274.741 320.747 271.565 326.105C268.141 331.884 247.759 333.064 245.446 333.18C241.603 333.405 185.141 325.731 180.572 325.112C179.278 326.901 168.336 341.99 162.958 347.968C158.916 352.461 137.232 380.279 137.012 380.56L136.797 380.833ZM115.689 364.392L136.663 379.85C138.936 376.935 158.586 351.763 162.427 347.494C168.095 341.195 179.999 324.69 180.12 324.524L180.243 324.351L180.456 324.38C181.065 324.463 241.535 332.665 245.41 332.471C246.316 332.424 267.661 331.297 270.953 325.743C273.829 320.891 272.492 300.664 272.304 298.036L224.61 290.681L211.38 296.708L211.289 296.702C211.039 296.683 186.13 294.923 176.981 294.923C167.649 294.923 164.776 298.459 162.469 301.3C160.029 304.3 119.017 359.878 115.689 364.392Z" fill="#455A64"/>
<path d="M178.362 320.844C176.863 318.525 175.577 316.69 175.491 316.746C175.405 316.801 176.551 318.726 178.05 321.046C179.55 323.365 180.835 325.2 180.921 325.145C181.007 325.089 179.861 323.164 178.362 320.844Z" fill="#455A64"/>
<path d="M152.746 384.979L154.01 408.063C154.01 408.063 130.97 417.102 130.789 421.391L175.637 420.546L175.142 384.496L152.746 384.979Z" fill="#263238"/>
<path d="M167.841 405.859C168.713 406.079 169.331 407.044 169.146 407.925C168.961 408.805 167.986 409.443 167.109 409.237C166.234 409.032 165.456 407.896 165.738 407.042C166.019 406.188 167.206 405.503 168.008 405.912" fill="#E0E0E0"/>
<path d="M175.637 420.546L175.445 416.914L132.516 419.083C132.516 419.083 130.537 419.989 130.789 421.391L175.637 420.546Z" fill="#455A64"/>
<path d="M153.278 407.848C153.29 408.067 154.386 408.146 155.478 408.829C156.585 409.485 157.158 410.423 157.36 410.332C157.56 410.286 157.208 408.983 155.873 408.179C154.547 407.363 153.228 407.649 153.278 407.848Z" fill="white"/>
<path d="M148.612 409.882C148.566 410.095 149.52 410.45 150.283 411.363C151.07 412.253 151.277 413.251 151.495 413.237C151.701 413.268 151.829 411.983 150.859 410.865C149.903 409.741 148.612 409.674 148.612 409.882Z" fill="white"/>
<path d="M146.045 415.564C146.247 415.607 146.531 414.506 145.946 413.318C145.368 412.125 144.326 411.672 144.238 411.856C144.117 412.038 144.794 412.669 145.259 413.652C145.748 414.624 145.828 415.546 146.045 415.564Z" fill="white"/>
<path d="M153.574 402.556C153.669 402.754 154.669 402.433 155.908 402.494C157.148 402.529 158.12 402.926 158.231 402.736C158.354 402.576 157.398 401.783 155.938 401.732C154.478 401.671 153.464 402.385 153.574 402.556Z" fill="white"/>
<path d="M243.373 238.213L244.931 252.617L226.849 288.892C226.849 288.892 216.154 292.45 212.37 296.346L221.032 296.724C233.451 297.264 245.478 301.586 255.405 309.33C259.682 312.667 263.132 316.278 263.771 319.558C265.655 329.226 271.628 329.898 271.628 329.898L279.499 313.627L287.178 298.361L302.591 238.575L287.717 230.407L284.378 225.548L262.373 228.612L257.988 232.943L243.373 238.213Z" fill="#E0E0E0"/>
<path d="M206.848 276.855L216.087 272.986L230.604 252.623C230.604 252.623 237.335 239.162 243.373 238.213C249.41 237.265 244.931 252.618 244.931 252.618L235.623 279.05L220.612 289.558L210.258 288.658L203.555 282.95L206.848 276.855Z" fill="#E0E0E0"/>
<path d="M244.816 243.225C244.829 243.229 244.773 243.392 244.658 243.699C244.526 244.038 244.351 244.48 244.137 245.031C243.664 246.226 243.006 247.885 242.2 249.919C240.573 254.048 238.396 259.783 236.005 266.122C233.614 272.464 231.397 278.187 229.706 282.295C228.862 284.349 228.163 286.005 227.659 287.141C227.417 287.68 227.222 288.114 227.074 288.446C226.937 288.742 226.859 288.895 226.847 288.892C226.835 288.886 226.891 288.724 227.006 288.417C227.138 288.079 227.312 287.636 227.525 287.085C227.999 285.891 228.656 284.232 229.463 282.198C231.091 278.067 233.267 272.333 235.66 265.992C238.05 259.653 240.266 253.93 241.958 249.821C242.802 247.767 243.5 246.111 244.004 244.976C244.246 244.435 244.44 244.003 244.59 243.67C244.727 243.373 244.804 243.22 244.816 243.225Z" fill="#263238"/>
<path d="M262.945 242.628C262.921 242.639 262.725 242.289 262.39 241.648C262.033 240.941 261.566 240.023 261.006 238.918L261.249 238.916C260.765 239.983 260.2 241.25 259.452 242.594C258.702 243.932 257.747 245.356 256.436 246.569L256.091 246.89L256.126 246.42C256.127 246.396 256.13 246.371 256.131 246.347C256.398 242.678 256.831 239.376 257.221 236.998C257.415 235.809 257.593 234.852 257.73 234.193C257.865 233.533 257.955 233.172 257.981 233.176C258.006 233.182 257.964 233.552 257.872 234.218C257.77 234.951 257.637 235.899 257.479 237.038C257.156 239.419 256.766 242.717 256.5 246.375C256.498 246.399 256.496 246.425 256.495 246.447L256.186 246.298C257.455 245.123 258.397 243.737 259.153 242.425C259.906 241.107 260.495 239.856 261.005 238.803L261.13 238.544L261.248 238.801C261.765 239.928 262.193 240.863 262.525 241.585C262.817 242.244 262.968 242.615 262.945 242.628Z" fill="#263238"/>
<path d="M286.286 231.531C286.297 231.54 286.226 231.639 286.082 231.82C285.908 232.033 285.695 232.292 285.441 232.604C284.872 233.275 284.039 234.237 282.972 235.392C280.844 237.709 277.778 240.798 274.155 243.949C272.511 245.383 270.896 246.707 269.389 247.881L269.116 248.094L269.11 247.747C269.064 245.028 268.55 242.684 268.004 240.946L268.18 241.013C267.063 241.653 266.156 242.174 265.477 242.563C264.844 242.918 264.495 243.102 264.483 243.082C264.47 243.062 264.797 242.842 265.409 242.451C266.074 242.038 266.962 241.485 268.056 240.804L268.183 240.726L268.232 240.871C268.826 242.614 269.386 244.98 269.454 247.74L269.175 247.608C270.666 246.425 272.27 245.099 273.91 243.671C277.522 240.528 280.609 237.478 282.779 235.212C283.87 234.082 284.732 233.149 285.332 232.508C285.608 232.213 285.837 231.969 286.023 231.77C286.187 231.605 286.277 231.523 286.286 231.531Z" fill="#263238"/>
<path d="M284.955 227.434L286.45 196.874C287.401 187.304 282.626 178.776 273.034 178.092L272.145 178.079C263.188 177.963 255.64 184.741 254.804 193.659C254.026 201.958 253.273 211.136 253.271 215.593C253.265 224.82 262.474 226.374 262.474 226.374C262.496 226.376 262.226 231.977 262.075 234.682L264.006 241.719L284.955 227.434Z" fill="#FFBF9D"/>
<path d="M262.489 226.399C262.489 226.399 268.3 226.816 274.547 223.004C274.547 223.004 271.567 229.903 262.372 228.952L262.489 226.399Z" fill="#FF9A6C"/>
<path d="M258.868 202.091C258.834 202.787 259.395 203.389 260.12 203.436C260.845 203.485 261.461 202.962 261.495 202.267C261.527 201.572 260.966 200.969 260.242 200.921C259.519 200.872 258.901 201.396 258.868 202.091Z" fill="#263238"/>
<path d="M256.729 197.445C256.891 197.618 257.898 196.893 259.316 196.914C260.732 196.917 261.763 197.659 261.919 197.488C261.996 197.413 261.833 197.1 261.384 196.764C260.942 196.429 260.186 196.1 259.303 196.092C258.419 196.085 257.673 196.4 257.242 196.729C256.802 197.058 256.65 197.366 256.729 197.445Z" fill="#263238"/>
<path d="M271.902 203.027C271.869 203.722 272.43 204.324 273.155 204.371C273.88 204.42 274.495 203.898 274.528 203.202C274.562 202.507 274.001 201.905 273.278 201.856C272.552 201.807 271.937 202.332 271.902 203.027Z" fill="#263238"/>
<path d="M270.622 197.954C270.784 198.127 271.792 197.403 273.209 197.423C274.625 197.425 275.656 198.169 275.813 197.997C275.889 197.922 275.729 197.609 275.278 197.273C274.836 196.938 274.079 196.609 273.197 196.601C272.313 196.594 271.567 196.91 271.135 197.238C270.696 197.567 270.543 197.876 270.622 197.954Z" fill="#263238"/>
<path d="M265.394 208.781C265.404 208.7 264.524 208.536 263.098 208.335C262.738 208.293 262.395 208.217 262.337 207.968C262.256 207.707 262.412 207.318 262.594 206.898C262.946 206.026 263.314 205.113 263.7 204.157C265.238 200.251 266.357 197.037 266.199 196.976C266.04 196.915 264.667 200.033 263.129 203.937C262.758 204.901 262.404 205.818 262.067 206.697C261.925 207.106 261.683 207.569 261.861 208.115C261.954 208.387 262.217 208.587 262.449 208.653C262.681 208.726 262.885 208.733 263.063 208.747C264.498 208.844 265.388 208.862 265.394 208.781Z" fill="#263238"/>
<path d="M270.221 193.513C270.409 193.877 271.79 193.514 273.464 193.5C275.139 193.452 276.533 193.763 276.707 193.392C276.783 193.216 276.504 192.887 275.919 192.585C275.338 192.284 274.442 192.043 273.438 192.06C272.433 192.08 271.547 192.355 270.978 192.676C270.404 193 270.137 193.339 270.221 193.513Z" fill="#263238"/>
<path d="M256.719 193.274C257.004 193.605 258.168 193.303 259.556 193.326C260.945 193.307 262.113 193.614 262.392 193.285C262.516 193.124 262.339 192.797 261.836 192.478C261.338 192.16 260.498 191.889 259.544 191.887C258.591 191.885 257.756 192.154 257.263 192.471C256.763 192.788 256.592 193.115 256.719 193.274Z" fill="#263238"/>
<path d="M285.626 203.38C285.783 203.313 291.988 201.587 291.705 207.892C291.421 214.195 285.151 212.611 285.148 212.43C285.145 212.249 285.626 203.38 285.626 203.38Z" fill="#FFBF9D"/>
<path d="M287.181 210.128C287.209 210.109 287.287 210.209 287.469 210.303C287.646 210.394 287.956 210.466 288.289 210.356C288.967 210.142 289.575 209.11 289.657 207.975C289.699 207.403 289.602 206.851 289.42 206.389C289.248 205.92 288.964 205.584 288.632 205.511C288.302 205.418 288.055 205.608 287.97 205.782C287.879 205.954 287.913 206.082 287.879 206.091C287.859 206.106 287.749 205.979 287.81 205.721C287.841 205.598 287.923 205.452 288.075 205.338C288.233 205.22 288.458 205.168 288.69 205.204C289.175 205.26 289.592 205.727 289.794 206.232C290.021 206.742 290.143 207.363 290.096 208.007C289.998 209.275 289.295 210.434 288.372 210.657C287.924 210.753 287.559 210.603 287.375 210.446C287.185 210.28 287.159 210.138 287.181 210.128Z" fill="#FF9A6C"/>
<path d="M242.553 184.362C242.669 183.996 242.953 183.702 243.292 183.521C244.032 183.125 244.862 183.217 245.667 183.239C247.67 183.294 249.676 182.866 251.498 182.037C250.89 181.695 250.325 181.287 249.852 180.773C248.878 179.713 248.359 178.131 248.884 176.791C248.982 176.539 249.143 176.277 249.404 176.208C249.819 176.1 250.161 176.517 250.432 176.849C251.326 177.939 252.174 178.426 253.581 178.344C254.453 178.294 255.305 178.135 256.009 177.739C256.037 177.712 256.063 177.681 256.091 177.654C256.434 177.33 256.767 177.02 257.097 176.722L257.099 176.719L257.098 176.721C259.571 174.47 261.681 172.927 263.817 172.173C266.95 171.065 272.119 170.785 275.291 171.764C278.466 172.744 281.237 175.472 281.541 178.779C283.405 177.336 286.107 177.464 288.262 178.44L288.318 178.417C290.722 179.391 291.999 182.031 292.612 184.552C292.645 184.69 292.674 184.83 292.705 184.968C293.475 186.311 294.548 187.482 295.853 188.318C296.083 188.466 296.347 188.646 296.363 188.919C296.381 189.188 296.143 189.402 295.916 189.551C295.313 189.944 294.62 190.19 293.905 190.286C294.103 190.888 294.34 191.474 294.64 192.037C294.897 192.515 295.199 193.089 294.938 193.564C294.735 193.932 294.252 194.065 293.839 193.987C293.426 193.909 293.069 193.664 292.725 193.424C292.971 194.088 293.215 194.752 293.458 195.416C292.568 195.532 291.656 195.421 290.809 195.124C290.19 197.43 289.616 201.725 288.948 203.278C287.273 203.235 286.874 203.036 286.018 203.279C284.91 203.595 285.243 205.546 283.847 204.936C283.136 204.625 282.143 201.836 281.932 201.089C280.536 196.13 280.229 190.871 281.028 185.783C280.062 184.662 278.882 183.729 277.565 183.05L277.67 183.153C275.131 182.148 272.252 181.142 269.755 182.246C267.817 183.105 266.617 185.024 265.131 186.535C262.314 189.397 259.203 190.855 255.187 190.856C254.705 193.623 254.403 198.171 254.156 200.763L252.161 195.469L252.158 195.49C251.993 195.178 251.857 194.864 251.727 194.55L251.683 194.454V194.443C251.477 193.939 251.283 193.434 251.016 192.934C251.007 192.941 250.998 192.949 250.99 192.955C249.53 194.136 247.538 192.149 248.712 190.683C248.946 190.392 249.22 190.137 249.532 189.929C248.862 190.504 247.891 190.753 247.057 190.457C246.226 190.162 245.608 189.28 245.718 188.405C245.795 187.807 246.246 187.289 246.798 187.075C245.658 187.113 244.506 186.816 243.539 186.207C242.909 185.808 242.297 185.17 242.553 184.362Z" fill="#263238"/>
<path d="M278.592 179.715C278.572 179.737 278.968 179.974 279.481 180.6C279.989 181.224 280.543 182.293 280.766 183.726C280.882 184.437 280.938 185.231 280.901 186.081C280.869 186.93 280.762 187.837 280.655 188.793C280.551 189.75 280.439 190.76 280.455 191.816C280.463 192.345 280.504 192.882 280.595 193.421C280.688 193.953 280.802 194.529 281.179 194.998C281.48 195.38 282.001 195.567 282.463 195.492C282.928 195.431 283.349 195.203 283.664 194.882C284.289 194.213 284.474 193.342 284.655 192.573L284.459 192.589C284.745 193.298 285.042 194 285.499 194.571C285.948 195.143 286.588 195.537 287.253 195.625C287.583 195.669 287.92 195.63 288.211 195.499C288.509 195.371 288.73 195.14 288.885 194.891C289.035 194.637 289.119 194.356 289.116 194.081C289.113 193.807 289.017 193.541 288.851 193.35L288.75 193.433C289.427 194.274 290.159 194.741 290.668 195.006C290.925 195.137 291.132 195.219 291.272 195.271C291.413 195.319 291.487 195.341 291.489 195.335C291.491 195.328 291.42 195.297 291.284 195.237C291.15 195.175 290.948 195.083 290.7 194.943C290.206 194.663 289.498 194.186 288.851 193.352L288.748 193.435C289.046 193.778 289.039 194.356 288.752 194.809C288.607 195.032 288.403 195.239 288.143 195.348C287.884 195.462 287.577 195.495 287.275 195.452C286.665 195.365 286.069 194.996 285.648 194.451C285.217 193.907 284.931 193.223 284.648 192.513L284.528 192.211L284.455 192.527C284.274 193.295 284.08 194.132 283.511 194.732C283.23 195.021 282.844 195.227 282.437 195.279C282.031 195.34 281.609 195.188 281.347 194.86C281.016 194.455 280.899 193.908 280.807 193.385C280.718 192.859 280.677 192.332 280.667 191.813C280.649 190.773 280.755 189.77 280.852 188.814C280.954 187.859 281.056 186.948 281.08 186.086C281.109 185.225 281.042 184.42 280.916 183.7C280.67 182.248 280.083 181.164 279.546 180.548C279.003 179.927 278.592 179.715 278.592 179.715Z" fill="#455A64"/>
<path d="M249.66 187.467C249.657 187.471 249.681 187.492 249.731 187.534C249.791 187.583 249.864 187.64 249.954 187.711C250.051 187.792 250.174 187.885 250.334 187.978C250.49 188.077 250.666 188.196 250.882 188.299C251.722 188.742 253.079 189.206 254.802 189.178C256.508 189.155 258.576 188.64 260.458 187.361C262.361 186.114 264.062 184.231 265.48 182.053C266.2 180.963 266.796 179.842 267.443 178.811C268.087 177.777 268.791 176.827 269.626 176.091C270.451 175.347 271.395 174.814 272.354 174.59C272.833 174.47 273.311 174.458 273.763 174.489C274.217 174.533 274.644 174.643 275.036 174.791C275.82 175.092 276.443 175.559 276.911 176.033C277.379 176.509 277.687 177.004 277.894 177.428C278.276 178.294 278.276 178.839 278.31 178.831C278.314 178.831 278.314 178.798 278.307 178.734C278.298 178.657 278.288 178.564 278.276 178.45C278.241 178.2 278.151 177.838 277.97 177.392C277.771 176.956 277.469 176.443 276.997 175.948C276.527 175.456 275.895 174.967 275.091 174.648C274.691 174.491 274.249 174.372 273.778 174.323C273.31 174.286 272.809 174.294 272.313 174.415C271.317 174.638 270.341 175.185 269.493 175.941C268.635 176.692 267.914 177.659 267.263 178.699C266.607 179.737 266.011 180.857 265.298 181.935C263.89 184.098 262.212 185.961 260.348 187.196C258.499 188.465 256.478 188.983 254.797 189.026C253.103 189.072 251.76 188.639 250.92 188.224C250.074 187.801 249.678 187.441 249.66 187.467Z" fill="#455A64"/>
<path d="M248.994 183.376C248.986 183.389 249.101 183.475 249.315 183.621C249.528 183.771 249.856 183.958 250.275 184.161C250.691 184.367 251.212 184.565 251.805 184.737C252.398 184.9 253.067 185.029 253.777 185.087C254.489 185.135 255.167 185.108 255.78 185.037C256.39 184.954 256.935 184.837 257.377 184.695C257.822 184.557 258.175 184.42 258.407 184.304C258.641 184.191 258.766 184.124 258.761 184.109C258.745 184.073 258.223 184.313 257.337 184.548C256.893 184.668 256.357 184.769 255.757 184.839C255.156 184.898 254.49 184.918 253.793 184.87C253.098 184.814 252.444 184.693 251.856 184.545C251.273 184.386 250.757 184.208 250.337 184.022C249.495 183.657 249.015 183.342 248.994 183.376Z" fill="#455A64"/>
<path d="M265.293 213.095C265.379 212.871 266.836 213.526 268.431 212.748C270.029 211.972 270.568 210.347 270.775 210.426C270.877 210.449 270.902 210.9 270.624 211.563C270.356 212.215 269.725 213.06 268.749 213.537C267.772 214.01 266.779 213.954 266.16 213.735C265.527 213.516 265.24 213.191 265.293 213.095Z" fill="#263238"/>
<path d="M259.803 280.272L247.961 281.152V292.48L261.344 294.078L259.803 280.272Z" fill="#FFBF9D"/>
<path d="M297.357 235.879C303.202 238.286 308.628 243.472 308.273 250.192C307.748 260.156 305.412 281.535 304.869 287.045C304.162 294.233 301.726 300.292 291.148 300.689C280.569 301.087 264.997 298.516 264.997 298.516C264.997 298.516 259.39 301.353 257.844 298.233C257.434 297.406 254.652 280.654 254.652 280.654C254.652 280.431 256.024 278.839 257.986 277.854C260.209 276.743 262.917 277.594 264.147 279.755L284.775 279.082L288.86 259.679" fill="#E0E0E0"/>
<path d="M288.862 259.679C288.862 259.679 288.849 259.794 288.808 260.015C288.763 260.248 288.7 260.574 288.617 260.999C288.439 261.878 288.179 263.156 287.844 264.812C287.154 268.151 286.151 273.002 284.888 279.105L284.87 279.194L284.779 279.197C280.549 279.344 275.679 279.512 270.286 279.699C268.937 279.746 267.556 279.792 266.143 279.841C265.79 279.853 265.435 279.864 265.079 279.877L264.542 279.895L264.272 279.905L264.204 279.907L264.172 279.909H264.154C264.18 279.928 263.888 279.759 264.01 279.827L264.005 279.819L263.934 279.709C263.567 279.118 263.068 278.591 262.458 278.221C261.256 277.462 259.645 277.291 258.289 277.9C257.61 278.199 256.963 278.62 256.36 279.091C256.059 279.327 255.77 279.582 255.496 279.853C255.36 279.99 255.227 280.129 255.103 280.274C255.038 280.346 254.983 280.421 254.925 280.494C254.879 280.55 254.811 280.689 254.816 280.655L254.814 280.628C255.469 284.52 256.165 288.614 256.929 292.852C257.127 293.91 257.327 294.977 257.528 296.054C257.636 296.589 257.74 297.131 257.867 297.66C257.933 297.938 257.977 298.154 258.144 298.372C258.221 298.474 258.27 298.601 258.367 298.685L258.647 298.948C259.482 299.582 260.662 299.596 261.734 299.404C262.822 299.219 263.899 298.83 264.91 298.353L264.967 298.327L265.023 298.338C269.216 298.999 273.643 299.559 278.158 299.986C281.283 300.273 284.379 300.479 287.432 300.531C290.475 300.567 293.518 300.548 296.33 299.688C297.723 299.247 299.032 298.584 300.146 297.692C301.258 296.798 302.162 295.67 302.799 294.417C304.075 291.897 304.509 289.104 304.758 286.411C305.885 275.581 306.911 265.832 307.608 257.629C307.783 255.579 307.935 253.625 308.057 251.776C308.122 250.851 308.176 249.953 308.159 249.09C308.142 248.657 308.079 248.236 308.041 247.818C307.967 247.406 307.875 247.004 307.794 246.608C307.377 245.038 306.675 243.673 305.875 242.535C305.074 241.394 304.192 240.467 303.352 239.688C301.633 238.164 300.076 237.258 299.011 236.695C298.479 236.405 298.056 236.219 297.774 236.089C297.494 235.957 297.352 235.879 297.352 235.879C297.352 235.879 297.503 235.933 297.79 236.052C298.078 236.172 298.506 236.349 299.045 236.628C300.125 237.172 301.7 238.062 303.447 239.58C304.303 240.356 305.202 241.285 306.02 242.433C306.838 243.578 307.56 244.958 307.994 246.554C308.079 246.956 308.175 247.366 308.253 247.785C308.292 248.21 308.36 248.64 308.378 249.08C308.402 249.965 308.35 250.865 308.291 251.791C308.177 253.642 308.035 255.598 307.867 257.651C307.204 265.859 306.206 275.615 305.096 286.444C304.848 289.146 304.42 291.986 303.111 294.58C302.458 295.869 301.523 297.042 300.37 297.969C299.216 298.894 297.866 299.58 296.436 300.032C293.554 300.915 290.474 300.932 287.423 300.897C284.357 300.845 281.254 300.639 278.12 300.352C273.596 299.926 269.167 299.363 264.96 298.697L265.073 298.679C264.018 299.175 262.932 299.566 261.793 299.762C260.683 299.955 259.405 299.969 258.423 299.23L258.095 298.923C257.985 298.822 257.926 298.681 257.838 298.563C257.655 298.34 257.571 298.002 257.515 297.743C257.385 297.199 257.282 296.659 257.174 296.119C256.973 295.042 256.774 293.972 256.577 292.912C255.819 288.669 255.13 284.575 254.482 280.681L254.478 280.66L254.479 280.653C254.526 280.422 254.594 280.404 254.652 280.297C254.715 280.214 254.778 280.131 254.846 280.057C254.977 279.901 255.116 279.757 255.258 279.616C255.543 279.334 255.841 279.074 256.152 278.831C256.778 278.345 257.434 277.917 258.155 277.6C259.611 276.952 261.337 277.14 262.619 277.954C263.269 278.352 263.8 278.915 264.191 279.548L264.264 279.665L264.27 279.673C264.395 279.745 264.103 279.585 264.137 279.601H264.154L264.188 279.6L264.255 279.598L264.525 279.588L265.062 279.572C265.418 279.56 265.773 279.549 266.126 279.539C267.539 279.495 268.921 279.452 270.269 279.41C275.664 279.245 280.532 279.096 284.764 278.966L284.655 279.057C285.961 272.964 287 268.119 287.714 264.786C288.075 263.135 288.353 261.862 288.546 260.985C288.641 260.563 288.714 260.24 288.767 260.008C288.827 259.789 288.862 259.679 288.862 259.679Z" fill="#263238"/>
<path d="M296.113 237.504C296.157 237.55 295.382 238.283 294.337 239.636C293.825 240.319 293.235 241.149 292.66 242.12C292.09 243.093 291.524 244.199 291.018 245.398C290.02 247.807 289.475 250.118 289.202 251.804C288.921 253.493 288.864 254.557 288.792 254.553C288.768 254.552 288.764 254.286 288.779 253.803C288.782 253.32 288.842 252.624 288.943 251.767C289.152 250.054 289.665 247.699 290.678 245.255C291.192 244.038 291.775 242.921 292.369 241.942C292.97 240.967 293.588 240.141 294.135 239.471C294.693 238.81 295.181 238.308 295.533 237.978C295.889 237.655 296.095 237.486 296.113 237.504Z" fill="#263238"/>
<path d="M293.666 287.756C293.599 287.772 293.446 287.047 292.968 285.973C292.497 284.899 291.632 283.498 290.336 282.261C289.033 281.031 287.589 280.241 286.493 279.826C285.394 279.405 284.664 279.289 284.675 279.222C284.679 279.197 284.864 279.209 285.196 279.252C285.531 279.287 286.007 279.396 286.582 279.58C287.158 279.758 287.817 280.05 288.514 280.441C289.2 280.848 289.919 281.362 290.593 281.993C291.258 282.634 291.809 283.324 292.25 283.989C292.677 284.664 293.003 285.307 293.211 285.873C293.424 286.436 293.559 286.906 293.612 287.238C293.669 287.567 293.69 287.751 293.666 287.756Z" fill="#263238"/>
<path d="M265.16 297.923C265.102 297.904 265.387 296.907 265.62 295.249C265.865 293.594 266.046 291.281 265.986 288.73C265.954 287.454 265.841 286.245 265.7 285.15C265.528 284.061 265.342 283.083 265.095 282.287C264.636 280.681 264.082 279.792 264.147 279.756C264.168 279.742 264.311 279.961 264.553 280.368C264.684 280.568 264.798 280.834 264.935 281.143C265.081 281.447 265.217 281.806 265.344 282.209C265.626 283.01 265.842 283.998 266.035 285.1C266.199 286.208 266.322 287.433 266.355 288.721C266.415 291.299 266.19 293.632 265.876 295.292C265.725 296.122 265.555 296.786 265.419 297.238C265.277 297.686 265.185 297.93 265.16 297.923Z" fill="#263238"/>
<path d="M184.73 255.201C184.73 255.201 185.536 253.279 187.134 252.88C187.134 252.88 195.063 254.987 197.377 257.541C197.377 257.541 197.839 255.735 202.099 252.111C207.43 247.576 213.375 247.576 213.375 247.576L217.593 250.225L200.697 262.056L195.673 263.813L184.73 255.201Z" fill="#FAFAFA"/>
<path d="M184.73 255.201C184.737 255.2 184.809 255.25 184.944 255.349C185.094 255.462 185.289 255.608 185.532 255.791C186.062 256.196 186.806 256.766 187.75 257.49C189.67 258.98 192.404 261.101 195.758 263.703L195.626 263.681C197.161 263.138 198.854 262.539 200.645 261.908L200.606 261.929C205.437 258.535 211.168 254.511 217.294 250.21L217.487 250.076L217.493 250.384C216.061 249.483 214.652 248.598 213.278 247.732L213.375 247.76C209.727 247.944 206.323 249.29 203.652 251.14C202.319 252.078 201.133 253.14 200.064 254.202C199.529 254.734 199.037 255.281 198.59 255.841C198.155 256.394 197.735 256.991 197.517 257.576L197.431 257.805L197.269 257.638C196.441 256.779 195.409 256.205 194.448 255.706C193.479 255.212 192.533 254.815 191.646 254.474C189.873 253.787 188.333 253.304 187.113 252.952H187.151C186.085 253.246 185.526 254.004 185.195 254.451C185.029 254.687 184.917 254.879 184.844 255.006C184.771 255.14 184.737 255.201 184.73 255.201C184.723 255.202 184.748 255.125 184.809 254.989C184.871 254.854 184.972 254.655 185.13 254.407C185.449 253.942 185.988 253.146 187.114 252.806L187.131 252.801L187.153 252.806C188.387 253.134 189.935 253.594 191.727 254.262C192.622 254.596 193.579 254.985 194.566 255.475C195.544 255.973 196.594 256.537 197.484 257.444L197.238 257.505C197.493 256.804 197.908 256.237 198.352 255.652C198.803 255.079 199.301 254.519 199.838 253.978C200.915 252.898 202.098 251.826 203.456 250.861C206.178 248.964 209.607 247.586 213.374 247.393L213.423 247.39L213.472 247.42C214.847 248.283 216.257 249.169 217.689 250.068L217.925 250.217L217.698 250.377L217.506 250.511C211.369 254.797 205.628 258.806 200.787 262.187L200.769 262.199L200.749 262.207C198.955 262.827 197.258 263.413 195.719 263.945L195.646 263.97L195.586 263.923C192.244 261.256 189.52 259.081 187.606 257.554C186.689 256.813 185.969 256.229 185.455 255.813C185.228 255.625 185.046 255.475 184.905 255.359C184.783 255.257 184.723 255.203 184.73 255.201Z" fill="#263238"/>
<path d="M181.946 254.875L182.425 253.917L194.316 260.54C194.316 260.54 198.226 260.301 198.306 257.668C198.306 257.668 217.777 249.528 218.257 249.767C218.737 250.007 249.939 275.943 249.939 275.943L221.769 281.95L208.681 276.183L181.946 254.875Z" fill="#FF725E"/>
<path d="M206.141 270.622C212.727 276.096 218.119 280.469 218.185 280.391C218.25 280.312 212.964 275.811 206.378 270.337C199.792 264.863 194.4 260.49 194.335 260.569C194.269 260.648 199.555 265.149 206.141 270.622Z" fill="#263238"/>
<path d="M212.027 269.512C219.533 275.909 225.671 281.031 225.737 280.954C225.803 280.876 219.772 275.628 212.266 269.231C204.76 262.835 198.622 257.712 198.556 257.79C198.49 257.867 204.521 263.116 212.027 269.512Z" fill="#263238"/>
<path d="M198.47 265.856C198.387 265.852 195.732 265.601 195.097 266.757C194.461 267.913 194.39 268.55 194.649 269.233C194.909 269.916 196.181 271.379 196.181 271.379L196.606 272.181C196.606 272.181 195.757 273.902 196.181 275.317C196.606 276.732 197.903 277.582 197.903 277.582C197.903 277.582 198.116 281.049 200.215 281.073C200.215 281.073 200.757 283.03 202.691 282.983C204.624 282.935 205.591 283.431 207.738 282.322C209.885 281.214 212.371 280.105 212.919 278.997C213.469 277.89 211.556 277.771 211.556 277.771C211.556 277.771 212.597 274.917 209.248 275.295C209.248 275.295 209.626 272.347 207.479 271.993C205.333 271.639 200.969 271.898 200.969 271.898L199.248 269.823C199.248 269.823 200.498 269.469 200.569 268.36C200.639 267.254 199.463 265.891 198.47 265.856Z" fill="#FFBF9D"/>
<path d="M242.248 277.119C242.033 277.19 239.453 278.337 237.733 278.122C236.014 277.907 222.684 270.598 220.75 270.025C218.816 269.451 215.519 270.025 217.884 272.534C220.249 275.041 227.558 279.126 227.702 279.342C227.845 279.555 228.131 280.728 228.131 280.728L220.679 277.909C220.679 277.909 215.234 275.186 214.373 276.834C213.513 278.482 214.803 279.414 216.164 279.844C217.526 280.274 219.031 280.728 219.031 280.728C219.031 280.728 220.607 283.641 222.183 284.788C223.761 285.935 230.925 290.52 232.145 291.022C233.362 291.524 248.052 292.67 248.338 292.456C248.625 292.242 248.338 281.493 248.338 281.493L243.178 276.835L242.248 277.119Z" fill="#FFBF9D"/>
<path d="M259.653 336.718C255.797 334.742 260.387 318.94 260.436 318.783C265.106 303.879 279.523 279.765 323.564 285.698L322.961 290.183C301.13 287.241 284.684 291.712 274.076 303.47C263.354 315.351 262.148 331.453 262.723 333.835C262.674 333.636 262.4 333.042 261.715 332.692L259.653 336.718Z" fill="#455A64"/>
<path d="M339.76 345.605H335.813V270.687H318.964V345.605H315.018V266.741H339.76V345.605Z" fill="#E0E0E0"/>
<path d="M339.761 345.605C339.761 345.605 339.747 345.106 339.74 344.155C339.736 343.197 339.729 341.791 339.721 339.956C339.711 336.276 339.696 330.886 339.678 324.006C339.656 310.257 339.625 290.563 339.59 266.74L339.76 266.91C332.021 266.916 323.711 266.921 315.017 266.927L315.204 266.74C315.209 289.333 315.216 314.8 315.223 341.651C315.223 342.98 315.223 344.304 315.223 345.605L315.017 345.399C316.352 345.399 317.661 345.399 318.962 345.399L318.757 345.605C318.765 318.535 318.774 293.067 318.781 270.687V270.505L318.963 270.506C324.834 270.509 330.439 270.514 335.812 270.517H335.983L335.982 270.687C335.917 308.609 335.87 335.916 335.855 345.605L335.812 345.563C337.11 345.575 338.091 345.583 338.756 345.587C339.418 345.595 339.761 345.605 339.761 345.605C339.761 345.605 339.44 345.617 338.782 345.623C338.112 345.63 337.123 345.638 335.814 345.648H335.771V345.605C335.756 335.916 335.709 308.609 335.645 270.687L335.814 270.857C330.441 270.861 324.836 270.864 318.966 270.869L319.148 270.687C319.154 293.067 319.162 318.536 319.17 345.605V345.811H318.964C317.664 345.811 316.353 345.811 315.019 345.811H314.813V345.605C314.813 344.304 314.813 342.98 314.813 341.651C314.82 314.801 314.827 289.333 314.834 266.74V266.554H315.019C323.713 266.559 332.023 266.565 339.762 266.571H339.932V266.74C339.894 290.608 339.864 310.339 339.843 324.113C339.823 330.977 339.809 336.354 339.799 340.024C339.79 341.844 339.783 343.241 339.779 344.191C339.772 345.131 339.761 345.605 339.761 345.605Z" fill="#263238"/>
<path d="M313.887 274.097V268.362C313.887 267.011 314.984 265.915 316.335 265.915H338.443C339.794 265.915 340.892 267.011 340.892 268.362V274.097H334.856V271.028H320.024V274.097H313.887Z" fill="#263238"/>
<path d="M316.961 310.174C317.747 310.174 318.384 310.081 318.384 309.966C318.384 309.852 317.747 309.76 316.961 309.76C316.175 309.76 315.538 309.852 315.538 309.966C315.538 310.081 316.175 310.174 316.961 310.174Z" fill="#263238"/>
<path d="M316.961 314.834C317.747 314.834 318.384 314.741 318.384 314.628C318.384 314.514 317.747 314.422 316.961 314.422C316.175 314.422 315.538 314.514 315.538 314.628C315.538 314.741 316.175 314.834 316.961 314.834Z" fill="#263238"/>
<path d="M316.991 309.136C317.221 309.136 317.408 308.95 317.408 308.719C317.408 308.488 317.221 308.302 316.991 308.302C316.76 308.302 316.573 308.488 316.573 308.719C316.573 308.95 316.76 309.136 316.991 309.136Z" fill="#263238"/>
<path d="M337.757 310.174C338.543 310.174 339.18 310.081 339.18 309.966C339.18 309.852 338.543 309.76 337.757 309.76C336.972 309.76 336.334 309.852 336.334 309.966C336.334 310.081 336.972 310.174 337.757 310.174Z" fill="#263238"/>
<path d="M337.757 314.834C338.543 314.834 339.18 314.741 339.18 314.628C339.18 314.514 338.543 314.422 337.757 314.422C336.972 314.422 336.334 314.514 336.334 314.628C336.334 314.741 336.972 314.834 337.757 314.834Z" fill="#263238"/>
<path d="M337.787 309.136C338.017 309.136 338.204 308.95 338.204 308.719C338.204 308.488 338.017 308.302 337.787 308.302C337.556 308.302 337.369 308.488 337.369 308.719C337.369 308.95 337.556 309.136 337.787 309.136Z" fill="#263238"/>
<path d="M340.934 330.288C340.61 330.455 339.758 329.089 337.88 327.539C336.046 325.992 332.976 324.325 329.386 324.264C325.793 324.226 322.679 325.807 320.803 327.304C318.884 328.802 317.994 330.144 317.675 329.968C317.42 329.858 317.803 328.135 319.675 326.084C320.599 325.069 321.911 324.028 323.572 323.227C325.228 322.425 327.252 321.897 329.418 321.913C331.582 321.957 333.592 322.54 335.224 323.388C336.863 324.234 338.145 325.31 339.042 326.351C340.856 328.453 341.19 330.186 340.934 330.288Z" fill="#263238"/>
<path d="M350.286 424.106H304.17C299.054 424.106 294.907 419.957 294.907 414.841V339.081C294.907 333.964 299.054 329.816 304.17 329.816H350.286C355.404 329.816 359.551 333.964 359.551 339.081V414.841C359.552 419.957 355.405 424.106 350.286 424.106Z" fill="#FF725E"/>
<path d="M350.287 424.106C350.274 424.037 351.378 424.197 353.282 423.55C354.223 423.226 355.351 422.653 356.431 421.667C357.517 420.699 358.529 419.279 359.075 417.462C359.645 415.642 359.39 413.485 359.44 411.167C359.434 408.842 359.427 406.318 359.419 403.605C359.409 398.176 359.398 391.997 359.385 385.169C359.376 378.337 359.366 370.856 359.357 362.825C359.352 358.809 359.348 354.655 359.345 350.377C359.343 348.237 359.341 346.068 359.339 343.868C359.339 342.767 359.338 341.661 359.337 340.546C359.328 339.424 359.379 338.315 359.147 337.236C358.7 335.075 357.413 333.072 355.577 331.754C354.663 331.093 353.62 330.602 352.514 330.324C351.405 330.028 350.26 330.026 349.067 330.037C344.341 330.039 339.514 330.041 334.601 330.044C324.772 330.045 314.598 330.047 304.177 330.048C301.627 330.032 299.135 331.172 297.464 333.044C296.625 333.975 295.982 335.079 295.594 336.262C295.183 337.455 295.109 338.683 295.139 339.961C295.139 345.036 295.137 350.038 295.137 354.954C295.131 364.783 295.126 374.264 295.122 383.297C295.114 392.328 295.107 400.91 295.1 408.943C295.098 410.951 295.096 412.926 295.094 414.862C295.109 416.764 295.703 418.614 296.773 420.099C297.832 421.588 299.317 422.728 300.961 423.336C301.776 423.664 302.637 423.828 303.49 423.899C304.338 423.966 305.219 423.923 306.068 423.937C319.72 423.969 330.771 423.995 338.422 424.012C342.232 424.031 345.195 424.046 347.218 424.056C348.215 424.066 348.978 424.074 349.505 424.08C350.024 424.09 350.287 424.106 350.287 424.106C350.287 424.106 350.024 424.122 349.509 424.13C348.98 424.135 348.217 424.143 347.221 424.153C345.198 424.165 342.236 424.178 338.425 424.197C330.774 424.215 319.724 424.242 306.071 424.272C305.212 424.26 304.363 424.305 303.467 424.242C302.583 424.17 301.688 424.002 300.84 423.664C299.132 423.036 297.585 421.857 296.48 420.312C295.364 418.772 294.737 416.844 294.719 414.866C294.716 412.928 294.714 410.953 294.71 408.946C294.703 400.913 294.697 392.331 294.689 383.299C294.684 374.267 294.679 364.786 294.674 354.956C294.674 350.04 294.672 345.039 294.671 339.963C294.639 338.71 294.715 337.354 295.147 336.119C295.557 334.873 296.231 333.714 297.115 332.734C298.87 330.765 301.496 329.564 304.176 329.581C314.598 329.583 324.771 329.584 334.599 329.587C339.513 329.588 344.339 329.59 349.066 329.592C350.232 329.581 351.463 329.583 352.622 329.897C353.782 330.19 354.878 330.706 355.836 331.4C357.759 332.784 359.106 334.886 359.571 337.153C359.813 338.293 359.759 339.446 359.765 340.549C359.765 341.663 359.764 342.771 359.763 343.871C359.761 346.071 359.76 348.241 359.759 350.381C359.754 354.659 359.75 358.812 359.745 362.829C359.736 370.859 359.725 378.34 359.717 385.172C359.704 392.001 359.693 398.18 359.683 403.608C359.676 406.32 359.669 408.845 359.664 411.171C359.659 412.332 359.657 413.445 359.652 414.505C359.645 415.567 359.543 416.596 359.251 417.517C358.681 419.367 357.635 420.802 356.525 421.775C355.417 422.764 354.269 423.33 353.312 423.643C352.351 423.962 351.581 424.057 351.067 424.093C350.553 424.108 350.287 424.106 350.287 424.106Z" fill="#263238"/>
<path d="M308.047 433.22C310.301 433.22 312.129 431.393 312.129 429.138C312.129 426.884 310.301 425.056 308.047 425.056C305.792 425.056 303.965 426.884 303.965 429.138C303.965 431.393 305.792 433.22 308.047 433.22Z" fill="#455A64"/>
<path d="M294.906 359.676H294.71C292.079 359.676 289.946 357.542 289.946 354.911C289.946 352.28 292.079 350.147 294.71 350.147H294.906V359.676Z" fill="#263238"/>
<path d="M294.906 403.454H294.71C292.079 403.454 289.946 401.321 289.946 398.69C289.946 396.059 292.079 393.925 294.71 393.925H294.906V403.454Z" fill="#263238"/>
<path d="M305.439 424.105L306.579 430.097H309.412L310.656 424.105H305.439Z" fill="#263238"/>
<path d="M308.047 431.222C309.198 431.222 310.131 430.289 310.131 429.138C310.131 427.987 309.198 427.053 308.047 427.053C306.896 427.053 305.962 427.987 305.962 429.138C305.962 430.289 306.896 431.222 308.047 431.222Z" fill="#263238"/>
<path d="M349.062 433.219C351.316 433.219 353.143 431.392 353.143 429.138C353.143 426.884 351.316 425.057 349.062 425.057C346.808 425.057 344.981 426.884 344.981 429.138C344.981 431.392 346.808 433.219 349.062 433.219Z" fill="#455A64"/>
<path d="M346.454 424.105L347.593 430.097H350.426L351.67 424.105H346.454Z" fill="#263238"/>
<path d="M349.062 431.222C350.213 431.222 351.146 430.289 351.146 429.138C351.146 427.987 350.213 427.053 349.062 427.053C347.91 427.053 346.977 427.987 346.977 429.138C346.977 430.289 347.91 431.222 349.062 431.222Z" fill="#263238"/>
<path d="M359.552 349.762C359.552 349.891 345.08 349.998 327.231 349.998C309.376 349.998 294.907 349.891 294.907 349.762C294.907 349.632 309.376 349.527 327.231 349.527C345.08 349.527 359.552 349.632 359.552 349.762Z" fill="#263238"/>
<path d="M359.552 347.302C359.552 347.431 345.08 347.537 327.231 347.537C309.376 347.537 294.907 347.431 294.907 347.302C294.907 347.172 309.376 347.067 327.231 347.067C345.08 347.067 359.552 347.172 359.552 347.302Z" fill="#263238"/>
<path d="M359.552 368.362C359.552 368.492 345.08 368.597 327.231 368.597C309.376 368.597 294.907 368.492 294.907 368.362C294.907 368.233 309.376 368.128 327.231 368.128C345.08 368.128 359.552 368.233 359.552 368.362Z" fill="#263238"/>
<path d="M359.552 365.903C359.552 366.032 345.08 366.137 327.231 366.137C309.376 366.137 294.907 366.032 294.907 365.903C294.907 365.773 309.376 365.667 327.231 365.667C345.08 365.667 359.552 365.773 359.552 365.903Z" fill="#263238"/>
<path d="M359.552 386.964C359.552 387.094 345.08 387.199 327.231 387.199C309.376 387.199 294.907 387.094 294.907 386.964C294.907 386.835 309.376 386.729 327.231 386.729C345.08 386.729 359.552 386.834 359.552 386.964Z" fill="#263238"/>
<path d="M359.552 384.504C359.552 384.634 345.08 384.739 327.231 384.739C309.376 384.739 294.907 384.634 294.907 384.504C294.907 384.375 309.376 384.27 327.231 384.27C345.08 384.27 359.552 384.374 359.552 384.504Z" fill="#263238"/>
<path d="M359.552 405.565C359.552 405.695 345.08 405.8 327.231 405.8C309.376 405.8 294.907 405.695 294.907 405.565C294.907 405.435 309.376 405.329 327.231 405.329C345.08 405.329 359.552 405.435 359.552 405.565Z" fill="#263238"/>
<path d="M359.552 403.105C359.552 403.235 345.08 403.34 327.231 403.34C309.376 403.34 294.907 403.235 294.907 403.105C294.907 402.976 309.376 402.87 327.231 402.87C345.08 402.87 359.552 402.976 359.552 403.105Z" fill="#263238"/>
<path d="M332.883 354.922H319.59V358.282H332.883V354.922Z" fill="white"/>
<path d="M332.905 358.306H319.566V354.899H332.905V358.306ZM319.611 358.26H332.861V354.946H319.611V358.26Z" fill="#263238"/>
<g opacity="0.2">
<path d="M359.551 347.302H294.906V348.838H359.551V347.302Z" fill="black"/>
</g>
<g opacity="0.2">
<path d="M359.551 365.825H294.906V367.361H359.551V365.825Z" fill="black"/>
</g>
<g opacity="0.2">
<path d="M359.551 384.324H294.906V385.859H359.551V384.324Z" fill="black"/>
</g>
<g opacity="0.2">
<path d="M359.551 402.821H294.906V404.357H359.551V402.821Z" fill="black"/>
</g>
</g>
</svg>
