<svg width="353" height="601" viewBox="0 0 353 601" fill="none" xmlns="http://www.w3.org/2000/svg">
<path fill-rule="evenodd" clip-rule="evenodd" d="M93.7751 379.098C99.6841 384.098 94.8521 398.531 93.1441 404.961C92.2171 408.511 91.6001 412.187 89.7891 415.424C88.1071 419.303 86.69 423.377 83.918 426.651C82.26 429.229 80.4561 431.783 78.0231 433.698C76.0261 435.454 73.4481 436.679 71.0491 437.632C68.1931 438.9 65.096 439.631 61.959 439.486C58.079 439.608 54.553 437.437 51.698 434.993C50.022 433.348 47.6011 431.619 48.1021 428.963C48.2911 427.834 48.8581 426.846 49.4371 425.881C50.9591 423.387 52.4721 420.893 54.0811 418.456C57.2391 413.719 60.5041 409.052 63.9711 404.534C68.1481 399.713 87.6781 374.898 93.7751 379.098Z" fill="#2B2B2B"/>
<path fill-rule="evenodd" clip-rule="evenodd" d="M315.985 600.064C316.599 596.021 315.918 591.987 315.696 587.947C315.179 581.153 314.663 574.366 313.817 567.61C313.453 563.689 313.555 559.966 313.298 555.991C313.277 554.815 312.956 553.599 313.176 552.434C313.367 551.977 313.573 551.499 313.379 551.006C313.376 550.999 313.375 550.987 313.369 550.98C314.442 550.356 315.513 549.393 316.201 548.939C317.37 547.948 318.673 547.073 319.647 545.875C321.022 542.718 322.445 539.532 323.67 536.29C324.57 533.82 325.613 531.348 325.797 528.695C325.901 527.351 325.886 525.996 325.963 524.648C326.36 520.649 326.098 516.632 325.625 512.647C325.011 509.307 325.294 505.919 325.043 502.548C324.722 498.714 324.006 494.928 323.654 491.097C323.396 488.064 323.369 485.059 323.268 482.005C323.072 477.113 322.651 472.195 322.604 467.283C322.242 460.755 321.458 454.252 321.045 447.729C321.026 441.339 321.243 434.865 321.168 428.466C321.122 423.845 321.527 419.232 321.594 414.612C322.168 414.591 322.727 414.359 323.086 413.897C327.09 413.538 331.098 413.577 335.098 414.012C336.135 414.123 337.558 414.155 338.684 414.065C340.082 414.059 341.658 414.299 343.094 414.073C353.895 412.694 352.751 399.878 351.622 391.8C351.064 388.325 350.768 384.827 350.076 381.38C349.624 377.598 349.15 373.808 348.188 370.054C347.723 366.144 347.553 361.972 347.022 358.031C345.981 347.527 344.961 337.023 344.057 326.511C343.541 317.856 342.988 309.182 340.837 300.746C339.788 296.252 339.142 291.665 337.718 287.267C336.807 284.672 335.568 282.411 334.625 279.773C333.36 277.313 332.289 274.764 331.111 272.264C329.254 269.012 326.663 266.296 324.11 263.587C323.119 262.425 322.008 261.38 320.759 260.499C319.649 259.887 317.751 257.517 316.326 257.877C313.804 256.164 311.085 254.781 308.278 253.38C304.878 251.663 301.513 249.873 298.055 248.281C293.018 245.511 287.751 243.206 282.403 241.116C277.278 238.947 272.238 236.561 267.141 234.317C263.272 232.299 259.188 230.722 255.403 228.549C252.88 227.433 250.659 225.883 249.287 223.387C247.511 220.322 246.298 216.686 244.196 213.745C240.934 208.871 234.8 207.371 229.24 208.274C225.246 208.555 221.245 208.475 217.261 208.05C213.931 207.616 210.751 207.282 207.279 207.035C205.221 206.971 203.085 206.681 200.971 206.636C201.055 206.427 201.074 206.184 201.006 205.888C200.213 203.669 197.475 205.785 196.017 206.344C192.898 207.685 191.798 211.024 189.886 213.558C188.269 215.833 186.415 218.333 184.116 220.126C180.321 223.214 175.466 223.814 170.94 225.448C168.038 226.299 165.397 227.796 162.642 229.011C159.886 230.273 156.879 231.265 154.124 232.575C146.743 235.747 139.538 239.329 132.054 242.247C121.741 246.235 111.87 251.475 103.037 258.149C98.6149 261.408 95.4739 265.989 91.7529 269.96C88.9749 272.911 86.4269 276.061 83.7809 279.132C79.1339 284.595 74.5069 290.075 69.8849 295.558C69.4189 296.111 69.4989 296.96 70.0499 297.422C70.4839 297.782 71.0979 297.815 71.5659 297.543C69.4459 301.402 67.3749 305.292 66.0159 309.487C63.3409 318.07 63.8769 327.198 63.5859 336.086C63.6819 338.198 63.6819 340.33 64.0339 342.421C64.8579 345.749 66.3699 348.869 67.6069 352.058C70.5649 359.658 75.9359 366.147 78.2529 374.013C79.8229 380.543 81.1419 387.158 82.2629 393.781C83.3369 401.005 83.8028 408.299 83.3918 415.62C83.0238 418.573 82.3619 421.477 81.5909 424.348C81.4259 425.82 79.9289 428.38 82.0709 428.979C84.2289 429.134 85.1999 425.149 86.2169 423.618C87.9849 420.43 89.5849 417.028 91.4359 413.868C92.9619 410.952 94.5749 408.073 96.1919 405.187C96.2859 406.519 96.3699 407.851 96.4609 409.182C97.2989 417.578 97.4259 426.083 97.2599 434.545C97.3789 444.591 97.8848 454.667 97.1888 464.781C97.2718 472.635 96.9408 480.705 96.5428 488.601C96.2448 494.077 96.4949 499.573 96.0659 505.044C95.7769 510.166 94.9169 515.288 95.3529 520.423C95.9779 528.75 97.5989 537.011 101.272 544.561C102.459 547.28 103.73 549.985 105.379 552.456C106.943 554.725 108.706 557.076 108.608 559.994C108.663 562.894 108.017 565.744 107.943 568.643C107.775 572.746 107.499 576.839 107.104 580.923C106.919 584.593 106.458 588.229 106.1 591.881C106.03 594.766 105.826 597.648 105.682 600.529H315.972C315.981 600.376 315.983 600.22 315.985 600.064Z" fill="#E9E9E9"/>
<path fill-rule="evenodd" clip-rule="evenodd" d="M319.99 382.648L108.669 381.74L125.003 340.906L128.032 315.637H321.99V346.239L319.99 382.648Z" fill="#ED1D24" stroke="#020202" stroke-width="2" stroke-miterlimit="10"/>
<path fill-rule="evenodd" clip-rule="evenodd" d="M321.587 381.648L105.266 380.74L119.946 346.157L323.395 348.752L321.587 381.648Z" fill="white"/>
<path fill-rule="evenodd" clip-rule="evenodd" d="M105.998 176.545C106.377 180.564 106.271 184.762 104.921 188.603C102.937 194.597 97.7451 198.571 93.8501 203.29C90.3771 207.552 86.7232 211.765 84.1692 216.677C83.6242 217.68 83.0751 218.667 82.5501 219.656C81.7221 225.954 81.4892 232.321 81.2572 238.688C80.9892 247.448 80.5751 256.205 80.4961 264.968C80.1071 276.87 78.5201 288.673 77.6151 300.536C76.7291 314.269 75.7821 328.005 73.9261 341.64C73.3791 346.282 73.0611 350.95 72.7181 355.614C74.6111 358.892 76.3141 362.302 77.6251 365.842C80.5721 372.314 82.4172 379.162 83.6692 386.148C84.9372 392.519 86.8852 399.205 84.8302 405.612C83.1852 409.985 79.7701 413.411 77.0891 417.161C73.1671 422.004 69.5061 427.051 65.5531 431.867C63.4391 434.622 61.1741 437.247 59.0521 439.996C56.9881 442.606 54.8631 445.213 52.1891 447.232C46.9631 450.925 40.7352 454.527 34.1112 453.773C25.2672 453.589 16.4221 449.909 10.4371 443.316C4.2211 436.54 1.23211 427.381 0.369108 418.351C-0.347892 412.955 0.0601419 407.251 0.904142 401.979C2.04214 391.664 3.55816 381.406 5.47616 371.209C6.33716 364.43 8.41408 357.873 9.53708 351.144C11.0361 343.265 12.0821 335.31 13.6831 327.452C14.9541 318.618 16.5591 309.842 18.3521 301.098C19.5691 295.272 20.1282 289.092 20.7372 283.291C21.9382 274.212 24.0781 265.25 24.5581 256.079C25.5671 248.881 26.5641 241.678 26.7771 234.391C26.6981 230.562 26.6181 226.721 26.3631 222.904C25.9911 222.3 26.1372 221.49 26.7372 221.091C26.7652 221.076 26.7911 221.065 26.8191 221.057C26.8071 221.019 26.7951 220.981 26.7771 220.943C26.0321 219.086 24.8682 217.456 23.8152 215.765C20.8772 210.663 17.4231 206.093 15.5011 200.524C12.7001 192.779 11.8022 183.851 15.5912 176.277C16.5292 174.589 17.6331 172.971 18.9571 171.57C19.9411 170.666 21.1901 170.107 22.3281 169.42C23.4671 168.759 24.6261 168.044 25.9011 167.772C25.9701 167.152 26.1921 166.488 26.2951 165.971C26.7551 163.873 27.4001 161.83 28.3021 159.881C30.1811 155.311 33.9551 151.819 38.3901 149.757C39.2381 149.32 40.7141 148.533 42.0941 148.173C42.0451 147.888 42.1001 147.572 42.2981 147.258C47.3041 138.645 57.5631 137.912 66.0811 141.263C68.0241 142.156 69.8191 143.36 71.5381 144.656C71.5711 140.731 71.4321 136.8 71.6341 132.872C71.5891 127.383 72.3542 121.938 72.6842 116.465C72.9222 113.703 73.5311 110.99 74.0991 108.278C75.0781 102.382 77.2821 95.4529 83.7601 93.7889C89.0081 92.7699 90.5251 95.3349 92.2491 99.7799C92.8541 102.245 92.4412 104.837 92.4762 107.347C92.7372 114.177 91.9391 120.977 91.8381 127.803C91.5411 131.925 91.8971 135.815 91.7501 139.899C91.5281 145.83 91.3961 151.881 91.3921 157.751C91.3941 157.693 91.3941 157.637 91.3941 157.584C91.3921 158.525 91.3861 159.441 91.3831 160.349C93.1231 160.793 94.9871 161.595 95.7981 161.755C99.1931 162.829 101.528 165.766 103.126 168.81C104.454 171.223 105.582 173.798 105.998 176.545Z" fill="#F5BC8B"/>
<path fill-rule="evenodd" clip-rule="evenodd" d="M352.24 595.332C351.978 587.839 351.208 580.332 351.115 572.822C350.676 566.642 350.941 560.48 351.405 554.311C351.58 546.621 351.648 538.92 351.777 531.228C352.156 525.554 351.792 519.892 351.264 514.238C350.993 507.889 350.693 501.287 350.117 494.915C349.669 490.524 349.62 485.798 349.555 481.335C349.065 474.169 348.897 466.977 348.453 459.806C347.803 451.133 347.145 442.591 346.274 433.878C345.987 428.76 345.493 423.33 344.344 418.272C343.938 416.129 343.915 413.535 341.941 412.174C340.725 411.48 339.255 411.748 337.921 411.766C334.198 411.78 330.48 411.593 326.768 411.981C323.87 412.102 319.237 411.895 318.58 415.641C317.697 419.579 318.728 423.633 319.056 427.59C319.578 432.748 325.075 512.932 324.923 516.778C324.818 523.358 324.585 530.21 321.923 536.32C320.622 539.512 318.98 542.6 317.276 545.662C314.079 550.298 311.69 551.806 312.005 557.996C312.296 563.427 311.761 568.863 312.161 574.287C312.401 578.092 313.121 581.835 313.495 585.625C313.792 590.644 314.396 595.537 314.732 600.533H352.447" fill="#F5BC8B"/>
<path fill-rule="evenodd" clip-rule="evenodd" d="M306.281 109.361C302.489 104.119 294.747 103.013 289.208 105.996C288.905 102.505 287.819 99.23 287.499 95.693C287.106 88.805 286.52 81.8881 284.656 75.2201C283.872 72.2531 283.217 69.188 281.709 66.487C274.11 55.292 255.233 52.5261 242.646 51.6681C237.417 51.1701 232.206 50.3961 226.942 50.3501C219.358 50.2331 211.735 50.2781 204.2 49.1841C199.426 48.2611 194.828 46.5091 189.983 45.9361C184.932 45.4761 179.708 45.1 174.763 46.471C165.008 49.286 156.887 56.9791 153.642 66.6141C151.188 72.4911 150.403 78.8801 149.104 85.0761C148.606 89.9541 149.305 94.8771 149.065 99.7701C149.118 103.059 147.876 106.026 146.681 109.02C145.952 108.849 145.172 108.811 144.442 108.773C143.582 108.815 142.8 109.149 142.054 109.571C140.943 109.844 139.88 110.346 138.938 111.098C136.282 112.701 135.155 115.421 134.783 118.32C134.777 118.339 134.775 118.358 134.77 118.381C133.595 123.916 134.954 129.774 137.929 134.527C139.435 136.597 141.246 138.451 143.04 140.271C145.766 143.268 149.501 143.389 153.273 143.375C158.127 143.23 162.647 156.466 164.285 160.459C165.177 162.924 166.556 165.161 167.798 167.463C169.056 169.937 170.385 172.383 171.956 174.678C177.15 182.541 184.437 189.323 193.239 192.889C195.283 193.759 196.444 193.717 197.128 195.359C196.818 198.292 196.565 201.236 196.3 204.176C196.343 205.395 195.515 207.165 196.754 207.993C196.767 209.137 197.453 210.075 198.009 211.021C198.909 212.696 200.172 214.109 201.517 215.435C204.414 218.619 208.18 220.814 211.851 222.991C214.858 227.109 217.397 231.576 219.394 236.268C219.859 237.355 220.304 238.475 221.058 239.383C221.812 240.294 222.948 240.982 224.124 240.872C226.079 240.689 227.177 238.589 227.918 236.765C230.026 231.579 232.136 226.391 234.245 221.198C234.721 220.522 235.18 219.857 235.63 219.25C237.083 216.975 238.978 214.505 239.737 211.818C240.746 206.789 240.525 201.623 240.516 196.502C244.847 194.484 249.487 193.106 253.493 190.45C257.375 187.707 260.932 184.452 264.317 181.112C269.256 175.46 273.46 169.108 276.708 162.335C281.453 153.837 283.109 144.131 287.385 135.404C290.036 134.633 292.859 134.55 295.456 133.596C302.159 131.062 307.38 124.767 307.571 117.462C307.576 114.832 308.143 111.603 306.281 109.361Z" fill="#F5BC8B"/>
<path fill-rule="evenodd" clip-rule="evenodd" d="M307.693 41.8372C308.47 47.1512 307.239 52.5262 304.768 57.2522C302.91 60.7742 301.196 64.5312 297.99 67.0582C297.096 67.8482 296.134 68.5392 295.145 69.1892C295.535 69.9602 295.841 70.6551 296.043 71.1071C297.441 74.1811 297.31 77.7971 296.796 81.0341C296.802 82.3941 295.495 83.7842 296.27 85.0382C297.548 87.0782 298.824 89.2021 299.135 91.6331C299.7 95.0821 298.754 98.5672 297.191 101.632C295.901 104.124 293.81 106.107 292.489 108.572C291.671 110.399 291.604 112.299 291.144 114.183C290.824 116.648 290.354 120.139 286.998 119.474C285.701 119.204 285.152 117.89 284.826 116.744C283.556 113.006 285.239 108.55 282.947 105.127C280.715 100.914 278.581 96.8872 276.708 92.5532C275.219 88.8232 274.264 84.8672 273.566 80.9202C272.463 77.4222 272.306 73.7402 272.114 70.0902C271.552 70.6112 270.969 71.1012 270.379 71.5832C268.544 73.1822 266.411 74.3212 264.217 75.3322C262.03 76.4192 259.604 77.5242 257.291 78.1742C254.176 79.2872 250.922 79.6212 247.672 80.0092C245.46 80.3972 243.212 80.5142 240.969 80.4112C231.148 79.9252 221.417 77.3802 212.572 73.1062C206.448 70.0172 200.673 66.2791 194.442 63.3881C191.676 61.7321 188.688 60.5921 185.696 59.4221C183.289 58.2171 180.91 57.8752 178.299 57.6292C177.093 57.4842 175.832 57.6822 174.745 58.2332C174.268 58.5752 173.821 59.1981 173.334 59.6721C173.282 59.7751 173.233 59.8811 173.187 59.9871C172.804 61.7541 172.593 63.3802 172.417 65.1502C172.272 67.8202 171.758 70.3732 171.282 72.9572C169.81 80.2172 166.036 86.6712 162.23 92.9202C159.363 97.5512 157.822 102.843 157.23 108.199C156.807 112.697 157.032 117.221 156.985 121.726C156.923 123.85 157.122 125.977 157.057 128.089C157.107 129.658 155.492 130.76 154.035 130.208C153.067 129.837 152.669 128.762 152.352 127.864C150.78 123.922 151.712 119.298 149.464 115.591C148.513 114.295 147.407 113.113 146.194 112.066C144.406 110.862 142.715 109.521 141.635 107.61C135.994 99.9702 134.557 89.0982 138.758 80.4742C137.344 77.0482 136.791 70.6542 136.756 68.9972C136.144 62.9042 136.919 56.7622 138.99 51.0022C140.812 46.1962 144.1 42.3752 148.039 39.1692C149.66 36.8362 151 34.2872 153.047 32.2772C155.381 30.0132 158.078 28.1022 160.948 26.5792C166.99 23.2252 173.781 21.7172 180.275 19.5172C184.315 17.8872 188.074 15.6262 191.871 13.5072C197.578 10.1412 203.278 6.69915 209.489 4.33615C217.063 1.40315 225.256 -0.184822 233.385 0.0171777C239.772 0.743178 246.058 3.06016 251.3 6.79416C254.16 8.75816 256.323 11.4932 258.644 14.0382C259.292 14.7152 259.966 15.3792 260.675 15.9982C261.59 16.3482 262.513 16.6712 263.453 16.9362C265.637 17.3472 267.862 17.3392 270.073 17.3842C273.608 17.4602 277.135 17.0662 280.671 17.1002C283.091 17.0732 285.556 16.9292 287.896 17.6622C301.286 22.0072 306.393 27.5912 307.693 41.8372Z" fill="#594144"/>
<path fill-rule="evenodd" clip-rule="evenodd" d="M178.416 39.4932C175.789 38.1132 180.319 34.3521 181.544 33.2971C182.837 32.2301 184.346 31.4662 185.93 30.9902C189.624 29.7982 193.348 28.3812 197.227 27.9932C200.694 28.1072 204.165 27.9591 207.627 28.2291C213.324 28.8551 218.985 29.8321 224.7 30.3101C228.156 30.3061 231.617 30.4101 235.069 30.1811C240.607 29.6721 246.16 28.1602 250.824 25.0792C252.908 23.5632 255.06 22.1312 257.035 20.4752C257.587 20.0112 258.46 20.1521 258.891 20.7061C259.341 21.2871 259.212 22.1011 258.66 22.5601C257.621 23.4271 256.533 24.2621 255.417 25.0341C251.122 28.3851 246.191 30.9451 240.806 31.9631C235.395 33.2361 229.795 32.9891 224.281 32.9321C218.083 32.4191 211.956 31.2392 205.757 30.7482C202.797 30.7102 199.836 30.6681 196.877 30.6451C192.728 31.4731 188.621 32.7191 184.702 34.3071C183.021 35.3631 181.51 36.6692 180.382 38.3112C180.048 39.1022 179.337 39.8802 178.416 39.4932Z" fill="#3E1D1F"/>
<path fill-rule="evenodd" clip-rule="evenodd" d="M290.08 67.3959C282.854 64.2079 278.932 57.0779 274.293 51.1139C268.753 45.4919 261.561 41.3509 253.614 40.7699C250.23 40.2759 246.823 39.7969 243.401 40.1539C241.689 40.1699 241.6 37.6009 243.349 37.5099C246.33 37.2099 249.312 37.4639 252.261 37.9159C255.191 38.3909 258.215 38.5549 261.03 39.5459C266.987 41.5249 272.305 45.2059 276.597 49.7539C278.407 52.0819 279.974 54.4939 281.779 56.7699C283.635 59.0419 285.414 61.4849 287.908 63.1069C289.033 63.8289 290.209 64.4709 291.387 65.0939C292.864 65.9629 291.623 68.2119 290.08 67.3959Z" fill="#3E1D1F"/>
<path fill-rule="evenodd" clip-rule="evenodd" d="M265.96 63.2472C255.359 62.8292 244.933 59.2053 236.246 53.1313C232.926 51.0293 229.582 48.9482 226.56 46.4222C220.005 43.0982 212.973 40.0473 205.505 40.1153C204.817 39.8993 204.359 39.2422 204.54 38.5122C204.971 37.0612 206.791 37.5283 207.938 37.5433C215.106 38.0943 221.914 41.0042 228.192 44.3352C231.842 47.4242 236.04 49.7412 239.96 52.4502C244.553 55.3482 249.65 57.4152 254.857 58.9112C258.552 60.0622 262.419 60.3323 266.253 60.6133C267.95 60.8353 267.708 63.3982 265.96 63.2472Z" fill="#3E1D1F"/>
<path fill-rule="evenodd" clip-rule="evenodd" d="M144.682 79.7493C143.689 79.2403 143.859 77.5803 144.971 77.3263C146.513 77.0173 147.773 76.8123 149.215 76.3303C155.791 73.4853 161.07 68.3303 165.028 62.4453C165.841 61.0323 168.113 62.0053 167.517 63.5773C164.154 68.2423 160.386 72.9413 155.366 75.9313C153.098 77.3633 150.789 78.8783 148.11 79.3723C146.933 79.5223 145.78 80.1753 144.682 79.7493Z" fill="#3E1D1F"/>
<path fill-rule="evenodd" clip-rule="evenodd" d="M292.061 89.6003C288.811 88.4463 285.337 87.2643 282.638 85.0573C281.622 84.0883 280.818 82.9293 280.103 81.8773C279.449 80.8853 278.918 79.8113 278.299 78.7963C277.629 78.1083 277.961 76.8433 278.899 76.6043C280.208 76.2703 280.782 77.7513 281.276 78.6643C282.359 80.5293 283.47 82.5163 285.273 83.7623C287.456 85.0623 289.851 85.9893 292.215 86.9003C294.271 87.1003 294.14 89.8813 292.061 89.6003Z" fill="#3E1D1F"/>
<path fill-rule="evenodd" clip-rule="evenodd" d="M147.048 135.137C144.968 133.287 143.976 130.639 145.284 128.03C145.744 127.095 146.339 126.165 146.302 125.082C146.052 123.042 143.908 120.851 141.758 121.394C141.278 121.887 140.869 122.576 140.044 122.389C138.654 122.07 138.726 120.475 139.706 119.7C140.508 118.784 141.764 118.538 142.926 118.716C145.42 118.796 147.386 120.832 148.443 122.948C149.073 124.232 149.063 125.721 148.636 127.07C148.236 128.331 147.282 129.421 147.32 130.811C147.368 132.392 150.128 133.368 148.911 134.998C148.454 135.528 147.572 135.627 147.048 135.137Z" fill="#DA7F5B"/>
<path fill-rule="evenodd" clip-rule="evenodd" d="M291.707 126.343C291.305 125.758 291.446 124.899 292.048 124.5C296.12 121.742 290.856 116.967 294.872 113.18C296.457 111.496 297.677 110.357 300.11 111.072C301.2 111.181 302.545 111.941 302.377 113.211C302.191 114.335 300.651 114.669 299.988 113.746C299.557 113.651 299.12 113.583 298.681 113.526C298.615 113.518 298.548 113.514 298.483 113.506C294.146 116.336 296.676 118.33 296.284 122.27C296.407 124.014 293.454 128.439 291.707 126.343Z" fill="#DA7F5B"/>
<path fill-rule="evenodd" clip-rule="evenodd" d="M236.174 145.405C238.097 145.835 240.288 147.152 240.269 149.359C239.603 154.97 234.293 158.385 229.699 160.809C227.577 161.929 225.197 162.298 222.877 162.765C220.709 163.259 218.435 163.46 216.227 163.195C211.4 162.8 206.922 160.687 203.124 157.751C201.139 156.377 199.107 154.503 198.993 151.932C198.958 149.413 200.406 146.572 203 145.953C207.27 144.928 211.532 146.755 215.793 147.006C218.293 147.378 220.797 147.036 223.302 146.831C224.217 146.683 225.237 146.683 226.05 146.504C226.648 146.482 227.434 146.299 228.17 146.253C230.814 145.568 233.443 144.805 236.174 145.405Z" fill="white"/>
<path fill-rule="evenodd" clip-rule="evenodd" d="M239.771 196.621C237.548 197.093 235.323 197.643 233.062 197.883C227.223 198.323 221.348 198.358 215.548 197.461C211.522 196.826 207.456 196.116 203.481 195.186C202.307 194.825 201.104 194.582 199.888 194.404C198.824 194.248 197.543 193.712 196.593 194.468C196.592 194.475 196.589 194.475 196.588 194.479C196.795 194.704 196.975 194.989 197.128 195.357C197.039 196.201 196.96 197.047 196.88 197.891C196.945 197.967 197.011 198.042 197.075 198.111C205.778 206.317 221.675 212.339 233.601 212.65C235.47 212.866 238.235 213.048 239.699 211.932C239.711 211.89 239.725 211.852 239.737 211.817C240.732 206.856 240.531 201.762 240.517 196.71C240.295 196.603 240.039 196.561 239.771 196.621Z" fill="#DA7F5B"/>
<path fill-rule="evenodd" clip-rule="evenodd" d="M164.059 566.363C164.082 566.854 163.865 567.267 163.603 567.66C162.972 569.694 161.802 570.455 159.722 570.654C157.956 570.982 156.186 571.333 154.377 571.209C148.632 570.925 142.873 571.234 137.12 570.98C132.622 570.281 128.11 569.565 123.605 568.956C120.181 568.136 120.92 563.86 121.326 561.237C121.538 559.139 120.717 555.569 124.02 556.062C127.795 556.464 131.576 557.288 135.27 557.988C138.757 558.902 142.252 559.733 145.865 559.986C150.7 560.727 155.522 561.901 160.45 561.674C161.216 561.717 161.807 561.217 162.552 561.181C163.289 561.165 163.868 561.759 163.905 562.477C163.948 563.772 164.048 565.065 164.059 566.363Z" fill="#3E1D1F"/>
<path fill-rule="evenodd" clip-rule="evenodd" d="M207.556 562.037C207.561 564.892 207.974 568.927 204.388 569.722C200.527 570.569 196.521 570.068 192.615 570.576C187.759 570.664 182.993 571.545 178.147 571.526C175.351 571.507 171.362 570.339 171.548 566.906C171.47 565.062 171.101 563.171 171.225 561.34C171.085 558.718 178.721 560.009 180.541 559.67C184.026 559.67 187.446 559.024 190.912 558.798C195.121 558.831 199.292 558.426 203.456 557.83C206.864 557.125 207.306 559.18 207.556 562.037Z" fill="#3E1D1F"/>
<path fill-rule="evenodd" clip-rule="evenodd" d="M264.61 555.843C267.196 556.115 276.045 554.684 275.121 559.004C274.659 561.65 275.872 566.847 272.868 568.075C270.854 568.56 268.735 568.406 266.674 568.545C262.549 568.692 258.415 568.963 254.284 568.899C252.641 568.956 251.067 567.887 251.739 566.091C252.253 564.56 252.569 562.983 252.862 561.398C253.079 560.275 253.283 559.152 253.54 558.042C253.313 557.234 253.959 556.4 254.793 556.386C258.048 556.02 261.331 555.783 264.61 555.843Z" fill="#3E1D1F"/>
<path fill-rule="evenodd" clip-rule="evenodd" d="M308.053 555.011C309.021 556.519 308.425 558.498 308.377 560.174C308.321 562.601 308.491 566.661 305.146 566.668C302.18 566.886 299.292 567.562 296.342 567.923C293.748 568.221 291.129 568.111 288.534 568.401C286.485 568.432 284.401 569.145 282.473 568.385C280.819 567.714 280.963 565.502 281.331 564.072C281.477 562.377 281.647 560.69 281.768 558.992C281.755 558.024 281.967 556.61 283.196 556.607C287.197 556.392 291.164 555.509 295.169 555.156C296.671 554.978 298.269 554.867 299.769 554.779C302.004 554.784 306.429 553.313 308.053 555.011Z" fill="#3E1D1F"/>
<path fill-rule="evenodd" clip-rule="evenodd" d="M179.124 99.207C182.377 99.412 185.624 98.827 188.877 98.728C191.824 98.162 195.621 98.75 197.747 96.232C200.145 91.962 191.52 91.571 188.978 91.765C185.87 92.212 182.66 92.171 179.526 92.764C178.193 92.999 176.6 93.178 175.759 94.386C173.814 96.825 176.659 99.195 179.124 99.207ZM177.977 95.864C177.956 95.955 177.943 96.047 177.94 96.144C177.902 96.114 177.863 96.087 177.825 96.053C177.864 95.981 177.91 95.914 177.977 95.864Z" fill="#3E1D1F"/>
<path fill-rule="evenodd" clip-rule="evenodd" d="M241.233 98.1063C244.457 98.8743 247.879 98.4673 251.173 98.5543C253.659 98.2613 256.29 98.6833 258.634 97.6423C261.668 96.3473 262.153 93.8893 258.803 92.6133C256.119 91.6823 253.189 91.5343 250.376 91.9403C248.872 91.6103 247.352 91.5903 245.818 91.7123C243.747 91.8603 241.51 91.7543 239.6 92.6693C236.799 94.2763 238.806 97.4443 241.233 98.1063Z" fill="#3E1D1F"/>
<path fill-rule="evenodd" clip-rule="evenodd" d="M221.607 137.617C220.907 138.332 219.373 139.114 220.226 140.371C221.505 141.922 223.087 139.844 224.02 138.901C225.835 137.158 227.501 135.034 227.385 132.375C227.448 129.644 225.972 127.277 224.788 124.925C222.247 120.481 221.757 115.907 223.521 111.048C224.025 109.38 221.591 108.598 221.008 110.221C219.059 115.474 219.574 121.218 222.397 126.05C225.034 130.996 226.284 133.412 221.607 137.617Z" fill="#DA7F5B"/>
<path fill-rule="evenodd" clip-rule="evenodd" d="M72.8702 356.207C72.0822 356.455 71.8173 357.316 71.7703 358.065C71.7123 359.022 71.5283 359.975 71.3983 360.928C70.5183 367.195 70.3033 373.576 69.6243 379.88C69.2973 383.411 66.8272 386.599 67.5482 390.227C67.6362 391.248 68.1913 392.371 69.3413 392.418C72.7373 392.346 72.1253 388.388 71.9303 386.026C71.9173 384.722 72.0413 383.434 72.2603 382.153C72.4393 381.312 73.0593 380.287 72.3353 379.55C72.8733 374.056 73.1343 368.549 73.7783 363.065C73.9853 361.424 74.2682 359.79 74.4172 358.141C74.6902 357.67 74.6292 357.07 74.2822 356.616C73.9652 356.202 73.3582 356.055 72.8702 356.207Z" fill="#DA7F5B"/>
<path fill-rule="evenodd" clip-rule="evenodd" d="M90.956 159.606C89.981 159.405 88.971 159.667 87.978 159.647C87.607 159.621 87.235 159.617 86.864 159.61C86.59 159.378 86.228 159.253 85.855 159.305C83.471 158.713 82.11 156.555 80.951 154.428C80.733 153.983 80.501 153.554 80.255 153.132C80.145 152.931 80.032 152.73 79.921 152.528C79.859 152.392 79.7709 152.274 79.6679 152.165C77.8479 149.376 75.468 146.956 73.019 144.685C71.744 143.523 69.9759 145.441 71.2199 146.623C73.8309 149.031 76.43 151.675 78.157 154.79C78.333 155.144 78.517 155.504 78.713 155.861C79.271 157.05 79.694 158.3 79.943 159.633C78.749 159.587 77.5579 159.478 76.3659 159.223C73.9349 158.904 71.163 158.494 68.972 159.854C67.733 160.761 66.6391 161.973 66.0541 163.394C62.4541 157.601 56.7469 153.328 51.0009 149.696C49.6639 148.951 48.31 148.15 46.884 147.614C46.1 147.508 45.289 147.606 44.495 147.599C43.3 147.587 41.262 147.507 41.461 149.228C41.593 150.022 42.3879 150.456 43.1419 150.291C44.2049 150.246 45.266 150.249 46.328 150.212C49.435 151.697 52.336 153.593 55.077 155.679C58.661 158.646 62.59 161.757 64.526 166.167C67.492 171.907 71.429 179.448 66.831 185.382C65.126 188.112 61.002 188.923 58.497 186.723C58.423 186.662 58.342 186.617 58.258 186.582C58.128 185.492 57.882 184.413 57.471 183.36C55.153 178.011 46.9509 172.146 41.6259 169.92C39.0069 168.659 36.332 167.353 33.451 166.874C32.311 166.9 31.179 166.965 30.039 166.9C28.971 167.04 27.531 166.466 26.766 167.431C26.166 168.206 26.7 169.483 27.695 169.547C29.577 169.525 31.462 169.589 33.342 169.521C39.128 171.173 44.623 173.886 49.275 177.802C51.679 179.934 54.506 182.075 55.343 185.331C56.125 188.237 55.564 191.216 55.183 194.133C54.927 197.15 52.239 198.43 49.478 198.153C47.378 197.621 45.4 196.121 44.582 194.081C44.206 192.728 44.082 191.259 43.155 190.13C40.912 187.953 37.708 187.054 35.347 184.998C34.513 184.349 33.391 183.155 32.38 184.208C31.9 184.729 31.9109 185.595 32.4489 186.077C32.9289 186.464 33.413 186.851 33.903 187.227C33.949 187.645 34.173 188.044 34.591 188.268C36.376 189.833 37.934 191.645 39.555 193.371C39.962 194.666 40.821 195.767 41.619 196.847C43.913 199.301 47.027 200.702 49.674 202.694C52.123 204.742 53.392 207.807 53.552 210.971C53.648 212.066 53.186 213.767 54.732 213.964C56.825 213.991 56.171 211.264 56.082 209.892C55.812 207.37 55.0889 204.859 53.4019 202.898C52.8519 202.079 52.178 201.378 51.438 200.756C55.15 200.296 57.665 197.721 57.92 193.633C58.115 192.361 58.2809 191.065 58.3449 189.774C59.0359 190.1 59.759 190.343 60.232 190.492C65.98 191.696 70.259 186.868 71.363 181.64C71.584 181.519 71.772 181.344 71.896 181.127C72.366 180.204 73.4259 180.147 74.3449 179.987C75.1999 180.033 76.039 180.511 76.683 181.05C76.574 181.536 76.387 182.057 76.347 182.535C75.175 183.739 74.157 185.088 73.285 186.524C71.798 188.848 70.805 191.424 69.808 193.989C69.38 194.988 68.959 195.994 68.902 197.096C68.772 198.281 68.661 199.474 68.55 200.663C68.484 201.381 69.087 202.022 69.789 202.064C70.514 202.11 71.124 201.543 71.188 200.826C71.31 199.5 71.424 198.174 71.588 196.852C73.472 191.317 75.988 185.193 81.216 181.987C81.715 181.482 82.614 181.136 83.112 180.612C84.681 181.094 86.202 181.748 87.593 182.811C89.074 183.727 90.464 181.569 89.04 180.596C88.068 180.003 87.137 179.342 86.099 178.867C82.792 177.306 79.018 177.291 75.624 175.969C73.095 174.99 71.243 172.888 69.9 170.594C68.166 167.949 67.304 164.44 70.092 162.301C70.1 162.438 70.109 162.574 70.113 162.703C70.28 163.919 70.565 165.119 71.321 166.111C73.287 169.081 76.573 171.004 80.134 171.182C81.866 171.246 81.998 168.69 80.268 168.541C76.636 168.362 72.539 165.472 72.721 161.54C74.002 161.49 75.308 161.745 76.653 161.966C79.043 162.445 81.48 162.307 83.901 162.208C85.988 162.3 88.07 162.33 90.157 162.167C90.735 162.444 91.47 162.235 91.822 161.692C92.365 160.89 91.817 159.871 90.956 159.606Z" fill="#DA7F5B"/>
<path fill-rule="evenodd" clip-rule="evenodd" d="M334.907 429.994C331.597 428.768 328.394 427.288 325.578 425.135C324.981 424.397 323.713 424.599 323.34 425.465C322.73 426.96 324.638 427.567 325.544 428.317C328.122 430.211 331.148 431.348 334.127 432.522C335.792 433.004 336.552 430.555 334.907 429.994Z" fill="#DA7F5B"/>
<path fill-rule="evenodd" clip-rule="evenodd" d="M244.556 556.335C245.122 556.307 245.727 556.288 246.213 556.58C247.068 557.091 247.164 558.268 247.164 559.264C247.162 561.644 247.16 564.025 247.159 566.406C247.158 567.252 247.144 568.147 246.7 568.868C245.894 570.175 244.097 570.347 242.562 570.378C234.015 570.544 225.467 570.71 216.919 570.877C215.679 570.901 214.23 570.827 213.513 569.814C213.148 569.296 213.065 568.639 212.991 568.01C212.708 565.623 212.426 563.237 212.142 560.849C211.757 557.604 213.976 557.829 216.446 557.721C219.535 557.585 222.622 557.417 225.709 557.265C231.991 556.954 238.273 556.645 244.556 556.335Z" fill="#F4E1B3"/>
<path fill-rule="evenodd" clip-rule="evenodd" d="M112.97 373.588C114.222 370.284 115.638 367.065 117.275 363.936C119.051 360.336 120.82 356.741 122.518 353.102C124.001 349.81 125.722 346.5 126.305 342.859C126.724 341.382 126.737 338.889 124.704 338.783C123.568 338.773 122.93 339.801 122.533 340.712C121.625 342.92 120.942 345.225 120.394 347.55C119.847 350.303 119.153 353.013 117.958 355.565C112.473 367.401 106.242 378.841 101.389 390.982C100.263 393.571 99.1423 396.165 97.9603 398.73C97.6543 399.727 96.4822 400.74 97.0792 401.807C96.3352 403.555 96.7012 405.473 96.8502 407.296C97.0162 408.461 96.5322 410.298 97.8852 410.987C102.313 412.348 102.181 404.388 103.026 401.635C103.792 398.364 105.886 395.293 106.807 392.03C107.537 389.324 108.104 386.579 109.019 383.924C109.987 380.352 111.477 376.961 112.97 373.588Z" fill="#2B2B2B"/>
<path fill-rule="evenodd" clip-rule="evenodd" d="M124.938 323.767C124.832 324.916 124.044 326.85 125.673 327.246C127.539 327.529 127.319 325.284 127.56 324.058C127.704 323.092 127.854 322.093 127.995 321.106C128.304 318.835 128.743 316.514 128.933 314.208C128.996 311.52 128.904 308.822 128.781 306.136C128.58 298.811 126.528 291.456 123.2 284.948C122.197 283.515 120.073 284.977 121 286.418C123.937 292.373 125.868 299.008 126.119 305.664C126.259 308.255 126.278 310.843 126.32 313.434C126.202 315.849 125.737 318.109 125.411 320.549C125.253 321.612 125.09 322.692 124.938 323.767Z" fill="#2B2B2B"/>
<path fill-rule="evenodd" clip-rule="evenodd" d="M323.632 321.711C324.318 320.665 324.041 319.336 323.994 318.157C323.636 314.42 323.209 310.562 323.611 306.804C324.171 303.636 325.517 300.37 324.77 297.136C324.538 296.107 323.582 295.37 322.527 295.435C320.961 295.49 320.138 297.046 319.797 298.395C318.582 303.42 319.994 308.569 320.5 313.597C320.636 315.572 320.686 317.631 320.859 319.62C321.401 329.363 321.622 339.138 321.076 348.885C320.545 354.413 320.318 360.318 319.933 365.917C319.265 371.494 318.74 377.04 318.663 382.664C318.464 386.417 318.257 390.379 318.048 394.198C317.836 398.303 318.383 402.395 318.159 406.504C318.106 408.348 318.087 410.193 318.004 412.033C317.988 412.879 317.463 413.855 318.326 414.475C320.922 415.766 320.645 411.887 320.701 410.319C320.769 407.378 320.904 404.437 320.818 401.496C320.409 396.544 320.857 391.649 321.081 386.682C321.343 382.973 321.407 379.238 321.581 375.377C321.931 371.243 322.604 367.141 322.795 362.989C322.948 356.676 323.796 350.303 323.918 343.962C324.237 336.547 323.885 329.125 323.632 321.711Z" fill="#2B2B2B"/>
<path fill-rule="evenodd" clip-rule="evenodd" d="M310.646 552.198C306.087 554.269 300.994 554.404 296.06 554.744C292.871 554.751 289.711 555.077 286.492 554.917C282.023 554.62 277.525 554.323 273.052 554.669C267.073 555.297 261.07 555.086 255.074 554.834C250.946 554.776 246.837 554.978 242.707 555.134C239.429 555.303 236.181 555.457 232.945 555.61C233.74 554.453 233.526 552.233 233.78 551.01C234.018 548.791 234.232 546.57 234.457 544.349C235.244 536.244 235.155 528.012 234.516 519.897C234.156 517.343 233.856 514.792 233.697 512.219C233.336 508.893 232.538 505.627 232.315 502.288C234.118 501.336 235.93 500.381 237.917 499.613C240.091 498.83 241.859 497.321 243.847 496.187C245.971 495.034 247.767 493.386 249.648 491.914C252.99 489.593 256.739 487.787 259.761 485.033C260.457 484.364 261.192 483.494 261.413 482.503C261.771 480.417 259.304 479.842 257.874 480.844C256.273 481.58 255.466 483.147 254.49 484.51C253.324 485.926 251.453 486.742 250.429 488.272C248.278 489.461 246.484 491.126 244.544 492.612C242.544 493.897 240.496 495.153 238.501 496.452C235.864 497.659 233.154 498.699 230.651 500.195C227.832 501.77 224.717 502.88 221.74 504.153C218.342 505.282 215.041 506.665 211.686 507.913C210.115 508.465 208.552 509.03 206.967 509.542C206.283 509.764 205.888 510.515 206.107 511.201C206.326 511.889 207.096 512.282 207.767 512.061C210.542 511.165 213.288 510.163 215.999 509.089C219.31 507.733 222.826 506.67 226.106 505.196C227.383 504.738 228.585 504.185 229.766 503.599C230.083 506.781 230.852 509.917 231.114 513.111C231.241 515.73 231.673 518.322 231.964 520.923C232.529 527.75 232.383 534.619 232.114 541.455C231.641 545.623 231.313 549.814 230.781 553.972C230.367 554.558 230.309 555.237 230.6 555.721C219.326 556.248 208.196 556.75 196.662 557.578C186.89 557.388 177.183 558.949 167.472 559.781C161.037 559.908 154.591 558.64 148.138 558.316C144.517 558.092 140.687 557.651 137.026 557.42C133.564 556.984 130.114 556.468 126.614 556.45C124.357 556.398 122.093 556.304 119.838 556.279C116.78 556.545 113.609 556.583 110.688 555.505C110.362 555.382 110.03 555.247 109.831 554.948C109.335 554.426 108.483 554.403 107.961 554.901C105.76 558.144 113.814 559.128 116.352 559.065C121.16 558.899 125.984 558.962 130.79 559.302C140.647 560.573 150.645 561.051 160.563 562.102C165.096 562.676 169.646 562.415 174.153 561.749C177.93 561.3 181.727 561.036 185.51 560.649C189.146 560.247 192.799 560.207 196.453 560.225C201.832 559.853 207.233 559.709 212.6 559.164C226.404 558.643 240.197 557.71 254.054 557.463C261.084 557.752 268.096 557.909 275.107 557.173C279.845 557.024 284.571 557.595 289.306 557.589C293.475 557.444 297.645 557.419 301.791 556.934C304.754 556.741 307.734 556.239 310.481 555.088C311.5 554.863 312.773 554.197 312.349 552.966C312.105 552.314 311.311 551.918 310.646 552.198Z" fill="#2B2B2B"/>
<path fill-rule="evenodd" clip-rule="evenodd" d="M231.673 591.257C231.639 585.589 231.266 579.869 231.815 574.223C232.201 572.52 229.712 571.917 229.252 573.578C228.522 579.712 229.054 585.988 229.038 592.166C229.049 594.957 228.937 597.746 228.854 600.532H231.53C231.59 597.445 231.669 594.35 231.673 591.257Z" fill="#8D753D"/>
<path fill-rule="evenodd" clip-rule="evenodd" d="M233.053 489.258C232.912 486.597 232.75 483.937 232.601 481.277C232.186 473.182 231.998 465.1 231.926 456.955C231.016 441.601 230.88 426.21 230.76 410.828C230.769 406.688 230.54 402.564 230.355 398.432C230.272 391.711 230.366 384.9 230.342 378.164C230.142 368.096 230.336 358.025 230.286 347.954C229.641 336.045 229.978 324.116 230.582 312.21C230.753 307.473 230.186 302.762 229.954 298.039C229.852 292.366 230.124 286.685 229.947 281.017C230.093 272.633 229.193 264.299 228.499 255.964C228.501 251.808 227.638 247.728 227.082 243.625C226.858 242.679 226.604 241.736 226.363 240.795C226.164 240.658 225.95 240.556 225.708 240.51C224.968 240.373 224.233 240.811 223.797 241.438C223.831 241.563 223.861 241.688 223.895 241.809C225.346 247.444 225.766 253.251 226.047 259.052C227.731 272.056 227.257 285.178 227.319 298.257C227.66 304.235 228.292 310.207 227.74 316.198C227.327 326.273 227.027 336.372 227.61 346.446C227.716 358.143 227.521 369.838 227.714 381.535C227.659 389.425 227.548 397.316 228.029 405.193C228.285 419.035 228.162 432.913 228.825 446.751C229.358 458.733 229.396 470.733 230.037 482.717C230.139 485.647 230.535 488.584 230.404 491.512C230.166 492.152 230.477 492.9 231.108 493.177C231.756 493.47 232.556 493.167 232.853 492.505C233.224 491.469 233.079 490.342 233.053 489.258Z" fill="#2B2B2B"/>
<path fill-rule="evenodd" clip-rule="evenodd" d="M249.711 224.711C249.006 224.688 248.351 225.269 248.349 225.99C248.331 226.371 248.234 226.75 248.149 227.123C247.213 230.34 245.913 233.44 244.726 236.574C243.903 238.347 243.238 240.737 241.552 241.991C239.407 243.894 237.521 241.474 236.186 239.864C234.846 237.995 234.292 235.727 233.438 233.535C232.995 232.418 232.223 231.479 231.447 230.564C231.052 230.556 230.667 230.689 230.43 230.998C230.224 231.275 230.166 231.636 230.151 231.981C230.131 232.437 230.178 232.893 230.285 233.337C231.411 234.905 231.751 237.071 232.608 238.796C233.626 241.307 235.686 243.833 238.171 245.064C243.708 246.751 246.201 240.27 247.712 236.122C248.425 234.318 249.156 232.528 249.74 230.675C250.196 229.189 252.324 225.067 249.711 224.711Z" fill="#2B2B2B"/>
<path fill-rule="evenodd" clip-rule="evenodd" d="M217.304 231.879C217.108 231.518 216.791 231.203 216.399 231.1C214.192 233.801 212.164 236.582 210.123 239.477C207.683 242.174 206.401 246.368 202.515 247.333C199.806 248.473 198.115 246.224 197.239 243.937C196.131 241.597 194.934 239.017 193.557 236.772C191.588 233.657 189.739 230.466 187.605 227.458C186.692 225.935 184.86 224.305 184.66 222.55C185.354 220.958 183.046 219.891 182.262 221.441C181.357 223.215 182.715 224.966 183.61 226.448C187.166 231.33 190.456 236.393 193.28 241.754C194.78 244.622 195.667 248.3 198.817 249.842C202.568 251.27 206.792 248.771 208.953 245.709C210.59 243.11 212.493 240.71 214.273 238.206C215.243 236.865 216.4 235.35 217.486 233.989C217.664 233.284 217.645 232.514 217.304 231.879Z" fill="#2B2B2B"/>
</svg>
