<svg width="353" height="603" viewBox="0 0 353 603" fill="none" xmlns="http://www.w3.org/2000/svg">
<path fill-rule="evenodd" clip-rule="evenodd" d="M93.7751 381.098C99.6841 386.098 94.8521 400.531 93.1441 406.961C92.2171 410.511 91.6001 414.187 89.7891 417.424C88.1071 421.303 86.69 425.377 83.918 428.651C82.26 431.229 80.4561 433.783 78.0231 435.698C76.0261 437.454 73.4481 438.679 71.0491 439.632C68.1931 440.9 65.096 441.631 61.959 441.486C58.079 441.608 54.5531 439.437 51.698 436.993C50.022 435.348 47.6011 433.619 48.1021 430.963C48.2911 429.834 48.8581 428.846 49.4371 427.881C50.9591 425.387 52.4721 422.893 54.0811 420.456C57.2391 415.719 60.5041 411.052 63.9711 406.534C68.1481 401.713 87.6781 376.898 93.7751 381.098Z" fill="#2B2B2B"/>
<path fill-rule="evenodd" clip-rule="evenodd" d="M315.985 602.064C316.599 598.021 315.918 593.987 315.696 589.947C315.179 583.153 314.663 576.366 313.817 569.61C313.453 565.689 313.555 561.966 313.298 557.991C313.277 556.815 312.956 555.599 313.176 554.434C313.367 553.977 313.573 553.499 313.379 553.006C313.376 552.999 313.375 552.987 313.369 552.98C314.442 552.356 315.513 551.393 316.201 550.939C317.37 549.948 318.673 549.073 319.647 547.875C321.022 544.718 322.445 541.532 323.67 538.29C324.57 535.82 325.613 533.348 325.797 530.695C325.901 529.351 325.886 527.996 325.963 526.648C326.36 522.649 326.098 518.632 325.625 514.647C325.011 511.307 325.294 507.919 325.043 504.548C324.722 500.714 324.006 496.928 323.654 493.097C323.396 490.064 323.369 487.059 323.268 484.005C323.072 479.113 322.651 474.195 322.604 469.283C322.242 462.755 321.458 456.252 321.045 449.729C321.026 443.339 321.243 436.865 321.168 430.466C321.122 425.845 321.527 421.232 321.594 416.612C322.168 416.591 322.727 416.359 323.086 415.897C327.09 415.538 331.098 415.577 335.098 416.012C336.135 416.123 337.558 416.155 338.684 416.065C340.082 416.059 341.658 416.299 343.094 416.073C353.895 414.694 352.751 401.878 351.622 393.8C351.064 390.325 350.768 386.827 350.076 383.38C349.624 379.598 349.15 375.808 348.188 372.054C347.723 368.144 347.553 363.972 347.022 360.031C345.981 349.527 344.961 339.023 344.057 328.511C343.541 319.856 342.988 311.182 340.837 302.746C339.788 298.252 339.142 293.665 337.718 289.267C336.807 286.672 335.568 284.411 334.625 281.773C333.36 279.313 332.289 276.764 331.111 274.264C329.254 271.012 326.663 268.296 324.11 265.587C323.119 264.425 322.008 263.38 320.759 262.499C319.649 261.887 317.751 259.517 316.326 259.877C313.804 258.164 311.085 256.781 308.278 255.38C304.878 253.663 301.513 251.873 298.055 250.281C293.018 247.511 287.751 245.206 282.403 243.116C277.278 240.947 272.238 238.561 267.141 236.317C263.272 234.299 259.188 232.722 255.403 230.549C252.88 229.433 250.659 227.883 249.287 225.387C247.511 222.322 246.298 218.686 244.196 215.745C240.934 210.871 234.8 209.371 229.24 210.274C225.246 210.555 221.245 210.475 217.261 210.05C213.931 209.616 210.751 209.282 207.279 209.035C205.221 208.971 203.085 208.681 200.971 208.636C201.055 208.427 201.074 208.184 201.006 207.888C200.213 205.669 197.475 207.785 196.017 208.344C192.898 209.685 191.798 213.024 189.886 215.558C188.269 217.833 186.415 220.333 184.116 222.126C180.321 225.214 175.466 225.814 170.94 227.448C168.038 228.299 165.397 229.796 162.642 231.011C159.886 232.273 156.879 233.265 154.124 234.575C146.743 237.747 139.538 241.329 132.054 244.247C121.741 248.235 111.87 253.475 103.037 260.149C98.6149 263.408 95.4739 267.989 91.7529 271.96C88.9749 274.911 86.4269 278.061 83.7809 281.132C79.1339 286.595 74.5069 292.075 69.8849 297.558C69.4189 298.111 69.4989 298.96 70.0499 299.422C70.4839 299.782 71.0979 299.815 71.5659 299.543C69.4459 303.402 67.3749 307.292 66.0159 311.487C63.3409 320.07 63.8769 329.198 63.5859 338.086C63.6819 340.198 63.6819 342.33 64.0339 344.421C64.8579 347.749 66.3699 350.869 67.6069 354.058C70.5649 361.658 75.9359 368.147 78.2529 376.013C79.8229 382.543 81.1419 389.158 82.2629 395.781C83.3369 403.005 83.8028 410.299 83.3918 417.62C83.0238 420.573 82.3619 423.477 81.5909 426.348C81.4259 427.82 79.9289 430.38 82.0709 430.979C84.2289 431.134 85.1999 427.149 86.2169 425.618C87.9849 422.43 89.5849 419.028 91.4359 415.868C92.9619 412.952 94.5749 410.073 96.1919 407.187C96.2859 408.519 96.3699 409.851 96.4609 411.182C97.2989 419.578 97.4259 428.083 97.2599 436.545C97.3789 446.591 97.8848 456.667 97.1888 466.781C97.2718 474.635 96.9408 482.705 96.5428 490.601C96.2448 496.077 96.4949 501.573 96.0659 507.044C95.7769 512.166 94.9169 517.288 95.3529 522.423C95.9779 530.75 97.5989 539.011 101.272 546.561C102.459 549.28 103.73 551.985 105.379 554.456C106.943 556.725 108.706 559.076 108.608 561.994C108.663 564.894 108.017 567.744 107.943 570.643C107.775 574.746 107.499 578.839 107.104 582.923C106.919 586.593 106.458 590.229 106.1 593.881C106.03 596.766 105.826 599.648 105.682 602.529H315.972C315.981 602.376 315.983 602.22 315.985 602.064Z" fill="#E9E9E9"/>
<path fill-rule="evenodd" clip-rule="evenodd" d="M319.99 384.648L108.669 383.74L125.003 342.906L128.032 317.637H321.99V348.239L319.99 384.648Z" fill="#ED1D24" stroke="#020202" stroke-width="2" stroke-miterlimit="10"/>
<path fill-rule="evenodd" clip-rule="evenodd" d="M321.587 383.648L105.266 382.74L119.946 348.157L323.395 350.752L321.587 383.648Z" fill="white"/>
<path fill-rule="evenodd" clip-rule="evenodd" d="M105.998 178.545C106.377 182.564 106.271 186.762 104.921 190.603C102.937 196.597 97.7451 200.571 93.8501 205.29C90.3771 209.552 86.7232 213.765 84.1692 218.677C83.6242 219.68 83.0751 220.667 82.5501 221.656C81.7221 227.954 81.4892 234.321 81.2572 240.688C80.9892 249.448 80.5751 258.205 80.4961 266.968C80.1071 278.87 78.5201 290.673 77.6151 302.536C76.7291 316.269 75.7821 330.005 73.9261 343.64C73.3791 348.282 73.0611 352.95 72.7181 357.614C74.6111 360.892 76.3141 364.302 77.6251 367.842C80.5721 374.314 82.4172 381.162 83.6692 388.148C84.9372 394.519 86.8852 401.205 84.8302 407.612C83.1852 411.985 79.7701 415.411 77.0891 419.161C73.1671 424.004 69.5061 429.051 65.5531 433.867C63.4391 436.622 61.1741 439.247 59.0521 441.996C56.9881 444.606 54.8631 447.213 52.1891 449.232C46.9631 452.925 40.7352 456.527 34.1112 455.773C25.2672 455.589 16.4221 451.909 10.4371 445.316C4.2211 438.54 1.23211 429.381 0.369108 420.351C-0.347892 414.955 0.0601419 409.251 0.904142 403.979C2.04214 393.664 3.55816 383.406 5.47616 373.209C6.33716 366.43 8.41408 359.873 9.53708 353.144C11.0361 345.265 12.0821 337.31 13.6831 329.452C14.9541 320.618 16.5591 311.842 18.3521 303.098C19.5691 297.272 20.1282 291.092 20.7372 285.291C21.9382 276.212 24.0781 267.25 24.5581 258.079C25.5671 250.881 26.5641 243.678 26.7771 236.391C26.6981 232.562 26.6181 228.721 26.3631 224.904C25.9911 224.3 26.1371 223.49 26.7372 223.091C26.7652 223.076 26.7911 223.065 26.8191 223.057C26.8071 223.019 26.7951 222.981 26.7771 222.943C26.0321 221.086 24.8682 219.456 23.8152 217.765C20.8772 212.663 17.4231 208.093 15.5011 202.524C12.7001 194.779 11.8022 185.851 15.5912 178.277C16.5292 176.589 17.6331 174.971 18.9571 173.57C19.9411 172.666 21.1901 172.107 22.3281 171.42C23.4671 170.759 24.6261 170.044 25.9011 169.772C25.9701 169.152 26.1921 168.488 26.2951 167.971C26.7551 165.873 27.4001 163.83 28.3021 161.881C30.1811 157.311 33.9551 153.819 38.3901 151.757C39.2381 151.32 40.7141 150.533 42.0941 150.173C42.0451 149.888 42.1001 149.572 42.2981 149.258C47.3041 140.645 57.5631 139.912 66.0811 143.263C68.0241 144.156 69.8191 145.36 71.5381 146.656C71.5711 142.731 71.4321 138.8 71.6341 134.872C71.5891 129.383 72.3542 123.938 72.6842 118.465C72.9222 115.703 73.5311 112.99 74.0991 110.278C75.0781 104.382 77.2821 97.4529 83.7601 95.7889C89.0081 94.7699 90.5251 97.3349 92.2491 101.78C92.8541 104.245 92.4412 106.837 92.4762 109.347C92.7372 116.177 91.9391 122.977 91.8381 129.803C91.5411 133.925 91.8971 137.815 91.7501 141.899C91.5281 147.83 91.3961 153.881 91.3921 159.751C91.3941 159.693 91.3941 159.637 91.3941 159.584C91.3921 160.525 91.3861 161.441 91.3831 162.349C93.1231 162.793 94.9871 163.595 95.7981 163.755C99.1931 164.829 101.528 167.766 103.126 170.81C104.454 173.223 105.582 175.798 105.998 178.545Z" fill="#F5BC8B"/>
<path fill-rule="evenodd" clip-rule="evenodd" d="M352.24 597.332C351.978 589.839 351.208 582.332 351.115 574.822C350.676 568.642 350.941 562.48 351.405 556.311C351.58 548.621 351.648 540.92 351.777 533.228C352.156 527.554 351.792 521.892 351.264 516.238C350.993 509.889 350.693 503.287 350.117 496.915C349.669 492.524 349.62 487.798 349.555 483.335C349.065 476.169 348.897 468.977 348.453 461.806C347.803 453.133 347.145 444.591 346.274 435.878C345.987 430.76 345.493 425.33 344.344 420.272C343.938 418.129 343.915 415.535 341.941 414.174C340.725 413.48 339.255 413.748 337.921 413.766C334.198 413.78 330.48 413.593 326.768 413.981C323.87 414.102 319.237 413.895 318.58 417.641C317.697 421.579 318.728 425.633 319.056 429.59C319.578 434.748 325.075 514.932 324.923 518.778C324.818 525.358 324.585 532.21 321.923 538.32C320.622 541.512 318.98 544.6 317.276 547.662C314.079 552.298 311.69 553.806 312.005 559.996C312.296 565.427 311.761 570.863 312.161 576.287C312.401 580.092 313.121 583.835 313.495 587.625C313.792 592.644 314.396 597.537 314.732 602.533H352.447" fill="#F5BC8B"/>
<path fill-rule="evenodd" clip-rule="evenodd" d="M306.281 111.361C302.489 106.119 294.747 105.013 289.208 107.996C288.905 104.505 287.819 101.23 287.499 97.693C287.106 90.805 286.52 83.8881 284.656 77.2201C283.872 74.2531 283.217 71.188 281.709 68.487C274.11 57.292 255.233 54.5261 242.646 53.6681C237.417 53.1701 232.206 52.3961 226.942 52.3501C219.358 52.2331 211.735 52.2781 204.2 51.1841C199.426 50.2611 194.828 48.5091 189.983 47.9361C184.932 47.4761 179.708 47.1 174.763 48.471C165.008 51.286 156.887 58.9791 153.642 68.6141C151.188 74.4911 150.403 80.8801 149.104 87.0761C148.606 91.9541 149.305 96.8771 149.065 101.77C149.118 105.059 147.876 108.026 146.681 111.02C145.952 110.849 145.172 110.811 144.442 110.773C143.582 110.815 142.8 111.149 142.054 111.571C140.943 111.844 139.88 112.346 138.938 113.098C136.282 114.701 135.155 117.421 134.783 120.32C134.777 120.339 134.775 120.358 134.77 120.381C133.595 125.916 134.954 131.774 137.929 136.527C139.435 138.597 141.246 140.451 143.04 142.271C145.766 145.268 149.501 145.389 153.273 145.375C158.127 145.23 162.647 158.466 164.285 162.459C165.177 164.924 166.556 167.161 167.798 169.463C169.056 171.937 170.385 174.383 171.956 176.678C177.15 184.541 184.437 191.323 193.239 194.889C195.283 195.759 196.444 195.717 197.128 197.359C196.818 200.292 196.565 203.236 196.3 206.176C196.343 207.395 195.515 209.165 196.754 209.993C196.767 211.137 197.453 212.075 198.009 213.021C198.909 214.696 200.172 216.109 201.517 217.435C204.414 220.619 208.18 222.814 211.851 224.991C214.858 229.109 217.397 233.576 219.394 238.268C219.859 239.355 220.304 240.475 221.058 241.383C221.812 242.294 222.948 242.982 224.124 242.872C226.079 242.689 227.177 240.589 227.918 238.765C230.026 233.579 232.136 228.391 234.245 223.198C234.721 222.522 235.18 221.857 235.63 221.25C237.083 218.975 238.978 216.505 239.737 213.818C240.746 208.789 240.525 203.623 240.516 198.502C244.847 196.484 249.487 195.106 253.493 192.45C257.375 189.707 260.932 186.452 264.317 183.112C269.256 177.46 273.46 171.108 276.708 164.335C281.453 155.837 283.109 146.131 287.385 137.404C290.036 136.633 292.859 136.55 295.456 135.596C302.159 133.062 307.38 126.767 307.571 119.462C307.576 116.832 308.143 113.603 306.281 111.361Z" fill="#F5BC8B"/>
<path fill-rule="evenodd" clip-rule="evenodd" d="M307.693 43.8372C308.47 49.1512 307.239 54.5262 304.768 59.2522C302.91 62.7742 301.196 66.5312 297.99 69.0582C297.096 69.8482 296.134 70.5392 295.145 71.1892C295.535 71.9602 295.841 72.6551 296.043 73.1071C297.441 76.1811 297.31 79.7971 296.796 83.0341C296.802 84.3941 295.495 85.7842 296.27 87.0382C297.548 89.0782 298.824 91.2021 299.135 93.6331C299.7 97.0821 298.754 100.567 297.191 103.632C295.901 106.124 293.81 108.107 292.489 110.572C291.671 112.399 291.604 114.299 291.144 116.183C290.824 118.648 290.354 122.139 286.998 121.474C285.701 121.204 285.152 119.89 284.826 118.744C283.556 115.006 285.239 110.55 282.947 107.127C280.715 102.914 278.581 98.8872 276.708 94.5532C275.219 90.8232 274.264 86.8672 273.566 82.9202C272.463 79.4222 272.306 75.7402 272.114 72.0902C271.552 72.6112 270.969 73.1012 270.379 73.5832C268.544 75.1822 266.411 76.3212 264.217 77.3322C262.03 78.4192 259.604 79.5242 257.291 80.1742C254.176 81.2872 250.922 81.6212 247.672 82.0092C245.46 82.3972 243.212 82.5142 240.969 82.4112C231.148 81.9252 221.417 79.3802 212.572 75.1062C206.448 72.0172 200.673 68.2792 194.442 65.3881C191.676 63.7322 188.688 62.5921 185.696 61.4221C183.289 60.2171 180.91 59.8752 178.299 59.6292C177.093 59.4842 175.832 59.6822 174.745 60.2332C174.268 60.5752 173.821 61.1981 173.334 61.6721C173.282 61.7751 173.233 61.8811 173.187 61.9871C172.804 63.7541 172.593 65.3802 172.417 67.1502C172.272 69.8202 171.758 72.3732 171.282 74.9572C169.81 82.2172 166.036 88.6712 162.23 94.9202C159.363 99.5512 157.822 104.843 157.23 110.199C156.807 114.697 157.032 119.221 156.985 123.726C156.923 125.85 157.122 127.977 157.057 130.089C157.107 131.658 155.492 132.76 154.035 132.208C153.067 131.837 152.669 130.762 152.352 129.864C150.78 125.922 151.712 121.298 149.464 117.591C148.513 116.295 147.407 115.113 146.194 114.066C144.406 112.862 142.715 111.521 141.635 109.61C135.994 101.97 134.557 91.0982 138.758 82.4742C137.344 79.0481 136.791 72.6542 136.756 70.9972C136.144 64.9042 136.919 58.7622 138.99 53.0022C140.812 48.1962 144.1 44.3752 148.039 41.1692C149.66 38.8362 151 36.2872 153.047 34.2772C155.381 32.0132 158.078 30.1022 160.948 28.5792C166.99 25.2252 173.781 23.7172 180.275 21.5172C184.315 19.8872 188.074 17.6262 191.871 15.5072C197.578 12.1412 203.278 8.69915 209.489 6.33615C217.063 3.40315 225.256 1.81518 233.385 2.01718C239.772 2.74318 246.058 5.06016 251.3 8.79416C254.16 10.7582 256.323 13.4932 258.644 16.0382C259.292 16.7152 259.966 17.3792 260.675 17.9982C261.59 18.3482 262.513 18.6712 263.453 18.9362C265.637 19.3472 267.862 19.3392 270.073 19.3842C273.608 19.4602 277.135 19.0662 280.671 19.1002C283.091 19.0732 285.556 18.9292 287.896 19.6622C301.286 24.0072 306.393 29.5912 307.693 43.8372Z" fill="#594144"/>
<path fill-rule="evenodd" clip-rule="evenodd" d="M178.416 41.4932C175.789 40.1132 180.319 36.3521 181.544 35.2971C182.837 34.2301 184.346 33.4662 185.93 32.9902C189.624 31.7982 193.348 30.3812 197.227 29.9932C200.694 30.1072 204.165 29.9591 207.627 30.2291C213.324 30.8551 218.985 31.8321 224.7 32.3101C228.156 32.3061 231.617 32.4101 235.069 32.1811C240.607 31.6721 246.16 30.1602 250.824 27.0792C252.908 25.5632 255.06 24.1312 257.035 22.4752C257.587 22.0112 258.46 22.1521 258.891 22.7061C259.341 23.2871 259.212 24.1011 258.66 24.5601C257.621 25.4271 256.533 26.2621 255.417 27.0341C251.122 30.3851 246.191 32.9451 240.806 33.9631C235.395 35.2361 229.795 34.9891 224.281 34.9321C218.083 34.4191 211.956 33.2392 205.757 32.7482C202.797 32.7102 199.836 32.6681 196.877 32.6451C192.728 33.4731 188.621 34.7191 184.702 36.3071C183.021 37.3631 181.51 38.6692 180.382 40.3112C180.048 41.1022 179.337 41.8802 178.416 41.4932Z" fill="#3E1D1F"/>
<path fill-rule="evenodd" clip-rule="evenodd" d="M290.08 69.3959C282.854 66.2079 278.932 59.0779 274.293 53.1139C268.753 47.4919 261.561 43.3509 253.614 42.7699C250.23 42.2759 246.823 41.7969 243.401 42.1539C241.689 42.1699 241.6 39.6009 243.349 39.5099C246.33 39.2099 249.312 39.4639 252.261 39.9159C255.191 40.3909 258.215 40.5549 261.03 41.5459C266.987 43.5249 272.305 47.2059 276.597 51.7539C278.407 54.0819 279.974 56.4939 281.779 58.7699C283.635 61.0419 285.414 63.4849 287.908 65.1069C289.033 65.8289 290.209 66.4709 291.387 67.0939C292.864 67.9629 291.623 70.2119 290.08 69.3959Z" fill="#3E1D1F"/>
<path fill-rule="evenodd" clip-rule="evenodd" d="M265.96 65.2472C255.359 64.8292 244.933 61.2053 236.246 55.1313C232.926 53.0293 229.582 50.9482 226.56 48.4222C220.005 45.0982 212.973 42.0473 205.505 42.1153C204.817 41.8993 204.359 41.2422 204.54 40.5122C204.971 39.0612 206.791 39.5283 207.938 39.5433C215.106 40.0943 221.914 43.0042 228.192 46.3352C231.842 49.4242 236.04 51.7412 239.96 54.4502C244.553 57.3482 249.65 59.4152 254.857 60.9112C258.552 62.0622 262.419 62.3323 266.253 62.6133C267.95 62.8353 267.708 65.3982 265.96 65.2472Z" fill="#3E1D1F"/>
<path fill-rule="evenodd" clip-rule="evenodd" d="M144.682 81.7493C143.689 81.2403 143.859 79.5803 144.971 79.3263C146.513 79.0173 147.773 78.8123 149.215 78.3303C155.791 75.4853 161.07 70.3303 165.028 64.4453C165.841 63.0323 168.113 64.0053 167.517 65.5773C164.154 70.2423 160.386 74.9413 155.366 77.9313C153.098 79.3633 150.789 80.8783 148.11 81.3723C146.933 81.5223 145.78 82.1753 144.682 81.7493Z" fill="#3E1D1F"/>
<path fill-rule="evenodd" clip-rule="evenodd" d="M292.061 91.6003C288.811 90.4463 285.337 89.2643 282.638 87.0573C281.622 86.0883 280.818 84.9293 280.103 83.8773C279.449 82.8853 278.918 81.8113 278.299 80.7963C277.629 80.1083 277.961 78.8433 278.899 78.6043C280.208 78.2703 280.782 79.7513 281.276 80.6643C282.359 82.5293 283.47 84.5163 285.273 85.7623C287.456 87.0623 289.851 87.9893 292.215 88.9003C294.271 89.1003 294.14 91.8813 292.061 91.6003Z" fill="#3E1D1F"/>
<path fill-rule="evenodd" clip-rule="evenodd" d="M147.048 137.137C144.968 135.287 143.976 132.639 145.284 130.03C145.744 129.095 146.339 128.165 146.302 127.082C146.052 125.042 143.908 122.851 141.758 123.394C141.278 123.887 140.869 124.576 140.044 124.389C138.654 124.07 138.726 122.475 139.706 121.7C140.508 120.784 141.764 120.538 142.926 120.716C145.42 120.796 147.386 122.832 148.443 124.948C149.073 126.232 149.063 127.721 148.636 129.07C148.236 130.331 147.282 131.421 147.32 132.811C147.368 134.392 150.128 135.368 148.911 136.998C148.454 137.528 147.572 137.627 147.048 137.137Z" fill="#DA7F5B"/>
<path fill-rule="evenodd" clip-rule="evenodd" d="M291.707 128.343C291.305 127.758 291.446 126.899 292.048 126.5C296.12 123.742 290.856 118.967 294.872 115.18C296.457 113.496 297.677 112.357 300.11 113.072C301.2 113.181 302.545 113.941 302.377 115.211C302.191 116.335 300.651 116.669 299.988 115.746C299.557 115.651 299.12 115.583 298.681 115.526C298.615 115.518 298.548 115.514 298.483 115.506C294.146 118.336 296.676 120.33 296.284 124.27C296.407 126.014 293.454 130.439 291.707 128.343Z" fill="#DA7F5B"/>
<path fill-rule="evenodd" clip-rule="evenodd" d="M236.174 147.405C238.097 147.835 240.288 149.152 240.269 151.359C239.603 156.97 234.293 160.385 229.699 162.809C227.577 163.929 225.197 164.298 222.877 164.765C220.709 165.259 218.435 165.46 216.227 165.195C211.4 164.8 206.922 162.687 203.124 159.751C201.139 158.377 199.107 156.503 198.993 153.932C198.958 151.413 200.406 148.572 203 147.953C207.27 146.928 211.532 148.755 215.793 149.006C218.293 149.378 220.797 149.036 223.302 148.831C224.217 148.683 225.237 148.683 226.05 148.504C226.648 148.482 227.434 148.299 228.17 148.253C230.814 147.568 233.443 146.805 236.174 147.405Z" fill="white"/>
<path fill-rule="evenodd" clip-rule="evenodd" d="M239.771 198.621C237.548 199.093 235.323 199.643 233.062 199.883C227.223 200.323 221.348 200.358 215.548 199.461C211.522 198.826 207.456 198.116 203.481 197.186C202.307 196.825 201.104 196.582 199.888 196.404C198.824 196.248 197.543 195.712 196.593 196.468C196.592 196.475 196.589 196.475 196.588 196.479C196.795 196.704 196.975 196.989 197.128 197.357C197.039 198.201 196.96 199.047 196.88 199.891C196.945 199.967 197.011 200.042 197.075 200.111C205.778 208.317 221.675 214.339 233.601 214.65C235.47 214.866 238.235 215.048 239.699 213.932C239.711 213.89 239.725 213.852 239.737 213.817C240.732 208.856 240.531 203.762 240.517 198.71C240.295 198.603 240.039 198.561 239.771 198.621Z" fill="#DA7F5B"/>
<path fill-rule="evenodd" clip-rule="evenodd" d="M164.059 568.363C164.082 568.854 163.865 569.267 163.603 569.66C162.972 571.694 161.802 572.455 159.722 572.654C157.956 572.982 156.186 573.333 154.377 573.209C148.632 572.925 142.873 573.234 137.12 572.98C132.622 572.281 128.11 571.565 123.605 570.956C120.181 570.136 120.92 565.86 121.326 563.237C121.538 561.139 120.717 557.569 124.02 558.062C127.795 558.464 131.576 559.288 135.27 559.988C138.757 560.902 142.252 561.733 145.865 561.986C150.7 562.727 155.522 563.901 160.45 563.674C161.216 563.717 161.807 563.217 162.552 563.181C163.289 563.165 163.868 563.759 163.905 564.477C163.948 565.772 164.048 567.065 164.059 568.363Z" fill="#3E1D1F"/>
<path fill-rule="evenodd" clip-rule="evenodd" d="M207.556 564.037C207.561 566.892 207.974 570.927 204.388 571.722C200.527 572.569 196.521 572.068 192.615 572.576C187.759 572.664 182.993 573.545 178.147 573.526C175.351 573.507 171.362 572.339 171.548 568.906C171.47 567.062 171.101 565.171 171.225 563.34C171.085 560.718 178.721 562.009 180.541 561.67C184.026 561.67 187.446 561.024 190.912 560.798C195.121 560.831 199.292 560.426 203.456 559.83C206.864 559.125 207.306 561.18 207.556 564.037Z" fill="#3E1D1F"/>
<path fill-rule="evenodd" clip-rule="evenodd" d="M264.61 557.843C267.196 558.115 276.045 556.684 275.121 561.004C274.659 563.65 275.872 568.847 272.868 570.075C270.854 570.56 268.735 570.406 266.674 570.545C262.549 570.692 258.415 570.963 254.284 570.899C252.641 570.956 251.067 569.887 251.739 568.091C252.253 566.56 252.569 564.983 252.862 563.398C253.079 562.275 253.283 561.152 253.54 560.042C253.313 559.234 253.959 558.4 254.793 558.386C258.048 558.02 261.331 557.783 264.61 557.843Z" fill="#3E1D1F"/>
<path fill-rule="evenodd" clip-rule="evenodd" d="M308.053 557.011C309.021 558.519 308.425 560.498 308.377 562.174C308.321 564.601 308.491 568.661 305.146 568.668C302.18 568.886 299.292 569.562 296.342 569.923C293.748 570.221 291.129 570.111 288.534 570.401C286.485 570.432 284.401 571.145 282.473 570.385C280.819 569.714 280.963 567.502 281.331 566.072C281.477 564.377 281.647 562.69 281.768 560.992C281.755 560.024 281.967 558.61 283.196 558.607C287.197 558.392 291.164 557.509 295.169 557.156C296.671 556.978 298.269 556.867 299.769 556.779C302.004 556.784 306.429 555.313 308.053 557.011Z" fill="#3E1D1F"/>
<path fill-rule="evenodd" clip-rule="evenodd" d="M179.124 101.207C182.377 101.412 185.624 100.827 188.877 100.728C191.824 100.162 195.621 100.75 197.747 98.232C200.145 93.962 191.52 93.571 188.978 93.765C185.87 94.212 182.66 94.171 179.526 94.764C178.193 94.999 176.6 95.178 175.759 96.386C173.814 98.825 176.659 101.195 179.124 101.207ZM177.977 97.864C177.956 97.955 177.943 98.047 177.94 98.144C177.902 98.114 177.863 98.087 177.825 98.053C177.864 97.981 177.91 97.914 177.977 97.864Z" fill="#3E1D1F"/>
<path fill-rule="evenodd" clip-rule="evenodd" d="M241.233 100.106C244.457 100.874 247.879 100.467 251.173 100.554C253.659 100.261 256.29 100.683 258.634 99.6423C261.668 98.3473 262.153 95.8893 258.803 94.6133C256.119 93.6823 253.189 93.5343 250.376 93.9403C248.872 93.6103 247.352 93.5903 245.818 93.7123C243.747 93.8603 241.51 93.7543 239.6 94.6693C236.799 96.2763 238.806 99.4443 241.233 100.106Z" fill="#3E1D1F"/>
<path fill-rule="evenodd" clip-rule="evenodd" d="M221.607 139.617C220.907 140.332 219.373 141.114 220.226 142.371C221.505 143.922 223.087 141.844 224.02 140.901C225.835 139.158 227.501 137.034 227.385 134.375C227.448 131.644 225.972 129.277 224.788 126.925C222.247 122.481 221.757 117.907 223.521 113.048C224.025 111.38 221.591 110.598 221.008 112.221C219.059 117.474 219.574 123.218 222.397 128.05C225.034 132.996 226.284 135.412 221.607 139.617Z" fill="#DA7F5B"/>
<path fill-rule="evenodd" clip-rule="evenodd" d="M72.8702 358.207C72.0822 358.455 71.8173 359.316 71.7703 360.065C71.7123 361.022 71.5283 361.975 71.3983 362.928C70.5183 369.195 70.3033 375.576 69.6243 381.88C69.2973 385.411 66.8272 388.599 67.5482 392.227C67.6362 393.248 68.1913 394.371 69.3413 394.418C72.7373 394.346 72.1253 390.388 71.9303 388.026C71.9173 386.722 72.0413 385.434 72.2603 384.153C72.4393 383.312 73.0593 382.287 72.3353 381.55C72.8733 376.056 73.1343 370.549 73.7783 365.065C73.9853 363.424 74.2682 361.79 74.4172 360.141C74.6902 359.67 74.6292 359.07 74.2822 358.616C73.9652 358.202 73.3582 358.055 72.8702 358.207Z" fill="#DA7F5B"/>
<path fill-rule="evenodd" clip-rule="evenodd" d="M90.956 161.606C89.981 161.405 88.971 161.667 87.978 161.647C87.607 161.621 87.235 161.617 86.864 161.61C86.59 161.378 86.228 161.253 85.855 161.305C83.471 160.713 82.11 158.555 80.951 156.428C80.733 155.983 80.501 155.554 80.255 155.132C80.145 154.931 80.032 154.73 79.921 154.528C79.859 154.392 79.7709 154.274 79.6679 154.165C77.8479 151.376 75.468 148.956 73.019 146.685C71.744 145.523 69.9759 147.441 71.2199 148.623C73.8309 151.031 76.43 153.675 78.157 156.79C78.333 157.144 78.517 157.504 78.713 157.861C79.271 159.05 79.694 160.3 79.943 161.633C78.749 161.587 77.5579 161.478 76.3659 161.223C73.9349 160.904 71.163 160.494 68.972 161.854C67.733 162.761 66.639 163.973 66.0541 165.394C62.4541 159.601 56.7469 155.328 51.0009 151.696C49.6639 150.951 48.31 150.15 46.884 149.614C46.1 149.508 45.289 149.606 44.495 149.599C43.3 149.587 41.262 149.507 41.461 151.228C41.593 152.022 42.3879 152.456 43.1419 152.291C44.2049 152.246 45.266 152.249 46.328 152.212C49.435 153.697 52.336 155.593 55.077 157.679C58.661 160.646 62.59 163.757 64.526 168.167C67.492 173.907 71.429 181.448 66.831 187.382C65.126 190.112 61.002 190.923 58.497 188.723C58.423 188.662 58.342 188.617 58.258 188.582C58.128 187.492 57.882 186.413 57.471 185.36C55.153 180.011 46.9509 174.146 41.6259 171.92C39.0069 170.659 36.332 169.353 33.451 168.874C32.311 168.9 31.179 168.965 30.039 168.9C28.971 169.04 27.531 168.466 26.766 169.431C26.166 170.206 26.7 171.483 27.695 171.547C29.577 171.525 31.462 171.589 33.342 171.521C39.128 173.173 44.623 175.886 49.275 179.802C51.679 181.934 54.506 184.075 55.343 187.331C56.125 190.237 55.564 193.216 55.183 196.133C54.927 199.15 52.239 200.43 49.478 200.153C47.378 199.621 45.4 198.121 44.582 196.081C44.206 194.728 44.082 193.259 43.155 192.13C40.912 189.953 37.708 189.054 35.347 186.998C34.513 186.349 33.391 185.155 32.38 186.208C31.9 186.729 31.9109 187.595 32.4489 188.077C32.9289 188.464 33.413 188.851 33.903 189.227C33.949 189.645 34.173 190.044 34.591 190.268C36.376 191.833 37.934 193.645 39.555 195.371C39.962 196.666 40.821 197.767 41.619 198.847C43.913 201.301 47.027 202.702 49.674 204.694C52.123 206.742 53.392 209.807 53.552 212.971C53.648 214.066 53.186 215.767 54.732 215.964C56.825 215.991 56.171 213.264 56.082 211.892C55.812 209.37 55.0889 206.859 53.4019 204.898C52.8519 204.079 52.178 203.378 51.438 202.756C55.15 202.296 57.665 199.721 57.92 195.633C58.115 194.361 58.2809 193.065 58.3449 191.774C59.0359 192.1 59.759 192.343 60.232 192.492C65.98 193.696 70.259 188.868 71.363 183.64C71.584 183.519 71.772 183.344 71.896 183.127C72.366 182.204 73.4259 182.147 74.3449 181.987C75.1999 182.033 76.039 182.511 76.683 183.05C76.574 183.536 76.387 184.057 76.347 184.535C75.175 185.739 74.157 187.088 73.285 188.524C71.798 190.848 70.805 193.424 69.808 195.989C69.38 196.988 68.959 197.994 68.902 199.096C68.7719 200.281 68.661 201.474 68.55 202.663C68.484 203.381 69.087 204.022 69.789 204.064C70.514 204.11 71.124 203.543 71.188 202.826C71.31 201.5 71.424 200.174 71.588 198.852C73.472 193.317 75.988 187.193 81.216 183.987C81.715 183.482 82.614 183.136 83.112 182.612C84.681 183.094 86.202 183.748 87.593 184.811C89.074 185.727 90.464 183.569 89.04 182.596C88.068 182.003 87.137 181.342 86.099 180.867C82.792 179.306 79.018 179.291 75.624 177.969C73.095 176.99 71.243 174.888 69.9 172.594C68.166 169.949 67.304 166.44 70.092 164.301C70.1 164.438 70.109 164.574 70.113 164.703C70.28 165.919 70.565 167.119 71.321 168.111C73.287 171.081 76.573 173.004 80.134 173.182C81.866 173.246 81.998 170.69 80.268 170.541C76.636 170.362 72.539 167.472 72.721 163.54C74.002 163.49 75.308 163.745 76.653 163.966C79.043 164.445 81.48 164.307 83.901 164.208C85.988 164.3 88.07 164.33 90.157 164.167C90.735 164.444 91.47 164.235 91.822 163.692C92.365 162.89 91.817 161.871 90.956 161.606Z" fill="#DA7F5B"/>
<path fill-rule="evenodd" clip-rule="evenodd" d="M334.907 431.994C331.597 430.768 328.394 429.288 325.578 427.135C324.981 426.397 323.713 426.599 323.34 427.465C322.73 428.96 324.638 429.567 325.544 430.317C328.122 432.211 331.148 433.348 334.127 434.522C335.792 435.004 336.552 432.555 334.907 431.994Z" fill="#DA7F5B"/>
<path fill-rule="evenodd" clip-rule="evenodd" d="M244.556 558.335C245.122 558.307 245.727 558.288 246.213 558.58C247.068 559.091 247.164 560.268 247.164 561.264C247.162 563.644 247.16 566.025 247.159 568.406C247.158 569.252 247.144 570.147 246.7 570.868C245.894 572.175 244.097 572.347 242.562 572.378C234.015 572.544 225.467 572.71 216.919 572.877C215.679 572.901 214.23 572.827 213.513 571.814C213.148 571.296 213.065 570.639 212.991 570.01C212.708 567.623 212.426 565.237 212.142 562.849C211.757 559.604 213.976 559.829 216.446 559.721C219.535 559.585 222.622 559.417 225.709 559.265C231.991 558.954 238.273 558.645 244.556 558.335Z" fill="#F4E1B3"/>
<path fill-rule="evenodd" clip-rule="evenodd" d="M112.97 375.588C114.222 372.284 115.638 369.065 117.275 365.936C119.051 362.336 120.82 358.741 122.518 355.102C124.001 351.81 125.722 348.5 126.305 344.859C126.724 343.382 126.737 340.889 124.704 340.783C123.568 340.773 122.93 341.801 122.533 342.712C121.625 344.92 120.942 347.225 120.394 349.55C119.847 352.303 119.153 355.013 117.958 357.565C112.473 369.401 106.242 380.841 101.389 392.982C100.263 395.571 99.1423 398.165 97.9603 400.73C97.6543 401.727 96.4822 402.74 97.0792 403.807C96.3352 405.555 96.7012 407.473 96.8502 409.296C97.0162 410.461 96.5322 412.298 97.8852 412.987C102.313 414.348 102.181 406.388 103.026 403.635C103.792 400.364 105.886 397.293 106.807 394.03C107.537 391.324 108.104 388.579 109.019 385.924C109.987 382.352 111.477 378.961 112.97 375.588Z" fill="#2B2B2B"/>
<path fill-rule="evenodd" clip-rule="evenodd" d="M124.938 325.767C124.832 326.916 124.044 328.85 125.673 329.246C127.539 329.529 127.319 327.284 127.56 326.058C127.704 325.092 127.854 324.093 127.995 323.106C128.304 320.835 128.743 318.514 128.933 316.208C128.996 313.52 128.904 310.822 128.781 308.136C128.58 300.811 126.528 293.456 123.2 286.948C122.197 285.515 120.073 286.977 121 288.418C123.937 294.373 125.868 301.008 126.119 307.664C126.259 310.255 126.278 312.843 126.32 315.434C126.202 317.849 125.737 320.109 125.411 322.549C125.253 323.612 125.09 324.692 124.938 325.767Z" fill="#2B2B2B"/>
<path fill-rule="evenodd" clip-rule="evenodd" d="M323.632 323.711C324.318 322.665 324.041 321.336 323.994 320.157C323.636 316.42 323.209 312.562 323.611 308.804C324.171 305.636 325.517 302.37 324.77 299.136C324.538 298.107 323.582 297.37 322.527 297.435C320.961 297.49 320.138 299.046 319.797 300.395C318.582 305.42 319.994 310.569 320.5 315.597C320.636 317.572 320.686 319.631 320.859 321.62C321.401 331.363 321.622 341.138 321.076 350.885C320.545 356.413 320.318 362.318 319.933 367.917C319.265 373.494 318.74 379.04 318.663 384.664C318.464 388.417 318.257 392.379 318.048 396.198C317.836 400.303 318.383 404.395 318.159 408.504C318.106 410.348 318.087 412.193 318.004 414.033C317.988 414.879 317.463 415.855 318.326 416.475C320.922 417.766 320.645 413.887 320.701 412.319C320.769 409.378 320.904 406.437 320.818 403.496C320.409 398.544 320.857 393.649 321.081 388.682C321.343 384.973 321.407 381.238 321.581 377.377C321.931 373.243 322.604 369.141 322.795 364.989C322.948 358.676 323.796 352.303 323.918 345.962C324.237 338.547 323.885 331.125 323.632 323.711Z" fill="#2B2B2B"/>
<path fill-rule="evenodd" clip-rule="evenodd" d="M310.646 554.198C306.087 556.269 300.994 556.404 296.06 556.744C292.871 556.751 289.711 557.077 286.492 556.917C282.023 556.62 277.525 556.323 273.052 556.669C267.073 557.297 261.07 557.086 255.074 556.834C250.946 556.776 246.837 556.978 242.707 557.134C239.429 557.303 236.181 557.457 232.945 557.61C233.74 556.453 233.526 554.233 233.78 553.01C234.018 550.791 234.232 548.57 234.457 546.349C235.244 538.244 235.155 530.012 234.516 521.897C234.156 519.343 233.856 516.792 233.697 514.219C233.336 510.893 232.538 507.627 232.315 504.288C234.118 503.336 235.93 502.381 237.917 501.613C240.091 500.83 241.859 499.321 243.847 498.187C245.971 497.034 247.767 495.386 249.648 493.914C252.99 491.593 256.739 489.787 259.761 487.033C260.457 486.364 261.192 485.494 261.413 484.503C261.771 482.417 259.304 481.842 257.874 482.844C256.273 483.58 255.466 485.147 254.49 486.51C253.324 487.926 251.453 488.742 250.429 490.272C248.278 491.461 246.484 493.126 244.544 494.612C242.544 495.897 240.496 497.153 238.501 498.452C235.864 499.659 233.154 500.699 230.651 502.195C227.832 503.77 224.717 504.88 221.74 506.153C218.342 507.282 215.041 508.665 211.686 509.913C210.115 510.465 208.552 511.03 206.967 511.542C206.283 511.764 205.888 512.515 206.107 513.201C206.326 513.889 207.096 514.282 207.767 514.061C210.542 513.165 213.288 512.163 215.999 511.089C219.31 509.733 222.826 508.67 226.106 507.196C227.383 506.738 228.585 506.185 229.766 505.599C230.083 508.781 230.852 511.917 231.114 515.111C231.241 517.73 231.673 520.322 231.964 522.923C232.529 529.75 232.383 536.619 232.114 543.455C231.641 547.623 231.313 551.814 230.781 555.972C230.367 556.558 230.309 557.237 230.6 557.721C219.326 558.248 208.196 558.75 196.662 559.578C186.89 559.388 177.183 560.949 167.472 561.781C161.037 561.908 154.591 560.64 148.138 560.316C144.517 560.092 140.687 559.651 137.026 559.42C133.564 558.984 130.114 558.468 126.614 558.45C124.357 558.398 122.093 558.304 119.838 558.279C116.78 558.545 113.609 558.583 110.688 557.505C110.362 557.382 110.03 557.247 109.831 556.948C109.335 556.426 108.483 556.403 107.961 556.901C105.76 560.144 113.814 561.128 116.352 561.065C121.16 560.899 125.984 560.962 130.79 561.302C140.647 562.573 150.645 563.051 160.563 564.102C165.096 564.676 169.646 564.415 174.153 563.749C177.93 563.3 181.727 563.036 185.51 562.649C189.146 562.247 192.799 562.207 196.453 562.225C201.832 561.853 207.233 561.709 212.6 561.164C226.404 560.643 240.197 559.71 254.054 559.463C261.084 559.752 268.096 559.909 275.107 559.173C279.845 559.024 284.571 559.595 289.306 559.589C293.475 559.444 297.645 559.419 301.791 558.934C304.754 558.741 307.734 558.239 310.481 557.088C311.5 556.863 312.773 556.197 312.349 554.966C312.105 554.314 311.311 553.918 310.646 554.198Z" fill="#2B2B2B"/>
<path fill-rule="evenodd" clip-rule="evenodd" d="M231.673 593.257C231.639 587.589 231.266 581.869 231.815 576.223C232.201 574.52 229.712 573.917 229.252 575.578C228.522 581.712 229.054 587.988 229.038 594.166C229.049 596.957 228.937 599.746 228.854 602.532H231.53C231.59 599.445 231.669 596.35 231.673 593.257Z" fill="#8D753D"/>
<path fill-rule="evenodd" clip-rule="evenodd" d="M233.053 491.258C232.912 488.597 232.75 485.937 232.601 483.277C232.186 475.182 231.998 467.1 231.926 458.955C231.016 443.601 230.88 428.21 230.76 412.828C230.769 408.688 230.54 404.564 230.355 400.432C230.272 393.711 230.366 386.9 230.342 380.164C230.142 370.096 230.336 360.025 230.286 349.954C229.641 338.045 229.978 326.116 230.582 314.21C230.753 309.473 230.186 304.762 229.954 300.039C229.852 294.366 230.124 288.685 229.947 283.017C230.093 274.633 229.193 266.299 228.499 257.964C228.501 253.808 227.638 249.728 227.082 245.625C226.858 244.679 226.604 243.736 226.363 242.795C226.164 242.658 225.95 242.556 225.708 242.51C224.968 242.373 224.233 242.811 223.797 243.438C223.831 243.563 223.861 243.688 223.895 243.809C225.346 249.444 225.766 255.251 226.047 261.052C227.731 274.056 227.257 287.178 227.319 300.257C227.66 306.235 228.292 312.207 227.74 318.198C227.327 328.273 227.027 338.372 227.61 348.446C227.716 360.143 227.521 371.838 227.714 383.535C227.659 391.425 227.548 399.316 228.029 407.193C228.285 421.035 228.162 434.913 228.825 448.751C229.358 460.733 229.396 472.733 230.037 484.717C230.139 487.647 230.535 490.584 230.404 493.512C230.166 494.152 230.477 494.9 231.108 495.177C231.756 495.47 232.556 495.167 232.853 494.505C233.224 493.469 233.079 492.342 233.053 491.258Z" fill="#2B2B2B"/>
<path fill-rule="evenodd" clip-rule="evenodd" d="M249.711 226.711C249.006 226.688 248.351 227.269 248.349 227.99C248.331 228.371 248.234 228.75 248.149 229.123C247.213 232.34 245.913 235.44 244.726 238.574C243.903 240.347 243.238 242.737 241.552 243.991C239.407 245.894 237.521 243.474 236.186 241.864C234.846 239.995 234.292 237.727 233.438 235.535C232.995 234.418 232.223 233.479 231.447 232.564C231.052 232.556 230.667 232.689 230.43 232.998C230.224 233.275 230.166 233.636 230.151 233.981C230.131 234.437 230.178 234.893 230.285 235.337C231.411 236.905 231.751 239.071 232.608 240.796C233.626 243.307 235.686 245.833 238.171 247.064C243.708 248.751 246.201 242.27 247.712 238.122C248.425 236.318 249.156 234.528 249.74 232.675C250.196 231.189 252.324 227.067 249.711 226.711Z" fill="#2B2B2B"/>
<path fill-rule="evenodd" clip-rule="evenodd" d="M217.304 233.879C217.108 233.518 216.791 233.203 216.399 233.1C214.192 235.801 212.164 238.582 210.123 241.477C207.683 244.174 206.401 248.368 202.515 249.333C199.806 250.473 198.115 248.224 197.239 245.937C196.131 243.597 194.934 241.017 193.557 238.772C191.588 235.657 189.739 232.466 187.605 229.458C186.692 227.935 184.86 226.305 184.66 224.55C185.354 222.958 183.046 221.891 182.262 223.441C181.357 225.215 182.715 226.966 183.61 228.448C187.166 233.33 190.456 238.393 193.28 243.754C194.78 246.622 195.667 250.3 198.817 251.842C202.568 253.27 206.792 250.771 208.953 247.709C210.59 245.11 212.493 242.71 214.273 240.206C215.243 238.865 216.4 237.35 217.486 235.989C217.664 235.284 217.645 234.514 217.304 233.879Z" fill="#2B2B2B"/>
<path d="M40 65.8328L50.6175 67.6026C55.8385 73.8431 62.982 78.6189 71.5521 80.9002C91.7646 86.2793 113.149 75.1805 120.428 55.5658C128.838 32.904 115.993 7.87602 92.4608 1.62845C72.4828 -3.67527 51.3443 7.08887 43.8498 26.3571C40.1296 35.9194 40.2391 45.9329 43.3526 54.8117L43.3397 54.7917L40 65.8328Z" fill="white"/>
<path d="M40 65.8329C40 65.8329 40.0542 65.602 40.1885 65.1295C40.331 64.6346 40.5336 63.9323 40.7975 63.0191C41.3559 61.1184 42.1687 58.3446 43.2219 54.7565L43.2949 54.5079L43.4433 54.7224L43.4575 54.7412L43.236 54.8543C41.542 50.0585 40.0966 43.2159 41.3017 35.1454C41.8872 31.1296 43.1748 26.8805 45.2504 22.6632C47.3603 18.4683 50.3666 14.3736 54.2564 10.8209C58.1568 7.29056 62.9526 4.34 68.3773 2.41577C73.7904 0.5045 79.8501 -0.451145 86.0053 0.207548C92.1498 0.812037 98.3462 2.85882 103.898 6.28308C109.481 9.67553 114.245 14.6458 117.658 20.5186C119.462 23.4527 120.669 26.6696 121.698 29.8758C121.931 30.6842 122.083 31.5137 122.279 32.3292C122.44 33.1516 122.708 33.9529 122.778 34.7872C122.879 35.6155 122.979 36.4427 123.078 37.264L123.22 38.4989L123.241 39.7386C123.482 46.3373 122.072 52.7793 119.512 58.4624C116.972 64.1774 113.034 68.9673 108.612 72.7027C104.164 76.438 99.1414 79.0846 94.0818 80.6565C89.0092 82.2095 83.9225 82.7127 79.2152 82.391C78.043 82.2543 76.8909 82.1212 75.7577 81.988C74.6291 81.8289 73.543 81.5308 72.4651 81.3152C70.3152 80.8485 68.3079 80.1415 66.4266 79.3815C58.8672 76.2766 53.7393 71.5479 50.5268 67.6806L50.5987 67.7218C47.1789 67.1209 44.5224 66.6542 42.6953 66.3326C41.8212 66.1747 41.1497 66.0533 40.6715 65.9673C40.2179 65.8836 40 65.8329 40 65.8329C40 65.8329 40.2533 65.8612 40.7209 65.9307C41.2086 66.005 41.8931 66.1098 42.7837 66.2465C44.599 66.5317 47.2389 66.9488 50.6363 67.4826L50.6799 67.4897L50.7082 67.5262C53.9454 71.3346 59.0686 75.9855 66.5726 79.0174C68.4398 79.7609 70.4307 80.4515 72.5629 80.9016C73.629 81.1101 74.7033 81.4012 75.8225 81.552C76.9428 81.6781 78.0831 81.8077 79.2422 81.9362C83.8978 82.2343 88.9232 81.7193 93.9287 80.1698C98.9211 78.6015 103.873 75.9726 108.253 72.2785C112.607 68.5832 116.482 63.8545 118.977 58.2173C121.491 52.6131 122.876 46.2619 122.633 39.7609L122.612 38.5402L122.471 37.3253C122.372 36.5146 122.273 35.7004 122.174 34.8838C122.106 34.0625 121.841 33.2742 121.682 32.4635C121.488 31.661 121.339 30.8433 121.109 30.0455C120.093 26.8887 118.907 23.719 117.127 20.8285C113.765 15.0417 109.073 10.1433 103.577 6.7992C98.1082 3.42207 92.0014 1.39768 85.9475 0.793195C79.8843 0.134502 73.9058 1.06656 68.5611 2.94012C63.2035 4.82665 58.4608 7.72655 54.598 11.2015C50.7459 14.6988 47.7608 18.7334 45.658 22.8718C43.5882 27.0313 42.2936 31.2333 41.6928 35.2066C40.4535 43.1899 41.8342 49.9866 43.4705 54.7718L43.7685 55.6438L43.2501 54.8826L43.2372 54.8626L43.4587 54.8284C42.3549 58.3658 41.5032 61.0995 40.9189 62.9755C40.6267 63.8934 40.4029 64.5992 40.2462 65.0988C40.0919 65.5784 40 65.8329 40 65.8329Z" fill="#1B2F36"/>
<path d="M90.7055 22.358C87.5638 20.2747 83.84 19.5512 81.4039 19.5677C79.1209 19.583 75.7659 19.9659 72.7372 21.7016C70.857 22.7798 69.3598 24.2457 68.289 26.058C67.0214 28.2049 66.3452 30.855 66.2793 33.9352C66.2687 34.3971 66.4442 34.8331 66.7681 35.163C67.0944 35.4953 67.5303 35.6756 67.9956 35.6732L73.98 35.632C74.8246 35.6261 75.5467 34.991 75.6587 34.1543C75.9131 32.2761 77.0051 29.1075 81.4816 29.0003C84.8944 28.919 86.3174 31.3793 86.7721 32.441C87.5107 34.1697 87.3387 36.2259 86.315 37.9427C84.7412 40.5775 81.8138 41.0017 80.2082 41.017C78.3646 41.037 76.872 42.5453 76.885 44.38L76.9286 50.8208C76.9345 51.7623 77.7049 52.5212 78.6461 52.5153L84.4762 52.4752C85.4174 52.4693 86.1772 51.6987 86.1701 50.7584L86.1595 49.4056C86.1595 49.3738 86.1807 49.3443 86.2126 49.3326C87.5284 48.86 90.0812 47.7229 92.3724 45.4134C95.2963 42.4664 96.7629 38.6768 96.7323 34.152C96.6899 27.6782 93.4315 24.1644 90.7055 22.358Z" fill="#F37064"/>
<path d="M81.862 54.1163L81.3519 54.1199C78.9134 54.1364 76.9426 56.1348 76.9591 58.574C76.9768 61.012 78.9735 62.9822 81.412 62.9669L81.9221 62.9633C84.3606 62.9468 86.3314 60.9495 86.3149 58.5115C86.2996 56.0712 84.3005 54.0987 81.862 54.1163Z" fill="#F37064"/>
</svg>
