<svg width="525" height="534" viewBox="0 0 525 534" fill="none" xmlns="http://www.w3.org/2000/svg">
<mask id="mask0_901_1423" style="mask-type:luminance" maskUnits="userSpaceOnUse" x="-22" y="0" width="547" height="548">
<path d="M524.706 0.352539H-21.863V547.07H524.706V0.352539Z" fill="white"/>
</mask>
<g mask="url(#mask0_901_1423)">
<path d="M392.311 406.451C386.126 399.173 377.572 394.788 371.625 393.116C366.058 391.546 357.618 390.118 349.024 392.215C343.688 393.518 339.013 396.034 335.133 399.692C330.536 404.028 327.026 410.003 324.701 417.456C324.353 418.575 324.468 419.758 325.028 420.79C325.591 421.828 326.524 422.573 327.66 422.894L342.258 427.005C344.317 427.584 346.52 426.546 347.382 424.59C349.318 420.193 354.205 413.247 365.183 416.135C373.548 418.34 375.282 425.329 375.642 428.233C376.226 432.959 374.365 437.848 370.663 441.305C364.975 446.616 357.555 445.585 353.635 444.498C349.131 443.246 344.441 445.871 343.181 450.348L338.76 466.062C338.114 468.356 339.455 470.747 341.748 471.394L355.972 475.398C358.266 476.043 360.657 474.702 361.303 472.409L362.233 469.107C362.256 469.028 362.323 468.972 362.408 468.968C365.948 468.744 372.962 467.769 380.161 463.759C389.352 458.639 395.586 450.447 398.693 439.41C403.138 423.613 397.675 412.769 392.311 406.451Z" fill="#E1E1E1"/>
</g>
<mask id="mask1_901_1423" style="mask-type:luminance" maskUnits="userSpaceOnUse" x="-22" y="0" width="547" height="548">
<path d="M524.706 0.352539H-21.863V547.07H524.706V0.352539Z" fill="white"/>
</mask>
<g mask="url(#mask1_901_1423)">
<path d="M348.456 477.55L347.211 477.2C341.263 475.526 335.06 479.002 333.387 484.953C331.713 490.903 335.188 497.106 341.138 498.78L342.382 499.13C348.331 500.804 354.532 497.328 356.207 491.378C357.881 485.428 354.405 479.224 348.456 477.55Z" fill="#E1E1E1"/>
</g>
<mask id="mask2_901_1423" style="mask-type:luminance" maskUnits="userSpaceOnUse" x="-22" y="0" width="547" height="548">
<path d="M524.706 0.352539H-21.863V547.07H524.706V0.352539Z" fill="white"/>
</mask>
<g mask="url(#mask2_901_1423)">
<path d="M423.657 319.428C419.362 317.075 414.462 316.544 411.308 316.831C408.355 317.102 404.052 317.965 400.321 320.544C398.003 322.144 396.226 324.207 395.038 326.669C393.631 329.589 393.045 333.093 393.296 337.089C393.335 337.687 393.607 338.234 394.064 338.624C394.523 339.016 395.108 339.205 395.71 339.149L403.453 338.442C404.546 338.342 405.41 337.441 405.465 336.345C405.586 333.885 406.654 329.665 412.439 329.034C416.849 328.556 418.961 331.587 419.665 332.911C420.811 335.068 420.815 337.748 419.676 340.083C417.926 343.67 414.182 344.535 412.107 344.734C409.719 344.96 407.954 347.077 408.171 349.451L408.931 357.786C409.044 359.003 410.123 359.903 411.34 359.792L418.884 359.102C420.1 358.99 421.001 357.91 420.889 356.693L420.73 354.941C420.726 354.901 420.75 354.86 420.789 354.843C422.444 354.087 425.624 352.333 428.336 349.094C431.8 344.957 433.284 339.891 432.75 334.037C431.987 325.661 427.385 321.469 423.657 319.428Z" fill="#F5F6F6"/>
</g>
<mask id="mask3_901_1423" style="mask-type:luminance" maskUnits="userSpaceOnUse" x="-22" y="0" width="547" height="548">
<path d="M524.706 0.352539H-21.863V547.07H524.706V0.352539Z" fill="white"/>
</mask>
<g mask="url(#mask3_901_1423)">
<path d="M415.682 361.512L415.021 361.572C411.865 361.861 409.533 364.662 409.82 367.819C410.11 370.975 412.91 373.308 416.066 373.021L416.727 372.961C419.882 372.67 422.215 369.869 421.927 366.712C421.638 363.555 418.836 361.223 415.682 361.512Z" fill="#F5F6F6"/>
</g>
<mask id="mask4_901_1423" style="mask-type:luminance" maskUnits="userSpaceOnUse" x="-22" y="0" width="547" height="548">
<path d="M524.706 0.352539H-21.863V547.07H524.706V0.352539Z" fill="white"/>
</mask>
<g mask="url(#mask4_901_1423)">
<path d="M113.555 141.482C110.645 138.614 106.835 137.071 104.239 136.582C101.808 136.125 98.1579 135.836 94.5768 137.054C92.3523 137.81 90.4546 139.059 88.9406 140.765C87.1446 142.785 85.8766 145.464 85.1682 148.728C85.0611 149.217 85.1562 149.718 85.4327 150.136C85.7115 150.556 86.1389 150.84 86.6341 150.933L93.0093 152.131C93.9078 152.301 94.8086 151.775 95.1004 150.909C95.7607 148.961 97.5797 145.818 102.364 146.633C106.013 147.255 107.017 150.167 107.279 151.392C107.706 153.383 107.098 155.536 105.652 157.149C103.43 159.628 100.229 159.469 98.5187 159.154C96.5521 158.791 94.6533 160.087 94.286 162.041L92.9962 168.902C92.8081 169.905 93.4706 170.874 94.4719 171.062L100.683 172.229C101.684 172.418 102.653 171.756 102.842 170.754L103.113 169.312C103.12 169.278 103.147 169.252 103.182 169.247C104.683 169.017 107.633 168.337 110.549 166.356C114.271 163.828 116.618 160.101 117.525 155.281C118.817 148.384 116.08 143.97 113.555 141.482Z" fill="#F5F6F6"/>
</g>
<mask id="mask5_901_1423" style="mask-type:luminance" maskUnits="userSpaceOnUse" x="-22" y="0" width="547" height="548">
<path d="M524.706 0.352539H-21.863V547.07H524.706V0.352539Z" fill="white"/>
</mask>
<g mask="url(#mask5_901_1423)">
<path d="M97.559 173.431L97.0168 173.33C94.4184 172.841 91.9075 174.556 91.4188 177.155C90.9324 179.753 92.6464 182.265 95.2448 182.753L95.7892 182.856C98.3854 183.344 100.896 181.628 101.385 179.03C101.873 176.431 100.157 173.92 97.559 173.431Z" fill="#F5F6F6"/>
</g>
<mask id="mask6_901_1423" style="mask-type:luminance" maskUnits="userSpaceOnUse" x="-22" y="0" width="547" height="548">
<path d="M524.706 0.352539H-21.863V547.07H524.706V0.352539Z" fill="white"/>
</mask>
<g mask="url(#mask6_901_1423)">
<path d="M412.122 143.673C407.836 141.304 402.94 140.754 399.784 141.029C396.83 141.287 392.522 142.133 388.783 144.697C386.459 146.289 384.674 148.343 383.476 150.802C382.057 153.715 381.457 157.218 381.693 161.214C381.729 161.813 381.999 162.36 382.453 162.754C382.911 163.148 383.495 163.338 384.098 163.285L391.844 162.608C392.937 162.513 393.806 161.615 393.864 160.52C393.995 158.061 395.08 153.843 400.868 153.236C405.279 152.777 407.379 155.814 408.078 157.142C409.215 159.304 409.208 161.985 408.06 164.314C406.296 167.894 402.549 168.746 400.474 168.935C398.085 169.151 396.311 171.261 396.52 173.636L397.248 181.974C397.354 183.191 398.431 184.095 399.647 183.989L407.194 183.33C408.411 183.224 409.315 182.147 409.209 180.929L409.056 179.177C409.053 179.135 409.076 179.096 409.115 179.079C410.773 178.33 413.961 176.59 416.685 173.361C420.167 169.238 421.672 164.178 421.16 158.322C420.427 149.94 415.84 145.729 412.122 143.673Z" fill="#ECEBEB"/>
</g>
<mask id="mask7_901_1423" style="mask-type:luminance" maskUnits="userSpaceOnUse" x="-22" y="0" width="547" height="548">
<path d="M524.706 0.352539H-21.863V547.07H524.706V0.352539Z" fill="white"/>
</mask>
<g mask="url(#mask7_901_1423)">
<path d="M403.978 185.726L403.318 185.784C400.161 186.059 397.818 188.852 398.094 192.01C398.37 195.167 401.163 197.511 404.318 197.235L404.979 197.177C408.135 196.902 410.477 194.109 410.202 190.951C409.927 187.795 407.135 185.45 403.978 185.726Z" fill="#ECEBEB"/>
</g>
<mask id="mask8_901_1423" style="mask-type:luminance" maskUnits="userSpaceOnUse" x="-22" y="0" width="547" height="548">
<path d="M524.706 0.352539H-21.863V547.07H524.706V0.352539Z" fill="white"/>
</mask>
<g mask="url(#mask8_901_1423)">
<path d="M179.226 395.639C173.862 393.112 167.901 392.833 164.112 393.412C160.563 393.956 155.425 395.316 151.106 398.708C148.425 400.814 146.43 403.436 145.174 406.501C143.689 410.131 143.238 414.411 143.837 419.221C143.927 419.943 144.296 420.581 144.878 421.021C145.46 421.462 146.182 421.644 146.904 421.534L156.21 420.107C157.523 419.905 158.502 418.755 158.486 417.427C158.453 414.443 159.432 409.264 166.379 408.077C171.671 407.173 174.446 410.678 175.394 412.228C176.939 414.751 177.142 417.991 175.936 420.897C174.085 425.361 169.626 426.682 167.131 427.073C164.263 427.523 162.286 430.21 162.724 433.064L164.257 443.082C164.481 444.545 165.853 445.551 167.314 445.327L176.382 443.938C177.844 443.714 178.852 442.34 178.628 440.877L178.306 438.774C178.297 438.725 178.323 438.675 178.369 438.65C180.313 437.617 184.027 435.263 187.067 431.148C190.948 425.894 192.37 419.663 191.292 412.627C189.751 402.558 183.88 397.83 179.226 395.639Z" fill="#ECEBEB"/>
</g>
<mask id="mask9_901_1423" style="mask-type:luminance" maskUnits="userSpaceOnUse" x="-22" y="0" width="547" height="548">
<path d="M524.706 0.352539H-21.863V547.07H524.706V0.352539Z" fill="white"/>
</mask>
<g mask="url(#mask9_901_1423)">
<path d="M172.686 447.084L171.891 447.205C168.101 447.786 165.489 451.346 166.069 455.137C166.65 458.93 170.207 461.543 173.999 460.963L174.792 460.842C178.586 460.263 181.197 456.703 180.615 452.91C180.035 449.117 176.478 446.504 172.686 447.084Z" fill="#ECEBEB"/>
</g>
<mask id="mask10_901_1423" style="mask-type:luminance" maskUnits="userSpaceOnUse" x="-22" y="0" width="547" height="548">
<path d="M524.706 0.352539H-21.863V547.07H524.706V0.352539Z" fill="white"/>
</mask>
<g mask="url(#mask10_901_1423)">
<path d="M97.6245 206.098C90.0829 202.561 81.7073 202.182 76.3848 203.008C71.399 203.781 64.1854 205.704 58.1262 210.479C54.3636 213.446 51.5652 217.135 49.8107 221.444C47.7337 226.548 47.1117 232.561 47.9643 239.315C48.0922 240.33 48.6137 241.226 49.4313 241.844C50.2534 242.463 51.2656 242.717 52.28 242.559L65.3518 240.532C67.197 240.247 68.5667 238.625 68.5427 236.759C68.4869 232.571 69.85 225.288 79.6063 223.604C87.0418 222.324 90.9476 227.24 92.2856 229.416C94.4598 232.955 94.7517 237.505 93.0672 241.589C90.4786 247.865 84.215 249.737 80.7136 250.292C76.6854 250.931 73.9132 254.713 74.5352 258.719L76.715 272.787C77.0331 274.842 78.9635 276.256 81.0175 275.937L93.7526 273.962C95.8066 273.643 97.2178 271.712 96.8997 269.658L96.4406 266.702C96.4297 266.632 96.4647 266.563 96.5303 266.53C99.2587 265.07 104.472 261.757 108.732 255.966C114.171 248.575 116.153 239.816 114.622 229.935C112.429 215.792 104.169 209.166 97.6245 206.098Z" fill="#ECEBEB"/>
</g>
<mask id="mask11_901_1423" style="mask-type:luminance" maskUnits="userSpaceOnUse" x="-22" y="0" width="547" height="548">
<path d="M524.706 0.352539H-21.863V547.07H524.706V0.352539Z" fill="white"/>
</mask>
<g mask="url(#mask11_901_1423)">
<path d="M88.5657 278.393L87.4518 278.566C82.126 279.391 78.464 284.396 79.2894 289.725C80.1147 295.053 85.1191 298.714 90.4448 297.889L91.5609 297.716C96.8856 296.89 100.548 291.884 99.7212 286.558C98.8981 281.23 93.8926 277.567 88.5657 278.393Z" fill="#ECEBEB"/>
</g>
</svg>
