<svg width="525" height="534" viewBox="0 0 525 534" fill="none" xmlns="http://www.w3.org/2000/svg">
<mask id="mask0_901_1424" style="mask-type:luminance" maskUnits="userSpaceOnUse" x="-22" y="0" width="547" height="548">
<path d="M524.706 0.352539H-21.863V547.07H524.706V0.352539Z" fill="white"/>
</mask>
<g mask="url(#mask0_901_1424)">
<path d="M325.234 274.494C272.721 273.997 225.199 273.546 190.753 273.218C173.568 273.136 159.659 273.069 149.999 273.023C145.213 273.034 141.49 273.044 138.918 273.047C137.676 273.066 136.722 273.077 136.036 273.088C135.387 273.103 135.055 273.12 135.055 273.139C135.055 273.16 135.388 273.18 136.034 273.204C136.72 273.219 137.676 273.242 138.917 273.273C141.49 273.303 145.212 273.349 149.997 273.409C159.657 273.461 173.568 273.535 190.751 273.627C225.2 273.649 272.722 273.678 325.239 273.712C377.728 273.706 425.26 273.775 459.669 274.024C476.874 274.147 490.799 274.308 500.42 274.492C505.23 274.584 508.967 274.68 511.501 274.776C514.033 274.875 515.364 274.971 515.364 275.065C515.363 275.159 514.031 275.242 511.498 275.315C508.964 275.385 505.228 275.445 500.416 275.486C490.79 275.573 476.867 275.593 459.662 275.542C425.25 275.444 377.721 275.03 325.234 274.494Z" fill="#ECEBEB"/>
</g>
<mask id="mask1_901_1424" style="mask-type:luminance" maskUnits="userSpaceOnUse" x="-22" y="0" width="547" height="548">
<path d="M524.706 0.352539H-21.863V547.07H524.706V0.352539Z" fill="white"/>
</mask>
<g mask="url(#mask1_901_1424)">
<path d="M324.188 286.182C272.391 277.638 225.519 269.902 191.545 264.296C174.58 261.583 160.849 259.385 151.313 257.86C146.585 257.14 142.904 256.577 140.363 256.19C139.133 256.018 138.188 255.885 137.51 255.79C136.866 255.707 136.535 255.674 136.53 255.693C136.526 255.714 136.853 255.787 137.489 255.908C138.163 256.029 139.105 256.2 140.325 256.419C142.858 256.846 146.53 257.463 151.247 258.258C160.783 259.789 174.512 261.997 191.472 264.723C225.499 270.022 272.441 277.332 324.314 285.409C376.168 293.446 423.113 300.793 457.063 306.316C474.04 309.073 487.77 311.367 497.246 313.027C501.985 313.856 505.66 314.524 508.146 315.009C510.632 315.496 511.932 315.798 511.916 315.892C511.901 315.986 510.572 315.866 508.057 315.549C505.543 315.233 501.841 314.718 497.083 314.024C487.561 312.635 473.801 310.522 456.814 307.835C422.837 302.464 375.951 294.765 324.188 286.182Z" fill="#ECEBEB"/>
</g>
<mask id="mask2_901_1424" style="mask-type:luminance" maskUnits="userSpaceOnUse" x="-22" y="0" width="547" height="548">
<path d="M524.706 0.352539H-21.863V547.07H524.706V0.352539Z" fill="white"/>
</mask>
<g mask="url(#mask2_901_1424)">
<path d="M321.298 297.567C271.513 281.078 226.462 266.156 193.804 255.343C177.488 250.027 164.279 245.724 155.105 242.736C150.55 241.291 147.005 240.165 144.556 239.387C143.371 239.026 142.46 238.749 141.803 238.547C141.181 238.366 140.858 238.283 140.852 238.301C140.845 238.322 141.154 238.445 141.764 238.664C142.41 238.889 143.312 239.202 144.483 239.609C146.917 240.425 150.444 241.605 154.975 243.122C164.147 246.117 177.352 250.43 193.666 255.758C226.422 266.275 271.613 280.785 321.548 296.817C371.473 312.804 416.66 327.352 449.306 338.081C465.631 343.441 478.822 347.841 487.915 350.95C492.461 352.507 495.984 353.74 498.362 354.607C500.74 355.472 501.975 355.973 501.943 356.065C501.913 356.155 500.619 355.83 498.185 355.13C495.753 354.427 492.18 353.345 487.59 351.92C478.409 349.072 465.158 344.847 448.811 339.552C416.116 328.973 371.044 314.084 321.298 297.567Z" fill="#ECEBEB"/>
</g>
<mask id="mask3_901_1424" style="mask-type:luminance" maskUnits="userSpaceOnUse" x="-22" y="0" width="547" height="548">
<path d="M524.706 0.352539H-21.863V547.07H524.706V0.352539Z" fill="white"/>
</mask>
<g mask="url(#mask3_901_1424)">
<path d="M316.629 308.348C270.094 284.342 227.98 262.616 197.455 246.869C182.189 239.087 169.83 232.786 161.248 228.412C156.981 226.277 153.659 224.615 151.366 223.468C150.253 222.926 149.396 222.509 148.782 222.21C148.197 221.934 147.892 221.8 147.882 221.818C147.873 221.837 148.159 222.005 148.725 222.317C149.329 222.638 150.168 223.087 151.259 223.671C153.534 224.852 156.828 226.566 161.063 228.767C169.642 233.147 181.994 239.455 197.255 247.248C227.924 262.721 270.235 284.067 316.99 307.655C363.741 331.195 406.042 352.582 436.571 368.24C451.838 376.069 464.163 382.459 472.648 386.942C476.891 389.182 480.173 390.944 482.385 392.167C484.594 393.391 485.733 394.074 485.689 394.16C485.645 394.243 484.42 393.722 482.13 392.65C479.841 391.576 476.485 389.952 472.18 387.832C463.569 383.59 451.158 377.361 435.859 369.596C405.261 354.071 363.124 332.377 316.629 308.348Z" fill="#ECEBEB"/>
</g>
<mask id="mask4_901_1424" style="mask-type:luminance" maskUnits="userSpaceOnUse" x="-22" y="0" width="547" height="548">
<path d="M524.706 0.352539H-21.863V547.07H524.706V0.352539Z" fill="white"/>
</mask>
<g mask="url(#mask4_901_1424)">
<path d="M310.304 318.276C268.145 287.389 229.992 259.436 202.337 239.176C188.493 229.136 177.284 221.008 169.5 215.364C165.624 212.596 162.606 210.442 160.525 208.955C159.51 208.248 158.729 207.705 158.17 207.315C157.637 206.95 157.357 206.772 157.344 206.789C157.332 206.805 157.587 207.016 158.099 207.411C158.643 207.822 159.4 208.395 160.387 209.14C162.446 210.658 165.429 212.857 169.261 215.684C177.041 221.333 188.243 229.469 202.08 239.517C229.921 259.53 268.33 287.136 310.774 317.643C353.219 348.103 391.612 375.747 419.285 395.924C433.123 406.009 444.283 414.222 451.954 419.957C455.789 422.825 458.751 425.072 460.741 426.622C462.731 428.171 463.747 429.023 463.69 429.1C463.634 429.177 462.506 428.473 460.414 427.061C458.323 425.647 455.266 423.527 451.349 420.769C443.516 415.253 432.245 407.187 418.364 397.158C390.601 377.106 352.418 349.179 310.304 318.276Z" fill="#ECEBEB"/>
</g>
<mask id="mask5_901_1424" style="mask-type:luminance" maskUnits="userSpaceOnUse" x="-22" y="0" width="547" height="548">
<path d="M524.706 0.352539H-21.863V547.07H524.706V0.352539Z" fill="white"/>
</mask>
<g mask="url(#mask5_901_1424)">
<path d="M302.489 327.107C265.712 290.129 232.431 256.664 208.308 232.409C196.215 220.366 186.423 210.617 179.626 203.847C176.233 200.518 173.592 197.927 171.769 196.138C170.88 195.286 170.195 194.628 169.702 194.157C169.232 193.715 168.985 193.497 168.969 193.511C168.954 193.525 169.175 193.772 169.616 194.24C170.091 194.73 170.749 195.412 171.605 196.299C173.4 198.115 176 200.745 179.339 204.126C186.134 210.9 195.917 220.654 208.003 232.705C232.349 256.743 265.937 289.908 303.053 326.558C340.179 363.161 373.746 396.356 397.898 420.533C409.979 432.619 419.709 442.444 426.382 449.285C429.72 452.706 432.291 455.38 434.012 457.217C435.733 459.051 436.603 460.049 436.535 460.116C436.467 460.181 435.465 459.314 433.621 457.596C431.777 455.882 429.092 453.319 425.66 449.991C418.792 443.341 408.928 433.643 396.799 421.607C372.534 397.539 339.219 364.095 302.489 327.107Z" fill="#ECEBEB"/>
</g>
<mask id="mask6_901_1424" style="mask-type:luminance" maskUnits="userSpaceOnUse" x="-22" y="0" width="547" height="548">
<path d="M524.706 0.352539H-21.863V547.07H524.706V0.352539Z" fill="white"/>
</mask>
<g mask="url(#mask6_901_1424)">
<path d="M293.379 334.633C262.881 292.461 235.282 254.298 215.277 226.635C205.23 212.883 197.095 201.751 191.446 194.021C188.619 190.212 186.419 187.248 184.901 185.201C184.156 184.221 183.582 183.467 183.171 182.927C182.778 182.418 182.566 182.163 182.549 182.175C182.532 182.187 182.71 182.465 183.074 182.997C183.462 183.552 184.008 184.327 184.713 185.334C186.199 187.404 188.353 190.401 191.119 194.254C196.761 201.987 204.889 213.125 214.926 226.883C235.185 254.365 263.136 292.279 294.021 334.175C324.925 376.028 352.848 413.973 372.896 441.558C382.922 455.351 390.985 466.55 396.498 474.331C399.254 478.225 401.375 481.259 402.785 483.337C404.195 485.414 404.897 486.534 404.819 486.59C404.741 486.646 403.888 485.633 402.337 483.655C400.785 481.677 398.538 478.732 395.669 474.921C389.934 467.296 381.719 456.207 371.636 442.455C351.463 414.956 323.827 376.807 293.379 334.633Z" fill="#ECEBEB"/>
</g>
<mask id="mask7_901_1424" style="mask-type:luminance" maskUnits="userSpaceOnUse" x="-22" y="0" width="547" height="548">
<path d="M524.706 0.352539H-21.863V547.07H524.706V0.352539Z" fill="white"/>
</mask>
<g mask="url(#mask7_901_1424)">
<path d="M283.19 340.665C259.752 294.306 238.543 252.355 223.169 221.947C215.424 206.815 209.154 194.565 204.799 186.059C202.611 181.861 200.907 178.594 199.732 176.339C199.152 175.257 198.704 174.423 198.383 173.826C198.075 173.263 197.906 172.979 197.887 172.988C197.869 172.998 198.001 173.3 198.274 173.88C198.571 174.49 198.985 175.339 199.521 176.443C200.664 178.717 202.314 182.009 204.436 186.241C208.783 194.75 215.043 207.004 222.777 222.14C238.433 252.41 260.031 294.168 283.897 340.312C307.788 386.413 329.355 428.197 344.784 458.538C352.502 473.707 358.69 486.012 362.901 494.551C365.006 498.817 366.616 502.143 367.681 504.414C368.744 506.684 369.259 507.9 369.173 507.942C369.088 507.983 368.406 506.853 367.187 504.662C365.968 502.468 364.213 499.214 361.986 495.007C357.528 486.593 351.172 474.37 343.391 459.231C327.826 428.96 306.579 387.017 283.19 340.665Z" fill="#ECEBEB"/>
</g>
<mask id="mask8_901_1424" style="mask-type:luminance" maskUnits="userSpaceOnUse" x="-22" y="0" width="547" height="548">
<path d="M524.706 0.352539H-21.863V547.07H524.706V0.352539Z" fill="white"/>
</mask>
<g mask="url(#mask8_901_1424)">
<path d="M272.166 345.046C256.416 295.628 242.162 250.906 231.831 218.49C226.595 202.346 222.357 189.276 219.414 180.199C217.922 175.714 216.761 172.224 215.96 169.814C215.559 168.655 215.249 167.763 215.029 167.123C214.812 166.52 214.691 166.213 214.67 166.219C214.65 166.225 214.732 166.545 214.912 167.16C215.106 167.808 215.379 168.712 215.734 169.885C216.497 172.307 217.602 175.815 219.024 180.323C221.96 189.401 226.187 202.474 231.409 218.623C242.043 250.944 256.712 295.533 272.923 344.808C289.165 394.042 303.801 438.653 314.198 471.01C319.4 487.188 323.549 500.3 326.345 509.386C327.743 513.928 328.803 517.463 329.492 519.869C330.18 522.276 330.494 523.553 330.403 523.583C330.311 523.61 329.817 522.389 328.963 520.036C328.109 517.68 326.896 514.192 325.365 509.693C322.305 500.692 317.978 487.636 312.709 471.481C302.163 439.171 287.87 394.451 272.166 345.046Z" fill="#ECEBEB"/>
</g>
<mask id="mask9_901_1424" style="mask-type:luminance" maskUnits="userSpaceOnUse" x="-22" y="0" width="547" height="548">
<path d="M524.706 0.352539H-21.863V547.07H524.706V0.352539Z" fill="white"/>
</mask>
<g mask="url(#mask9_901_1424)">
<path d="M260.579 347.66C252.905 296.414 245.962 250.038 240.928 216.422C238.334 199.666 236.233 186.101 234.775 176.681C234.017 172.02 233.427 168.393 233.021 165.889C232.81 164.682 232.647 163.752 232.531 163.086C232.415 162.456 232.344 162.135 232.323 162.138C232.302 162.141 232.334 162.468 232.411 163.105C232.5 163.775 232.626 164.709 232.791 165.923C233.158 168.433 233.69 172.069 234.373 176.741C235.824 186.162 237.915 199.728 240.499 216.487C245.843 250.055 253.216 296.367 261.363 347.542C269.548 398.685 276.885 445.012 281.991 478.579C284.548 495.363 286.553 508.956 287.867 518.362C288.522 523.064 289.007 526.721 289.303 529.202C289.599 531.687 289.705 532.997 289.61 533.011C289.515 533.026 289.223 531.743 288.755 529.285C288.287 526.827 287.646 523.195 286.854 518.515C285.268 509.151 283.079 495.584 280.452 478.811C275.191 445.268 268.206 398.889 260.579 347.66Z" fill="#ECEBEB"/>
</g>
<mask id="mask10_901_1424" style="mask-type:luminance" maskUnits="userSpaceOnUse" x="-22" y="0" width="547" height="548">
<path d="M524.706 0.352539H-21.863V547.07H524.706V0.352539Z" fill="white"/>
</mask>
<g mask="url(#mask10_901_1424)">
<path d="M248.716 348.456C249.189 296.655 249.617 249.777 249.927 215.798C249.998 198.848 250.057 185.126 250.098 175.597C250.083 170.877 250.073 167.203 250.066 164.667C250.048 163.443 250.035 162.5 250.025 161.824C250.008 161.183 249.991 160.855 249.97 160.855C249.95 160.855 249.929 161.183 249.906 161.823C249.891 162.499 249.869 163.441 249.838 164.666C249.809 167.202 249.764 170.875 249.707 175.595C249.66 185.124 249.594 198.847 249.512 215.797C249.509 249.777 249.509 296.657 249.507 348.458C249.545 400.237 249.505 447.123 249.272 481.067C249.159 498.038 249.003 511.772 248.824 521.266C248.734 526.011 248.64 529.697 248.542 532.196C248.446 534.694 248.347 536.007 248.252 536.005C248.158 536.005 248.072 534.692 247.998 532.193C247.923 529.693 247.863 526.007 247.816 521.261C247.724 511.768 247.695 498.032 247.735 481.06C247.815 447.118 248.204 400.23 248.716 348.456Z" fill="#ECEBEB"/>
</g>
<mask id="mask11_901_1424" style="mask-type:luminance" maskUnits="userSpaceOnUse" x="-22" y="0" width="547" height="548">
<path d="M524.706 0.352539H-21.863V547.07H524.706V0.352539Z" fill="white"/>
</mask>
<g mask="url(#mask11_901_1424)">
<path d="M236.865 347.432C245.497 296.333 253.307 250.092 258.969 216.573C261.71 199.839 263.927 186.292 265.467 176.885C266.196 172.22 266.764 168.59 267.154 166.082C267.328 164.87 267.462 163.937 267.558 163.268C267.642 162.632 267.675 162.306 267.656 162.302C267.636 162.299 267.561 162.619 267.439 163.248C267.317 163.913 267.144 164.84 266.922 166.045C266.491 168.546 265.867 172.167 265.066 176.821C263.518 186.228 261.29 199.772 258.537 216.504C253.187 250.072 245.805 296.381 237.649 347.557C229.538 398.712 222.117 445.025 216.539 478.519C213.754 495.266 211.437 508.811 209.763 518.16C208.925 522.835 208.249 526.462 207.758 528.913C207.267 531.367 206.962 532.648 206.868 532.633C206.772 532.616 206.891 531.307 207.212 528.826C207.532 526.346 208.049 522.695 208.75 517.999C210.152 508.606 212.284 495.032 215 478.274C220.423 444.754 228.199 398.498 236.865 347.432Z" fill="#ECEBEB"/>
</g>
<mask id="mask12_901_1424" style="mask-type:luminance" maskUnits="userSpaceOnUse" x="-22" y="0" width="547" height="548">
<path d="M524.706 0.352539H-21.863V547.07H524.706V0.352539Z" fill="white"/>
</mask>
<g mask="url(#mask12_901_1424)">
<path d="M225.324 344.586C242.008 295.467 257.106 251.018 268.049 218.797C273.427 202.697 277.779 189.664 280.804 180.614C282.266 176.119 283.404 172.622 284.191 170.207C284.557 169.037 284.839 168.136 285.04 167.489C285.224 166.875 285.307 166.557 285.289 166.55C285.268 166.544 285.145 166.849 284.923 167.451C284.694 168.089 284.377 168.978 283.965 170.132C283.141 172.536 281.946 176.015 280.41 180.485C277.38 189.534 273.017 202.564 267.627 218.659C256.986 250.978 242.307 295.563 226.083 344.834C209.908 394.092 195.189 438.672 184.334 470.884C178.911 486.99 174.458 500.005 171.311 508.977C169.738 513.464 168.49 516.938 167.613 519.283C166.736 521.63 166.229 522.848 166.137 522.817C166.044 522.788 166.371 521.513 167.081 519.112C167.791 516.712 168.886 513.185 170.328 508.655C173.211 499.598 177.484 486.524 182.84 470.396C193.546 438.14 208.611 393.67 225.324 344.586Z" fill="#ECEBEB"/>
</g>
<mask id="mask13_901_1424" style="mask-type:luminance" maskUnits="userSpaceOnUse" x="-22" y="0" width="547" height="548">
<path d="M524.706 0.352539H-21.863V547.07H524.706V0.352539Z" fill="white"/>
</mask>
<g mask="url(#mask13_901_1424)">
<path d="M214.392 339.991C238.699 294.071 260.697 252.514 276.641 222.393C284.52 207.329 290.899 195.134 295.327 186.666C297.49 182.454 299.175 179.177 300.335 176.916C300.884 175.817 301.307 174.971 301.608 174.365C301.888 173.787 302.023 173.486 302.004 173.476C301.985 173.467 301.815 173.749 301.5 174.309C301.174 174.904 300.72 175.733 300.128 176.81C298.93 179.055 297.195 182.305 294.967 186.482C290.532 194.948 284.145 207.138 276.255 222.197C260.589 252.459 238.975 294.21 215.092 340.345C191.256 386.476 169.606 428.217 153.749 458.342C145.823 473.406 139.352 485.568 134.814 493.943C132.546 498.129 130.762 501.369 129.522 503.549C128.284 505.729 127.59 506.854 127.504 506.809C127.42 506.767 127.948 505.56 129.033 503.298C130.118 501.042 131.762 497.729 133.909 493.481C138.203 484.983 144.509 472.737 152.373 457.641C168.094 427.449 190.061 385.868 214.392 339.991Z" fill="#ECEBEB"/>
</g>
<mask id="mask14_901_1424" style="mask-type:luminance" maskUnits="userSpaceOnUse" x="-22" y="0" width="547" height="548">
<path d="M524.706 0.352539H-21.863V547.07H524.706V0.352539Z" fill="white"/>
</mask>
<g mask="url(#mask14_901_1424)">
<path d="M204.323 333.757C235.609 292.149 263.922 254.497 284.443 227.206C294.613 213.542 302.845 202.48 308.562 194.799C311.366 190.973 313.546 187.997 315.053 185.941C315.769 184.941 316.32 184.17 316.715 183.618C317.084 183.091 317.265 182.814 317.248 182.802C317.23 182.79 317.018 183.042 316.618 183.548C316.202 184.085 315.621 184.834 314.867 185.806C313.329 187.838 311.101 190.782 308.238 194.564C302.516 202.241 294.276 213.297 284.096 226.954C263.827 254.43 235.864 292.336 204.964 334.222C174.11 376.11 146.112 414 125.676 441.308C115.459 454.965 107.141 465.981 101.331 473.549C98.428 477.334 96.1521 480.26 94.5812 482.222C93.0104 484.187 92.1479 485.189 92.0714 485.133C91.9938 485.077 92.7065 483.965 94.1374 481.9C95.5673 479.834 97.7153 476.82 100.509 472.953C106.096 465.225 114.265 454.1 124.424 440.402C144.734 413.002 173.02 375.319 204.323 333.757Z" fill="#ECEBEB"/>
</g>
<mask id="mask15_901_1424" style="mask-type:luminance" maskUnits="userSpaceOnUse" x="-22" y="0" width="547" height="548">
<path d="M524.706 0.352539H-21.863V547.07H524.706V0.352539Z" fill="white"/>
</mask>
<g mask="url(#mask15_901_1424)">
<path d="M195.365 326.052C232.83 289.753 266.734 256.901 291.309 233.089C303.509 221.152 313.386 211.488 320.245 204.777C323.619 201.428 326.242 198.822 328.055 197.023C328.92 196.144 329.585 195.467 330.063 194.983C330.51 194.518 330.733 194.273 330.717 194.259C330.703 194.245 330.454 194.461 329.977 194.899C329.482 195.366 328.79 196.016 327.893 196.861C326.053 198.633 323.389 201.199 319.963 204.496C313.101 211.202 303.218 220.859 291.01 232.788C266.655 256.82 233.053 289.972 195.926 326.608C158.843 363.254 125.211 396.384 100.717 420.225C88.4727 432.148 78.5164 441.753 71.5859 448.34C68.1207 451.634 65.4108 454.173 63.5503 455.871C61.6909 457.571 60.6808 458.429 60.6119 458.363C60.5452 458.294 61.4241 457.305 63.1633 455.486C64.9014 453.666 67.4998 451.016 70.8688 447.626C77.6069 440.848 87.431 431.111 99.626 419.139C124.007 395.191 157.89 362.308 195.365 326.052Z" fill="#ECEBEB"/>
</g>
<mask id="mask16_901_1424" style="mask-type:luminance" maskUnits="userSpaceOnUse" x="-22" y="0" width="547" height="548">
<path d="M524.706 0.352539H-21.863V547.07H524.706V0.352539Z" fill="white"/>
</mask>
<g mask="url(#mask16_901_1424)">
<path d="M187.73 317.069C230.463 286.959 269.134 259.711 297.164 239.959C311.098 230.039 322.378 222.008 330.21 216.431C334.07 213.64 337.074 211.469 339.148 209.969C340.14 209.234 340.904 208.667 341.452 208.262C341.967 207.872 342.225 207.663 342.213 207.647C342.2 207.631 341.919 207.807 341.381 208.165C340.817 208.55 340.032 209.087 339.011 209.784C336.913 211.251 333.878 213.377 329.974 216.109C322.136 221.68 310.851 229.704 296.91 239.614C269.063 259.616 230.645 287.21 188.191 317.702C145.783 348.213 107.335 375.782 79.3801 395.576C65.4054 405.474 54.0564 413.436 46.1716 418.878C42.2298 421.6 39.1515 423.693 37.045 425.086C34.9397 426.478 33.8061 427.17 33.7492 427.094C33.6935 427.02 34.7178 426.175 36.7226 424.645C38.7274 423.114 41.7106 420.894 45.5748 418.062C53.2989 412.4 64.5385 404.291 78.4728 394.333C106.338 374.418 144.995 347.132 187.73 317.069Z" fill="#ECEBEB"/>
</g>
<mask id="mask17_901_1424" style="mask-type:luminance" maskUnits="userSpaceOnUse" x="-22" y="0" width="547" height="548">
<path d="M524.706 0.352539H-21.863V547.07H524.706V0.352539Z" fill="white"/>
</mask>
<g mask="url(#mask17_901_1424)">
<path d="M181.609 307.024C228.59 283.876 271.104 262.928 301.922 247.742C317.257 240.092 329.67 233.901 338.292 229.6C342.545 227.438 345.856 225.755 348.142 224.595C349.239 224.022 350.084 223.58 350.688 223.263C351.259 222.957 351.546 222.791 351.537 222.773C351.526 222.755 351.221 222.885 350.633 223.156C350.016 223.449 349.153 223.858 348.036 224.388C345.732 225.514 342.395 227.145 338.107 229.241C329.482 233.536 317.065 239.718 301.725 247.357C271.049 262.818 228.732 284.15 181.966 307.721C135.245 331.318 92.9 352.619 62.1534 367.856C46.7806 375.478 34.3101 381.59 25.6579 385.75C21.3323 387.83 17.9611 389.421 15.6611 390.471C13.3612 391.522 12.1314 392.033 12.0866 391.947C12.0418 391.862 13.1885 391.188 15.4108 389.985C17.631 388.78 20.9312 387.048 25.1955 384.849C33.722 380.446 46.1083 374.168 61.4483 366.485C92.1272 351.109 134.634 330.125 181.609 307.024Z" fill="#ECEBEB"/>
</g>
<mask id="mask18_901_1424" style="mask-type:luminance" maskUnits="userSpaceOnUse" x="-22" y="0" width="547" height="548">
<path d="M524.706 0.352539H-21.863V547.07H524.706V0.352539Z" fill="white"/>
</mask>
<g mask="url(#mask18_901_1424)">
<path d="M177.16 296.153C227.248 280.585 272.575 266.496 305.43 256.284C321.795 251.109 335.041 246.92 344.24 244.01C348.786 242.535 352.324 241.388 354.765 240.595C355.941 240.201 356.845 239.895 357.493 239.676C358.106 239.462 358.417 239.341 358.409 239.323C358.402 239.303 358.08 239.385 357.456 239.56C356.799 239.755 355.884 240.024 354.694 240.373C352.24 241.128 348.684 242.22 344.115 243.624C334.914 246.526 321.664 250.706 305.295 255.867C272.536 266.376 227.343 280.876 177.403 296.895C127.5 312.949 82.2857 327.415 49.4894 337.692C33.0934 342.833 19.803 346.933 10.5955 349.697C5.99123 351.082 2.40902 352.13 -0.0308618 352.809C-2.46965 353.49 -3.76611 353.8 -3.79563 353.71C-3.82514 353.618 -2.58771 353.132 -0.200297 352.288C2.18712 351.443 5.72014 350.244 10.2818 348.732C19.4062 345.707 32.6375 341.432 49.0127 336.224C81.762 325.802 127.085 311.675 177.16 296.153Z" fill="#ECEBEB"/>
</g>
<mask id="mask19_901_1424" style="mask-type:luminance" maskUnits="userSpaceOnUse" x="-22" y="0" width="547" height="548">
<path d="M524.706 0.352539H-21.863V547.07H524.706V0.352539Z" fill="white"/>
</mask>
<g mask="url(#mask19_901_1424)">
<path d="M174.503 284.723C226.45 277.123 273.46 270.243 307.534 265.257C324.519 262.687 338.269 260.606 347.817 259.162C352.543 258.411 356.22 257.828 358.758 257.424C359.981 257.216 360.922 257.055 361.599 256.94C362.238 256.825 362.563 256.754 362.561 256.734C362.557 256.713 362.224 256.743 361.58 256.82C360.901 256.909 359.956 257.034 358.725 257.196C356.18 257.561 352.495 258.088 347.758 258.766C338.21 260.203 324.457 262.274 307.47 264.832C273.443 270.125 226.501 277.429 174.626 285.496C122.783 293.601 75.8252 300.869 41.7991 305.926C24.7866 308.458 11.0076 310.445 1.47439 311.747C-3.29279 312.399 -6.99852 312.877 -9.51602 313.172C-12.0346 313.465 -13.3628 313.571 -13.3781 313.477C-13.3912 313.383 -12.0893 313.092 -9.5991 312.632C-7.10893 312.168 -3.42725 311.534 1.31806 310.748C10.8109 309.178 24.5615 307.011 41.563 304.407C75.564 299.199 122.575 292.281 174.503 284.723Z" fill="#ECEBEB"/>
</g>
<mask id="mask20_901_1424" style="mask-type:luminance" maskUnits="userSpaceOnUse" x="-22" y="0" width="547" height="548">
<path d="M524.706 0.352539H-21.863V547.07H524.706V0.352539Z" fill="white"/>
</mask>
<g mask="url(#mask20_901_1424)">
<path d="M173.688 273.023C226.203 273.457 273.725 273.851 308.17 274.135C325.355 274.196 339.265 274.247 348.925 274.281C353.709 274.263 357.434 274.249 360.006 274.24C361.247 274.223 362.203 274.209 362.887 274.198C363.537 274.182 363.869 274.164 363.869 274.144C363.869 274.124 363.536 274.104 362.889 274.084C362.203 274.066 361.248 274.046 360.007 274.017C357.434 273.99 353.712 273.947 348.926 273.894C339.266 273.855 325.355 273.795 308.172 273.728C273.724 273.747 226.2 273.775 173.685 273.806C121.195 273.875 73.6641 273.866 39.2521 273.656C22.0483 273.556 8.12394 273.41 -1.49785 273.24C-6.30984 273.155 -10.0462 273.063 -12.5801 272.969C-15.1118 272.875 -16.4421 272.778 -16.441 272.684C-16.441 272.59 -15.1107 272.505 -12.5779 272.432C-10.044 272.356 -6.30766 272.294 -1.49458 272.246C8.1294 272.146 22.0549 272.11 39.2587 272.14C73.6706 272.197 121.202 272.55 173.688 273.023Z" fill="#ECEBEB"/>
</g>
<mask id="mask21_901_1424" style="mask-type:luminance" maskUnits="userSpaceOnUse" x="-22" y="0" width="547" height="548">
<path d="M524.706 0.352539H-21.863V547.07H524.706V0.352539Z" fill="white"/>
</mask>
<g mask="url(#mask21_901_1424)">
<path d="M174.72 261.333C226.528 269.815 273.41 277.49 307.392 283.053C324.359 285.744 338.093 287.925 347.629 289.439C352.36 290.154 356.041 290.71 358.584 291.097C359.813 291.265 360.759 291.397 361.438 291.491C362.082 291.574 362.413 291.608 362.416 291.588C362.42 291.568 362.095 291.496 361.458 291.374C360.783 291.253 359.842 291.086 358.621 290.868C356.086 290.443 352.413 289.83 347.696 289.044C338.16 287.521 324.426 285.332 307.463 282.629C273.429 277.371 226.477 270.12 174.593 262.106C122.732 254.136 75.7771 246.846 41.8177 241.367C24.838 238.629 11.1038 236.353 1.62522 234.706C-3.11353 233.884 -6.78976 233.219 -9.27665 232.737C-11.7646 232.255 -13.0644 231.953 -13.0491 231.859C-13.0327 231.766 -11.7045 231.882 -9.18919 232.197C-6.67389 232.512 -2.97252 233.019 1.78918 233.709C11.3115 235.085 25.0719 237.182 42.0647 239.848C76.0482 245.177 122.947 252.817 174.72 261.333Z" fill="#ECEBEB"/>
</g>
<mask id="mask22_901_1424" style="mask-type:luminance" maskUnits="userSpaceOnUse" x="-22" y="0" width="547" height="548">
<path d="M524.706 0.352539H-21.863V547.07H524.706V0.352539Z" fill="white"/>
</mask>
<g mask="url(#mask22_901_1424)">
<path d="M177.596 249.947C227.402 266.372 272.473 281.236 305.144 292.011C321.468 297.305 334.682 301.592 343.86 304.568C348.418 306.007 351.963 307.129 354.412 307.902C355.598 308.263 356.512 308.54 357.168 308.739C357.79 308.921 358.113 309.004 358.12 308.985C358.127 308.964 357.817 308.842 357.208 308.622C356.559 308.398 355.659 308.087 354.488 307.681C352.051 306.87 348.524 305.693 343.989 304.181C334.815 301.197 321.603 296.903 305.285 291.595C272.513 281.12 227.306 266.666 177.348 250.696C127.403 234.772 82.196 220.282 49.5363 209.594C33.206 204.254 20.0085 199.872 10.9114 196.772C6.3618 195.222 2.83862 193.994 0.458859 193.132C-1.91981 192.268 -3.15505 191.768 -3.12444 191.677C-3.09384 191.586 -1.79847 191.908 0.633757 192.607C3.06708 193.307 6.64164 194.384 11.2328 195.803C20.4174 198.64 33.6738 202.847 50.0283 208.12C82.7371 218.659 127.829 233.49 177.596 249.947Z" fill="#ECEBEB"/>
</g>
<mask id="mask23_901_1424" style="mask-type:luminance" maskUnits="userSpaceOnUse" x="-22" y="0" width="547" height="548">
<path d="M524.706 0.352539H-21.863V547.07H524.706V0.352539Z" fill="white"/>
</mask>
<g mask="url(#mask23_901_1424)">
<path d="M182.25 239.158C228.817 263.108 270.958 284.781 301.503 300.488C316.78 308.252 329.147 314.537 337.734 318.899C342.005 321.03 345.328 322.688 347.623 323.833C348.738 324.373 349.595 324.79 350.209 325.086C350.795 325.362 351.099 325.494 351.11 325.476C351.119 325.457 350.832 325.291 350.265 324.979C349.663 324.658 348.822 324.21 347.729 323.627C345.453 322.449 342.157 320.74 337.92 318.545C329.336 314.176 316.973 307.882 301.703 300.109C271.015 284.675 228.674 263.38 181.89 239.851C135.109 216.369 92.7808 195.038 62.232 179.415C46.9554 171.607 34.6216 165.231 26.1312 160.76C21.8865 158.525 18.6005 156.767 16.3902 155.546C14.1777 154.325 13.0376 153.642 13.0813 153.558C13.125 153.474 14.3504 153.994 16.6416 155.064C18.9329 156.134 22.291 157.753 26.5979 159.868C35.214 164.099 47.6332 170.311 62.9415 178.058C93.5592 193.545 135.725 215.187 182.25 239.158Z" fill="#ECEBEB"/>
</g>
<mask id="mask24_901_1424" style="mask-type:luminance" maskUnits="userSpaceOnUse" x="-22" y="0" width="547" height="548">
<path d="M524.706 0.352539H-21.863V547.07H524.706V0.352539Z" fill="white"/>
</mask>
<g mask="url(#mask24_901_1424)">
<path d="M188.563 229.224C230.762 260.057 268.95 287.963 296.629 308.187C310.488 318.212 321.706 326.325 329.496 331.958C333.377 334.722 336.397 336.872 338.48 338.357C339.496 339.064 340.278 339.607 340.837 339.995C341.371 340.358 341.651 340.535 341.664 340.52C341.676 340.502 341.42 340.294 340.91 339.899C340.364 339.489 339.605 338.917 338.618 338.173C336.556 336.657 333.573 334.461 329.735 331.638C321.948 326 310.735 317.878 296.884 307.845C269.019 287.868 230.574 260.307 188.093 229.853C145.609 199.446 107.18 171.851 79.4839 151.709C65.6328 141.641 54.4609 133.441 46.7838 127.716C42.9447 124.853 39.979 122.609 37.9873 121.063C35.9956 119.516 34.979 118.665 35.0348 118.589C35.0927 118.512 36.2197 119.214 38.3142 120.624C40.4075 122.034 43.4672 124.151 47.3883 126.904C55.2283 132.411 66.5095 140.463 80.4022 150.475C108.191 170.493 146.408 198.372 188.563 229.224Z" fill="#ECEBEB"/>
</g>
<mask id="mask25_901_1424" style="mask-type:luminance" maskUnits="userSpaceOnUse" x="-22" y="0" width="547" height="548">
<path d="M524.706 0.352539H-21.863V547.07H524.706V0.352539Z" fill="white"/>
</mask>
<g mask="url(#mask25_901_1424)">
<path d="M196.367 220.381C233.191 257.316 266.514 290.737 290.669 314.963C302.779 326.991 312.581 336.727 319.388 343.489C322.785 346.814 325.428 349.402 327.253 351.188C328.144 352.039 328.831 352.698 329.323 353.168C329.795 353.607 330.042 353.828 330.058 353.813C330.072 353.798 329.853 353.553 329.408 353.085C328.935 352.596 328.274 351.915 327.418 351.028C325.62 349.215 323.018 346.587 319.673 343.212C312.87 336.446 303.073 326.703 290.973 314.668C266.596 290.659 232.967 257.536 195.804 220.933C158.631 184.378 125.023 151.221 100.838 127.075C88.7439 115.005 79.0008 105.19 72.3184 98.357C68.9767 94.9401 66.4023 92.2699 64.6785 90.4362C62.9568 88.6025 62.0845 87.6064 62.1511 87.5397C62.22 87.473 63.2224 88.3401 65.0676 90.0535C66.9139 91.768 69.602 94.3288 73.0399 97.6496C79.9168 104.292 89.7933 113.977 101.938 125.998C126.232 150.036 159.59 183.438 196.367 220.381Z" fill="#ECEBEB"/>
</g>
<mask id="mask26_901_1424" style="mask-type:luminance" maskUnits="userSpaceOnUse" x="-22" y="0" width="547" height="548">
<path d="M524.706 0.352539H-21.863V547.07H524.706V0.352539Z" fill="white"/>
</mask>
<g mask="url(#mask26_901_1424)">
<path d="M205.468 212.844C236.02 254.978 263.667 293.108 283.707 320.747C293.773 334.485 301.921 345.608 307.58 353.331C310.412 357.136 312.614 360.098 314.136 362.143C314.883 363.121 315.457 363.875 315.869 364.415C316.263 364.923 316.476 365.177 316.491 365.165C316.509 365.154 316.331 364.876 315.967 364.345C315.576 363.789 315.032 363.014 314.325 362.008C312.836 359.94 310.679 356.947 307.907 353.099C302.254 345.373 294.114 334.244 284.058 320.499C263.764 293.042 235.764 255.162 204.826 213.304C173.87 171.49 145.897 133.582 125.814 106.019C115.771 92.2393 107.693 81.0502 102.17 73.2748C99.4096 69.3865 97.2845 66.3533 95.8733 64.2769C94.4598 62.2016 93.7559 61.083 93.8346 61.0283C93.9111 60.9725 94.767 61.9829 96.3193 63.9587C97.8737 65.9357 100.123 68.877 102.996 72.6854C108.742 80.3023 116.969 91.3842 127.071 105.122C147.279 132.594 174.964 170.707 205.468 212.844Z" fill="#ECEBEB"/>
</g>
<mask id="mask27_901_1424" style="mask-type:luminance" maskUnits="userSpaceOnUse" x="-22" y="0" width="547" height="548">
<path d="M524.706 0.352539H-21.863V547.07H524.706V0.352539Z" fill="white"/>
</mask>
<g mask="url(#mask27_901_1424)">
<path d="M215.647 206.8C239.145 253.128 260.408 295.053 275.821 325.443C283.587 340.563 289.871 352.806 294.236 361.306C296.431 365.501 298.138 368.766 299.317 371.019C299.898 372.102 300.346 372.935 300.667 373.531C300.978 374.095 301.146 374.378 301.164 374.368C301.184 374.36 301.051 374.059 300.778 373.478C300.48 372.869 300.065 372.02 299.525 370.918C298.382 368.645 296.726 365.354 294.599 361.126C290.241 352.622 283.964 340.376 276.211 325.249C260.518 294.998 238.865 253.267 214.94 207.153C190.99 161.08 169.368 119.324 153.9 89.0028C146.164 73.8434 139.961 61.5456 135.739 53.0146C133.627 48.748 132.011 45.424 130.946 43.1562C129.878 40.8873 129.362 39.6747 129.448 39.6321C129.533 39.5883 130.219 40.7179 131.44 42.9091C132.66 45.1003 134.419 48.3533 136.653 52.5576C141.122 60.9661 147.491 73.1808 155.292 88.3085C170.9 118.561 192.201 160.476 215.647 206.8Z" fill="#ECEBEB"/>
</g>
<mask id="mask28_901_1424" style="mask-type:luminance" maskUnits="userSpaceOnUse" x="-22" y="0" width="547" height="548">
<path d="M524.706 0.352539H-21.863V547.07H524.706V0.352539Z" fill="white"/>
</mask>
<g mask="url(#mask28_901_1424)">
<path d="M226.666 202.405C242.481 251.804 256.792 296.508 267.166 328.91C272.422 345.049 276.676 358.112 279.631 367.185C281.128 371.67 282.295 375.157 283.098 377.566C283.502 378.726 283.811 379.618 284.033 380.257C284.25 380.859 284.372 381.166 284.391 381.16C284.411 381.153 284.33 380.835 284.151 380.218C283.953 379.571 283.679 378.668 283.323 377.496C282.558 375.074 281.447 371.567 280.021 367.061C277.073 357.987 272.828 344.919 267.584 328.778C256.91 296.47 242.183 251.897 225.909 202.646C209.603 153.429 194.91 108.839 184.472 76.4939C179.25 60.3231 175.083 47.2161 172.277 38.1352C170.872 33.5952 169.805 30.0612 169.115 27.6557C168.424 25.2501 168.107 23.9719 168.2 23.9424C168.292 23.914 168.788 25.1342 169.644 27.4884C170.5 29.8415 171.717 33.3273 173.254 37.8257C176.327 46.8225 180.669 59.8737 185.96 76.0237C196.55 108.319 210.9 153.019 226.666 202.405Z" fill="#ECEBEB"/>
</g>
<mask id="mask29_901_1424" style="mask-type:luminance" maskUnits="userSpaceOnUse" x="-22" y="0" width="547" height="548">
<path d="M524.706 0.352539H-21.863V547.07H524.706V0.352539Z" fill="white"/>
</mask>
<g mask="url(#mask29_901_1424)">
<path d="M238.251 199.775C245.989 251.012 252.993 297.381 258.069 330.988C260.686 347.742 262.803 361.304 264.273 370.722C265.037 375.382 265.632 379.01 266.042 381.513C266.254 382.72 266.418 383.648 266.535 384.313C266.652 384.945 266.724 385.265 266.745 385.263C266.765 385.259 266.733 384.932 266.655 384.296C266.565 383.625 266.438 382.691 266.272 381.479C265.902 378.967 265.364 375.333 264.674 370.661C263.211 361.242 261.103 347.677 258.5 330.924C253.112 297.361 245.679 251.058 237.467 199.893C229.217 148.76 221.821 102.443 216.672 68.8813C214.094 52.1014 212.071 38.5111 210.746 29.1076C210.084 24.4058 209.595 20.7505 209.295 18.2673C208.996 15.7841 208.888 14.4731 208.982 14.4589C209.079 14.4446 209.372 15.7272 209.843 18.1853C210.313 20.6422 210.959 24.2724 211.758 28.9534C213.357 38.3165 215.563 51.8784 218.212 68.6484C223.516 102.187 230.557 148.559 238.251 199.775Z" fill="#ECEBEB"/>
</g>
<mask id="mask30_901_1424" style="mask-type:luminance" maskUnits="userSpaceOnUse" x="-22" y="0" width="547" height="548">
<path d="M524.706 0.352539H-21.863V547.07H524.706V0.352539Z" fill="white"/>
</mask>
<g mask="url(#mask30_901_1424)">
<path d="M250.112 198.966C249.704 250.768 249.337 297.646 249.07 331.626C249.019 348.576 248.976 362.298 248.949 371.827C248.97 376.549 248.985 380.22 248.996 382.757C249.015 383.981 249.029 384.922 249.039 385.6C249.058 386.241 249.075 386.57 249.095 386.57C249.116 386.57 249.137 386.241 249.158 385.6C249.174 384.925 249.195 383.983 249.222 382.757C249.248 380.222 249.29 376.549 249.34 371.827C249.374 362.3 249.423 348.576 249.485 331.626C249.443 297.646 249.383 250.766 249.319 198.964C249.215 147.187 249.198 100.299 249.386 66.3555C249.478 49.3832 249.617 35.6486 249.783 26.1565C249.866 21.4099 249.956 17.7239 250.05 15.2254C250.144 12.7269 250.242 11.4148 250.336 11.4148C250.43 11.4148 250.519 12.728 250.595 15.2276C250.672 17.7272 250.739 21.4132 250.791 26.1598C250.895 35.653 250.942 49.3887 250.923 66.361C250.887 100.304 250.558 147.191 250.112 198.966Z" fill="#ECEBEB"/>
</g>
<mask id="mask31_901_1424" style="mask-type:luminance" maskUnits="userSpaceOnUse" x="-22" y="0" width="547" height="548">
<path d="M524.706 0.352539H-21.863V547.07H524.706V0.352539Z" fill="white"/>
</mask>
<g mask="url(#mask31_901_1424)">
<path d="M261.962 199.975C253.397 251.085 245.646 297.337 240.03 330.862C237.312 347.599 235.111 361.149 233.582 370.559C232.861 375.226 232.298 378.856 231.911 381.363C231.738 382.576 231.605 383.512 231.51 384.18C231.427 384.814 231.395 385.141 231.415 385.145C231.434 385.15 231.508 384.829 231.629 384.199C231.751 383.534 231.922 382.606 232.143 381.401C232.57 378.898 233.189 375.278 233.985 370.623C235.521 361.214 237.732 347.668 240.463 330.933C245.769 297.357 253.092 251.037 261.181 199.852C269.225 148.687 276.586 102.365 282.119 68.8628C284.882 52.1114 287.182 38.5637 288.845 29.2127C289.676 24.5371 290.347 20.9113 290.833 18.4566C291.321 16.0029 291.626 14.7225 291.721 14.7367C291.816 14.752 291.697 16.063 291.38 18.544C291.063 21.025 290.55 24.676 289.856 29.3734C288.466 38.7682 286.35 52.3443 283.657 69.1066C278.277 102.632 270.563 148.898 261.962 199.975Z" fill="#ECEBEB"/>
</g>
<mask id="mask32_901_1424" style="mask-type:luminance" maskUnits="userSpaceOnUse" x="-22" y="0" width="547" height="548">
<path d="M524.706 0.352539H-21.863V547.07H524.706V0.352539Z" fill="white"/>
</mask>
<g mask="url(#mask32_901_1424)">
<path d="M273.508 202.805C256.889 251.945 241.849 296.416 230.947 328.648C225.59 344.755 221.254 357.793 218.243 366.849C216.787 371.344 215.652 374.845 214.87 377.259C214.505 378.429 214.225 379.331 214.025 379.977C213.841 380.593 213.757 380.911 213.777 380.917C213.797 380.922 213.92 380.618 214.142 380.016C214.368 379.377 214.684 378.487 215.096 377.334C215.916 374.929 217.108 371.448 218.636 366.973C221.655 357.923 225.999 344.887 231.369 328.784C241.969 296.453 256.59 251.849 272.748 202.558C288.859 153.28 303.519 108.679 314.332 76.4544C319.736 60.3415 324.171 47.3209 327.307 38.3449C328.874 33.8563 330.117 30.3792 330.991 28.0327C331.864 25.6851 332.37 24.467 332.462 24.4976C332.555 24.5272 332.229 25.8032 331.522 28.2044C330.816 30.6056 329.726 34.1319 328.29 38.6631C325.419 47.7255 321.163 60.804 315.829 76.9387C305.165 109.213 290.158 153.702 273.508 202.805Z" fill="#ECEBEB"/>
</g>
<mask id="mask33_901_1424" style="mask-type:luminance" maskUnits="userSpaceOnUse" x="-22" y="0" width="547" height="548">
<path d="M524.706 0.352539H-21.863V547.07H524.706V0.352539Z" fill="white"/>
</mask>
<g mask="url(#mask33_901_1424)">
<path d="M311.138 230.274C268.443 260.439 229.808 287.737 201.802 307.522C187.882 317.459 176.611 325.504 168.786 331.091C164.93 333.887 161.929 336.061 159.857 337.564C158.864 338.301 158.102 338.867 157.555 339.275C157.041 339.665 156.783 339.873 156.795 339.89C156.807 339.908 157.089 339.73 157.627 339.371C158.19 338.984 158.974 338.448 159.995 337.75C162.089 336.279 165.122 334.15 169.024 331.414C176.853 325.832 188.129 317.795 202.056 307.867C229.877 287.831 268.26 260.189 310.675 229.641C353.044 199.078 391.454 171.461 419.384 151.632C433.347 141.715 444.686 133.741 452.564 128.288C456.504 125.562 459.578 123.466 461.682 122.07C463.785 120.675 464.918 119.98 464.974 120.056C465.03 120.133 464.007 120.977 462.004 122.511C460.002 124.044 457.021 126.267 453.162 129.103C445.443 134.776 434.216 142.899 420.295 152.872C392.455 172.825 353.834 200.158 311.138 230.274Z" fill="#ECEBEB"/>
</g>
<mask id="mask34_901_1424" style="mask-type:luminance" maskUnits="userSpaceOnUse" x="-22" y="0" width="547" height="548">
<path d="M524.706 0.352539H-21.863V547.07H524.706V0.352539Z" fill="white"/>
</mask>
<g mask="url(#mask34_901_1424)">
<path d="M317.272 240.314C270.322 263.522 227.835 284.523 197.037 299.747C181.712 307.416 169.307 313.624 160.692 317.936C156.439 320.101 153.132 321.788 150.847 322.953C149.752 323.527 148.907 323.97 148.302 324.288C147.733 324.595 147.444 324.762 147.454 324.779C147.464 324.795 147.77 324.665 148.358 324.394C148.975 324.101 149.836 323.691 150.952 323.157C153.254 322.03 156.591 320.394 160.876 318.295C169.494 313.989 181.903 307.79 197.236 300.132C227.89 284.631 270.18 263.248 316.913 239.616C363.605 215.96 405.922 194.606 436.649 179.328C452.012 171.687 464.474 165.56 473.12 161.389C477.444 159.304 480.812 157.708 483.112 156.655C485.412 155.601 486.64 155.09 486.684 155.175C486.728 155.259 485.583 155.935 483.363 157.142C481.142 158.348 477.845 160.085 473.585 162.291C465.063 166.704 452.685 172.996 437.354 180.699C406.697 196.114 364.217 217.153 317.272 240.314Z" fill="#ECEBEB"/>
</g>
<mask id="mask35_901_1424" style="mask-type:luminance" maskUnits="userSpaceOnUse" x="-22" y="0" width="547" height="548">
<path d="M524.706 0.352539H-21.863V547.07H524.706V0.352539Z" fill="white"/>
</mask>
<g mask="url(#mask35_901_1424)">
<path d="M294.523 213.609C263.292 255.256 235.027 292.944 214.542 320.26C204.39 333.939 196.171 345.01 190.464 352.698C187.665 356.527 185.489 359.509 183.983 361.564C183.271 362.566 182.72 363.337 182.325 363.89C181.958 364.417 181.777 364.695 181.795 364.706C181.81 364.717 182.023 364.464 182.422 363.958C182.838 363.422 183.418 362.672 184.171 361.699C185.706 359.664 187.931 356.718 190.789 352.932C196.502 345.248 204.728 334.181 214.89 320.511C235.124 293.011 263.038 255.071 293.884 213.146C324.682 171.218 352.633 133.295 373.034 105.959C383.232 92.2896 391.536 81.2645 397.335 73.687C400.234 69.8983 402.506 66.9723 404.074 65.0063C405.642 63.0414 406.504 62.0365 406.581 62.0934C406.657 62.1491 405.947 63.2622 404.518 65.3277C403.091 67.3943 400.946 70.4133 398.159 74.2819C392.58 82.0201 384.425 93.1534 374.284 106.864C354.009 134.291 325.771 172.008 294.523 213.609Z" fill="#ECEBEB"/>
</g>
<mask id="mask36_901_1424" style="mask-type:luminance" maskUnits="userSpaceOnUse" x="-22" y="0" width="547" height="548">
<path d="M524.706 0.352539H-21.863V547.07H524.706V0.352539Z" fill="white"/>
</mask>
<g mask="url(#mask36_901_1424)">
<path d="M303.492 221.302C266.074 257.648 232.213 290.542 207.669 314.385C195.483 326.338 185.619 336.014 178.769 342.733C175.4 346.085 172.78 348.695 170.97 350.496C170.105 351.377 169.441 352.053 168.964 352.54C168.517 353.004 168.295 353.251 168.309 353.264C168.324 353.279 168.574 353.06 169.048 352.623C169.543 352.157 170.234 351.504 171.131 350.658C172.969 348.884 175.63 346.314 179.05 343.013C185.905 336.298 195.776 326.629 207.969 314.684C232.291 290.624 265.849 257.43 302.932 220.746C339.968 184.055 373.556 150.881 398.019 127.009C410.249 115.071 420.191 105.454 427.114 98.8588C430.576 95.561 433.281 93.0177 435.139 91.3174C436.997 89.616 438.006 88.7555 438.074 88.8233C438.142 88.89 437.264 89.8806 435.527 91.7023C433.792 93.524 431.198 96.1767 427.832 99.5707C421.102 106.359 411.292 116.106 399.112 128.093C374.76 152.074 340.92 185 303.492 221.302Z" fill="#ECEBEB"/>
</g>
<mask id="mask37_901_1424" style="mask-type:luminance" maskUnits="userSpaceOnUse" x="-22" y="0" width="547" height="548">
<path d="M524.706 0.352539H-21.863V547.07H524.706V0.352539Z" fill="white"/>
</mask>
<g mask="url(#mask37_901_1424)">
<path d="M321.734 251.179C271.666 266.811 226.358 280.956 193.516 291.211C177.159 296.407 163.918 300.613 154.722 303.532C150.179 305.014 146.643 306.165 144.201 306.962C143.027 307.359 142.124 307.665 141.475 307.885C140.864 308.098 140.554 308.221 140.561 308.239C140.565 308.259 140.89 308.177 141.513 308C142.17 307.805 143.085 307.534 144.273 307.182C146.727 306.427 150.281 305.329 154.848 303.919C164.046 301.006 177.29 296.81 193.651 291.627C226.397 281.077 271.571 266.521 321.491 250.436C371.373 234.319 416.568 219.797 449.35 209.478C465.741 204.316 479.025 200.198 488.229 197.423C492.831 196.035 496.411 194.982 498.851 194.298C501.287 193.615 502.584 193.302 502.613 193.393C502.643 193.482 501.405 193.973 499.021 194.82C496.634 195.667 493.103 196.87 488.544 198.388C479.423 201.424 466.197 205.717 449.829 210.946C417.094 221.41 371.789 235.595 321.734 251.179Z" fill="#ECEBEB"/>
</g>
<mask id="mask38_901_1424" style="mask-type:luminance" maskUnits="userSpaceOnUse" x="-22" y="0" width="547" height="548">
<path d="M524.706 0.352539H-21.863V547.07H524.706V0.352539Z" fill="white"/>
</mask>
<g mask="url(#mask38_901_1424)">
<path d="M324.407 262.605C272.47 270.272 225.469 277.21 191.4 282.24C174.419 284.83 160.671 286.93 151.124 288.386C146.401 289.139 142.724 289.73 140.186 290.136C138.963 290.347 138.023 290.51 137.347 290.624C136.709 290.741 136.383 290.812 136.386 290.831C136.389 290.853 136.721 290.82 137.366 290.744C138.044 290.652 138.991 290.528 140.222 290.363C142.766 289.996 146.451 289.464 151.186 288.781C160.732 287.331 174.483 285.245 191.467 282.664C225.487 277.327 272.422 269.966 324.284 261.831C376.117 253.66 423.065 246.334 457.084 241.233C474.093 238.68 487.87 236.675 497.401 235.363C502.167 234.705 505.872 234.221 508.39 233.924C510.908 233.628 512.236 233.52 512.25 233.614C512.267 233.708 510.965 234 508.474 234.464C505.985 234.93 502.303 235.57 497.559 236.36C488.068 237.943 474.321 240.128 457.323 242.753C423.328 248.004 376.325 254.983 324.407 262.605Z" fill="#ECEBEB"/>
</g>
<mask id="mask39_901_1424" style="mask-type:luminance" maskUnits="userSpaceOnUse" x="-22" y="0" width="547" height="548">
<path d="M524.706 0.352539H-21.863V547.07H524.706V0.352539Z" fill="white"/>
</mask>
<g mask="url(#mask39_901_1424)">
<path d="M284.446 207.389C260.197 253.339 238.255 294.924 222.349 325.063C214.491 340.138 208.128 352.341 203.709 360.813C201.551 365.028 199.873 368.309 198.715 370.571C198.168 371.671 197.746 372.518 197.446 373.123C197.167 373.701 197.032 374.003 197.051 374.012C197.069 374.023 197.239 373.741 197.554 373.179C197.879 372.585 198.333 371.754 198.922 370.678C200.117 368.431 201.846 365.179 204.07 360.997C208.495 352.527 214.866 340.329 222.736 325.259C238.364 294.976 259.923 253.198 283.746 207.032C307.521 160.871 329.117 119.103 344.937 88.958C352.841 73.8839 359.299 61.7129 363.824 53.335C366.087 49.146 367.868 45.9051 369.104 43.7215C370.339 41.5379 371.032 40.4138 371.117 40.4565C371.202 40.5002 370.676 41.7085 369.593 43.9697C368.509 46.2309 366.87 49.5429 364.728 53.7942C360.445 62.2967 354.155 74.5509 346.312 89.6566C330.631 119.873 308.717 161.48 284.446 207.389Z" fill="#ECEBEB"/>
</g>
</svg>
