<svg width="354" height="603" viewBox="0 0 354 603" fill="none" xmlns="http://www.w3.org/2000/svg">
<mask id="mask0_1104_3672" style="mask-type:alpha" maskUnits="userSpaceOnUse" x="0" y="0" width="354" height="603">
<rect width="354" height="603" fill="#D9D9D9"/>
</mask>
<g mask="url(#mask0_1104_3672)">
<path fill-rule="evenodd" clip-rule="evenodd" d="M197.75 118.37C198.296 115.879 195.655 113.713 193.384 113.425C191.579 112.597 189.73 114.025 188.483 115.229C186.116 117.74 187.447 121.684 190.616 122.717C193.681 123.859 197.104 121.421 197.75 118.37Z" fill="#3E1D1F"/>
<path fill-rule="evenodd" clip-rule="evenodd" d="M251.514 112.356C249.646 111.027 247.164 112.368 245.605 113.622C243.203 116.35 245.585 121.304 249.252 121.045C253.689 121.296 256.887 114.636 251.95 112.752C251.839 112.589 251.691 112.455 251.514 112.356Z" fill="#3E1D1F"/>
</g>
</svg>
