<svg width="109" height="86" viewBox="0 0 109 86" fill="none" xmlns="http://www.w3.org/2000/svg">
<mask id="mask0_555_7307" style="mask-type:alpha" maskUnits="userSpaceOnUse" x="0" y="0" width="109" height="86">
<rect width="109" height="86" fill="#D9D9D9"/>
</mask>
<g mask="url(#mask0_555_7307)">
<path d="M79.4763 113.819L18 97.5233L42.5209 5L103.996 21.2958C106.869 22.0575 108.58 25.0033 107.819 27.8755L86.0553 109.996C85.2937 112.869 82.3482 114.58 79.4763 113.819Z" fill="#485A28"/>
<path d="M55.0039 101.776C55.4801 104.097 53.9829 106.358 51.662 106.833L37.2164 109.787C34.895 110.263 32.6281 108.768 32.1551 106.447L13.0136 12.9026C12.5383 10.5849 14.035 8.31906 16.3551 7.844L30.8015 4.89141C33.1234 4.41634 35.3875 5.91377 35.8624 8.23098L55.0039 101.776Z" fill="#C5D4D0"/>
<path d="M17.989 7.51099L16.3551 7.84391C14.035 8.31898 12.5383 10.5848 13.0136 12.9025L32.1551 106.447C32.6281 108.768 34.8945 110.262 37.2164 109.787L38.8494 109.454L17.989 7.51099Z" fill="#383938"/>
<path d="M33.3188 20.142L33.9063 19.7614C33.9063 19.7614 33.9036 19.761 33.9018 19.7569C33.9018 19.7569 33.4765 19.3722 33.3942 19.3758C33.3311 19.3799 31.3559 19.791 30.4358 19.9826C30.4231 19.9676 30.4085 19.9508 30.3981 19.9363C30.1432 19.6252 29.8687 19.2964 29.5793 18.9512C29.552 18.9208 29.5311 18.8885 29.5029 18.8599C29.3607 18.6891 29.2149 18.5188 29.0663 18.3435C29.0445 18.3154 29.0213 18.2908 28.9995 18.2663C28.8577 18.0964 28.7137 17.9306 28.5683 17.7608C28.5588 17.7499 28.546 17.7349 28.5374 17.7226C27.9767 17.07 27.3933 16.4037 26.8362 15.7674L27.6587 15.2769C27.6573 15.2796 27.6636 15.2823 27.6664 15.2833C27.6736 15.2892 27.6814 15.2955 27.6859 15.3014C27.6918 15.3064 27.6959 15.3092 27.7 15.3133C27.7332 15.3341 27.76 15.3541 27.7836 15.3682C27.7931 15.3668 27.7954 15.3636 27.8041 15.36L27.8004 15.3591C27.8222 15.3523 27.8404 15.3369 27.8454 15.316L27.8486 15.3191C27.8513 15.3137 27.8536 15.3078 27.8558 15.2982C27.8431 15.2805 27.8286 15.2601 27.8118 15.2383C27.814 15.2351 27.814 15.2351 27.814 15.2351C27.8131 15.2292 27.8041 15.222 27.7981 15.2188C27.7959 15.2111 27.7918 15.2065 27.7886 15.2015L28.5783 14.7305C28.5838 14.7355 28.5942 14.7414 28.5997 14.746C28.6033 14.7505 28.6069 14.7555 28.6128 14.7582C28.6428 14.7782 28.6746 14.8018 28.6964 14.8132C28.7024 14.8123 28.7082 14.81 28.716 14.8077L28.7133 14.805C28.7355 14.7973 28.7496 14.7809 28.7587 14.7614L28.7628 14.7655C28.7641 14.7596 28.7664 14.7519 28.7669 14.746C28.7587 14.7255 28.741 14.7037 28.7287 14.6819C28.7296 14.6806 28.7296 14.6806 28.7296 14.6806C28.7264 14.676 28.7187 14.6692 28.7137 14.6633C28.7087 14.6601 28.7101 14.6574 28.7055 14.6506L29.3239 14.2813L29.4952 14.1791C29.5002 14.1819 29.5066 14.1864 29.5107 14.191C29.5148 14.1955 29.5202 14.2005 29.5261 14.2046C29.5261 14.2019 29.5261 14.2019 29.5261 14.2019C29.5557 14.2237 29.5848 14.2455 29.6097 14.2564C29.6161 14.2564 29.622 14.2545 29.6284 14.2523H29.6243C29.6493 14.2409 29.6634 14.2264 29.6725 14.2046V14.2096C29.6775 14.2032 29.6802 14.1973 29.6788 14.191C29.6711 14.1719 29.6538 14.1487 29.6406 14.1265C29.6379 14.1188 29.6293 14.111 29.622 14.1024L30.4153 13.63C30.4153 13.6323 30.4163 13.6314 30.4172 13.6342C30.4244 13.6364 30.4272 13.6437 30.4349 13.6464C30.4412 13.6532 30.4444 13.6591 30.4494 13.6609L30.4513 13.6591C30.4799 13.6823 30.5112 13.7041 30.5335 13.7177C30.5398 13.7154 30.5494 13.7118 30.5526 13.7113L30.5521 13.7082C30.5744 13.6995 30.5862 13.6832 30.5985 13.6623L30.5994 13.6677C30.6048 13.66 30.6048 13.6555 30.6057 13.646C30.5962 13.6292 30.578 13.606 30.5644 13.586C30.5576 13.5755 30.5499 13.5624 30.5421 13.5528L31.3555 13.0673C31.3555 13.0673 31.2882 12.9002 31.1814 12.8666C31.1773 12.8652 31.1692 12.8661 31.1551 12.8661C31.1501 12.8679 31.1455 12.867 31.1405 12.8661C31.1301 12.8684 31.1155 12.8684 31.0996 12.8725C31.0924 12.8711 31.0842 12.8716 31.0778 12.8725C31.0551 12.8761 31.031 12.8775 31.0056 12.882C30.9992 12.8811 30.9933 12.8825 30.9829 12.8829C30.9106 12.8929 30.8216 12.9025 30.7162 12.9156C30.708 12.9179 30.6971 12.9188 30.6884 12.9202C30.6389 12.9252 30.588 12.9342 30.5317 12.9397C30.5253 12.9415 30.5253 12.9415 30.5194 12.9406C30.5021 12.9429 30.484 12.9461 30.4653 12.9483C30.4649 12.9461 30.4572 12.942 30.4572 12.942C30.4572 12.942 30.4622 12.9465 30.4631 12.9492C29.7147 13.0464 28.4938 13.2172 27.3528 13.3793C27.2865 13.3049 27.1979 13.2172 27.1002 13.1332L27.1011 13.1309H27.0984C27.0266 13.0687 26.9471 13.0069 26.8617 12.9524C26.8617 12.9524 26.8589 12.952 26.8508 12.957C26.8508 12.957 26.8458 12.9583 26.843 12.9588C26.8394 12.9606 26.838 12.9615 26.8353 12.9615C26.8299 12.9651 26.823 12.9683 26.8167 12.9756C26.8049 12.9774 26.7981 12.982 26.7881 12.9879C26.7772 12.9929 26.7612 13.0006 26.7472 13.0078C26.6635 13.0614 26.5472 13.1455 26.4414 13.2649C26.4264 13.2826 26.4114 13.3053 26.395 13.328C26.39 13.333 26.3841 13.3385 26.3805 13.3457C26.3805 13.3457 26.375 13.3467 26.3777 13.3503C26.3718 13.3562 26.3682 13.3594 26.3655 13.3639C26.3369 13.4044 26.3155 13.4461 26.2942 13.4929C26.2942 13.4929 26.3046 13.5065 26.3187 13.5269C26.0315 13.5687 25.7703 13.6064 25.5372 13.64C25.5049 13.6437 25.4758 13.6496 25.4454 13.651C25.4454 13.651 25.4454 13.651 25.4476 13.6528C25.2859 13.6773 25.1459 13.695 25.0196 13.7132C24.8965 13.5746 24.777 13.4461 24.6666 13.3207C24.4076 13.0332 24.1904 12.7907 24.0123 12.5972C23.9914 12.5759 23.9768 12.5591 23.9582 12.5414C23.9296 12.511 23.905 12.4832 23.8787 12.4551C23.861 12.436 23.8464 12.4165 23.8269 12.3974C23.8055 12.3724 23.7833 12.352 23.7642 12.3297C23.7505 12.3152 23.7374 12.3002 23.7246 12.2857C23.6924 12.253 23.6687 12.2253 23.6447 12.203C22.7441 11.2584 21.7313 10.761 21.3851 11.0889C21.0384 11.4191 21.4918 12.4524 22.3942 13.3961C22.4165 13.4184 22.4415 13.4475 22.4719 13.477C22.4901 13.4915 22.5069 13.511 22.5256 13.5315C22.5401 13.546 22.5564 13.5624 22.5751 13.5801C22.596 13.6019 22.621 13.6278 22.6459 13.6532C22.6596 13.6682 22.6746 13.6832 22.6896 13.6991C22.7764 13.7849 22.8772 13.8839 22.9863 13.9966C23.0322 14.0402 23.0772 14.0842 23.1244 14.131C23.1308 14.1406 23.1403 14.1501 23.1503 14.1565C23.2489 14.2546 23.353 14.3568 23.4634 14.4689C23.5865 14.5884 23.7147 14.711 23.8496 14.8441C23.8242 14.9662 23.7992 15.1007 23.7701 15.2505C23.7187 15.5062 23.6651 15.8001 23.6051 16.1185C23.5861 16.1017 23.5729 16.0903 23.5729 16.0903C23.5243 16.1108 23.4811 16.1353 23.4397 16.1571C23.4352 16.1616 23.4302 16.1652 23.422 16.1666L23.4202 16.1698C23.4098 16.1753 23.4066 16.1793 23.398 16.1852C23.3761 16.2002 23.3539 16.2139 23.3348 16.2298C23.2158 16.321 23.1335 16.426 23.0785 16.5077C23.0635 16.5264 23.0535 16.5463 23.044 16.5608C23.0445 16.5627 23.0444 16.5627 23.0444 16.5627C23.0363 16.5731 23.0349 16.5799 23.0304 16.5872C23.024 16.5958 23.0204 16.6026 23.0167 16.6076C23.0167 16.6095 23.0167 16.6108 23.0167 16.6108C23.014 16.6126 23.0158 16.6153 23.0158 16.6153C23.0117 16.619 23.0094 16.6208 23.0104 16.6236C23.0072 16.6299 23.0031 16.6331 23.0031 16.6331C23.0522 16.7203 23.1126 16.8034 23.1735 16.8797C23.2553 16.9832 23.3384 17.0732 23.4093 17.1454C23.3039 17.7181 23.1876 18.3121 23.0885 18.8535C23.0826 18.879 23.079 18.9089 23.0763 18.9344C23.0603 19.0075 23.0472 19.0801 23.0326 19.1519C23.0222 19.2128 23.0104 19.2727 23.0008 19.3318C22.9931 19.3586 22.9908 19.3836 22.9858 19.4085C22.9749 19.4703 22.9645 19.5248 22.9545 19.5807C22.9499 19.6025 22.9477 19.6197 22.9436 19.6429C22.9304 19.7174 22.9163 19.7855 22.9018 19.8545C22.9045 19.8591 22.9027 19.8604 22.9004 19.864C22.8804 19.9949 22.8568 20.1188 22.8368 20.2306C22.8332 20.231 22.8282 20.2279 22.8282 20.2279C22.8282 20.2279 22.8332 20.231 22.8368 20.2324C22.83 20.2501 22.8304 20.2678 22.8241 20.2883C22.8259 20.2919 22.8259 20.2947 22.8259 20.3019C22.815 20.3569 22.8059 20.4123 22.7955 20.4654C22.7959 20.4686 22.7918 20.4731 22.7936 20.4772C22.775 20.5862 22.7582 20.6793 22.7477 20.7524C22.7464 20.7556 22.7464 20.757 22.7464 20.7606C22.7414 20.7915 22.7368 20.8165 22.7332 20.841C22.7332 20.8478 22.7332 20.8524 22.7305 20.8601C22.7291 20.8769 22.7268 20.8909 22.7241 20.9046C22.7241 20.9096 22.725 20.9141 22.7241 20.9173C22.7214 20.9296 22.7196 20.9418 22.7227 20.9423C22.7414 21.0267 22.8395 21.0899 22.8877 21.1149C22.9041 21.1226 22.9172 21.1244 22.9172 21.1244L23.4366 20.3378C23.4366 20.3378 23.4379 20.3392 23.4407 20.3378C23.447 20.3455 23.4607 20.3551 23.4652 20.3614H23.4693C23.4902 20.3755 23.5129 20.3923 23.5293 20.4032C23.5379 20.4036 23.5438 20.4014 23.5497 20.4L23.5461 20.3959C23.5647 20.3895 23.5833 20.3723 23.5911 20.3519L23.5938 20.3532C23.5951 20.35 23.5983 20.3441 23.6024 20.3369C23.5902 20.311 23.5715 20.2824 23.5493 20.2524C23.5493 20.2497 23.5493 20.2496 23.5493 20.2496C23.5465 20.2465 23.5438 20.2429 23.5429 20.2406C23.5356 20.2315 23.527 20.222 23.5193 20.2133L24.03 19.4458C24.0336 19.4503 24.0441 19.4567 24.0527 19.4626C24.0736 19.4753 24.099 19.4953 24.1131 19.5043C24.1218 19.5043 24.1272 19.5017 24.1331 19.5003L24.129 19.4966C24.1504 19.4898 24.1668 19.4753 24.1754 19.4535L24.1786 19.4548C24.1804 19.4494 24.184 19.4462 24.184 19.438C24.1736 19.4121 24.1513 19.3849 24.1327 19.3531C24.1322 19.3508 24.134 19.3522 24.134 19.3522C24.1322 19.3477 24.1263 19.344 24.1277 19.3413C24.1209 19.3318 24.1159 19.3304 24.1095 19.3191L24.4535 18.8008L24.6189 18.5533C24.6284 18.5628 24.6402 18.5688 24.6475 18.5779C24.6502 18.5765 24.6493 18.5751 24.6493 18.5751C24.6702 18.592 24.6906 18.6078 24.7106 18.6173C24.7179 18.6173 24.7247 18.6156 24.7302 18.6128L24.7274 18.6092C24.7479 18.6046 24.762 18.5878 24.7715 18.5674L24.7761 18.5706C24.7779 18.5642 24.7811 18.5592 24.7811 18.552C24.7729 18.527 24.7497 18.497 24.7306 18.467V18.4648C24.7306 18.4611 24.7243 18.4575 24.7225 18.4548C24.7179 18.4462 24.7075 18.4371 24.7029 18.4289L25.2096 17.6636C25.2118 17.6645 25.2118 17.6645 25.2164 17.6668C25.2259 17.6736 25.2382 17.6841 25.2445 17.6904C25.2445 17.6909 25.2436 17.689 25.2436 17.689C25.2677 17.7045 25.2895 17.7195 25.3081 17.7308C25.3131 17.734 25.3222 17.7299 25.3268 17.7281L25.3204 17.7245C25.3468 17.7167 25.3591 17.7031 25.3713 17.6795L25.3731 17.684C25.3758 17.6781 25.3749 17.6732 25.3763 17.6645C25.3672 17.6409 25.3481 17.61 25.3268 17.58C25.3268 17.58 25.3268 17.58 25.3281 17.5782C25.325 17.5755 25.32 17.571 25.3186 17.5678C25.31 17.5582 25.3027 17.5469 25.2954 17.5355L25.8148 16.7502C26.4409 17.3502 27.0948 17.9788 27.7382 18.5806C27.7609 18.5997 27.7818 18.6205 27.8031 18.6423C27.9494 18.7795 28.0944 18.9148 28.2348 19.0493C28.2616 19.0729 28.2884 19.0965 28.3134 19.1215C28.4688 19.2655 28.6201 19.4049 28.7696 19.5439C28.8169 19.5879 28.865 19.632 28.9132 19.6742C29.0622 19.8146 29.2085 19.9486 29.3539 20.0798C29.3716 20.0966 29.3916 20.1111 29.4048 20.1266C29.5493 20.2569 29.687 20.3819 29.8224 20.5008C29.8369 20.514 29.8519 20.5267 29.8619 20.5399C29.8451 20.6225 29.8188 20.7111 29.7956 20.811C29.7897 20.8256 29.7856 20.8401 29.7819 20.8569C29.6397 21.4133 29.4498 22.154 29.3121 22.7031C29.3048 22.7249 29.3021 22.7463 29.2962 22.7672C29.2817 22.818 29.2694 22.868 29.2576 22.9125C29.2526 22.9347 29.2458 22.9548 29.2417 22.9725C29.2172 23.0733 29.1944 23.1641 29.1776 23.2377C29.174 23.2468 29.1713 23.2518 29.1717 23.2595C29.1622 23.2963 29.1531 23.3295 29.1485 23.3558C29.1458 23.3594 29.1458 23.3594 29.1467 23.3603C29.1404 23.3871 29.1326 23.4085 29.1299 23.4257C29.1308 23.4312 29.1299 23.4321 29.1286 23.4357C29.1217 23.4511 29.1226 23.4634 29.1244 23.4661C29.1172 23.5193 29.2785 23.74 29.388 23.8758C29.438 23.943 29.4789 23.9912 29.4789 23.9912L29.8824 23.4176C29.886 23.4189 29.8869 23.4198 29.8824 23.4198L31.1333 21.6571L31.1478 21.6399C31.1651 21.6544 31.1791 21.6681 31.1996 21.6835C31.225 21.7053 31.2532 21.7244 31.2782 21.7457C31.3364 21.7916 31.3923 21.8348 31.4431 21.8734C31.4936 21.8397 31.5431 21.8052 31.5858 21.7603C31.6304 21.7207 31.6676 21.6726 31.6999 21.6249C31.6808 21.5904 31.6567 21.555 31.6303 21.5209C31.6303 21.5164 31.6281 21.5164 31.6281 21.5164C31.6135 21.4977 31.6026 21.4787 31.5867 21.4587C31.5849 21.4564 31.5845 21.4524 31.5813 21.4492C31.5699 21.4342 31.5581 21.4173 31.5468 21.401C31.5449 21.3965 31.5413 21.3951 31.5386 21.391C31.5359 21.3887 31.5358 21.3887 31.5358 21.3887C31.5199 21.3638 31.5022 21.3411 31.4854 21.3179L33.3188 20.142Z" fill="white"/>
<path d="M15.7619 10.7275L14.7012 10.9448L17.8818 26.4544L18.9424 26.2371L15.7619 10.7275Z" fill="white"/>
<path d="M18.4003 15.6724L17.3386 15.8875L18.3478 20.8655L19.4094 20.6504L18.4003 15.6724Z" fill="white"/>
<path d="M20.5274 25.9866L19.4651 26.2036L18.4478 21.2263L19.5064 21.0115L20.5274 25.9866Z" fill="white"/>
<path d="M17.3452 10.39L16.2866 10.6064L17.3052 15.5837L18.3638 15.3673L17.3452 10.39Z" fill="white"/>
<path d="M29.107 76.0174L28.5757 76.127L31.7771 91.6343L32.3084 91.5247L29.107 76.0174Z" fill="white"/>
<path d="M31.9776 86.0068L31.4492 86.1167L30.4314 81.139L30.9589 81.0295L31.9776 86.0068Z" fill="white"/>
<path d="M30.9102 80.7765L30.3777 80.8868L29.3599 75.9072L29.8888 75.8L30.9102 80.7765Z" fill="white"/>
<path d="M29.9368 6.10527L27.5063 6.60075C29.5688 6.17837 31.6198 7.67175 32.0828 9.93899L50.7759 101.291C51.2403 103.556 49.9426 105.735 47.8779 106.156L50.307 105.661C52.3753 105.236 53.6698 103.06 53.2068 100.797L34.5119 9.44118C34.0489 7.17621 32.001 5.68244 29.9368 6.10527Z" fill="#DEDFE0"/>
<path d="M36.7611 76.2026L35.7275 76.4146L41.9349 106.653L42.9684 106.441L36.7611 76.2026Z" fill="#AFB0B2"/>
<path d="M42.4125 95.691L41.376 95.8995L39.3872 86.1969L40.4255 85.9875L42.4125 95.691Z" fill="#AFB0B2"/>
<path d="M38.3457 75.7867L37.311 75.9978L39.2933 85.7046L40.328 85.4935L38.3457 75.7867Z" fill="#AFB0B2"/>
<path d="M36.5839 75.1346L35.5547 75.3472L29.3643 45.1045L30.398 44.8938L36.5839 75.1346Z" fill="#AFB0B2"/>
<path d="M34.0027 54.6935L32.9678 54.905L34.9523 64.6073L35.9872 64.3958L34.0027 54.6935Z" fill="#AFB0B2"/>
<path d="M36.1707 65.16L35.1362 65.3721L37.1272 75.076L38.1617 74.864L36.1707 65.16Z" fill="#AFB0B2"/>
<path d="M33.9225 54.2148L32.8879 54.4278L30.9019 44.723L31.9374 44.5095L33.9225 54.2148Z" fill="#AFB0B2"/>
<path d="M56.4685 96.7776C57.3205 98.9881 56.2222 101.468 54.0135 102.323L40.2572 107.633C38.0462 108.485 35.5635 107.389 34.7111 105.178L0.289333 16.1137C-0.563078 13.905 0.534716 11.4238 2.74617 10.5695L16.5006 5.25979C18.7098 4.40549 21.1939 5.50414 22.0472 7.71052L56.4685 96.7776Z" fill="#E4F3ED"/>
<path d="M4.301 9.96875L2.74566 10.5692C0.534204 11.4235 -0.563563 13.9047 0.288848 16.1133L34.7106 105.178C35.563 107.389 38.0457 108.485 40.2567 107.633L41.8144 107.029L4.301 9.96875Z" fill="#505050"/>
<path d="M21.5166 19.8782L22.0332 19.4067C22.0332 19.4067 22.0296 19.4072 22.0282 19.404C22.0282 19.404 21.5448 19.0947 21.4657 19.1142C21.4017 19.1256 19.5214 19.8596 18.6495 20.2011C18.6336 20.1907 18.6159 20.1748 18.6032 20.1616C18.3014 19.8977 17.9738 19.6198 17.6303 19.3273C17.6003 19.2996 17.5699 19.2737 17.5417 19.2482C17.3718 19.1043 17.1991 18.9594 17.0242 18.8136C16.9978 18.7895 16.9697 18.7664 16.9433 18.7468C16.7793 18.6038 16.6093 18.4634 16.4358 18.3226C16.4244 18.309 16.4085 18.3004 16.3985 18.2872C15.7369 17.7368 15.0517 17.1777 14.4006 16.6431L15.1272 16.0245C15.1272 16.0245 15.1317 16.0263 15.1331 16.029C15.144 16.0327 15.1503 16.0386 15.1558 16.0404C15.1626 16.0463 15.168 16.049 15.1726 16.0522L15.1717 16.0518C15.209 16.0672 15.2399 16.0817 15.2639 16.094C15.2735 16.0908 15.2757 16.0863 15.2803 16.0822V16.0808C15.3007 16.0695 15.3148 16.0536 15.318 16.0313L15.3194 16.0336C15.3225 16.0263 15.3234 16.0222 15.3239 16.0127C15.3085 15.9981 15.2907 15.9768 15.2698 15.96C15.2721 15.9568 15.2721 15.9568 15.2735 15.9568C15.2676 15.9528 15.2616 15.9473 15.2553 15.9409C15.2498 15.9359 15.2471 15.9318 15.2394 15.9273L15.9423 15.3314C15.9496 15.335 15.9591 15.3409 15.9641 15.3437C15.9696 15.3482 15.9769 15.3519 15.9823 15.3533C16.0146 15.3682 16.0486 15.3855 16.0723 15.3941C16.0777 15.3918 16.0845 15.3878 16.0909 15.3846H16.0872C16.1077 15.3719 16.1204 15.3523 16.125 15.3351L16.1304 15.3364C16.1295 15.33 16.1322 15.3214 16.1295 15.3164C16.1172 15.2992 16.0959 15.2806 16.0809 15.2601C16.0809 15.2601 16.0809 15.2601 16.0813 15.2588C16.0786 15.2542 16.0686 15.2497 16.0641 15.2438C16.0614 15.2415 16.0595 15.2374 16.0559 15.2342L16.6039 14.7664L16.757 14.637C16.7593 14.6388 16.7656 14.6452 16.7702 14.6452C16.7765 14.6483 16.7838 14.6547 16.7888 14.6574C16.7902 14.6533 16.7902 14.6534 16.7902 14.6534C16.8224 14.6684 16.8556 14.6888 16.8811 14.6961C16.8874 14.6938 16.8933 14.6888 16.8997 14.687L16.8938 14.6874C16.9174 14.6733 16.9265 14.6565 16.9342 14.6338L16.9369 14.6379C16.9369 14.6297 16.9401 14.6238 16.9388 14.6188C16.9269 14.6016 16.9051 14.5811 16.8879 14.5616C16.8851 14.5543 16.876 14.5471 16.867 14.5398L17.5676 13.9444C17.5703 13.9453 17.5717 13.9444 17.5753 13.9444C17.5803 13.9489 17.5849 13.9539 17.594 13.958C17.6013 13.9607 17.6044 13.9662 17.6094 13.9671L17.6112 13.9648C17.6453 13.9826 17.678 13.9989 17.703 14.0098C17.7089 14.0053 17.7167 14.003 17.7217 14.0003L17.718 13.9984C17.7394 13.9862 17.7503 13.968 17.7553 13.9462L17.7562 13.9498C17.7616 13.9425 17.7616 13.9358 17.7616 13.9294C17.7498 13.9126 17.7253 13.8935 17.7112 13.8758C17.7112 13.8758 17.7112 13.8758 17.7126 13.8749C17.7044 13.8654 17.6935 13.8563 17.6835 13.8476L18.4041 13.2327C18.4041 13.2327 18.3119 13.0765 18.2006 13.0637C18.1969 13.0642 18.1883 13.0642 18.1765 13.0683C18.1701 13.0701 18.166 13.0719 18.1588 13.0715C18.1479 13.0751 18.1356 13.0778 18.1183 13.0824C18.1133 13.0824 18.1056 13.0869 18.0992 13.0869C18.0788 13.0946 18.0538 13.0996 18.0293 13.1073C18.0229 13.1078 18.0129 13.1105 18.0079 13.1123C17.9411 13.1323 17.8539 13.1586 17.7507 13.1882C17.7412 13.1918 17.7312 13.1959 17.7253 13.1977C17.6749 13.2109 17.6253 13.2286 17.5731 13.2431C17.5667 13.2458 17.5644 13.2459 17.5599 13.2486C17.5413 13.2518 17.5263 13.2568 17.5076 13.2627C17.5076 13.2613 17.4981 13.2577 17.4981 13.2577C17.4981 13.2577 17.5054 13.2618 17.5054 13.2627C16.7852 13.4852 15.6097 13.8535 14.5119 14.2046C14.4329 14.1406 14.3311 14.0688 14.2207 14.0053L14.2225 14.003L14.2202 14.0043C14.1371 13.9503 14.0467 13.903 13.9558 13.8644C13.9558 13.8644 13.9544 13.8644 13.9458 13.8717C13.9417 13.8722 13.939 13.8754 13.9353 13.8772C13.9353 13.8785 13.9326 13.8785 13.9326 13.8785C13.9271 13.8844 13.9222 13.8881 13.914 13.8944C13.904 13.8976 13.899 13.9044 13.889 13.9112C13.8876 13.9121 13.8876 13.9121 13.8876 13.9121C13.879 13.9203 13.8649 13.9307 13.8526 13.9407C13.7799 14.0034 13.6777 14.1079 13.595 14.2419C13.595 14.2419 13.5945 14.24 13.5918 14.2432C13.5832 14.2623 13.5696 14.2886 13.5591 14.3122C13.5537 14.3209 13.55 14.3245 13.545 14.3318C13.5441 14.3341 13.5441 14.334 13.5468 14.3381C13.5414 14.3445 13.5368 14.3477 13.5378 14.3527C13.5155 14.3999 13.4991 14.4422 13.4846 14.4935C13.4846 14.4935 13.4964 14.5048 13.5178 14.5235C13.2429 14.6098 12.9902 14.6906 12.7621 14.7651C12.733 14.7719 12.7053 14.7846 12.6735 14.7923C12.6735 14.7923 12.6735 14.7923 12.6771 14.791C12.5218 14.8405 12.385 14.8823 12.2646 14.9227C12.1196 14.806 11.9851 14.6988 11.8511 14.5948C11.5508 14.3541 11.2945 14.1506 11.0873 13.9902C11.0628 13.9734 11.0459 13.958 11.0237 13.9426C10.9928 13.9171 10.9633 13.8931 10.9324 13.8708C10.911 13.8554 10.891 13.8381 10.8701 13.8217C10.8456 13.8022 10.8188 13.7845 10.7997 13.7668C10.7838 13.7532 10.7665 13.7409 10.7506 13.73C10.7156 13.7032 10.6865 13.6805 10.6593 13.6605C9.61284 12.8798 8.53369 12.5564 8.24562 12.9375C7.95845 13.3217 8.57686 14.2646 9.62511 15.0471C9.64919 15.0662 9.67964 15.0884 9.71599 15.1134C9.73235 15.1257 9.75417 15.1425 9.77598 15.1584C9.79461 15.1693 9.8096 15.1848 9.83277 15.1975C9.85913 15.217 9.88501 15.2365 9.91636 15.2578C9.93363 15.2715 9.94772 15.2824 9.96681 15.2951C10.0654 15.3678 10.1795 15.4477 10.3099 15.5417C10.3612 15.5758 10.4125 15.6117 10.4675 15.6498C10.4766 15.6557 10.4861 15.6648 10.4961 15.6712C10.6093 15.7493 10.7265 15.8351 10.8588 15.926C10.9978 16.0227 11.1455 16.124 11.299 16.2334C11.2963 16.3565 11.2922 16.4927 11.2895 16.6467C11.2822 16.9079 11.2786 17.2067 11.2718 17.5297C11.2477 17.5174 11.2331 17.5088 11.2331 17.5088C11.1895 17.5369 11.15 17.5669 11.1136 17.595C11.1091 17.6014 11.1064 17.6064 11.1005 17.6087C11.0987 17.6087 11.0964 17.6128 11.0964 17.6128C11.09 17.6191 11.0841 17.6237 11.0796 17.6291C11.0605 17.6491 11.0419 17.6654 11.0237 17.6845H11.026C10.921 17.7944 10.8574 17.913 10.8169 18.0011C10.8078 18.0211 10.7983 18.042 10.7915 18.0579C10.7901 18.0606 10.7901 18.0606 10.7901 18.0606C10.792 18.0642 10.7919 18.0642 10.7919 18.0642C10.7838 18.0733 10.7851 18.0792 10.782 18.0874C10.7774 18.0978 10.7747 18.1042 10.7724 18.1124V18.1151V18.1165C10.7688 18.1219 10.7679 18.126 10.7697 18.126C10.7656 18.1342 10.7652 18.1369 10.7652 18.1369C10.8274 18.2172 10.8996 18.2868 10.9723 18.3531C11.0687 18.4398 11.1664 18.5157 11.2495 18.5738C11.2368 19.1588 11.225 19.7615 11.2181 20.3124C11.2159 20.3401 11.2163 20.3678 11.2159 20.3932C11.2141 20.4686 11.21 20.5422 11.2118 20.6162C11.2095 20.6789 11.2082 20.7375 11.2095 20.7979C11.2068 20.826 11.2082 20.851 11.2068 20.876C11.2059 20.9369 11.2054 20.9941 11.2054 21.0504C11.2032 21.0731 11.2032 21.0922 11.2036 21.1158C11.2054 21.1885 11.2013 21.2594 11.1991 21.3311C11.2004 21.3334 11.1986 21.3375 11.1991 21.3407C11.1995 21.4746 11.1968 21.5986 11.1954 21.7122C11.1927 21.7122 11.1868 21.7094 11.1868 21.7094C11.1868 21.7094 11.1923 21.7108 11.1963 21.7126C11.195 21.7312 11.1932 21.7512 11.1954 21.7694C11.1932 21.773 11.1932 21.7776 11.195 21.7835C11.1941 21.8411 11.1923 21.8984 11.1918 21.9492C11.1923 21.9529 11.1927 21.9556 11.1927 21.9624C11.1923 22.0719 11.1909 22.1659 11.195 22.2399C11.1954 22.2431 11.1932 22.2476 11.195 22.2494C11.1932 22.2803 11.1932 22.3089 11.1954 22.3289C11.195 22.3384 11.1968 22.3439 11.195 22.348C11.1941 22.3676 11.1986 22.382 11.195 22.3948C11.1986 22.3988 11.1986 22.4047 11.2 22.407C11.1973 22.4215 11.2 22.432 11.2009 22.4347C11.2345 22.5115 11.3431 22.5565 11.3936 22.5728C11.4113 22.5801 11.4222 22.5814 11.4222 22.5814L11.8061 21.7176H11.8066C11.8161 21.7235 11.8302 21.7326 11.8379 21.7362H11.8398C11.862 21.7458 11.8902 21.7607 11.9079 21.7671C11.9124 21.7657 11.9184 21.7634 11.9247 21.7612L11.9238 21.7571C11.9388 21.7471 11.9547 21.7299 11.9601 21.7076L11.9638 21.7089C11.9638 21.7035 11.9642 21.699 11.9683 21.6903C11.9492 21.6685 11.9265 21.6413 11.902 21.6159C11.8997 21.6118 11.8938 21.6072 11.8929 21.6045C11.8834 21.5981 11.877 21.5891 11.8643 21.5823L12.2405 20.7393C12.2464 20.7447 12.255 20.7515 12.2637 20.7556C12.2664 20.7538 12.2678 20.7506 12.2678 20.7506C12.2909 20.7629 12.315 20.7766 12.3341 20.7847C12.3414 20.7838 12.3482 20.7806 12.3509 20.777L12.3487 20.7729C12.3673 20.7634 12.3795 20.7475 12.3859 20.7243L12.3895 20.7257C12.3909 20.7212 12.3927 20.7148 12.3923 20.7057C12.3786 20.6834 12.3509 20.6594 12.3259 20.6331C12.325 20.6312 12.3277 20.6312 12.3277 20.6312C12.325 20.6276 12.3196 20.6231 12.3186 20.6217C12.3105 20.614 12.3064 20.6108 12.3 20.6049L12.5513 20.034L12.674 19.7628C12.684 19.7688 12.6981 19.7733 12.7062 19.7815C12.7071 19.7815 12.7072 19.7778 12.7072 19.7778C12.7294 19.7896 12.7544 19.8064 12.7726 19.8105C12.7812 19.8101 12.7871 19.8073 12.7917 19.8037L12.7885 19.801C12.8057 19.7915 12.8203 19.7737 12.8262 19.7515L12.8307 19.7542C12.8321 19.746 12.833 19.7419 12.8321 19.7351C12.818 19.7111 12.7917 19.6856 12.7676 19.6579L12.7671 19.6575C12.7662 19.6547 12.7608 19.652 12.759 19.6497C12.7517 19.642 12.7421 19.6343 12.7353 19.6252L13.107 18.7859C13.1084 18.7886 13.1111 18.7863 13.1147 18.7891C13.1243 18.7954 13.137 18.8013 13.1465 18.8077L13.147 18.8063C13.1692 18.8181 13.1942 18.8322 13.2138 18.8381C13.2201 18.8372 13.2288 18.834 13.2315 18.8295L13.227 18.8286C13.2501 18.8163 13.2588 18.8013 13.2674 18.7777L13.2706 18.7809C13.2733 18.7741 13.2733 18.7682 13.2715 18.7618C13.2583 18.7368 13.2342 18.7128 13.206 18.6846H13.207C13.2047 18.6814 13.201 18.6769 13.1979 18.6751C13.1901 18.6674 13.1797 18.6574 13.1688 18.6465L13.5509 17.7854C14.2679 18.2741 15.0181 18.7832 15.751 19.2723C15.7774 19.2877 15.8019 19.3046 15.8283 19.3214C15.9932 19.4331 16.1604 19.5421 16.3199 19.6511C16.3522 19.6702 16.3812 19.6888 16.4099 19.7106C16.5871 19.8251 16.7579 19.9386 16.9292 20.0508C16.9851 20.0862 17.0392 20.123 17.0923 20.1561C17.2614 20.2679 17.4318 20.3769 17.594 20.4818C17.6158 20.4945 17.6358 20.5072 17.6535 20.5195C17.8143 20.6235 17.9738 20.7243 18.1283 20.8206C18.1415 20.8292 18.1574 20.8401 18.1729 20.8492C18.1665 20.9351 18.1578 21.0273 18.1497 21.1299C18.1469 21.1458 18.1469 21.1589 18.1474 21.1767C18.0974 21.7485 18.0324 22.5088 17.9875 23.0783C17.9838 23.0992 17.9838 23.1206 17.9825 23.1414C17.9761 23.195 17.9747 23.2427 17.9711 23.2922C17.9688 23.315 17.9652 23.3326 17.9652 23.3526C17.9566 23.4566 17.9488 23.5488 17.9425 23.6274C17.9434 23.6333 17.9416 23.641 17.9416 23.6487C17.9406 23.6864 17.9352 23.72 17.9352 23.7459C17.9325 23.7491 17.9325 23.7491 17.9334 23.7519C17.9311 23.78 17.9298 23.8014 17.9279 23.8182C17.9307 23.8218 17.9275 23.8259 17.9293 23.8295C17.9248 23.8445 17.927 23.8559 17.9289 23.86C17.9311 23.9145 18.1297 24.1034 18.2583 24.2219C18.3205 24.276 18.3678 24.3169 18.3678 24.3169L18.6722 23.6847C18.6722 23.6847 18.6727 23.6873 18.6699 23.6864L19.6114 21.7421L19.6218 21.7226C19.6414 21.7344 19.66 21.7439 19.6796 21.7576C19.7095 21.7717 19.7391 21.7875 19.7677 21.8048C19.8313 21.8402 19.8968 21.8725 19.9499 21.9024C19.9963 21.8625 20.0367 21.8189 20.0726 21.7694C20.1121 21.7212 20.1399 21.6672 20.1639 21.6136C20.1389 21.5854 20.1089 21.5559 20.0794 21.5232C20.0767 21.52 20.0735 21.5214 20.0735 21.5191C20.0567 21.5037 20.0444 21.4873 20.0276 21.4719C20.0231 21.4687 20.0203 21.4664 20.0176 21.4642C20.0035 21.4501 19.9894 21.4351 19.974 21.4192C19.9708 21.416 19.9681 21.4137 19.9645 21.411C19.9631 21.4092 19.9613 21.4092 19.9613 21.4078C19.9426 21.3874 19.9195 21.3679 19.8999 21.3461L21.5166 19.8782Z" fill="white"/>
<path d="M2.63234 13.5604L1.62183 13.9517L7.34406 28.7181L8.35458 28.3268L2.63234 13.5604Z" fill="white"/>
<path d="M6.09361 17.8958L5.08252 18.2856L6.91193 23.0261L7.92302 22.6362L6.09361 17.8958Z" fill="white"/>
<path d="M8.06414 23.058L7.05347 23.4478L8.88289 28.1869L9.89356 27.7971L8.06414 23.058Z" fill="white"/>
<path d="M5.97252 17.6764L4.96426 18.0643L3.13086 13.3254L4.14231 12.9343L5.97252 17.6764Z" fill="white"/>
<path d="M26.6052 75.687L26.0984 75.8831L31.8154 90.6498L32.3222 90.4538L26.6052 75.687Z" fill="white"/>
<path d="M31.1393 85.0543L30.635 85.2482L28.8057 80.5103L29.3068 80.3154L31.1393 85.0543Z" fill="white"/>
<path d="M31.254 85.4226L30.7498 85.6165L32.5741 90.3572L33.0783 90.1633L31.254 85.4226Z" fill="white"/>
<path d="M27.3762 75.3321L26.8694 75.5269L28.693 80.2689L29.1999 80.0742L27.3762 75.3321Z" fill="white"/>
<path d="M15.8495 6.59909L13.5354 7.49336C15.4997 6.73262 17.7684 7.86759 18.6008 10.0227L52.2156 97.0037C53.0489 99.1611 52.1306 101.522 50.1659 102.282L52.48 101.389C54.447 100.628 55.3649 98.2668 54.5311 96.1117L20.9154 9.12883C20.083 6.97376 17.8142 5.84017 15.8495 6.59909Z" fill="#DEDFE0"/>
<path d="M34.2849 74.5637L33.302 74.9434L44.4357 103.739L45.4186 103.36L34.2849 74.5637Z" fill="#AFB0B2"/>
<path d="M43.0366 92.8672L42.0484 93.2492L38.4788 84.0094L39.4657 83.6301L43.0366 92.8672Z" fill="#AFB0B2"/>
<path d="M35.7135 73.9486L34.7275 74.3291L38.2966 83.5687L39.2826 83.1882L35.7135 73.9486Z" fill="#AFB0B2"/>
<path d="M22.6984 44.7597L21.718 45.1394L32.8761 73.9221L33.8564 73.5424L22.6984 44.7597Z" fill="#AFB0B2"/>
<path d="M27.939 53.8791L26.9539 54.2605L30.5335 63.4978L31.5186 63.1164L27.939 53.8791Z" fill="#AFB0B2"/>
<path d="M31.7949 63.8306L30.8096 64.2102L34.3724 73.451L35.3577 73.0714L31.7949 63.8306Z" fill="#AFB0B2"/>
<path d="M24.1905 44.1693L23.2036 44.5498L26.7695 53.79L27.7565 53.4094L24.1905 44.1693Z" fill="#AFB0B2"/>
<path d="M77.4611 109.819L15.9517 93.5233L40.4857 1L101.994 17.2958C104.869 18.0575 106.58 21.0032 105.819 23.8755L84.0437 105.996C83.2817 108.869 80.3341 110.58 77.4611 109.819Z" fill="#6A8539"/>
<path d="M20.7883 94.1636C20.7152 94.1446 26.13 73.4859 32.8802 48.0275C39.6332 22.56 45.1656 1.93727 45.2383 1.9568C45.311 1.97588 39.8981 22.6304 33.1447 48.0979C26.3944 73.5558 20.861 94.1836 20.7883 94.1636Z" fill="white"/>
<path d="M58.244 23.8499C57.9473 24.9681 57.0072 25.4645 55.8063 25.1461L55.0388 24.9436L54.6971 26.2303L53.4521 25.9005L54.7576 20.9768L56.7709 21.51C57.9714 21.8279 58.5421 22.7244 58.244 23.8499ZM56.9858 23.5166C57.1076 23.0588 56.9195 22.724 56.4033 22.5873L55.7122 22.4038L55.3301 23.8449L56.0221 24.0284C56.5374 24.166 56.8659 23.9662 56.9858 23.5166Z" fill="#FFC965"/>
<path d="M61.012 26.8791L59.1491 26.3854L58.5502 27.2506L57.2793 26.9136L60.5285 22.5054L61.7554 22.8306L62.4001 28.2712L61.1038 27.9278L61.012 26.8791ZM60.9193 25.7555L60.7707 24.0296L59.7875 25.4548L60.9193 25.7555Z" fill="#FFC965"/>
<path d="M62.5647 27.8399L63.2458 26.922C63.5589 27.3139 64.0619 27.6568 64.5712 27.7926C65.087 27.9289 65.3305 27.8208 65.3941 27.5815C65.6017 26.8003 62.9459 26.7067 63.4307 24.8782C63.6643 23.9989 64.4963 23.4516 65.8053 23.7986C66.3778 23.9503 66.9304 24.2551 67.2898 24.6511L66.6318 25.5826C66.277 25.2184 65.8962 24.9813 65.5118 24.88C64.9906 24.7415 64.7494 24.8891 64.6844 25.1348C64.484 25.8874 67.1316 25.9864 66.6505 27.8013C66.4224 28.6592 65.5863 29.221 64.2773 28.8731C63.5539 28.6815 62.8941 28.2732 62.5647 27.8399Z" fill="#FFC965"/>
<path d="M66.6384 28.9195L67.3191 28.0011C67.6326 28.3926 68.1351 28.7364 68.6445 28.8713C69.1607 29.008 69.4047 28.8999 69.4674 28.6601C69.6755 27.8798 67.0192 27.7863 67.5045 25.9578C67.7385 25.0785 68.5704 24.5312 69.8791 24.8777C70.4516 25.0294 71.0032 25.3337 71.363 25.7302L70.7051 26.6622C70.3507 26.297 69.9699 26.0609 69.5855 25.9587C69.0639 25.8202 68.8226 25.9678 68.7576 26.2144C68.5582 26.9669 71.2054 27.066 70.7237 28.8799C70.4961 29.7388 69.66 30.2997 68.351 29.9527C67.6267 29.761 66.9669 29.3528 66.6384 28.9195Z" fill="#FFC965"/>
<path d="M75.694 28.4729C75.3977 29.5916 74.4581 30.088 73.2567 29.7692L72.4892 29.5657L72.148 30.8533L70.9021 30.5226L72.2075 25.5994L74.2213 26.1325C75.4222 26.4514 75.9925 27.3475 75.694 28.4729ZM74.4358 28.1396C74.5576 27.6822 74.3699 27.347 73.8542 27.2103L73.1622 27.0268L72.781 28.4688L73.4721 28.6519C73.9878 28.7886 74.3167 28.5897 74.4358 28.1396Z" fill="#FFC965"/>
<path d="M75.9683 29.2307C76.3596 27.7533 77.6845 26.9453 79.0949 27.3186C80.5039 27.6915 81.2545 29.05 80.8633 30.5269C80.4726 32.0035 79.1458 32.8119 77.7368 32.4391C76.3277 32.0653 75.5771 30.7072 75.9683 29.2307ZM79.6042 30.1941C79.8296 29.342 79.4548 28.6489 78.7886 28.4718C78.1212 28.2951 77.4514 28.7121 77.226 29.5636C77.0002 30.4139 77.376 31.1083 78.0425 31.285C78.7087 31.4621 79.3784 31.0443 79.6042 30.1941Z" fill="#FFC965"/>
<path d="M83.1398 32.3657L82.4605 32.1854L82.1124 33.4939L80.8674 33.1633L82.1724 28.2405L84.1871 28.7737C85.388 29.092 85.9583 29.9886 85.6602 31.1136C85.4675 31.838 85.0113 32.2885 84.3857 32.4398L84.9255 34.2383L83.5914 33.8854L83.1398 32.3657ZM83.8195 29.8501L83.1279 29.667L82.7458 31.109L83.4374 31.2921C83.9531 31.4288 84.2821 31.2298 84.4016 30.7793C84.5234 30.3229 84.3357 29.9868 83.8195 29.8501Z" fill="#FFC965"/>
<path d="M87.413 30.8103L86.0603 30.452L86.3524 29.3479L90.2983 30.3929L90.0047 31.497L88.6584 31.1405L87.6456 34.9597L86.3997 34.6295L87.413 30.8103Z" fill="#FFC965"/>
<path d="M89.953 39.2906C89.9294 39.3791 81.0673 37.1427 70.1599 34.2955C59.2499 31.4474 50.4263 29.0675 50.4495 28.9798C50.4727 28.8913 59.3331 31.1276 70.2436 33.9753C81.1509 36.8221 89.9762 39.202 89.953 39.2906Z" fill="#FFC965"/>
<path d="M80.9183 40.3051C80.8951 40.3937 75.5844 39.0843 69.0572 37.3802C62.5278 35.6766 57.2557 34.2237 57.2789 34.1351C57.3021 34.0465 62.6115 35.356 69.1399 37.0596C75.668 38.7636 80.9415 40.217 80.9183 40.3051Z" fill="#FFC965"/>
<path d="M63.5862 78.7561C62.8533 77.6302 62.2785 70.58 62.2785 70.58L59.8739 69.9695L57.468 69.3591C57.468 69.3591 53.6003 75.2834 52.4189 75.9238C52.4189 75.9238 53.0878 76.5229 54.3546 75.7694C54.3546 75.7694 54.101 76.5428 53.7044 76.6568C53.7044 76.6568 54.3201 77.131 55.3261 76.1777C55.3261 76.1777 55.1366 76.8131 54.7722 77.0234C54.7722 77.0234 55.4374 77.468 56.8014 76.5242C56.8014 76.5242 56.3461 77.5098 55.8972 77.6106C55.8972 77.6106 56.5919 78.325 58.0668 77.0869C58.772 78.8782 59.7244 78.5816 59.7244 78.5816C59.3768 78.2792 59.4477 77.1955 59.4477 77.1955C60.197 78.6752 60.9935 78.6016 60.9935 78.6016C60.7736 78.2428 60.9099 77.5933 60.9099 77.5933C61.3384 78.9109 62.1149 78.7897 62.1149 78.7897C61.8205 78.5003 61.9577 77.6978 61.9577 77.6978C62.7124 78.964 63.5862 78.7561 63.5862 78.7561Z" fill="#F8CA58"/>
<path d="M63.1814 78.4208C63.1814 78.4208 62.8733 78.4194 62.5093 77.4984C62.0618 76.3643 62.1418 71.5128 62.1418 71.5128L62.2522 71.2893C62.2522 71.2893 62.3608 76.1531 63.1814 78.4208Z" fill="#F8CA58"/>
<path d="M61.9369 78.6679C61.9369 78.6679 61.6279 78.6493 61.3348 77.7178C60.9736 76.5724 61.2017 71.6146 61.2017 71.6146L61.5602 71.5732C61.5602 71.5732 61.2894 76.3811 61.9369 78.6679Z" fill="#F8CA58"/>
<path d="M60.7331 78.4398C60.7331 78.4398 60.425 78.3948 60.2178 77.4456C59.962 76.2761 60.644 71.3669 60.644 71.3669L61.0061 71.356C61.0061 71.356 60.295 76.1126 60.7331 78.4398Z" fill="#F8CA58"/>
<path d="M59.2524 78.4217C59.2524 78.4217 58.9512 78.3477 58.844 77.3853C58.7117 76.1999 59.9063 71.3933 59.9063 71.3933L60.268 71.4169C60.268 71.4169 59.0611 76.0699 59.2524 78.4217Z" fill="#F8CA58"/>
<path d="M52.9353 75.8218C52.9353 75.8218 53.207 75.9676 53.9658 75.3317C54.9005 74.5473 57.629 69.9143 57.629 69.9143L57.1442 70.245C57.1442 70.245 54.7383 74.2199 52.9353 75.8218Z" fill="#F8CA58"/>
<path d="M53.9106 76.6319C53.9106 76.6319 54.1914 76.7627 54.8934 76.0837C55.7577 75.2489 57.9219 70.7825 57.9219 70.7825L57.736 70.5654C57.736 70.5654 55.5705 74.9296 53.9106 76.6319Z" fill="#F8CA58"/>
<path d="M55.0789 77.0069C55.0789 77.0069 55.3701 77.1131 56.0049 76.3774C56.7878 75.4708 58.5289 70.8305 58.5289 70.8305L58.2163 70.6479C58.2163 70.6479 56.5724 75.1688 55.0789 77.0069Z" fill="#F8CA58"/>
<path d="M56.3892 77.6953C56.3892 77.6953 56.689 77.7734 57.2425 76.9791C57.924 75.9999 59.1672 71.2052 59.1672 71.2052L58.8364 71.053C58.8364 71.053 57.6796 75.7192 56.3892 77.6953Z" fill="#F8CA58"/>
<path d="M59.5681 71.1748L58.7611 71.4527C58.7611 71.4527 58.508 72.8212 59.0683 73.1428C59.7135 73.1273 60.1433 71.8038 60.1433 71.8038L59.5681 71.1748Z" fill="#F8CA58"/>
<path d="M61.0034 72.2085C61.0034 72.2085 60.4122 73.4197 59.7688 73.5791C59.7688 73.5791 59.2886 72.9288 59.658 71.6975L61.0034 72.2085Z" fill="#F8CA58"/>
<path d="M57.8133 71.3997C57.8133 71.3997 57.7538 72.7463 58.2445 73.1927C58.2445 73.1927 58.9765 72.8494 59.2391 71.5913L57.8133 71.3997Z" fill="#F8CA58"/>
<path d="M60.2943 71.2069C60.2034 72.3119 60.7723 73.1195 60.7723 73.1195C61.3598 72.9628 61.6429 71.5489 61.6429 71.5489L61.7242 70.6924L59.7899 70.3041L57.9033 69.7231L57.5662 70.5152C57.5662 70.5152 57.1404 71.8937 57.5821 72.3102C57.5821 72.3102 58.4663 71.8718 58.9134 70.8563C58.9134 70.8563 58.6871 72.2743 59.1379 72.8729C59.1374 72.8729 60.0166 72.2665 60.2943 71.2069Z" fill="#F8CA58"/>
<path d="M62.1417 71.0652C62.1417 71.0652 61.9527 72.1812 61.6055 72.2897C61.6055 72.2897 61.0321 71.5181 61.0212 70.9953C61.0212 70.9953 60.6931 72.1657 60.0706 72.2402C60.0706 72.2402 59.6462 71.7565 59.8807 70.8314L60.3605 69.6096L62.3943 70.1256L62.1417 71.0652Z" fill="#F8CA58"/>
<path d="M57.3563 69.8509C57.3563 69.8509 57.1727 70.8701 57.4258 71.1322C57.4258 71.1322 58.1165 70.7783 58.3755 70.3246C58.3755 70.3246 58.1047 71.5095 58.6168 71.872C58.6168 71.872 59.2206 71.6495 59.4546 70.7238L59.6164 69.4217L57.583 68.9062L57.3563 69.8509Z" fill="#F8CA58"/>
<path d="M61.0056 71.3553L61.0461 69.7829L60.5145 69.7107C60.5145 69.7107 60.2495 70.5459 61.0056 71.3553Z" fill="#F8CA58"/>
<path d="M62.7266 69.6547L60.079 69.1619L57.515 68.3335C57.515 68.3335 57.0792 69.4589 57.1437 70.2451L57.883 69.859C57.883 69.859 57.9562 70.6116 58.1211 70.7792C58.1211 70.7792 58.864 70.7524 59.1861 70.2969C59.1861 70.2969 59.1421 71.2166 59.506 71.4164C59.9222 71.4146 60.3212 70.5848 60.3212 70.5848C60.3875 71.1394 61.0277 71.5168 61.0277 71.5168C61.2522 71.4477 61.6761 70.821 61.6761 70.821L62.1419 71.5122C62.574 70.8523 62.7266 69.6547 62.7266 69.6547Z" fill="#F8CA58"/>
<path d="M65.2363 70.4844C65.2363 70.4844 66.0546 73.5728 66.1582 73.6823C66.2632 73.7936 67.7335 75.1257 67.794 75.3691C67.8544 75.6121 67.6518 76.3746 67.126 76.227C67.126 76.227 66.9347 76.5572 66.6435 76.4269C66.6435 76.4269 66.4618 76.619 66.1732 76.5318C65.8856 76.4446 65.8311 76.2238 65.8311 76.2238C65.8311 76.2238 66.1373 76.1144 66.2913 76.0531C66.2913 76.0531 65.7447 75.0421 65.5975 74.8845C65.4489 74.7255 65.2236 74.721 65.13 74.6974C65.0355 74.6733 64.4475 74.9308 64.4293 74.9122C64.413 74.894 64.577 74.1855 64.7042 74.092C64.8301 73.9975 65.105 74.0529 65.1986 74.0356C65.2917 74.017 65.3331 73.7681 65.3331 73.7681C65.3331 73.7681 64.8333 72.7085 64.0776 71.41C64.0776 71.41 64.1553 70.4063 64.3275 70.31C64.4997 70.2137 65.2363 70.4844 65.2363 70.4844Z" fill="#F8CA58"/>
<path d="M66.0774 70.747C65.8675 70.6339 65.758 70.3832 65.6989 70.1502C65.9729 70.2292 66.3278 70.2219 66.3278 70.2219C66.0124 70.0502 65.7321 69.5288 65.5581 69.1342C65.7494 69.2055 65.8911 69.2137 65.8911 69.2137C65.4617 68.8104 65.4776 67.8475 65.4776 67.8475C65.2077 66.6621 62.7373 67.1531 62.371 67.4306C62.0053 67.709 61.5191 69.0442 62.2897 69.7301C63.0594 70.4159 62.8895 71.088 62.8895 71.088C63.0876 70.9731 63.1957 70.821 63.2498 70.6616C63.5302 71.1475 63.5683 71.4986 63.5683 71.4986C63.5683 71.4986 63.6888 71.4305 63.8069 71.2683C64.1827 71.8274 64.5602 71.8338 64.5602 71.8338C64.6725 71.5268 64.6366 71.2311 64.587 71.0358C64.8029 71.2765 65.792 71.4595 65.792 71.4595C65.7766 71.1939 65.6944 70.9286 65.6098 70.7197C65.912 70.8037 66.0774 70.747 66.0774 70.747Z" fill="#F8CA58"/>
<path d="M63.7205 70.7483C63.7786 71.0808 64.0335 71.3719 64.3566 71.4737C64.4384 71.2221 64.4602 70.9277 64.3838 70.6743C64.3443 70.8133 64.283 70.9455 64.243 71.0835C64.1121 70.9223 63.919 70.8046 63.7205 70.7483Z" fill="#F8CA58"/>
<path d="M64.6855 70.5958C64.8532 70.8896 65.1908 71.0785 65.5298 71.0654C65.5212 70.8015 65.4435 70.5163 65.2858 70.3037C65.2953 70.4468 65.2813 70.5926 65.2917 70.7357C65.1136 70.6289 64.8923 70.5835 64.6855 70.5958Z" fill="#F8CA58"/>
<path d="M64.6621 69.6653C64.8675 69.9347 65.2278 70.075 65.5613 70.0164C65.5177 69.7566 65.4023 69.4836 65.2174 69.2952C65.2465 69.4355 65.2523 69.5813 65.281 69.7226C65.091 69.6394 64.8643 69.624 64.6621 69.6653Z" fill="#F8CA58"/>
<path d="M63.8247 69.8983C63.9401 70.2153 64.2418 70.4578 64.5772 70.5023C64.6135 70.2403 64.5844 69.946 64.4654 69.7107C64.4504 69.8533 64.4122 69.995 64.3977 70.1376C64.2405 70.0013 64.0296 69.9201 63.8247 69.8983Z" fill="#F8CA58"/>
<path d="M63.8335 68.9097C63.9489 69.2267 64.2511 69.4692 64.5859 69.5128C64.6228 69.2517 64.5937 68.9569 64.4742 68.7217C64.4596 68.8643 64.421 69.006 64.4065 69.149C64.2511 69.0128 64.0398 68.9306 63.8335 68.9097Z" fill="#F8CA58"/>
<path d="M62.7407 68.1507C62.8948 68.5744 63.296 68.8969 63.7426 68.9555C63.7912 68.6067 63.7531 68.2143 63.5954 67.9014C63.5745 68.0917 63.5236 68.2797 63.5045 68.4704C63.296 68.2883 63.0147 68.1788 62.7407 68.1507Z" fill="#F8CA58"/>
<path d="M63.6431 67.8052C63.7976 68.2285 64.1988 68.55 64.6459 68.6095C64.6931 68.2607 64.6563 67.8693 64.4977 67.5554C64.4773 67.7457 64.4269 67.9333 64.4064 68.1245C64.1992 67.9428 63.918 67.8333 63.6431 67.8052Z" fill="#F8CA58"/>
<path d="M64.5984 67.534C64.7524 67.9582 65.155 68.2807 65.6017 68.3384C65.6503 67.9905 65.6112 67.5985 65.4535 67.2847C65.434 67.4745 65.3826 67.6626 65.3617 67.8538C65.155 67.6721 64.8733 67.5636 64.5984 67.534Z" fill="#F8CA58"/>
<path d="M61.698 68.2713C61.852 68.6946 62.2537 69.0175 62.7008 69.0756C62.749 68.7282 62.7103 68.3354 62.5518 68.022C62.5322 68.2127 62.4818 68.4007 62.4613 68.5906C62.2532 68.4089 61.972 68.3004 61.698 68.2713Z" fill="#F8CA58"/>
<path d="M64.6714 68.461C64.7863 68.7794 65.089 69.0215 65.4243 69.0656C65.4606 68.8044 65.4315 68.5097 65.3125 68.2744C65.2979 68.4166 65.2593 68.5587 65.2443 68.7009C65.088 68.5651 64.8763 68.4833 64.6714 68.461Z" fill="#F8CA58"/>
<path d="M62.9824 69.2127C63.0983 69.5302 63.4 69.7727 63.7362 69.8172C63.7712 69.5552 63.7426 69.26 63.6245 69.0251C63.6095 69.1682 63.5713 69.309 63.5568 69.4525C63.4 69.3163 63.1887 69.2336 62.9824 69.2127Z" fill="#F8CA58"/>
<path d="M62.1719 69.1695C62.2187 69.5043 62.464 69.8036 62.7826 69.9171C62.8721 69.6687 62.9057 69.3748 62.8384 69.1191C62.7935 69.2558 62.7271 69.3862 62.6821 69.5229C62.5576 69.3575 62.3686 69.2331 62.1719 69.1695Z" fill="#F8CA58"/>
<path d="M62.9775 70.0186C63.0139 70.3556 63.2502 70.6621 63.565 70.7848C63.6636 70.5395 63.705 70.2465 63.6455 69.989C63.5959 70.1248 63.5255 70.2529 63.4773 70.3887C63.3583 70.2184 63.1729 70.0885 62.9775 70.0186Z" fill="#F8CA58"/>
<path d="M54.9229 67.8694C54.9229 67.8694 52.7328 70.1939 52.587 70.2416C52.4416 70.2888 50.5136 70.7598 50.3451 70.9446C50.1765 71.1295 49.9902 71.8966 50.5241 72.0174C50.5241 72.0174 50.5341 72.3984 50.8517 72.4225C50.8517 72.4225 50.9203 72.6782 51.2147 72.7386C51.5096 72.7995 51.6632 72.6314 51.6632 72.6314C51.6632 72.6314 51.4465 72.3898 51.3401 72.2622C51.3401 72.2622 52.3012 71.6336 52.5074 71.5655C52.7124 71.4965 52.9137 71.6 53.0077 71.6236C53.1013 71.6472 53.4966 72.1545 53.5212 72.1464C53.5457 72.1377 53.7384 71.437 53.6702 71.2939C53.6039 71.1513 53.3371 71.0695 53.2631 71.0091C53.1904 70.9483 53.2726 70.7098 53.2726 70.7098C53.2726 70.7098 54.2164 70.0168 55.5 69.2351C55.5 69.2351 55.9098 68.3159 55.8049 68.1492C55.6999 67.9825 54.9229 67.8694 54.9229 67.8694Z" fill="#F8CA58"/>
<path d="M54.0587 67.6993C54.2959 67.6997 54.5135 67.5317 54.6767 67.3546C54.3977 67.2928 54.0883 67.1175 54.0883 67.1175C54.4486 67.1175 54.942 66.7923 55.2846 66.5294C55.0824 66.5008 54.9538 66.4408 54.9538 66.4408C55.5236 66.2909 55.9689 65.4371 55.9689 65.4371C56.7709 64.5224 58.7088 66.1315 58.8969 66.5498C59.0869 66.9695 58.8769 68.3747 57.8718 68.6104C56.8672 68.8466 56.6973 69.5178 56.6973 69.5178C56.5769 69.323 56.5555 69.1372 56.5832 68.9719C56.1048 69.2653 55.9048 69.5551 55.9048 69.5551C55.9048 69.5551 55.8317 69.4384 55.804 69.2395C55.2078 69.5519 54.872 69.3779 54.872 69.3779C54.9202 69.0546 55.0938 68.8111 55.2287 68.664C54.9261 68.7725 53.9688 68.4614 53.9688 68.4614C54.1082 68.2362 54.3077 68.0417 54.4799 67.8978C54.1773 67.8278 54.0587 67.6993 54.0587 67.6993Z" fill="#F8CA58"/>
<path d="M56.1307 68.8234C55.9203 69.0887 55.5563 69.2226 55.2251 69.1577C55.2728 68.8979 55.3941 68.6286 55.5822 68.4424C55.5504 68.5827 55.5418 68.7285 55.5109 68.8693C55.7017 68.7893 55.9285 68.7785 56.1307 68.8234Z" fill="#F8CA58"/>
<path d="M55.3542 68.2295C55.0666 68.4085 54.6799 68.4125 54.3882 68.24C54.5218 68.012 54.7258 67.7976 54.9657 67.6868C54.888 67.808 54.8316 67.9425 54.7553 68.0642C54.9616 68.0542 55.1784 68.1196 55.3542 68.2295Z" fill="#F8CA58"/>
<path d="M55.8185 67.4223C55.5099 67.5617 55.126 67.5131 54.8611 67.3033C55.0224 67.0953 55.2546 66.9109 55.5068 66.8328C55.4154 66.9427 55.34 67.068 55.2482 67.1784C55.4531 67.1952 55.6603 67.2901 55.8185 67.4223Z" fill="#F8CA58"/>
<path d="M56.4433 68.0272C56.1898 68.2502 55.8099 68.3201 55.4937 68.1989C55.5863 67.9513 55.7509 67.7065 55.9694 67.5566C55.914 67.6888 55.8808 67.8314 55.8249 67.964C56.0275 67.9191 56.252 67.9472 56.4433 68.0272Z" fill="#F8CA58"/>
<path d="M56.9081 67.1531C56.6545 67.3771 56.2738 67.4465 55.9575 67.3257C56.0507 67.0782 56.216 66.8334 56.4328 66.6826C56.3783 66.8157 56.3442 66.9583 56.2892 67.0904C56.4909 67.0455 56.7163 67.0741 56.9081 67.1531Z" fill="#F8CA58"/>
<path d="M58.2306 67.0074C57.8934 67.3058 57.3868 67.3985 56.9661 67.2372C57.0892 66.9075 57.3105 66.5814 57.5985 66.3811C57.5258 66.5578 57.4809 66.7476 57.4077 66.9243C57.6762 66.8639 57.9761 66.9021 58.2306 67.0074Z" fill="#F8CA58"/>
<path d="M57.6015 66.2733C57.2643 66.5717 56.7577 66.6634 56.3374 66.5021C56.4605 66.1728 56.6809 65.8467 56.9703 65.646C56.8967 65.8231 56.8522 66.0125 56.7777 66.1892C57.0471 66.1288 57.3461 66.1665 57.6015 66.2733Z" fill="#F8CA58"/>
<path d="M56.8907 65.579C56.5531 65.8787 56.0465 65.97 55.6252 65.8092C55.7488 65.4795 55.9701 65.1538 56.2596 64.9526C56.1855 65.1298 56.1405 65.3196 56.0674 65.4963C56.3364 65.4359 56.6358 65.474 56.8907 65.579Z" fill="#F8CA58"/>
<path d="M59.0889 67.6099C58.7517 67.9083 58.2447 68.001 57.823 67.8393C57.947 67.5105 58.1688 67.1839 58.4573 66.9832C58.3846 67.1603 58.3383 67.3501 58.2651 67.5259C58.535 67.4659 58.834 67.5041 59.0889 67.6099Z" fill="#F8CA58"/>
<path d="M56.3854 66.3602C56.1314 66.5845 55.7506 66.6536 55.4348 66.5328C55.5271 66.2857 55.6929 66.0405 55.9105 65.8901C55.8556 66.0232 55.8219 66.1649 55.7665 66.298C55.9692 66.2525 56.1932 66.2811 56.3854 66.3602Z" fill="#F8CA58"/>
<path d="M57.5109 67.8245C57.2582 68.0493 56.8765 68.1188 56.5603 67.9971C56.6534 67.75 56.8193 67.5053 57.0369 67.3545C56.9815 67.4876 56.9483 67.6292 56.8929 67.7623C57.0951 67.7169 57.32 67.746 57.5109 67.8245Z" fill="#F8CA58"/>
<path d="M58.2451 68.1737C58.0447 68.4458 57.6857 68.592 57.3513 68.5403C57.3904 68.2787 57.5017 68.0043 57.6835 67.8118C57.6558 67.953 57.653 68.0992 57.6267 68.2405C57.8162 68.1542 58.0406 68.1351 58.2451 68.1737Z" fill="#F8CA58"/>
<path d="M57.1306 68.5359C56.9379 68.8139 56.5853 68.9719 56.2495 68.9288C56.2809 68.6667 56.384 68.3892 56.558 68.1912C56.5367 68.3333 56.5376 68.4801 56.5162 68.6227C56.7007 68.53 56.9256 68.5046 57.1306 68.5359Z" fill="#F8CA58"/>
<path d="M65.4191 59.0162L63.8728 66.3484C64.0436 66.5255 64.3317 66.8235 64.6975 67.1655L64.7052 67.1723H64.7057C65.5458 67.9585 66.7926 68.9758 67.9436 69.3042C69.5998 69.7766 69.6907 69.3374 69.6907 69.3374C70.8625 69.7452 71.3764 69.0921 71.3764 69.0921C72.1865 69.2265 72.2761 68.8718 72.2761 68.8718C73.1003 68.8278 73.3011 68.3604 73.3011 68.3604C74.2821 68.2169 74.3057 67.7314 74.3057 67.7314C75.0287 67.6914 75.1986 67.0819 75.1986 67.0819C75.9274 66.8244 75.9315 66.3216 75.9315 66.3216C76.5572 65.8497 76.5504 65.347 76.5504 65.347C77.4382 65.2257 77.2124 64.3487 77.2124 64.3487C77.8667 63.9776 77.7222 63.374 77.7222 63.374C78.4278 62.7968 78.0921 62.2063 78.0921 62.2063C78.9009 61.3706 78.4924 60.6049 78.4924 60.6049C79.2448 59.8187 78.8322 59.1456 78.8322 59.1456C79.1753 58.3808 78.8749 57.8031 78.8749 57.8031C79.3757 56.8612 78.8741 56.1922 78.8741 56.1922C79.4207 54.6275 78.6519 54.2746 78.6519 54.2746C79.1926 53.0247 78.1907 51.9819 78.1907 51.9819C77.8004 55.6081 75.5326 57.0346 73.4706 57.576C72.1974 57.9112 71.0033 57.9075 70.379 57.878C68.7423 57.799 68.203 58.8813 67.3261 59.3323C66.4509 59.7833 65.4191 59.0162 65.4191 59.0162Z" fill="#F8CA58"/>
<path d="M73.8037 57.7652C78.3111 56.1892 78.3211 52.5613 78.3211 52.5613C78.3211 52.5613 78.6319 53.817 77.8558 55.1764C77.0807 56.5348 74.9519 58.07 73.6665 58.3048C73.6665 58.3048 74.0291 58.124 73.9877 57.9428C73.9668 57.8479 73.8037 57.7652 73.8037 57.7652Z" fill="#F8CA58"/>
<path d="M78.6502 54.3965C78.6502 54.3965 78.9396 55.0868 78.1395 56.4112C77.3389 57.7361 75.0615 59.2053 73.7484 59.2225C73.7484 59.2225 73.9969 58.9632 73.5435 58.792C73.5435 58.792 75.56 58.5468 77.362 56.537C78.6243 55.1295 78.6502 54.3965 78.6502 54.3965Z" fill="#F8CA58"/>
<path d="M78.7123 56.3462C78.7123 56.3462 78.7137 57.5384 77.2974 58.7642C75.8829 59.9896 73.5824 60.238 73.5824 60.238C73.5824 60.238 73.8014 60.0173 73.5415 59.8433C73.5415 59.8433 75.2804 59.53 76.6435 58.5712C78.2211 57.4617 78.7123 56.3462 78.7123 56.3462Z" fill="#F8CA58"/>
<path d="M78.789 57.9641C78.789 57.9641 76.6875 60.9571 73.415 60.7327C73.415 60.7327 73.7999 61.0439 73.4441 61.2055C73.4441 61.2055 75.9437 61.2796 77.4363 59.9897C78.5513 59.0273 78.789 57.9641 78.789 57.9641Z" fill="#F8CA58"/>
<path d="M78.6118 59.3767C78.6118 59.3767 76.6907 61.9877 73.3392 61.4877C73.3392 61.4877 73.6491 61.8329 73.2229 61.9482C73.2229 61.9482 75.1449 62.268 76.683 61.4945C78.221 60.7215 78.6118 59.3767 78.6118 59.3767Z" fill="#F8CA58"/>
<path d="M78.3023 60.925C78.3023 60.925 76.3166 63.0697 73.1424 62.2644C73.1424 62.2644 73.3123 62.5741 72.9265 62.6581C72.9265 62.6581 74.5545 63.225 76.0195 62.7418C77.4835 62.2585 78.3023 60.925 78.3023 60.925Z" fill="#F8CA58"/>
<path d="M77.8535 62.3647C77.8535 62.3647 75.2522 63.9353 72.6609 62.9829C72.6609 62.9829 72.8845 63.2781 72.4614 63.3817C72.4614 63.3817 74.0795 63.9834 75.3363 63.7323C76.8207 63.4361 77.8535 62.3647 77.8535 62.3647Z" fill="#F8CA58"/>
<path d="M77.4568 63.4717C77.4568 63.4717 75.0891 64.9028 71.9411 63.5997C71.9411 63.5997 72.1133 63.9663 71.7375 64.0108C71.7375 64.0108 73.3879 64.8215 75.0036 64.5863C76.6208 64.3524 77.4568 63.4717 77.4568 63.4717Z" fill="#F8CA58"/>
<path d="M77.0656 64.4261C77.0656 64.4261 74.4016 65.7233 71.4463 64.2458C71.4463 64.2458 71.5972 64.6337 71.116 64.5687C71.116 64.5687 72.0811 65.4017 74.1894 65.3476C76.2986 65.2936 77.0656 64.4261 77.0656 64.4261Z" fill="#F8CA58"/>
<path d="M76.2133 65.5665C76.2133 65.5665 73.6034 66.5771 70.8353 64.7585C70.8353 64.7585 70.8407 65.0029 70.5159 64.9761C70.5159 64.9761 71.356 65.7782 73.3171 66.0793C75.2782 66.3795 76.2133 65.5665 76.2133 65.5665Z" fill="#F8CA58"/>
<path d="M75.7309 66.3554C75.7309 66.3554 72.7957 67.1525 70.1162 65.1133C70.1162 65.1133 70.0272 65.3999 69.7959 65.3967C69.7959 65.3967 70.9414 66.43 72.9147 66.7488C74.8876 67.0663 75.7309 66.3554 75.7309 66.3554Z" fill="#F8CA58"/>
<path d="M75.0108 67.1685C75.0108 67.1685 71.7938 67.6414 69.4256 65.4858C69.4256 65.4858 69.3652 65.7225 69.0403 65.6961C69.0403 65.6961 70.0849 66.802 72.0001 67.2176C73.9157 67.6332 75.0108 67.1685 75.0108 67.1685Z" fill="#F8CA58"/>
<path d="M74.1008 67.7544C74.1008 67.7544 70.6398 67.8816 68.5492 65.7393C68.5492 65.7393 68.4715 65.9159 68.2656 65.8778C68.2656 65.8778 69.0812 67.0382 71.001 67.5382C72.9189 68.0387 74.1008 67.7544 74.1008 67.7544Z" fill="#F8CA58"/>
<path d="M73.0991 68.4068C73.0991 68.4068 69.4636 67.9471 67.8501 65.8843C67.8501 65.8843 67.7392 66.0605 67.4248 66.061C67.4248 66.061 68.3376 67.2832 70.0284 67.9363C71.7187 68.5894 73.0991 68.4068 73.0991 68.4068Z" fill="#F8CA58"/>
<path d="M72.0896 68.8234C72.0896 68.8234 68.2301 68.1113 66.927 66.0002C66.927 66.0002 66.727 66.2015 66.3472 66.0638C66.3472 66.0638 67.3854 67.3523 68.784 68.0136C70.6297 68.8856 72.0896 68.8234 72.0896 68.8234Z" fill="#F8CA58"/>
<path d="M71.1819 69.1399C71.1819 69.1399 67.5451 68.6521 65.8312 66.0732L65.4954 66.4221C65.4954 66.4221 66.6504 67.7405 68.1771 68.4136C69.7042 69.0871 71.1819 69.1399 71.1819 69.1399Z" fill="#F8CA58"/>
<path d="M69.4199 69.2958C69.4199 69.2958 66.7868 68.6427 65.3246 66.6321L65.002 66.9277C65.002 66.9277 65.803 68.0369 66.7967 68.5355C68.1494 69.2118 69.4199 69.2958 69.4199 69.2958Z" fill="#F8CA58"/>
<path d="M73.5372 62.3501L73.1178 62.232C73.5081 62.1321 73.8339 61.8342 73.9643 61.5022L73.48 61.4227C73.729 61.3014 73.8935 61.0344 73.9553 60.7619L73.5254 60.6883C73.8967 60.5634 74.1715 60.1886 74.1193 59.8244L73.3864 59.8285C73.9171 59.6468 74.5382 59.299 74.3338 58.7272L73.6263 58.7866C74.1038 58.3802 74.2974 57.9019 74.282 57.3169C73.5231 57.5126 72.8189 57.4936 72.1995 57.5276C72.1868 57.529 72.1741 57.5299 72.1614 57.5299C71.6634 57.5558 71.2431 57.5468 70.9396 57.5327C69.1384 57.4464 68.5445 58.6381 67.5785 59.1341C66.6143 59.6305 65.478 58.7861 65.478 58.7861L64.452 63.6527L64.3865 63.9633L63.8604 66.4554C64.1498 66.5272 64.4442 66.5167 64.6487 66.3469C65.0308 66.4867 65.5125 66.375 65.8101 66.1343C66.1718 66.3232 66.7098 66.4204 67.016 66.1979L66.8879 65.9286C67.1519 66.1216 67.4935 66.1388 67.8598 66.068L67.7208 65.7764C68.0193 66.0344 68.42 66.1834 68.7763 65.8904L68.5023 65.4767C68.8739 65.7065 69.2784 65.9817 69.6282 65.7255L69.4133 65.3994C69.7395 65.5375 70.1362 65.5552 70.3943 65.3358L70.0817 64.9957C70.4534 65.1179 70.8155 65.2886 71.1645 64.9344L70.8287 64.6782C71.2017 64.8149 71.6111 64.7541 71.7811 64.4266L71.3926 64.1713C71.792 64.2567 72.2118 64.1232 72.4376 63.838L72.0982 63.5873C72.5135 63.6613 72.9656 63.521 73.1074 63.1227L72.6566 62.9601C73.0633 62.936 73.4296 62.742 73.5372 62.3501Z" fill="#F8CA58"/>
<path d="M65.419 59.016L64.4875 63.4346L64.428 63.7167C64.7342 63.7903 64.9991 63.2825 64.9991 63.2825C64.9991 63.2825 65.0268 63.8225 65.3013 63.9201C65.5744 64.0173 65.7461 63.4019 65.7461 63.4019C65.7461 63.4019 65.8511 63.9051 66.1255 63.9333C66.4 63.9605 66.4781 63.392 66.4781 63.392C66.4781 63.392 66.7735 64.0555 67.092 64.1081C67.4096 64.1599 67.3592 63.6427 67.3592 63.6427C67.3592 63.6427 67.615 64.0028 67.859 64.0219C68.0957 64.041 67.9921 63.5482 67.9858 63.5227C67.9971 63.5418 68.1866 63.8652 68.4042 63.8943C68.6246 63.9224 68.541 63.4569 68.5378 63.4382C68.5483 63.4528 68.7623 63.7444 68.9177 63.7026C69.074 63.659 68.9786 63.2988 68.9745 63.2816C68.9904 63.2952 69.3311 63.5927 69.552 63.4837C69.7728 63.376 69.3939 62.9704 69.373 62.9486C69.4025 62.9614 69.9396 63.2116 70.1399 63.0581C70.3467 62.9005 69.876 62.5989 69.876 62.5989C69.876 62.5989 70.5207 62.7343 70.6698 62.5336C70.8211 62.3337 70.2004 62.0357 70.2004 62.0357C70.2004 62.0357 70.7897 62.1293 70.9678 61.9499C71.1455 61.771 70.5085 61.5398 70.5085 61.5398C70.5085 61.5398 71.0483 61.6343 71.2009 61.4208C71.3545 61.2078 70.7938 60.9389 70.7938 60.9389C70.7938 60.9389 71.3522 61.0239 71.4513 60.8258C71.5517 60.6269 71.0251 60.3526 71.0251 60.3526C71.0251 60.3526 71.4931 60.3317 71.6189 60.1673C71.7425 60.0024 71.185 59.7213 71.185 59.7213C71.185 59.7213 71.6248 59.6218 71.6912 59.3593C71.758 59.0954 71.2291 58.9615 71.2291 58.9615C71.2291 58.9615 71.7693 58.7893 71.7984 58.3488C71.8139 58.1194 71.6662 57.9659 71.5217 57.8723C71.5094 57.8723 71.4981 57.8737 71.4863 57.8737C71.0355 57.8969 70.6516 57.8882 70.3785 57.8764C68.7418 57.7974 68.2025 58.8797 67.3255 59.3307C66.4509 59.7831 65.419 59.016 65.419 59.016Z" fill="#F8CA58"/>
<path d="M70.5286 58.1565L71.3992 58.1111C71.456 58.2764 71.3015 58.439 71.1361 58.5135C70.9698 58.5871 70.7721 58.5866 70.5827 58.5848C70.1824 58.5802 69.7821 58.5757 69.3809 58.5716C69.3822 58.5703 69.3845 58.5685 69.3845 58.5685C69.7016 58.3214 70.1038 58.1787 70.5286 58.1565Z" fill="#F8CA58"/>
<path d="M73.1421 57.8833L74.0127 57.8374C74.0695 58.0036 73.9159 58.1658 73.7492 58.2394C73.5829 58.3134 73.3862 58.3129 73.1962 58.3107C72.7964 58.3066 72.3951 58.3025 71.9944 58.2984C71.9962 58.2966 71.998 58.2962 71.9998 58.2944C72.3161 58.0482 72.7164 57.9056 73.1421 57.8833Z" fill="#F8CA58"/>
<path d="M73.0599 59.0891L73.9305 59.0432C73.9882 59.2094 73.8337 59.3716 73.667 59.4461C73.5011 59.5192 73.3035 59.5187 73.1149 59.5169C72.7132 59.5124 72.3129 59.5078 71.9131 59.5047C71.9149 59.5033 71.9158 59.5015 71.9181 59.5005C72.2334 59.2548 72.6346 59.1109 73.0599 59.0891Z" fill="#F8CA58"/>
<path d="M72.8918 60.0741L73.7688 60.1177C73.8038 60.288 73.6297 60.4315 73.4548 60.4874C73.2799 60.5433 73.0827 60.5228 72.8932 60.5019C72.4938 60.457 72.0939 60.4125 71.6941 60.3675C71.6959 60.3657 71.6977 60.3652 71.6995 60.3643C72.0458 60.1536 72.4638 60.0527 72.8918 60.0741Z" fill="#F8CA58"/>
<path d="M72.7201 60.8663L73.5911 60.9907C73.6088 61.162 73.4171 61.2887 73.2349 61.3278C73.0536 61.3668 72.8587 61.3269 72.6728 61.2892C72.2775 61.2065 71.8826 61.1257 71.4878 61.0435C71.4901 61.0421 71.4919 61.0416 71.4942 61.0402C71.864 60.8649 72.2943 60.8046 72.7201 60.8663Z" fill="#F8CA58"/>
<path d="M72.5158 61.5594L73.3773 61.7479C73.3778 61.9196 73.1765 62.0304 72.9902 62.0558C72.8048 62.0808 72.6126 62.0281 72.43 61.9758C72.042 61.8655 71.6539 61.7551 71.2659 61.6448C71.2677 61.6434 71.2699 61.6429 71.2722 61.642C71.6589 61.4953 72.0951 61.4667 72.5158 61.5594Z" fill="#F8CA58"/>
<path d="M72.146 62.2203L72.9884 62.4819C72.9702 62.6514 72.7567 62.7435 72.5685 62.7531C72.3795 62.7626 72.1941 62.6936 72.0147 62.6259C71.6384 62.4833 71.2622 62.3402 70.886 62.1981C70.8873 62.1967 70.8905 62.1958 70.8933 62.1954C71.2963 62.0827 71.7352 62.0932 72.146 62.2203Z" fill="#F8CA58"/>
<path d="M71.7874 62.9219L72.4612 63.2717C72.4312 63.4052 72.244 63.4442 72.0868 63.4197C71.9296 63.3956 71.7815 63.3093 71.6406 63.2253C71.3417 63.0482 71.0436 62.871 70.7441 62.6935C70.7441 62.6935 70.7473 62.6926 70.7496 62.6935C71.094 62.6698 71.4584 62.7512 71.7874 62.9219Z" fill="#F8CA58"/>
<path d="M71.3354 63.4569L72.0088 63.8066C71.9797 63.9397 71.7921 63.9792 71.6349 63.9552C71.4772 63.9302 71.3291 63.8439 71.1882 63.7598C70.8897 63.5827 70.5907 63.4056 70.2913 63.228C70.2944 63.2284 70.2954 63.228 70.2954 63.228C70.6416 63.2048 71.0056 63.2861 71.3354 63.4569Z" fill="#F8CA58"/>
<path d="M70.7663 64.0268L71.3747 64.4664C71.3216 64.5922 71.1289 64.6045 70.9772 64.5577C70.8245 64.5109 70.6923 64.4056 70.5664 64.3029C70.3001 64.0863 70.0343 63.8696 69.7676 63.653C69.7703 63.6521 69.7717 63.653 69.7717 63.653C70.1211 63.6807 70.4683 63.8124 70.7663 64.0268Z" fill="#F8CA58"/>
<path d="M70.1367 64.3489L70.6633 64.8694C70.5865 64.9848 70.3929 64.9671 70.2498 64.8989C70.1062 64.8317 69.994 64.7077 69.8868 64.5892C69.6609 64.338 69.4356 64.0873 69.2102 63.8357C69.2125 63.8361 69.2147 63.8371 69.2161 63.8371C69.5573 63.9147 69.879 64.0955 70.1367 64.3489Z" fill="#F8CA58"/>
<path d="M69.3985 64.6472L69.841 65.2249C69.747 65.3289 69.5561 65.2867 69.4235 65.2013C69.2917 65.1159 69.1985 64.981 69.1108 64.8507C68.9259 64.5755 68.7396 64.2989 68.5547 64.0237C68.5565 64.0241 68.5569 64.025 68.5601 64.026C68.8882 64.1463 69.1813 64.3652 69.3985 64.6472Z" fill="#F8CA58"/>
<path d="M68.8448 64.9399L69.2006 65.5621C69.092 65.6529 68.907 65.588 68.7875 65.4871C68.6685 65.3877 68.5962 65.2437 68.5285 65.1048C68.3841 64.8114 68.2409 64.5175 68.0964 64.2236C68.0983 64.2245 68.1001 64.2245 68.1023 64.2259C68.4113 64.3849 68.6708 64.6356 68.8448 64.9399Z" fill="#F8CA58"/>
<path d="M68.0413 65.0573L68.2676 65.7231C68.1395 65.7921 67.9705 65.6981 67.8723 65.5809C67.7742 65.4642 67.7319 65.3121 67.6928 65.1658C67.6088 64.8552 67.527 64.5463 67.4434 64.2361C67.4461 64.237 67.4466 64.2384 67.4488 64.2393C67.7237 64.4446 67.93 64.7321 68.0413 65.0573Z" fill="#F8CA58"/>
<path d="M67.25 65.1239L67.3586 65.8078C67.2186 65.8573 67.0664 65.7411 66.9891 65.6121C66.9128 65.4835 66.8969 65.3287 66.8837 65.1788C66.8565 64.8645 66.8292 64.5489 66.801 64.2341C66.8015 64.2355 66.8033 64.2368 66.8042 64.2382C67.0414 64.4789 67.1982 64.7896 67.25 65.1239Z" fill="#F8CA58"/>
<path d="M70.4618 59.1215L71.3369 59.1588C71.3755 59.3273 71.2024 59.473 71.0275 59.5307C70.8512 59.5888 70.6558 59.5693 70.4659 59.5493C70.0665 59.508 69.6657 59.4653 69.2659 59.4244C69.2672 59.4231 69.269 59.4217 69.2713 59.4204C69.6144 59.2069 70.0324 59.1042 70.4618 59.1215Z" fill="#F8CA58"/>
<path d="M70.3484 59.8219L71.1354 59.9273C71.1604 60.074 70.9973 60.183 70.8364 60.2166C70.676 60.2497 70.5002 60.218 70.3312 60.1844C69.9731 60.1158 69.6146 60.0459 69.2561 59.9759C69.2584 59.975 69.2607 59.9745 69.2625 59.9731C69.5824 59.8224 69.9631 59.7701 70.3484 59.8219Z" fill="#F8CA58"/>
<path d="M70.1251 60.3787L70.863 60.5513C70.8616 60.6976 70.6858 60.7907 70.5258 60.8106C70.365 60.8306 70.2014 60.7821 70.0442 60.7357C69.7129 60.6363 69.3813 60.5359 69.0496 60.4364C69.0496 60.4364 69.0532 60.435 69.055 60.4346C69.389 60.3133 69.7652 60.2947 70.1251 60.3787Z" fill="#F8CA58"/>
<path d="M69.8021 60.8925L70.5395 61.0655C70.5377 61.2127 70.3618 61.3058 70.2024 61.3245C70.042 61.3444 69.8784 61.2963 69.7203 61.2495C69.389 61.1491 69.0573 61.0496 68.7261 60.9502C68.7261 60.9502 68.7288 60.9488 68.7302 60.9484C69.0655 60.8276 69.4408 60.8085 69.8021 60.8925Z" fill="#F8CA58"/>
<path d="M69.5171 61.4184L70.1509 61.5669C70.1496 61.6932 69.9987 61.7735 69.8606 61.7894C69.7229 61.8062 69.5829 61.7653 69.4471 61.724C69.1613 61.6386 68.8764 61.5533 68.5906 61.4674L68.5965 61.466C68.8827 61.362 69.2063 61.3457 69.5171 61.4184Z" fill="#F8CA58"/>
<path d="M69.3999 61.9155L69.9761 62.2107C69.9365 62.3306 69.7648 62.3702 69.6248 62.3515C69.4853 62.3338 69.3599 62.2602 69.2404 62.1889C68.9873 62.0377 68.7347 61.8864 68.4807 61.7352H68.4862C68.7992 61.7066 69.1187 61.7706 69.3999 61.9155Z" fill="#F8CA58"/>
<path d="M69.1978 62.3686L69.718 62.7415C69.6581 62.8523 69.48 62.8646 69.3441 62.8273C69.2087 62.7896 69.0969 62.6997 68.9901 62.6125C68.7647 62.4276 68.5394 62.2432 68.3145 62.0593C68.3158 62.0588 68.3181 62.0593 68.3181 62.0593C68.6348 62.0775 68.9429 62.186 69.1978 62.3686Z" fill="#F8CA58"/>
<path d="M68.8098 62.7539L69.2165 63.0441C69.1688 63.1299 69.0302 63.1404 68.9252 63.1113C68.8189 63.0814 68.7316 63.011 68.648 62.9437C68.4731 62.8002 68.2972 62.6567 68.1223 62.5132L68.1255 62.5136C68.3722 62.5263 68.6117 62.6113 68.8098 62.7539Z" fill="#F8CA58"/>
<path d="M68.5158 62.9322L68.8925 63.2524C68.8375 63.3342 68.698 63.3332 68.5949 63.2951C68.4913 63.2579 68.4118 63.1811 68.3354 63.107C68.1741 62.9508 68.0124 62.7946 67.8511 62.6375L67.8556 62.6379C68.1001 62.6715 68.3318 62.7759 68.5158 62.9322Z" fill="#F8CA58"/>
<path d="M68.1085 63.1429L68.4398 63.5022C68.373 63.5762 68.233 63.5594 68.1354 63.5103C68.0386 63.4617 67.9695 63.3772 67.9027 63.295C67.7641 63.1224 67.6251 62.9499 67.4856 62.7764C67.4856 62.7764 67.4879 62.7773 67.4897 62.7773C67.7305 62.8395 67.9463 62.9676 68.1085 63.1429Z" fill="#F8CA58"/>
<path d="M67.6573 63.3398L67.9199 63.74C67.8395 63.8031 67.7036 63.765 67.6159 63.7023C67.5282 63.6396 67.4746 63.547 67.4251 63.457C67.3183 63.2672 67.2106 63.0778 67.1047 62.8879C67.1047 62.8879 67.107 62.8884 67.1093 62.8898C67.3365 62.9856 67.5282 63.1432 67.6573 63.3398Z" fill="#F8CA58"/>
<path d="M67.0452 63.4007L67.1675 63.8154C67.0761 63.8513 66.9648 63.7854 66.9035 63.7101C66.8412 63.6342 66.8199 63.5398 66.7999 63.4489C66.7595 63.2568 66.7181 63.0651 66.6768 62.8726L66.6795 62.8748C66.859 63.0134 66.9866 63.1982 67.0452 63.4007Z" fill="#F8CA58"/>
<path d="M60.4992 57.7683L58.3622 64.9502C58.1287 65.0247 57.7334 65.1496 57.2481 65.2759L57.2385 65.279L57.2381 65.2781C56.124 65.5688 54.5432 65.8685 53.3754 65.6097C51.6938 65.2359 51.8237 64.8062 51.8237 64.8062C50.5987 64.6068 50.4583 63.7871 50.4583 63.7871C49.6827 63.5191 49.7718 63.1644 49.7718 63.1644C49.0684 62.7329 49.1161 62.2265 49.1161 62.2265C48.3219 61.6329 48.5327 61.1955 48.5327 61.1955C47.9161 60.8154 48.0565 60.1986 48.0565 60.1986C47.5394 59.625 47.7748 59.1813 47.7748 59.1813C47.4499 58.4682 47.6957 58.0299 47.6957 58.0299C46.9728 57.5008 47.5899 56.8363 47.5899 56.8363C47.1927 56.1991 47.6071 55.7363 47.6071 55.7363C47.2622 54.8929 47.8384 54.5337 47.8384 54.5337C47.5258 53.4137 48.2505 52.935 48.2505 52.935C47.9647 51.8854 48.6477 51.4907 48.6477 51.4907C48.7113 50.655 49.2506 50.2908 49.2506 50.2908C49.2601 49.2234 50.0194 48.8742 50.0194 48.8742C50.2852 47.2382 51.1281 47.2941 51.1281 47.2941C51.2499 45.9379 52.628 45.4983 52.628 45.4983C51.2417 48.8728 52.5553 51.2073 54.1088 52.6652L54.1102 52.6656C55.0684 53.5663 56.1194 54.1322 56.6828 54.4038C58.1587 55.1141 58.1169 56.3231 58.6717 57.137C59.2274 57.9513 60.4992 57.7683 60.4992 57.7683Z" fill="#F8CA58"/>
<path d="M53.7262 52.6733C50.5151 49.1402 52.2372 45.9456 52.2372 45.9456C52.2372 45.9456 51.3653 46.9016 51.3989 48.4667C51.4321 50.0309 52.5707 52.3944 53.5894 53.2124C53.5894 53.2124 53.3573 52.8809 53.4795 52.7423C53.5435 52.6692 53.7262 52.6733 53.7262 52.6733Z" fill="#F8CA58"/>
<path d="M51.0728 47.4031C51.0728 47.4031 50.4894 47.8722 50.5616 49.4183C50.6316 50.9638 51.9334 53.3406 53.0798 53.9819C53.0798 53.9819 52.9848 53.6353 53.4655 53.7012C53.4655 53.7012 51.8107 52.5244 51.1841 49.8988C50.7456 48.0598 51.0728 47.4031 51.0728 47.4031Z" fill="#F8CA58"/>
<path d="M50.0878 49.0876C50.0878 49.0876 49.518 50.1349 50.1773 51.8872C50.838 53.6385 52.7418 54.9537 52.7418 54.9537C52.7418 54.9537 52.6546 54.6549 52.9663 54.6259C52.9663 54.6259 51.5863 53.5213 50.8462 52.0298C49.9878 50.3021 50.0878 49.0876 50.0878 49.0876Z" fill="#F8CA58"/>
<path d="M49.2484 50.4731C49.2484 50.4731 49.6683 54.1052 52.6522 55.4678C52.6522 55.4678 52.1664 55.5576 52.4004 55.8696C52.4004 55.8696 50.1695 54.7438 49.4715 52.898C48.9504 51.5209 49.2484 50.4731 49.2484 50.4731Z" fill="#F8CA58"/>
<path d="M48.7315 51.7991C48.7315 51.7991 49.1754 55.0092 52.3588 56.1673C52.3588 56.1673 51.9225 56.3231 52.242 56.6283C52.242 56.6283 50.3995 55.9929 49.4162 54.5805C48.4334 53.1671 48.7315 51.7991 48.7315 51.7991Z" fill="#F8CA58"/>
<path d="M48.2651 53.3074C48.2651 53.3074 48.9871 56.1392 52.1614 56.9444C52.1614 56.9444 51.8643 57.1357 52.1642 57.3936C52.1642 57.3936 50.4621 57.1156 49.4052 55.9925C48.3483 54.8697 48.2651 53.3074 48.2651 53.3074Z" fill="#F8CA58"/>
<path d="M47.9722 54.7874C47.9722 54.7874 49.5098 57.407 52.2419 57.8058C52.2419 57.8058 51.9039 57.9584 52.2283 58.2513C52.2283 58.2513 50.518 58.0093 49.532 57.189C48.3711 56.2212 47.9722 54.7874 47.9722 54.7874Z" fill="#F8CA58"/>
<path d="M47.793 55.949C47.793 55.949 49.192 58.3357 52.5798 58.6899C52.5798 58.6899 52.255 58.9302 52.5635 59.1482C52.5635 59.1482 50.7269 59.075 49.4174 58.0977C48.1083 57.1221 47.793 55.949 47.793 55.949Z" fill="#F8CA58"/>
<path d="M47.6824 56.9746C47.6824 56.9746 49.4054 59.3849 52.7082 59.4934C52.7082 59.4934 52.3906 59.7637 52.845 59.9349C52.845 59.9349 51.5991 60.2079 49.7716 59.1556C47.9418 58.1028 47.6824 56.9746 47.6824 56.9746Z" fill="#F8CA58"/>
<path d="M47.8877 58.3835C47.8877 58.3835 49.7002 60.5154 53.0004 60.2357C53.0004 60.2357 52.879 60.4483 53.178 60.5795C53.178 60.5795 52.0566 60.8838 50.1896 60.2139C48.3216 59.544 47.8877 58.3835 47.8877 58.3835Z" fill="#F8CA58"/>
<path d="M47.9348 59.3066C47.9348 59.3066 50.1354 61.4058 53.4632 60.8899C53.4632 60.8899 53.4046 61.1842 53.6095 61.2918C53.6095 61.2918 52.1087 61.6543 50.2231 60.9939C48.3356 60.3335 47.9348 59.3066 47.9348 59.3066Z" fill="#F8CA58"/>
<path d="M48.1802 60.3635C48.1802 60.3635 50.7828 62.3129 53.8926 61.5462C53.8926 61.5462 53.8331 61.7829 54.1298 61.9141C54.1298 61.9141 52.6853 62.3887 50.8037 61.8419C48.9208 61.295 48.1802 60.3635 48.1802 60.3635Z" fill="#F8CA58"/>
<path d="M48.7009 61.3137C48.7009 61.3137 51.683 63.0741 54.5419 62.1875C54.5419 62.1875 54.526 62.3797 54.7246 62.4437C54.7246 62.4437 53.4546 63.075 51.5294 62.6004C49.6051 62.1267 48.7009 61.3137 48.7009 61.3137Z" fill="#F8CA58"/>
<path d="M49.2708 62.364C49.2708 62.364 52.6859 63.6925 55.0872 62.6479C55.0872 62.6479 55.1013 62.8554 55.3767 63.0057C55.3767 63.0057 53.9908 63.6453 52.1938 63.4136C50.3963 63.1825 49.2708 62.364 49.2708 62.364Z" fill="#F8CA58"/>
<path d="M49.9583 63.2113C49.9583 63.2113 53.6919 64.4248 55.8438 63.1899C55.8438 63.1899 55.9247 63.4629 56.3241 63.5219C56.3241 63.5219 54.7974 64.1601 53.2511 64.0747C51.2123 63.9616 49.9583 63.2113 49.9583 63.2113Z" fill="#F8CA58"/>
<path d="M50.6067 63.9223C50.6067 63.9223 54.0359 65.2263 56.7717 63.7756L56.9021 64.243C56.9021 64.243 55.2568 64.852 53.5933 64.7153C51.9307 64.58 50.6067 63.9223 50.6067 63.9223Z" fill="#F8CA58"/>
<path d="M52.082 64.8986C52.082 64.8986 54.7083 65.579 56.9511 64.5076L57.0947 64.9232C57.0947 64.9232 55.8606 65.5158 54.7492 65.4804C53.238 65.4309 52.082 64.8986 52.082 64.8986Z" fill="#F8CA58"/>
<path d="M51.7736 56.8317L52.198 56.9271C51.9026 56.6532 51.7586 56.2363 51.8022 55.8825L52.2661 56.0437C52.1048 55.818 52.088 55.5041 52.163 55.2357L52.5765 55.3761C52.3102 55.0895 52.2466 54.6294 52.4665 54.3346L53.1095 54.6862C52.7287 54.2738 52.3484 53.6725 52.8019 53.2669L53.3953 53.6556C53.169 53.0711 53.2271 52.5584 53.5198 52.052C54.0918 52.5852 54.7212 52.904 55.25 53.2296C55.2605 53.236 55.2719 53.2428 55.2819 53.2492C55.7072 53.5085 56.082 53.702 56.3546 53.8333C57.9799 54.6172 57.934 55.947 58.5447 56.8435C59.1577 57.7396 60.5581 57.5384 60.5581 57.5384L59.139 62.3054L59.0486 62.6088L58.3225 65.051C58.0335 64.976 57.7796 64.827 57.6805 64.579C57.2788 64.52 56.9081 64.1926 56.7622 63.8401C56.3537 63.8324 55.8344 63.6621 55.6713 63.3201L55.9125 63.1443C55.5877 63.1879 55.2809 63.0412 54.9915 62.8037L55.2541 62.6143C54.8679 62.6988 54.444 62.6388 54.2718 62.2105L54.7093 61.9771C54.2722 62.002 53.786 62.0516 53.6011 61.6601L53.946 61.4757C53.5934 61.4416 53.2358 61.2686 53.1131 60.9534L53.5498 60.8026C53.1654 60.7327 52.7651 60.7099 52.6269 60.2326L53.0449 60.1672C52.6519 60.1095 52.3211 59.8611 52.3279 59.4927L52.7919 59.4537C52.4011 59.3388 52.0944 59.0204 52.0317 58.6629L52.4502 58.6043C52.0494 58.4708 51.7191 58.132 51.7841 57.7142L52.2584 57.7864C51.9099 57.5725 51.6809 57.2269 51.7736 56.8317Z" fill="#F8CA58"/>
<path d="M60.4993 57.7684L59.2107 62.0967L59.128 62.3729C58.8258 62.292 58.8345 61.7198 58.8345 61.7198C58.8345 61.7198 58.5514 62.1807 58.2647 62.1357C57.9775 62.0917 58.1192 61.4685 58.1192 61.4685C58.1192 61.4685 57.788 61.861 57.5331 61.7547C57.2787 61.648 57.4813 61.1107 57.4813 61.1107C57.4813 61.1107 56.9052 61.553 56.6007 61.4472C56.2968 61.3423 56.588 60.9113 56.588 60.9113C56.588 60.9113 56.1918 61.1052 55.9682 61.0062C55.7506 60.9099 56.0768 60.5266 56.0941 60.5066C56.075 60.518 55.7547 60.7124 55.5484 60.6338C55.3421 60.5543 55.6379 60.1851 55.6497 60.1696C55.6324 60.1778 55.3062 60.3318 55.1894 60.221C55.0727 60.1088 55.3289 59.8372 55.3394 59.8244C55.3198 59.829 54.8782 59.9275 54.7355 59.7268C54.5928 59.5261 55.1204 59.3507 55.1476 59.3412C55.1163 59.3385 54.5242 59.3026 54.4211 59.0723C54.3157 58.8352 54.8718 58.7944 54.8718 58.7944C54.8718 58.7944 54.2407 58.6059 54.2048 58.3588C54.168 58.1109 54.855 58.1449 54.855 58.1449C54.855 58.1449 54.2929 57.946 54.2216 57.7035C54.1507 57.4623 54.8205 57.5618 54.8205 57.5618C54.8205 57.5618 54.3002 57.3874 54.2684 57.1267C54.2348 56.866 54.8555 56.8977 54.8555 56.8977C54.8555 56.8977 54.3252 56.7061 54.3316 56.4849C54.3397 56.2615 54.9332 56.2719 54.9332 56.2719C54.9332 56.2719 54.5297 56.0303 54.4988 55.8259C54.4684 55.6215 55.0931 55.6401 55.0931 55.6401C55.0931 55.6401 54.755 55.3445 54.8214 55.081C54.8877 54.8172 55.4166 54.9516 55.4166 54.9516C55.4166 54.9516 55.0227 54.5433 55.209 54.1422C55.3039 53.9329 55.5066 53.8688 55.6788 53.8552C55.6893 53.8611 55.6993 53.8675 55.7093 53.8734C56.0941 54.1087 56.4358 54.284 56.6825 54.4034C58.1583 55.1138 58.1165 56.3228 58.6713 57.1366C59.2275 57.9514 60.4993 57.7684 60.4993 57.7684Z" fill="#F8CA58"/>
<path d="M56.4182 54.5789L55.6735 54.1233C55.5454 54.2427 55.6035 54.4585 55.7139 54.6034C55.8257 54.7469 55.9984 54.84 56.166 54.9295C56.5205 55.1166 56.8749 55.3032 57.2288 55.4908C57.2275 55.4881 57.2265 55.4863 57.2256 55.4845C57.0657 55.1175 56.7822 54.8009 56.4182 54.5789Z" fill="#F8CA58"/>
<path d="M54.2513 53.0928L53.5079 52.6377C53.3779 52.7562 53.4361 52.972 53.5474 53.1169C53.6587 53.2618 53.8328 53.3544 53.9995 53.443C54.3526 53.6306 54.7083 53.8176 55.0614 54.0048C55.0605 54.002 55.0596 54.0007 55.0591 53.9989C54.8983 53.6324 54.6152 53.3158 54.2513 53.0928Z" fill="#F8CA58"/>
<path d="M53.7485 54.1921L53.0051 53.7371C52.8756 53.8565 52.9338 54.0718 53.0451 54.2171C53.1559 54.3611 53.3291 54.4542 53.4963 54.5432C53.8502 54.7299 54.2051 54.917 54.5595 55.1041C54.5572 55.1019 54.5572 55.0996 54.5563 55.0986C54.3959 54.7317 54.1124 54.4142 53.7485 54.1921Z" fill="#F8CA58"/>
<path d="M53.4262 55.138L52.6361 54.7588C52.5225 54.891 52.607 55.1008 52.7347 55.2339C52.8623 55.3665 53.0454 55.4423 53.2213 55.5141C53.5943 55.6649 53.9665 55.8166 54.3404 55.9674C54.3382 55.9646 54.3381 55.9632 54.3372 55.9614C54.1319 55.6113 53.812 55.3229 53.4262 55.138Z" fill="#F8CA58"/>
<path d="M53.1999 55.916L52.3748 55.6104C52.278 55.753 52.3852 55.9551 52.5265 56.0759C52.6678 56.1967 52.8578 56.2557 53.0395 56.3107C53.4267 56.4265 53.8119 56.5437 54.1991 56.659C54.1973 56.6577 54.1968 56.6559 54.1941 56.6531C53.9533 56.3234 53.6029 56.065 53.1999 55.916Z" fill="#F8CA58"/>
<path d="M53.0477 56.6223L52.2012 56.3779C52.1189 56.5283 52.2439 56.7227 52.3947 56.8335C52.5465 56.9439 52.7396 56.9888 52.9259 57.0297C53.3199 57.1178 53.7124 57.2054 54.1068 57.2935C54.105 57.2922 54.1041 57.2904 54.1027 57.2886C53.8328 56.9747 53.463 56.7418 53.0477 56.6223Z" fill="#F8CA58"/>
<path d="M53.0582 57.3797L52.1935 57.208C52.1272 57.3656 52.2717 57.5496 52.433 57.6472C52.5943 57.7453 52.7906 57.773 52.9796 57.7985C53.3785 57.8525 53.7779 57.9056 54.1769 57.9597C54.1755 57.9579 54.1741 57.9565 54.1718 57.9547C53.871 57.664 53.4794 57.4637 53.0582 57.3797Z" fill="#F8CA58"/>
<path d="M53.0389 58.1677L52.2801 58.1541C52.2428 58.2853 52.3878 58.4089 52.5382 58.4629C52.6886 58.5161 52.859 58.511 53.0234 58.5047C53.3701 58.4915 53.7177 58.4774 54.0649 58.4642C54.0631 58.4629 54.0622 58.462 54.0599 58.4615C53.7677 58.2762 53.4097 58.174 53.0389 58.1677Z" fill="#F8CA58"/>
<path d="M53.1815 58.853L52.4227 58.8394C52.3854 58.9711 52.5308 59.0951 52.6812 59.1487C52.8307 59.2023 53.0015 59.1963 53.166 59.1904C53.5127 59.1768 53.8598 59.1627 54.2074 59.1496C54.2052 59.1486 54.2043 59.1482 54.2024 59.1468C53.9107 58.9615 53.5527 58.8603 53.1815 58.853Z" fill="#F8CA58"/>
<path d="M53.409 59.6263L52.6643 59.7217C52.6515 59.8584 52.8151 59.9601 52.971 59.9919C53.1273 60.0241 53.2936 59.9937 53.454 59.9637C53.7916 59.8997 54.1283 59.8366 54.4663 59.7726C54.4636 59.7712 54.4622 59.7712 54.4604 59.7703C54.1437 59.6286 53.7734 59.5795 53.409 59.6263Z" fill="#F8CA58"/>
<path d="M53.8088 60.2089L53.0986 60.4146C53.11 60.5527 53.289 60.6294 53.4481 60.6381C53.6066 60.6471 53.7634 60.5917 53.9143 60.5386C54.2323 60.4251 54.5504 60.3115 54.8684 60.1984L54.863 60.1971C54.5259 60.1035 54.1569 60.1085 53.8088 60.2089Z" fill="#F8CA58"/>
<path d="M54.317 60.8233L53.6514 61.1199C53.6845 61.2561 53.8722 61.3097 54.0299 61.2983C54.1871 61.2865 54.3325 61.2121 54.4724 61.1385C54.7664 60.9845 55.0608 60.8305 55.3553 60.6757C55.3535 60.6766 55.3512 60.6757 55.3512 60.6757C55.0045 60.6257 54.6424 60.678 54.317 60.8233Z" fill="#F8CA58"/>
<path d="M54.6637 61.3431L54.053 61.7206C54.1061 61.8528 54.2997 61.8827 54.4524 61.8518C54.605 61.8218 54.7368 61.7287 54.8622 61.6388C55.1299 61.4499 55.3966 61.2596 55.6633 61.0698C55.661 61.0702 55.6596 61.0698 55.6569 61.0698C55.3102 61.062 54.9617 61.1588 54.6637 61.3431Z" fill="#F8CA58"/>
<path d="M55.3141 61.8306L54.7983 62.3075C54.8765 62.4297 55.071 62.4275 55.2123 62.3711C55.3545 62.3153 55.4649 62.2017 55.5685 62.0918C55.7893 61.8588 56.0097 61.6258 56.2305 61.3928C56.2287 61.3937 56.2269 61.3938 56.2269 61.3938C55.8857 61.4433 55.5662 61.5972 55.3141 61.8306Z" fill="#F8CA58"/>
<path d="M55.9776 62.2652L55.5564 62.8153C55.655 62.9243 55.8449 62.8956 55.974 62.8189C56.103 62.7421 56.1903 62.6136 56.273 62.4882C56.4479 62.2248 56.6224 61.9605 56.7969 61.6975C56.795 61.698 56.7932 61.6985 56.7914 61.6985C56.4683 61.797 56.1839 61.9964 55.9776 62.2652Z" fill="#F8CA58"/>
<path d="M56.0181 55.4589L55.2311 55.0737C55.1166 55.2041 55.1988 55.4144 55.3251 55.5493C55.451 55.6828 55.6341 55.7596 55.8104 55.8322C56.1807 55.9862 56.5529 56.1401 56.9241 56.2941C56.9232 56.2923 56.9223 56.2905 56.9214 56.2887C56.7205 55.9367 56.4016 55.6469 56.0181 55.4589Z" fill="#F8CA58"/>
<path d="M55.7826 56.128L55.0392 55.8459C54.9479 55.9636 55.0392 56.1371 55.1646 56.2425C55.2887 56.3483 55.4604 56.4041 55.6254 56.4555C55.9725 56.5654 56.3201 56.6744 56.6691 56.7847C56.6668 56.7825 56.6654 56.7807 56.6645 56.7793C56.456 56.4941 56.1452 56.2666 55.7826 56.128Z" fill="#F8CA58"/>
<path d="M55.7133 56.7238L54.9836 56.5239C54.9154 56.6543 55.0245 56.8192 55.1558 56.9132C55.2876 57.0067 55.4548 57.0422 55.6156 57.0762C55.9537 57.1462 56.2931 57.2166 56.6321 57.2874C56.6316 57.286 56.6293 57.2847 56.6289 57.2829C56.3917 57.0167 56.0705 56.8214 55.7133 56.7238Z" fill="#F8CA58"/>
<path d="M55.7527 57.33L55.023 57.1311C54.9535 57.2605 55.0634 57.4263 55.1947 57.519C55.3261 57.6125 55.4933 57.6484 55.6541 57.682C55.9931 57.752 56.3325 57.8228 56.6715 57.8928C56.6696 57.8918 56.6692 57.8905 56.6674 57.8891C56.4311 57.6234 56.1094 57.4277 55.7527 57.33Z" fill="#F8CA58"/>
<path d="M55.7525 57.9285L55.1241 57.7563C55.0646 57.8681 55.1591 58.0112 55.2731 58.0911C55.3858 58.171 55.5294 58.2019 55.6675 58.2305C55.9592 58.2918 56.2505 58.3527 56.5427 58.4122C56.5413 58.4117 56.5404 58.4099 56.5381 58.4086C56.3359 58.1801 56.0596 58.0121 55.7525 57.9285Z" fill="#F8CA58"/>
<path d="M55.6184 58.421L54.9705 58.406C54.9482 58.53 55.0818 58.6463 55.2127 58.6967C55.3444 58.7476 55.4889 58.743 55.6289 58.7371C55.9229 58.7248 56.2177 58.7121 56.5117 58.6998L56.5094 58.698C56.2473 58.5232 55.9347 58.4269 55.6184 58.421Z" fill="#F8CA58"/>
<path d="M55.5793 58.9156L54.9441 58.9955C54.9441 59.1223 55.0949 59.2181 55.2326 59.2499C55.3703 59.2817 55.5112 59.2558 55.6461 59.2303C55.9324 59.1749 56.2186 59.1205 56.5035 59.066C56.5035 59.0651 56.5013 59.0646 56.4994 59.0632C56.2132 58.9274 55.8906 58.8765 55.5793 58.9156Z" fill="#F8CA58"/>
<path d="M55.7363 59.4382L55.2415 59.5004C55.2424 59.5985 55.3596 59.6735 55.4659 59.698C55.5732 59.723 55.6822 59.7029 55.7881 59.6825C56.0112 59.6394 56.2343 59.5981 56.4565 59.5554C56.456 59.554 56.4547 59.554 56.4547 59.554C56.2297 59.4473 55.9785 59.4078 55.7363 59.4382Z" fill="#F8CA58"/>
<path d="M55.9104 59.7354L55.426 59.838C55.436 59.9361 55.5592 60.0011 55.6678 60.0179C55.7764 60.0338 55.884 60.0048 55.9854 59.9761C56.2026 59.9153 56.4184 59.8548 56.636 59.7935C56.636 59.7935 56.6333 59.7931 56.6319 59.7926C56.3998 59.7045 56.1476 59.6859 55.9104 59.7354Z" fill="#F8CA58"/>
<path d="M56.1679 60.1147L55.7053 60.2733C55.728 60.37 55.8598 60.4218 55.968 60.4249C56.0765 60.4286 56.1788 60.3868 56.2756 60.3464C56.4805 60.261 56.6854 60.1752 56.8894 60.0898C56.8885 60.0889 56.8872 60.0889 56.8872 60.0889C56.645 60.028 56.3937 60.038 56.1679 60.1147Z" fill="#F8CA58"/>
<path d="M56.47 60.503L56.0483 60.7296C56.0897 60.8227 56.2265 60.8541 56.3332 60.8413C56.4409 60.8282 56.5323 60.7718 56.6191 60.7164C56.8031 60.6011 56.988 60.4849 57.1716 60.369C57.1716 60.369 57.1693 60.3681 57.1679 60.369C56.9212 60.3441 56.6781 60.3917 56.47 60.503Z" fill="#F8CA58"/>
<path d="M56.979 60.8479L56.6746 61.154C56.7377 61.229 56.8672 61.2249 56.9567 61.1877C57.048 61.1504 57.1117 61.0777 57.1716 61.0069C57.2998 60.8575 57.4275 60.7085 57.5551 60.5591C57.5551 60.5591 57.5533 60.5604 57.5519 60.5604C57.3284 60.5967 57.1289 60.6976 56.979 60.8479Z" fill="#F8CA58"/>
<path d="M66.2927 57.9422C66.2927 57.9422 65.4848 57.8555 65.5657 57.3014C65.6538 57.3849 65.8583 57.5167 66.1827 57.3536C66.1827 57.3536 65.6716 57.24 65.5507 56.7613C65.7193 56.8249 65.9569 56.8558 66.1905 56.6855C66.1905 56.6855 65.5057 56.6669 65.5184 56.1777C65.8038 56.4721 66.1505 56.1527 66.1505 56.1527C65.0809 56.12 65.5716 54.9351 65.7956 54.1717C66.0183 53.4082 65.563 53.1666 65.563 53.1666C66.0641 53.2238 66.3645 52.7392 66.3645 52.7392C66.0173 52.9458 65.5975 52.7968 65.5975 52.7968C66.3831 52.8422 66.3909 52.1156 66.3909 52.1156C66.1078 52.5902 65.6252 52.5094 65.6252 52.5094C66.4735 52.1919 66.1487 51.3812 66.1487 51.3812C66.0664 52.6356 63.8472 51.7786 63.2084 51.561C62.57 51.3426 62.3664 51.74 62.3664 51.74C62.1247 51.5243 62.4568 51.0891 62.4568 51.0891C62.0461 51.1958 61.9688 51.5411 61.9688 51.5411C61.8702 51.2772 61.5172 51.244 61.5172 51.244C61.6735 51.3258 61.6808 51.5769 61.6808 51.5769C61.4309 51.3294 60.9742 51.4007 60.9742 51.4007C61.2173 51.4338 61.589 51.9489 61.589 51.9489C61.589 51.9489 60.3654 52.2777 60.0146 52.4966C59.6638 52.7164 59.8083 53.6589 59.8083 53.6589C59.8083 53.6589 60.1395 53.1302 60.9392 53.2346C61.3704 53.2914 61.9934 53.4472 61.9934 53.4472C61.9934 53.4472 61.7485 53.7406 61.1682 53.727C60.5894 53.7134 60.3754 53.5889 60.3754 53.5889C60.3754 53.5889 60.2022 53.9518 60.7979 54.2225C61.3941 54.4927 61.7739 54.5023 62.0288 54.4896C62.2828 54.4773 62.5082 54.3179 62.2188 54.847C61.9293 55.377 61.4145 55.1636 61.4145 55.1636C61.5776 55.293 61.7289 55.3611 61.8657 55.3875C61.8003 55.491 61.5854 55.7263 61.0274 55.556C61.0274 55.556 61.215 55.7935 61.4968 55.8757C61.2546 55.9906 60.8874 56.0383 60.6484 55.9425C60.6484 55.9425 60.8851 56.2622 61.3109 56.2436C61.3109 56.2436 60.932 56.6641 60.2354 56.3635C60.2354 56.3635 60.4244 56.7809 60.9138 56.8218C60.5862 57.0298 60.3217 57.8037 60.2517 58.3074C60.2517 58.3074 60.6157 58.1843 60.8043 57.9854C60.8043 57.9854 60.7043 58.2914 60.877 58.5499C60.877 58.5499 61.2691 58.3078 61.4181 58.0512C61.4181 58.0512 61.3991 58.5617 61.5018 58.682C61.5018 58.682 61.8353 58.5249 61.9929 58.2315C61.9929 58.2315 61.9975 58.6716 62.1638 58.8237C62.1638 58.8237 62.5 58.6307 62.5959 58.385C62.5959 58.385 62.6131 58.8438 62.7495 58.9832C62.7495 58.9832 63.0584 58.7883 63.1993 58.4717C63.1993 58.4717 63.1693 58.9846 63.3497 59.1249C63.3497 59.1249 63.7123 58.9382 63.7868 58.6258C63.7868 58.6258 63.7741 59.0903 63.9845 59.2856C63.9845 59.2856 64.2734 59.1272 64.3752 58.7066C64.3752 58.7066 64.377 59.2434 64.6092 59.4387C64.6092 59.4387 64.8937 59.2797 64.9823 58.8873C64.9823 58.8873 65.0163 59.3629 65.2131 59.5704C65.2131 59.5704 65.7483 58.9087 65.573 58.0993C65.602 58.1116 65.6338 58.1225 65.6675 58.1302C66.0251 58.2102 66.2927 57.9422 66.2927 57.9422Z" fill="#F8CA58"/>
<path d="M63.3527 53.5761C62.3304 53.4339 62.0028 52.7871 61.5202 51.9683C61.2603 52.04 60.3175 52.3089 60.0158 52.497C59.665 52.7168 59.8095 53.6592 59.8095 53.6592C59.8095 53.6592 60.1408 53.1305 60.9405 53.235C61.3717 53.2909 61.9946 53.4475 61.9946 53.4475C61.9946 53.4475 61.7497 53.7409 61.1695 53.7273C60.5906 53.7137 60.3766 53.5892 60.3766 53.5892C60.3766 53.5892 60.2034 53.9521 60.7991 54.2228C61.3953 54.493 61.7751 54.5026 62.03 54.4898C62.0473 54.4889 62.0641 54.4876 62.0814 54.4853C62.4858 54.2169 62.8456 53.7732 63.3527 53.5761Z" fill="#F8CA58"/>
<path d="M65.5334 52.1801C65.8533 52.1819 66.1236 51.9607 66.2077 51.6546C66.195 51.4947 66.1495 51.3812 66.1495 51.3812C66.0673 52.6356 63.8481 51.7786 63.2093 51.561C62.5709 51.3426 62.3673 51.74 62.3673 51.74C62.1256 51.5243 62.4577 51.0891 62.4577 51.0891C62.047 51.1958 61.9697 51.5411 61.9697 51.5411C61.8711 51.2772 61.5181 51.244 61.5181 51.244C61.6744 51.3258 61.6817 51.5769 61.6817 51.5769C61.4317 51.3294 60.9751 51.4007 60.9751 51.4007C61.2182 51.4338 61.5899 51.9489 61.5899 51.9489C61.5899 51.9489 61.5621 51.9557 61.5199 51.968C61.5535 52.0238 61.5853 52.0779 61.6158 52.1315C62.7726 51.066 64.1775 52.4249 65.5334 52.1801Z" fill="#F8CA58"/>
<path d="M63.028 53.5058C63.128 53.5358 63.2352 53.5598 63.3524 53.5762C62.8453 53.7738 62.4855 54.217 62.0811 54.4854C62.3115 54.4586 62.4887 54.3546 62.2197 54.8474C61.9302 55.3774 61.4154 55.164 61.4154 55.164C61.5785 55.2934 61.7298 55.3616 61.8666 55.3879C61.8012 55.4915 61.5863 55.7267 61.0283 55.5564C61.0283 55.5564 61.216 55.7939 61.4977 55.8761C61.2555 55.991 60.8884 56.0387 60.6494 55.9429C60.6494 55.9429 60.8861 56.2627 61.3118 56.244C61.3118 56.244 60.9329 56.6646 60.2363 56.3639C60.2363 56.3639 60.4253 56.7813 60.9147 56.8222C60.5871 57.0302 60.3227 57.8041 60.2527 58.3078C60.2527 58.3078 60.6166 58.1847 60.8052 57.9858C60.8052 57.9858 60.7052 58.2919 60.8779 58.5503C60.8779 58.5503 61.27 58.3083 61.4191 58.0517C61.4191 58.0517 61.4 58.5622 61.5027 58.6825C61.5027 58.6825 61.8362 58.5253 61.9938 58.2319C61.9938 58.2319 61.9984 58.672 62.1647 58.8242C62.1647 58.8242 62.5009 58.6312 62.5968 58.3855C62.5968 58.3855 62.6141 58.8442 62.7504 58.9836C62.7504 58.9836 63.0594 58.7888 63.2002 58.4722C63.2002 58.4722 63.1702 58.985 63.3506 59.1253C63.3506 59.1253 63.7132 58.9387 63.7877 58.6262C63.7877 58.6262 63.775 59.0908 63.9854 59.2861C63.9854 59.2861 64.2744 59.1276 64.3761 58.707C64.3761 58.707 64.378 59.2438 64.6101 59.4391C64.6101 59.4391 64.8946 59.2802 64.9832 58.8878C64.9832 58.8878 65.0173 59.3633 65.214 59.5709C65.214 59.5709 65.7493 58.9091 65.5739 58.0998C65.603 58.112 65.6348 58.1229 65.6684 58.1307C66.0242 58.2101 66.2918 57.9422 66.2918 57.9422C66.2918 57.9422 65.4839 57.8555 65.5648 57.3014C65.653 57.3849 65.8574 57.5166 66.1818 57.3536C66.1818 57.3536 65.6707 57.24 65.5498 56.7613C65.7184 56.8249 65.956 56.8558 66.1896 56.6855C66.1896 56.6855 65.5048 56.6669 65.5175 56.1777C65.8029 56.472 66.1496 56.1527 66.1496 56.1527C66.0074 56.1491 65.8933 56.1232 65.8024 56.0823C65.6384 56.0237 65.4839 55.9284 65.3481 55.7862C64.5356 55.02 64.4993 53.2187 63.028 53.5058Z" fill="#F8CA58"/>
<path d="M65.7956 54.1715C66.0182 53.408 65.5629 53.1664 65.5629 53.1664C65.8669 53.2005 66.0973 53.037 66.2309 52.9016C65.1381 53.2123 63.5969 52.5324 62.7976 53.4225C62.8689 53.4543 62.9467 53.4816 63.028 53.5052C64.4988 53.2182 64.5351 55.0199 65.3489 55.7856C65.4848 55.9278 65.6393 56.0231 65.8033 56.0817C65.2076 55.8119 65.6011 54.8332 65.7956 54.1715Z" fill="#F8CA58"/>
<path d="M66.2313 52.902C66.3176 52.8143 66.3649 52.7393 66.3649 52.7393C66.0177 52.946 65.5979 52.797 65.5979 52.797C66.3835 52.8424 66.3912 52.1157 66.3912 52.1157C66.1082 52.5903 65.6256 52.5095 65.6256 52.5095C66.1563 52.3115 66.2281 51.92 66.2072 51.6543C66.1227 51.9604 65.8528 52.1816 65.5329 52.1798C64.1771 52.4246 62.7721 51.0661 61.6157 52.1321C61.9524 52.7071 62.24 53.179 62.798 53.4233C63.5973 52.5327 65.1385 53.2126 66.2313 52.902Z" fill="#F8CA58"/>
<path d="M61.0374 57.0332C60.7629 57.2435 60.5671 57.5555 60.4976 57.8943C60.623 57.8058 60.7725 57.7258 60.8974 57.6364C60.9088 57.7921 60.9274 57.9534 60.9379 58.1083C61.22 57.8335 61.2078 57.3902 61.0374 57.0332Z" fill="#F8CA58"/>
<path d="M61.7407 56.1785C61.4095 56.2797 61.1169 56.5032 60.9324 56.7966C61.0814 56.7571 61.2495 56.7335 61.3986 56.6944C61.3531 56.8438 61.3145 57.001 61.2704 57.1509C61.6317 56.991 61.7748 56.5718 61.7407 56.1785Z" fill="#F8CA58"/>
<path d="M62.1786 56.248C61.9291 56.4883 61.7701 56.8212 61.7383 57.1659C61.8541 57.0633 61.9927 56.967 62.1077 56.8648C62.1359 57.0174 62.1722 57.1759 62.2004 57.329C62.4503 57.0229 62.3876 56.5841 62.1786 56.248Z" fill="#F8CA58"/>
<path d="M62.1617 55.1543C61.9123 55.3941 61.7528 55.727 61.7214 56.0717C61.8368 55.9696 61.9759 55.8728 62.0913 55.7706C62.119 55.9242 62.1558 56.0817 62.1835 56.2348C62.433 55.9287 62.3703 55.4908 62.1617 55.1543Z" fill="#F8CA58"/>
<path d="M62.8587 55.3311C62.6084 55.5713 62.4498 55.9038 62.4185 56.2489C62.5334 56.1468 62.6724 56.05 62.7869 55.9473C62.8151 56.1013 62.8524 56.2585 62.8796 56.412C63.1291 56.1059 63.0664 55.6671 62.8587 55.3311Z" fill="#F8CA58"/>
<path d="M63.4947 55.5203C63.2457 55.7605 63.0858 56.0934 63.0544 56.4382C63.1699 56.3355 63.3093 56.2392 63.4238 56.137C63.4525 56.2897 63.4888 56.4477 63.5166 56.6012C63.766 56.2951 63.7028 55.8559 63.4947 55.5203Z" fill="#F8CA58"/>
<path d="M64.1788 55.6943C63.9294 55.9346 63.7703 56.2666 63.7385 56.6122C63.8544 56.5087 63.9925 56.4129 64.1084 56.3102C64.1366 56.4637 64.1725 56.6218 64.2002 56.7753C64.4496 56.4683 64.3878 56.03 64.1788 55.6943Z" fill="#F8CA58"/>
<path d="M64.8158 55.8184C64.634 56.1131 64.5623 56.4742 64.6181 56.8162C64.7036 56.6886 64.8144 56.56 64.9003 56.4319C64.9648 56.5736 65.0407 56.7176 65.1052 56.8589C65.2711 56.5005 65.1011 56.0918 64.8158 55.8184Z" fill="#F8CA58"/>
<path d="M62.9691 56.4954C62.7142 56.7311 62.5488 57.0599 62.5098 57.4037C62.627 57.3038 62.7678 57.2098 62.8851 57.1099C62.9092 57.2638 62.9437 57.4228 62.9678 57.5763C63.224 57.2756 63.17 56.8364 62.9691 56.4954Z" fill="#F8CA58"/>
<path d="M63.7216 56.6531C63.5049 56.9238 63.3904 57.2739 63.4045 57.6195C63.5044 57.5028 63.6308 57.3893 63.7312 57.2726C63.7784 57.4215 63.8352 57.5727 63.8834 57.7217C64.0901 57.3856 63.972 56.9592 63.7216 56.6531Z" fill="#F8CA58"/>
<path d="M64.4194 56.7898C64.2017 57.0605 64.0877 57.4107 64.1018 57.7563C64.2026 57.6396 64.3276 57.526 64.4284 57.4093C64.4762 57.5583 64.5325 57.7104 64.5802 57.8585C64.7883 57.5224 64.6697 57.0955 64.4194 56.7898Z" fill="#F8CA58"/>
<path d="M65.1064 56.9883C64.9351 57.2899 64.8778 57.6537 64.946 57.9934C65.0269 57.8626 65.1327 57.73 65.2136 57.5992C65.2836 57.7386 65.3645 57.8785 65.4349 58.0184C65.5867 57.6532 65.4008 57.2512 65.1064 56.9883Z" fill="#F8CA58"/>
<path d="M61.6844 57.1968C61.4095 57.4075 61.2142 57.7196 61.1428 58.0579C61.2691 57.9703 61.4177 57.8899 61.5445 57.8009C61.5545 57.9566 61.5731 58.117 61.5836 58.2723C61.8667 57.9971 61.8539 57.5542 61.6844 57.1968Z" fill="#F8CA58"/>
<path d="M62.1856 57.3394C61.9502 57.5932 61.8112 57.9348 61.7998 58.2809C61.9084 58.171 62.042 58.0669 62.1506 57.9579C62.1869 58.1096 62.2333 58.2645 62.2701 58.4166C62.5014 58.096 62.4137 57.6618 62.1856 57.3394Z" fill="#F8CA58"/>
<path d="M62.762 57.5037C62.5262 57.758 62.3871 58.0982 62.3762 58.4452C62.4844 58.3357 62.6175 58.2308 62.7265 58.1223C62.7638 58.2735 62.8092 58.4289 62.8465 58.581C63.0778 58.2608 62.9892 57.8261 62.762 57.5037Z" fill="#F8CA58"/>
<path d="M63.3452 57.6411C63.1103 57.8959 62.9703 58.2365 62.9585 58.5826C63.068 58.4736 63.2007 58.3692 63.3093 58.2597C63.3465 58.4114 63.392 58.5667 63.4283 58.718C63.6605 58.3978 63.5724 57.964 63.3452 57.6411Z" fill="#F8CA58"/>
<path d="M63.9773 57.8013C63.7414 58.0565 63.6019 58.3967 63.5906 58.7428C63.6992 58.6338 63.8328 58.5293 63.9414 58.4199C63.9786 58.5716 64.0241 58.7273 64.0604 58.8786C64.2926 58.5579 64.2044 58.1237 63.9773 57.8013Z" fill="#F8CA58"/>
<path d="M64.5696 57.8994C64.3351 58.1542 64.1947 58.4943 64.1833 58.8404C64.2924 58.7319 64.4255 58.6274 64.5341 58.5184C64.5714 58.6697 64.6168 58.825 64.6541 58.9767C64.8854 58.657 64.7972 58.2232 64.5696 57.8994Z" fill="#F8CA58"/>
<path d="M65.147 58.0469C64.9125 58.3012 64.7726 58.6418 64.7612 58.987C64.8707 58.8784 65.0034 58.774 65.112 58.6654C65.1488 58.8171 65.1956 58.9725 65.2315 59.1237C65.4641 58.8035 65.376 58.3693 65.147 58.0469Z" fill="#F8CA58"/>
<path d="M62.6308 52.7388C62.7454 52.7388 62.8384 52.6459 62.8384 52.5312C62.8384 52.4166 62.7454 52.3237 62.6308 52.3237C62.5161 52.3237 62.4231 52.4166 62.4231 52.5312C62.4231 52.6459 62.5161 52.7388 62.6308 52.7388Z" fill="#F8CA58"/>
<path d="M61.9045 52.5105C62.0277 52.5255 62.1308 52.5 62.2194 52.4533C62.3071 52.4106 62.383 52.3334 62.4943 52.2648C62.5489 52.2307 62.6161 52.1994 62.6915 52.1907C62.766 52.1812 62.8433 52.1998 62.9037 52.2312C63.0246 52.2993 63.1028 52.4038 63.145 52.5187C63.0469 52.4483 62.9478 52.3861 62.8515 52.3624C62.7538 52.3379 62.6838 52.3656 62.5943 52.4233C62.5511 52.4515 62.5048 52.4869 62.453 52.5196C62.4016 52.5527 62.3367 52.5863 62.2721 52.6013C62.1417 52.6349 61.9886 52.6068 61.9045 52.5105Z" fill="#F8CA58"/>
<path d="M59.1898 57.8384L67.2786 59.3771L64.7627 69.1501L59.1898 70.9504L56.7898 66.683L59.1898 57.8384Z" fill="#F8CA58"/>
</g>
</svg>
