<svg width="197" height="85" viewBox="0 0 197 85" fill="none" xmlns="http://www.w3.org/2000/svg">
<path d="M-3.91739 69.2144L-5.83238 69.3883L-4.92026 79.4365L-3.00526 79.2626L-3.91739 69.2144Z" fill="#E0E0E0"/>
<path d="M-3.481 84.7624C-0.736286 84.5133 1.28678 82.0863 1.03763 79.3416C0.788477 76.5968 -1.63855 74.5738 -4.38327 74.8229C-7.12799 75.0721 -9.15102 77.4991 -8.90187 80.2438C-8.65272 82.9885 -6.22572 85.0116 -3.481 84.7624Z" fill="#E0E0E0"/>
<path d="M-3.71497 82.1854C-2.39412 82.0655 -1.42055 80.8975 -1.54045 79.5767C-1.66035 78.2558 -2.82832 77.2823 -4.14917 77.4022C-5.47002 77.5221 -6.44355 78.69 -6.32365 80.0109C-6.20375 81.3317 -5.03581 82.3053 -3.71497 82.1854Z" fill="#EBEBEB"/>
<path d="M9.29356 68.0386L7.37943 68.2124L8.29147 78.2597L10.2056 78.0859L9.29356 68.0386Z" fill="#E0E0E0"/>
<path d="M9.73102 83.5858C12.4753 83.3367 14.498 80.9101 14.2489 78.1659C13.9998 75.4216 11.5732 73.3989 8.82892 73.648C6.08467 73.8971 4.06196 76.3237 4.31107 79.068C4.56017 81.8122 6.98677 83.8349 9.73102 83.5858Z" fill="#E0E0E0"/>
<path d="M9.49696 81.0085C10.8178 80.8886 11.7914 79.7207 11.6715 78.3998C11.5516 77.079 10.3836 76.1054 9.06277 76.2253C7.74193 76.3452 6.76836 77.5132 6.88826 78.834C7.00816 80.1549 8.17612 81.1284 9.49696 81.0085Z" fill="#EBEBEB"/>
<path d="M-42.5791 44.8416C-78.647 41.9903 -95.0913 23.3246 -114.397 7.84155C-116.063 6.50462 -117.852 5.31859 -119.793 4.42673C-126.111 1.52255 -133.096 0.305261 -140.063 0.925623L-140.854 0.996533L-116.298 50.3127L-42.5791 44.8416Z" fill="#EBEBEB"/>
<path d="M130.125 58.1087L128.211 58.2824L129.123 68.3297L131.037 68.156L130.125 58.1087Z" fill="#E0E0E0"/>
<path d="M130.563 73.6558C133.307 73.4067 135.33 70.9801 135.08 68.2358C134.831 65.4916 132.405 63.4689 129.661 63.718C126.916 63.9671 124.894 66.3937 125.143 69.1379C125.392 71.8822 127.818 73.9049 130.563 73.6558Z" fill="#E0E0E0"/>
<path d="M130.329 71.0784C131.649 70.9585 132.623 69.7905 132.503 68.4697C132.383 67.1488 131.215 66.1753 129.894 66.2952C128.574 66.4151 127.6 67.583 127.72 68.9039C127.84 70.2247 129.008 71.1983 130.329 71.0784Z" fill="#EBEBEB"/>
<path d="M143.337 56.9326L141.423 57.1064L142.335 67.1546L144.249 66.9808L143.337 56.9326Z" fill="#E0E0E0"/>
<path d="M143.775 72.4805C146.519 72.2313 148.542 69.8044 148.293 67.0596C148.044 64.3149 145.617 62.2919 142.872 62.541C140.128 62.7902 138.105 65.2172 138.354 67.9619C138.603 70.7066 141.03 72.7297 143.775 72.4805Z" fill="#E0E0E0"/>
<path d="M143.54 69.9024C144.861 69.7825 145.835 68.6146 145.715 67.2937C145.595 65.9729 144.427 64.9993 143.106 65.1192C141.785 65.2391 140.812 66.4071 140.932 67.7279C141.052 69.0488 142.22 70.0223 143.54 69.9024Z" fill="#EBEBEB"/>
<path d="M-129.209 54.3618C-129.206 54.3985 -129.191 54.4301 -129.183 54.4664C-129.17 54.4928 -129.162 54.5249 -129.148 54.5564C-129.134 54.5862 -129.12 54.6238 -129.1 54.6642C-129.082 54.6953 -129.062 54.7315 -129.037 54.7663C-128.987 54.8532 -128.919 54.9394 -128.836 55.0242C-128.801 55.0641 -128.765 55.103 -128.723 55.1433C-128.706 55.1624 -128.682 55.1878 -128.659 55.2082C-128.624 55.2378 -128.589 55.2726 -128.548 55.3059C-128.345 55.4661 -128.103 55.6435 -127.801 55.817C-127.568 55.952 -127.308 56.0907 -127.009 56.236C-126.289 56.5761 -125.373 56.9313 -124.224 57.304C-124.179 57.3164 -124.134 57.3296 -124.09 57.3463C-124.09 57.3463 -106.307 60.917 -85.2962 64.6174C-83.2035 64.9848 -81.0827 65.3574 -78.9428 65.7222C-75.9593 66.2381 -72.9429 66.7459 -69.9325 67.2439C-66.4904 67.8115 -63.055 68.3632 -59.6878 68.8763C-51.3184 70.1707 -43.3423 71.2661 -36.6582 71.9656C-36.6582 71.9656 -34.8432 72.1925 -31.7456 72.4056C-30.3738 72.5011 -28.7479 72.5925 -26.9187 72.662C-23.4843 72.7936 -19.3223 72.8437 -14.7216 72.6703C-14.2866 72.6532 -13.841 72.63 -13.4009 72.6117C-12.7296 72.5844 -12.0542 72.5455 -11.3727 72.5069C-11.141 72.4928 -10.9164 72.4776 -10.6857 72.4627C-10.3099 72.4398 -9.92988 72.4156 -9.56055 72.3881C-9.23827 72.3649 -8.92329 72.3372 -8.59587 72.3135C-7.63721 72.2394 -6.65903 72.1524 -5.675 72.0536L144.378 60.6618C144.378 60.6618 144.389 60.6608 144.399 60.6598L144.448 60.6563C144.448 60.6563 144.502 60.6514 144.592 60.6381C144.64 60.6336 144.698 60.6232 144.762 60.6174C144.8 60.6088 144.848 60.6044 144.895 60.6002C144.987 60.5918 145.093 60.577 145.211 60.5612C145.279 60.5549 145.354 60.543 145.435 60.5356C151.306 59.8086 181.689 55.8092 191.365 49.9166C191.365 49.9166 194.388 48.3912 195.666 46.1417C195.788 45.9375 195.887 45.7239 195.976 45.4994C196.085 45.2099 196.166 44.9058 196.202 44.5962C196.233 44.3338 196.237 44.0703 196.201 43.7974C196.192 43.75 196.187 43.696 196.176 43.6427C196.167 43.59 196.156 43.5367 196.141 43.4845C196.059 43.1141 195.913 42.7391 195.684 42.3553C195.387 41.8535 194.942 41.3374 194.341 40.8243C193.704 40.2721 192.878 39.7199 191.832 39.167L186.444 36.4217L180.142 31.8977C180.142 31.8977 180.007 31.7753 179.735 31.5567C179.073 31.0285 177.587 29.9641 175.216 28.8379C170.724 26.6979 163.056 24.334 151.768 25.0265L151.698 25.0328L-6.04225 37.6521C-6.04225 37.6521 -6.16679 37.6582 -6.40778 37.6741C-6.44457 37.6774 -6.47841 37.6753 -6.52042 37.6783C-6.5632 37.6821 -6.60729 37.681 -6.65436 37.6852C-6.77757 37.6964 -6.92788 37.704 -7.09349 37.7139C-7.2661 37.7227 -7.45395 37.7345 -7.66241 37.7474C-7.74931 37.7501 -7.82804 37.7573 -7.91454 37.7643C-7.95646 37.7681 -8.00096 37.7721 -8.04335 37.7708C-8.12892 37.7786 -8.2193 37.7807 -8.31599 37.7895C-8.35878 37.7934 -8.40584 37.7976 -8.46107 37.7975C-8.55092 37.8056 -8.649 37.8085 -8.75082 37.8177C-8.80473 37.8226 -8.85695 37.8274 -8.91646 37.8276C-9.01828 37.8369 -9.11388 37.8386 -9.22684 37.8489C-9.28587 37.8542 -9.34489 37.8596 -9.40945 37.8611C-9.51696 37.8649 -9.62393 37.8746 -9.73602 37.8847C-15.0964 38.2428 -26.2895 39.088 -42.5575 40.7744C-47.5639 41.2961 -53.0532 41.898 -58.9985 42.5886C-59.3929 42.6348 -59.7881 42.681 -60.1886 42.7268C-60.5676 42.7716 -60.9397 42.8157 -61.3196 42.8597C-78.8052 44.9232 -100.078 47.7506 -124.602 51.5952C-124.602 51.5952 -126.7 52.0177 -128.069 52.7977C-128.172 52.8562 -128.269 52.9185 -128.36 52.9811C-128.411 53.0125 -128.451 53.042 -128.497 53.0738C-128.599 53.1477 -128.695 53.2255 -128.78 53.3039C-128.824 53.3511 -128.863 53.3866 -128.903 53.4333C-128.952 53.4869 -128.991 53.5327 -129.03 53.5906C-129.063 53.6368 -129.091 53.6876 -129.119 53.7385C-129.119 53.7385 -129.123 53.7441 -129.124 53.7501C-129.146 53.7962 -129.164 53.8461 -129.181 53.8908C-129.231 54.0403 -129.239 54.2023 -129.209 54.3618Z" fill="#F5F5F5"/>
<path d="M118.965 40.8526C119.02 41.4611 119.566 41.9093 120.183 41.8541C120.802 41.7987 121.259 41.2621 121.206 40.6535L121.059 39.0121C121.005 38.4054 120.461 37.957 119.841 38.0124C119.224 38.0675 118.765 38.6044 118.82 39.2111L118.965 40.8526Z" fill="#E0E0E0"/>
<path d="M110.708 41.5877C110.763 42.1961 111.309 42.6443 111.927 42.5891C112.547 42.5337 113.003 41.997 112.95 41.3885L112.803 39.7471C112.749 39.1403 112.205 38.692 111.585 38.7474C110.967 38.8026 110.509 39.3394 110.563 39.9462L110.708 41.5877Z" fill="#E0E0E0"/>
<path d="M114.837 41.2195C114.891 41.828 115.437 42.2762 116.055 42.221C116.674 42.1657 117.132 41.6288 117.078 41.0204L116.932 39.379C116.877 38.7722 116.332 38.3239 115.713 38.3792C115.095 38.4345 114.637 38.9713 114.69 39.579L114.837 41.2195Z" fill="#E0E0E0"/>
<path d="M131.351 39.7499C131.405 40.3585 131.951 40.8067 132.57 40.7514C133.188 40.6962 133.645 40.1586 133.591 39.5501L133.445 37.9086C133.391 37.3018 132.846 36.8544 132.227 36.9089C131.609 36.9641 131.151 37.5009 131.205 38.1077L131.351 39.7499Z" fill="#E0E0E0"/>
<path d="M123.095 40.4848C123.149 41.0933 123.693 41.5416 124.313 41.4863C124.932 41.431 125.39 40.8942 125.335 40.2857L125.189 38.6443C125.135 38.0375 124.59 37.5892 123.971 37.6445C123.352 37.6999 122.895 38.2366 122.948 38.8434L123.095 40.4848Z" fill="#E0E0E0"/>
<path d="M127.225 40.1169C127.278 40.7254 127.822 41.1739 128.441 41.1186C129.059 41.0633 129.518 40.5256 129.464 39.9171L129.318 38.2756C129.264 37.6689 128.718 37.2215 128.099 37.276C127.48 37.3313 127.024 37.8679 127.078 38.4746L127.225 40.1169Z" fill="#E0E0E0"/>
<path d="M94.1957 43.0571C94.2501 43.6656 94.7963 44.1138 95.4133 44.0586C96.0329 44.0032 96.4897 43.4657 96.4353 42.8573L96.2898 41.2158C96.2355 40.609 95.6911 40.1615 95.0714 40.216C94.4544 40.2712 93.9958 40.808 94.0492 41.4148L94.1957 43.0571Z" fill="#E0E0E0"/>
<path d="M85.9389 43.7928C85.9933 44.4013 86.5387 44.8496 87.1574 44.7943C87.7761 44.739 88.2339 44.2022 88.1795 43.5937L88.0331 41.9523C87.9797 41.3455 87.4343 40.8972 86.8156 40.9525C86.1968 41.0078 85.7392 41.5446 85.7934 42.1513L85.9389 43.7928Z" fill="#E0E0E0"/>
<path d="M90.0672 43.425C90.1207 44.0336 90.6678 44.4817 91.2857 44.4265C91.9036 44.3713 92.3621 43.8344 92.3077 43.226L92.1622 41.5845C92.108 40.9777 91.5617 40.5295 90.9439 40.5848C90.326 40.64 89.8666 41.1769 89.9208 41.7836L90.0672 43.425Z" fill="#E0E0E0"/>
<path d="M106.582 41.9544C106.636 42.5628 107.18 43.0112 107.799 42.9559C108.417 42.9007 108.875 42.3639 108.821 41.7554L108.675 40.1139C108.621 39.5072 108.075 39.0589 107.457 39.1141C106.839 39.1694 106.382 39.7061 106.436 40.3129L106.582 41.9544Z" fill="#E0E0E0"/>
<path d="M98.3231 42.6902C98.3775 43.2986 98.9238 43.7468 99.5416 43.6916C100.16 43.6363 100.619 43.0986 100.564 42.4902L100.418 40.8488C100.365 40.2419 99.8185 39.7946 99.1997 39.849C98.5818 39.9042 98.1233 40.4411 98.1766 41.0479L98.3231 42.6902Z" fill="#E0E0E0"/>
<path d="M102.452 42.3223C102.507 42.9308 103.051 43.3791 103.671 43.3238C104.29 43.2685 104.747 42.7317 104.693 42.1224L104.546 40.481C104.493 39.8742 103.948 39.4267 103.329 39.4812C102.709 39.5366 102.253 40.0732 102.307 40.68L102.452 42.3223Z" fill="#E0E0E0"/>
<path d="M69.4251 45.2626C69.4795 45.8711 70.0257 46.3193 70.6436 46.2641C71.2623 46.2088 71.72 45.672 71.6656 45.0635L71.5192 43.4221C71.4659 42.8153 70.9206 42.3679 70.3018 42.4223C69.6839 42.4775 69.2254 43.0144 69.2796 43.6211L69.4251 45.2626Z" fill="#E0E0E0"/>
<path d="M61.1692 45.9981C61.2235 46.6066 61.7681 47.0549 62.3868 46.9996C63.0055 46.9443 63.464 46.4066 63.4096 45.7982L63.2641 44.1567C63.2098 43.5499 62.6636 43.1017 62.0449 43.157C61.4261 43.2123 60.9693 43.749 61.0227 44.3558L61.1692 45.9981Z" fill="#E0E0E0"/>
<path d="M65.2976 45.6304C65.3511 46.239 65.8965 46.6872 66.5152 46.6319C67.1331 46.5767 67.5916 46.0399 67.5372 45.4306L67.3908 43.7892C67.3365 43.1824 66.7912 42.735 66.1733 42.7894C65.5546 42.8447 65.0969 43.3814 65.1511 43.9882L65.2976 45.6304Z" fill="#E0E0E0"/>
<path d="M81.8114 44.1606C81.8649 44.7691 82.4103 45.2174 83.0282 45.1622C83.6469 45.1069 84.1054 44.5701 84.0511 43.9616L83.9047 42.3202C83.8505 41.7134 83.3051 41.2652 82.6863 41.3205C82.0685 41.3757 81.6108 41.9124 81.665 42.5192L81.8114 44.1606Z" fill="#E0E0E0"/>
<path d="M73.5555 44.8946C73.609 45.5031 74.1535 45.9515 74.7722 45.8962C75.3909 45.8409 75.8487 45.3041 75.7942 44.6948L75.6487 43.0542C75.5945 42.4474 75.0491 41.9991 74.4304 42.0544C73.8116 42.1097 73.3548 42.6464 73.409 43.2532L73.5555 44.8946Z" fill="#E0E0E0"/>
<path d="M77.6827 44.5276C77.7371 45.136 78.2824 45.5843 78.8995 45.5292C79.519 45.4738 79.9759 44.9371 79.9224 44.3286L79.776 42.6872C79.7218 42.0804 79.1772 41.632 78.5576 41.6874C77.9406 41.7426 77.4829 42.2793 77.5363 42.8862L77.6827 44.5276Z" fill="#E0E0E0"/>
<path d="M44.6546 47.468C44.709 48.0764 45.2543 48.5238 45.8731 48.4694C46.4918 48.4141 46.9495 47.8773 46.896 47.2688L46.7496 45.6274C46.6954 45.0206 46.1492 44.5724 45.5313 44.6277C44.9126 44.683 44.4548 45.2197 44.5091 45.8273L44.6546 47.468Z" fill="#E0E0E0"/>
<path d="M36.3988 48.2029C36.4532 48.8113 36.9985 49.2596 37.6173 49.2043C38.236 49.149 38.6929 48.6123 38.6384 48.003L38.4921 46.3624C38.4379 45.7557 37.8942 45.3073 37.2755 45.3626C36.6559 45.4179 36.199 45.9546 36.2532 46.5614L36.3988 48.2029Z" fill="#E0E0E0"/>
<path d="M40.528 47.8358C40.5815 48.4443 41.1269 48.8926 41.7456 48.8373C42.3652 48.7819 42.8212 48.2453 42.7668 47.6368L42.6213 45.9953C42.567 45.3886 42.0225 44.9402 41.4038 44.9955C40.7851 45.0508 40.3274 45.5876 40.3816 46.1943L40.528 47.8358Z" fill="#E0E0E0"/>
<path d="M57.0414 46.3652C57.095 46.9737 57.6395 47.4221 58.2574 47.3668C58.8769 47.3115 59.3337 46.7739 59.2793 46.1655L59.1338 44.524C59.0796 43.9172 58.5351 43.4697 57.9154 43.5243C57.2976 43.5795 56.8407 44.1162 56.8949 44.7229L57.0414 46.3652Z" fill="#E0E0E0"/>
<path d="M48.7849 47.1C48.8392 47.7085 49.3838 48.1568 50.0016 48.1016C50.6204 48.0463 51.0781 47.5096 51.0246 46.901L50.8781 45.2596C50.8239 44.6529 50.2785 44.2046 49.6598 44.2599C49.0419 44.3151 48.5851 44.8518 48.6384 45.4586L48.7849 47.1Z" fill="#E0E0E0"/>
<path d="M52.9122 46.7331C52.9666 47.3415 53.512 47.7898 54.1316 47.7344C54.7495 47.6792 55.2063 47.1425 55.1519 46.5341L55.0055 44.8927C54.9521 44.2858 54.4076 43.8375 53.7897 43.8927C53.1702 43.9481 52.7124 44.4848 52.7667 45.0916L52.9122 46.7331Z" fill="#E0E0E0"/>
<path d="M139.393 39.0338C139.447 39.6422 139.992 40.0906 140.61 40.0353C141.229 39.98 141.688 39.4431 141.633 38.8347L141.487 37.1933C141.433 36.5865 140.887 36.1382 140.268 36.1935C139.65 36.2488 139.193 36.7855 139.247 37.3923L139.393 39.0338Z" fill="#E0E0E0"/>
<path d="M135.264 39.4008C135.318 40.0093 135.862 40.4577 136.482 40.4023C137.101 40.3469 137.557 39.8103 137.504 39.2009L137.358 37.5604C137.303 36.9536 136.759 36.5053 136.14 36.5606C135.52 36.6159 135.064 37.1526 135.118 37.7594L135.264 39.4008Z" fill="#E0E0E0"/>
<path d="M32.2711 48.5705C32.3255 49.1789 32.87 49.6273 33.4888 49.572C34.1066 49.5168 34.5635 48.9801 34.5099 48.3707L34.3635 46.7293C34.3092 46.1225 33.7648 45.675 33.1469 45.7294C32.5281 45.7847 32.0713 46.3214 32.1255 46.9281L32.2711 48.5705Z" fill="#E0E0E0"/>
<path d="M24.0144 49.3054C24.0679 49.9139 24.6133 50.3622 25.232 50.3069C25.8499 50.2517 26.3075 49.7141 26.2531 49.1056L26.1076 47.4641C26.0534 46.8574 25.508 46.4091 24.8901 46.4643C24.2714 46.5196 23.8137 47.0564 23.8679 47.6631L24.0144 49.3054Z" fill="#E0E0E0"/>
<path d="M28.1419 48.9383C28.1954 49.5469 28.7408 49.9952 29.3604 49.9398C29.9791 49.8845 30.4367 49.3469 30.3832 48.7383L30.2368 47.0969C30.1826 46.4902 29.6373 46.0427 29.0185 46.0972C28.3989 46.1526 27.9412 46.6893 27.9954 47.2961L28.1419 48.9383Z" fill="#E0E0E0"/>
<path d="M-5.00323 51.5615C-4.94988 52.1683 -4.40355 52.6174 -3.78482 52.5621C-3.16695 52.5069 -2.70847 51.9692 -2.76268 51.3624L-2.9091 49.721C-2.96246 49.1142 -3.5087 48.666 -4.12657 48.7212C-4.7453 48.7765 -5.20376 49.3142 -5.14963 49.9201L-5.00323 51.5615Z" fill="#E0E0E0"/>
<path d="M-13.2592 52.2964C-13.2049 52.9032 -12.6603 53.3524 -12.0416 53.2971C-11.4229 53.2418 -10.9653 52.7042 -11.0195 52.0966L-11.165 50.4559C-11.2192 49.8492 -11.7646 49.4009 -12.3833 49.4562C-13.0021 49.5115 -13.4589 50.0482 -13.4047 50.6549L-13.2592 52.2964Z" fill="#E0E0E0"/>
<path d="M-9.13153 51.9294C-9.07732 52.5361 -8.53099 52.9852 -7.91312 52.93C-7.29353 52.8746 -6.8359 52.337 -6.8902 51.7294L-7.03653 50.0888C-7.08989 49.482 -7.63528 49.0337 -8.25487 49.0891C-8.87274 49.1443 -9.33121 49.682 -9.27792 50.2879L-9.13153 51.9294Z" fill="#E0E0E0"/>
<path d="M7.38211 50.4589C7.43633 51.0657 7.98265 51.5147 8.59967 51.4596C9.21926 51.4042 9.67685 50.8666 9.62263 50.2598L9.47708 48.6184C9.42287 48.0116 8.87749 47.5633 8.2579 47.6187C7.64003 47.6739 7.18234 48.2107 7.2357 48.8175L7.38211 50.4589Z" fill="#E0E0E0"/>
<path d="M-0.873825 51.1935C-0.81961 51.8003 -0.275009 52.2495 0.342865 52.1943C0.961594 52.139 1.41921 51.6014 1.36499 50.9946L1.21944 49.3531C1.16522 48.7464 0.619828 48.2981 0.00109863 48.3534C-0.616775 48.4086 -1.07361 48.9453 -1.01939 49.5521L-0.873825 51.1935Z" fill="#E0E0E0"/>
<path d="M3.25447 50.8267C3.30869 51.4335 3.85414 51.8826 4.47202 51.8274C5.09074 51.7721 5.54837 51.2345 5.49416 50.6277L5.34773 48.9863C5.29437 48.3795 4.74898 47.9312 4.12939 47.9866C3.51238 48.0417 3.05469 48.5785 3.1089 49.1852L3.25447 50.8267Z" fill="#E0E0E0"/>
<path d="M-29.772 53.7668C-29.7178 54.3735 -29.1731 54.8227 -28.5553 54.7675C-27.9357 54.7121 -27.4789 54.1746 -27.5331 53.5679L-27.6796 51.9264C-27.7329 51.3196 -28.2774 50.8713 -28.897 50.9266C-29.5149 50.9819 -29.9717 51.5185 -29.9184 52.1254L-29.772 53.7668Z" fill="#E0E0E0"/>
<path d="M-33.9005 54.1339C-33.8471 54.7416 -33.3026 55.1899 -32.6847 55.1347C-32.0651 55.0793 -31.6083 54.5418 -31.6625 53.9351L-31.8081 52.2936C-31.8623 51.6868 -32.4068 51.2385 -33.0264 51.2938C-33.6443 51.3491 -34.1011 51.8857 -34.0469 52.4925L-33.9005 54.1339Z" fill="#E0E0E0"/>
<path d="M-17.3893 52.6642C-17.3351 53.271 -16.7888 53.7201 -16.17 53.6647C-15.5522 53.6095 -15.0954 53.072 -15.1488 52.4652L-15.2952 50.8238C-15.3493 50.2179 -15.8938 49.7695 -16.5118 49.8239C-17.1305 49.8792 -17.5891 50.416 -17.5349 51.0228L-17.3893 52.6642Z" fill="#E0E0E0"/>
<path d="M-25.646 53.3992C-25.5918 54.006 -25.0446 54.4549 -24.4258 54.3996C-23.808 54.3444 -23.3512 53.8069 -23.4046 53.2001L-23.551 51.5587C-23.6052 50.9519 -24.1496 50.5044 -24.7676 50.5588C-25.3863 50.6141 -25.8457 51.151 -25.7915 51.7577L-25.646 53.3992Z" fill="#E0E0E0"/>
<path d="M-21.5159 53.032C-21.4617 53.6388 -20.9171 54.088 -20.2992 54.0328C-19.6797 53.9774 -19.2229 53.4399 -19.2771 52.8331L-19.4227 51.1916C-19.4768 50.5857 -20.0213 50.1374 -20.641 50.1919C-21.2589 50.2471 -21.7157 50.7838 -21.6624 51.3906L-21.5159 53.032Z" fill="#E0E0E0"/>
<path d="M-37.8773 54.4878C-37.8231 55.0945 -37.2776 55.5437 -36.6597 55.4884C-36.041 55.4331 -35.5825 54.8954 -35.6367 54.2887L-35.7823 52.6472C-35.8364 52.0413 -36.3827 51.5931 -37.0015 51.6476C-37.6194 51.7028 -38.0771 52.2395 -38.0237 52.8464L-37.8773 54.4878Z" fill="#E0E0E0"/>
<path d="M196.177 43.6436C196.168 43.591 196.157 43.5376 196.142 43.4855C187.378 46.2394 174.494 49.9092 165.331 50.9031L-55.6508 69.4883C-47.2815 70.7819 -43.3416 71.2645 -36.6584 71.964C-36.6584 71.964 -34.8433 72.191 -31.7458 72.4041C-30.374 72.4996 -28.7481 72.591 -26.9189 72.6604C-23.4845 72.7921 -19.3225 72.8422 -14.7218 72.6688C-14.2868 72.6517 -13.8412 72.6285 -13.4011 72.6101C-12.7298 72.5828 -12.0535 72.5439 -11.3729 72.5054C-11.1412 72.4913 -10.9166 72.476 -10.6858 72.4611C-10.31 72.4382 -9.93005 72.4141 -9.56071 72.3866C-9.23844 72.3634 -8.92347 72.3357 -8.59605 72.312C-7.63739 72.2379 -6.65921 72.1508 -5.67519 72.052L144.378 60.6602C144.378 60.6602 144.389 60.6608 144.399 60.6598L144.448 60.6547C144.448 60.6547 144.502 60.6498 144.591 60.6366C144.639 60.6322 144.698 60.6217 144.762 60.6159C144.8 60.6072 144.848 60.6029 144.895 60.5986C144.987 60.5903 145.093 60.5755 145.21 60.5597C145.279 60.5534 145.354 60.5414 145.435 60.5341C151.306 59.8062 181.689 55.8075 191.365 49.9151C191.365 49.9151 194.388 48.3897 195.666 46.1402C195.787 45.9359 195.887 45.7224 195.975 45.4978C196.085 45.2084 196.166 44.9043 196.202 44.5947C196.233 44.3322 196.236 44.0688 196.201 43.7959C196.192 43.751 196.187 43.6971 196.177 43.6436Z" fill="#EBEBEB"/>
<path d="M79.4891 58.1233C79.4891 58.1233 76.9052 51.5846 48.766 50.1048C32.3717 49.2412 -78.186 47.1731 -82.9115 51.7975C-87.6379 56.4219 -1.68008 65.8055 -1.68008 65.8055L79.4891 58.1233Z" fill="#EBEBEB"/>
<path d="M-89.0946 52.3692L-116.263 54.788L-147.735 48.996L-129.031 47.331L-92.6017 49.0313C-90.7593 49.1031 -89.2578 50.5326 -89.0946 52.3692Z" fill="#EBEBEB"/>
<path d="M94.3883 56.8701C94.3986 56.9934 60.8168 59.9176 19.3902 63.402C-22.0501 66.8877 -55.6422 69.6126 -55.6526 69.4893C-55.663 69.3652 -22.0871 66.4416 19.3532 62.9559C60.779 59.4724 94.378 56.7477 94.3883 56.8701Z" fill="#E0E0E0"/>
<path d="M45.7079 52.1226C45.7079 52.1226 14.7195 55.2573 15.2984 65.3978C15.8032 74.2476 28.8068 73.9023 47.5387 71.9302L45.7079 52.1226Z" fill="#F5F5F5"/>
<path d="M47.7118 71.9653C48.2548 71.916 48.2915 67.4302 47.7936 61.946C47.2958 56.4617 46.452 52.0558 45.909 52.1051C45.366 52.1544 45.3294 56.6402 45.8273 62.1244C46.3251 67.6087 47.1688 72.0146 47.7118 71.9653Z" fill="#E0E0E0"/>
<path d="M43.6457 72.3276C43.6174 72.3388 43.499 72.089 43.3092 71.624C43.1337 71.1542 42.9115 70.4644 42.6881 69.5995C42.2368 67.8693 41.7944 65.4377 41.4942 62.7301C41.2051 60.0207 41.1415 57.5427 41.2856 55.7558C41.3666 54.8616 41.4982 54.144 41.6257 53.6579C41.7875 53.1782 41.8903 52.923 41.9196 52.9324C41.9483 52.9436 41.9016 53.2179 41.7948 53.696C41.7219 54.1849 41.6403 54.892 41.6013 55.7746C41.5392 57.5419 41.6512 59.9923 41.9386 62.6829C42.237 65.3717 42.6268 67.7942 42.9956 69.5284C43.3485 71.2676 43.7098 72.302 43.6457 72.3276Z" fill="#E0E0E0"/>
<path d="M30.8588 73.0803C21.4816 73.0964 15.6344 71.2753 15.2984 65.3978C15.0141 60.4311 21.6994 57.3147 29.2113 55.2542C29.2113 55.2542 27.9216 57.9447 28.5339 64.3009C29.2617 71.8432 30.8588 73.0803 30.8588 73.0803Z" fill="#EBEBEB"/>
<path d="M45.7079 52.1226C45.7141 52.1151 45.7314 52.2309 45.7592 52.4613C45.789 52.7235 45.8269 53.0643 45.8754 53.4938C45.9746 54.4442 46.1142 55.7825 46.2909 57.4729C46.6382 60.976 47.1297 65.9343 47.7224 71.9127L47.7406 72.0939L47.5578 72.1131C43.9324 72.5009 39.9187 72.9153 35.6075 73.1513C33.4531 73.2632 31.2229 73.3388 28.935 73.273C26.65 73.2001 24.2922 73.0302 21.9545 72.4435C20.4168 72.0603 18.9113 71.4696 17.6582 70.505C16.409 69.546 15.5141 68.127 15.2454 66.6209C15.153 66.2497 15.1307 65.8704 15.0889 65.4963C15.0857 65.1187 15.0961 64.7296 15.139 64.3556C15.2854 63.6116 15.5374 62.8899 15.9503 62.2787C16.7439 61.0316 17.8605 60.1037 18.9956 59.3304C21.2935 57.7966 23.7464 56.857 26.0336 56.0507C28.3383 55.2755 30.5281 54.698 32.5363 54.2302C36.5597 53.3042 39.8623 52.8016 42.1463 52.4916C43.2884 52.3379 44.1784 52.2399 44.7822 52.1816C45.0631 52.1587 45.29 52.1399 45.4707 52.1243C45.6242 52.1147 45.7177 52.1165 45.7079 52.1226C45.6981 52.1286 45.6332 52.1475 45.4765 52.1704C45.2978 52.197 45.0731 52.2303 44.7939 52.272C44.1614 52.3665 43.2848 52.4979 42.1723 52.6644C39.8992 53.0278 36.6094 53.5766 32.611 54.5392C30.613 55.0251 28.4384 55.6176 26.1544 56.4021C23.891 57.2149 21.4632 58.1643 19.2267 59.6717C18.1239 60.4292 17.0517 61.3341 16.3142 62.5045C15.9263 63.078 15.7028 63.7427 15.5678 64.4227C15.5317 64.7668 15.5229 65.1161 15.5255 65.4679C15.5664 65.8231 15.5862 66.1836 15.6756 66.5327C15.933 67.9518 16.7592 69.2503 17.9336 70.1556C19.1133 71.0631 20.5631 71.6381 22.0663 72.0115C24.3485 72.5859 26.6823 72.758 28.9486 72.8335C31.2194 72.9009 33.4399 72.8322 35.5871 72.727C39.8831 72.5044 43.8943 72.11 47.5211 71.7472L47.3564 71.9476C46.8468 66.0109 46.4248 61.086 46.1272 57.6077C45.9898 55.8948 45.8798 54.5408 45.8027 53.5772C45.77 53.1316 45.7448 52.7775 45.7244 52.5059C45.7064 52.2599 45.7016 52.13 45.7079 52.1226Z" fill="#E0E0E0"/>
<path d="M179.735 31.5567L172.457 32.2054C171.257 32.3126 170.148 32.8912 169.376 33.8153L165.434 38.5273L186.642 36.3555L179.735 31.5567Z" fill="#E0E0E0"/>
<path d="M172.749 31.82L173.295 37.9398L174.364 37.8444L173.819 31.7246L172.749 31.82Z" fill="#F5F5F5"/>
</svg>
