<svg width="344" height="85" viewBox="0 0 344 85" fill="none" xmlns="http://www.w3.org/2000/svg">
<path d="M143.817 68.4466L141.902 68.6205L142.814 78.6686L144.729 78.4948L143.817 68.4466Z" fill="#E0E0E0"/>
<path d="M144.254 83.9946C146.998 83.7455 149.022 81.3185 148.772 78.5737C148.523 75.829 146.096 73.806 143.351 74.0551C140.607 74.3043 138.584 76.7313 138.833 79.476C139.082 82.2207 141.509 84.2438 144.254 83.9946Z" fill="#E0E0E0"/>
<path d="M144.02 81.4175C145.341 81.2976 146.314 80.1297 146.194 78.8089C146.074 77.488 144.906 76.5144 143.586 76.6343C142.265 76.7542 141.291 77.9222 141.411 79.243C141.531 80.5639 142.699 81.5374 144.02 81.4175Z" fill="#EBEBEB"/>
<path d="M157.028 67.2708L155.114 67.4445L156.026 77.4919L157.94 77.3181L157.028 67.2708Z" fill="#E0E0E0"/>
<path d="M157.466 82.818C160.21 82.5688 162.233 80.1423 161.984 77.398C161.735 74.6538 159.308 72.6311 156.564 72.8802C153.819 73.1293 151.797 75.5559 152.046 78.3001C152.295 81.0444 154.722 83.0671 157.466 82.818Z" fill="#E0E0E0"/>
<path d="M157.232 80.2407C158.553 80.1208 159.526 78.9528 159.406 77.632C159.286 76.3111 158.118 75.3376 156.798 75.4575C155.477 75.5774 154.503 76.7453 154.623 78.0662C154.743 79.387 155.911 80.3606 157.232 80.2407Z" fill="#EBEBEB"/>
<path d="M105.156 44.0737C69.0878 41.2225 52.6434 22.5568 33.3381 7.07372C31.6716 5.7368 29.8825 4.55077 27.9415 3.65891C21.6242 0.754726 14.6386 -0.462561 7.67148 0.157801L6.88075 0.228711L31.4365 49.5449L105.156 44.0737Z" fill="#EBEBEB"/>
<path d="M277.86 57.3408L275.946 57.5146L276.858 67.5619L278.772 67.3881L277.86 57.3408Z" fill="#E0E0E0"/>
<path d="M278.297 72.888C281.042 72.6388 283.064 70.2122 282.815 67.468C282.566 64.7238 280.14 62.701 277.395 62.9501C274.651 63.1993 272.628 65.6259 272.877 68.3701C273.127 71.1143 275.553 73.1371 278.297 72.888Z" fill="#E0E0E0"/>
<path d="M278.063 70.3106C279.384 70.1907 280.358 69.0227 280.238 67.7018C280.118 66.381 278.95 65.4075 277.629 65.5274C276.308 65.6473 275.335 66.8152 275.455 68.136C275.575 69.4569 276.742 70.4305 278.063 70.3106Z" fill="#EBEBEB"/>
<path d="M291.072 56.1648L289.158 56.3386L290.07 66.3867L291.984 66.213L291.072 56.1648Z" fill="#E0E0E0"/>
<path d="M291.509 71.7127C294.254 71.4635 296.277 69.0365 296.028 66.2918C295.779 63.5471 293.352 61.524 290.607 61.7732C287.862 62.0223 285.839 64.4494 286.089 67.1941C286.338 69.9388 288.765 71.9618 291.509 71.7127Z" fill="#E0E0E0"/>
<path d="M291.275 69.1346C292.596 69.0147 293.57 67.8468 293.45 66.5259C293.33 65.2051 292.162 64.2315 290.841 64.3514C289.52 64.4713 288.547 65.6393 288.667 66.9601C288.786 68.281 289.954 69.2545 291.275 69.1346Z" fill="#EBEBEB"/>
<path d="M18.5259 53.5939C18.5292 53.6307 18.5433 53.6622 18.5517 53.6986C18.5645 53.725 18.5726 53.7571 18.5866 53.7886C18.6006 53.8184 18.6143 53.8559 18.6344 53.8964C18.6528 53.9275 18.6724 53.9637 18.698 53.9984C18.7482 54.0853 18.8155 54.1715 18.8983 54.2563C18.9338 54.2963 18.9701 54.3352 19.0118 54.3754C19.029 54.3946 19.0529 54.42 19.0754 54.4404C19.1109 54.47 19.146 54.5047 19.187 54.5381C19.3896 54.6983 19.6317 54.8756 19.9339 55.0492C20.167 55.1842 20.4264 55.3229 20.726 55.4682C21.4462 55.8083 22.3618 56.1635 23.5112 56.5362C23.5554 56.5486 23.6006 56.5617 23.6444 56.5785C23.6444 56.5785 41.4275 60.1492 62.4386 63.8496C64.5312 64.217 66.652 64.5895 68.7919 64.9543C71.7754 65.4703 74.7919 65.9781 77.8023 66.4761C81.2443 67.0436 84.6797 67.5954 88.0469 68.1085C96.4164 69.4029 104.392 70.4983 111.077 71.1977C111.077 71.1977 112.892 71.4247 115.989 71.6378C117.361 71.7333 118.987 71.8247 120.816 71.8941C124.25 72.0258 128.412 72.0759 133.013 71.9025C133.448 71.8854 133.894 71.8622 134.334 71.8438C135.005 71.8165 135.681 71.7777 136.362 71.7391C136.594 71.725 136.818 71.7097 137.049 71.6948C137.425 71.6719 137.805 71.6478 138.174 71.6203C138.496 71.5971 138.811 71.5694 139.139 71.5457C140.098 71.4716 141.076 71.3846 142.06 71.2857L292.113 59.894C292.113 59.894 292.124 59.8929 292.134 59.892L292.183 59.8884C292.183 59.8884 292.237 59.8835 292.326 59.8703C292.375 59.8658 292.433 59.8554 292.497 59.8496C292.535 59.841 292.583 59.8366 292.63 59.8323C292.722 59.824 292.828 59.8092 292.946 59.7933C293.014 59.7871 293.089 59.7751 293.17 59.7678C299.041 59.0408 329.423 55.0413 339.1 49.1488C339.1 49.1488 342.123 47.6234 343.401 45.3739C343.522 45.1696 343.622 44.9561 343.71 44.7315C343.819 44.4421 343.901 44.138 343.937 43.8284C343.968 43.5659 343.971 43.3025 343.936 43.0296C343.927 42.9821 343.922 42.9282 343.911 42.8749C343.902 42.8222 343.891 42.7688 343.876 42.7167C343.794 42.3463 343.648 41.9713 343.419 41.5875C343.121 41.0856 342.677 40.5695 342.075 40.0565C341.439 39.5043 340.613 38.9521 339.566 38.3992L334.179 35.6539L327.877 31.1298C327.877 31.1298 327.742 31.0075 327.469 30.7889C326.807 30.2606 325.322 29.1963 322.95 28.07C318.459 25.9301 310.79 23.5662 299.502 24.2587L299.433 24.265L141.692 36.8843C141.692 36.8843 141.568 36.8904 141.327 36.9063C141.29 36.9096 141.256 36.9075 141.214 36.9104C141.172 36.9143 141.127 36.9131 141.08 36.9174C140.957 36.9286 140.807 36.9362 140.641 36.9461C140.469 36.9548 140.281 36.9667 140.072 36.9796C139.985 36.9823 139.907 36.9895 139.82 36.9964C139.778 37.0002 139.734 37.0043 139.691 37.003C139.606 37.0107 139.515 37.0129 139.419 37.0217C139.376 37.0256 139.329 37.0298 139.274 37.0297C139.184 37.0378 139.086 37.0407 138.984 37.0499C138.93 37.0548 138.878 37.0596 138.818 37.0598C138.716 37.069 138.621 37.0708 138.508 37.0811C138.449 37.0864 138.39 37.0918 138.325 37.0933C138.218 37.097 138.111 37.1067 137.999 37.1169C132.638 37.475 121.445 38.3202 105.177 40.0066C100.171 40.5283 94.6816 41.1301 88.7362 41.8208C88.3419 41.867 87.9466 41.9132 87.5462 41.959C87.1672 42.0038 86.795 42.0479 86.4151 42.0919C68.9295 44.1554 47.6569 46.9828 23.1327 50.8274C23.1327 50.8274 21.035 51.2499 19.6659 52.0299C19.5625 52.0884 19.4655 52.1507 19.3745 52.2133C19.3239 52.2447 19.2834 52.2742 19.238 52.3059C19.136 52.3799 19.0395 52.4577 18.9552 52.5361C18.9103 52.5833 18.8713 52.6188 18.8315 52.6655C18.7829 52.7191 18.7439 52.7649 18.7052 52.8228C18.6714 52.869 18.6441 52.9198 18.6159 52.9706C18.6159 52.9706 18.6113 52.9762 18.611 52.9823C18.5884 53.0283 18.5705 53.0783 18.5538 53.1229C18.5036 53.2724 18.4958 53.4345 18.5259 53.5939Z" fill="#F5F5F5"/>
<path d="M266.7 40.0848C266.754 40.6932 267.301 41.1414 267.918 41.0863C268.537 41.0309 268.994 40.4942 268.94 39.8857L268.794 38.2443C268.74 37.6375 268.195 37.1892 267.576 37.2445C266.959 37.2997 266.5 37.8365 266.554 38.4433L266.7 40.0848Z" fill="#E0E0E0"/>
<path d="M258.443 40.8198C258.498 41.4283 259.044 41.8765 259.662 41.8213C260.281 41.7659 260.738 41.2292 260.685 40.6207L260.538 38.9793C260.484 38.3725 259.939 37.9242 259.32 37.9795C258.702 38.0348 258.243 38.5716 258.298 39.1784L258.443 40.8198Z" fill="#E0E0E0"/>
<path d="M262.571 40.4517C262.626 41.0602 263.172 41.5084 263.79 41.4532C264.409 41.3979 264.867 40.861 264.813 40.2526L264.666 38.6111C264.612 38.0044 264.067 37.5561 263.448 37.6114C262.83 37.6666 262.372 38.2035 262.425 38.8111L262.571 40.4517Z" fill="#E0E0E0"/>
<path d="M279.086 38.9821C279.14 39.5907 279.686 40.0389 280.305 39.9836C280.923 39.9283 281.38 39.3907 281.326 38.7823L281.18 37.1408C281.126 36.534 280.581 36.0866 279.962 36.141C279.344 36.1963 278.885 36.7331 278.94 37.3399L279.086 38.9821Z" fill="#E0E0E0"/>
<path d="M270.829 39.717C270.884 40.3254 271.428 40.7738 272.048 40.7184C272.667 40.6631 273.124 40.1264 273.07 39.5179L272.923 37.8765C272.87 37.2697 272.325 36.8214 271.706 36.8767C271.086 36.9321 270.63 37.4687 270.683 38.0756L270.829 39.717Z" fill="#E0E0E0"/>
<path d="M274.959 39.3491C275.013 39.9576 275.557 40.4061 276.175 40.3507C276.794 40.2954 277.253 39.7578 277.198 39.1493L277.053 37.5078C276.998 36.9011 276.452 36.4537 275.833 36.5082C275.215 36.5635 274.759 37.1001 274.813 37.7068L274.959 39.3491Z" fill="#E0E0E0"/>
<path d="M241.93 42.2893C241.985 42.8977 242.531 43.3459 243.148 43.2908C243.768 43.2354 244.224 42.6979 244.17 42.0894L244.025 40.4479C243.97 39.8412 243.426 39.3937 242.806 39.4482C242.189 39.5034 241.731 40.0402 241.784 40.647L241.93 42.2893Z" fill="#E0E0E0"/>
<path d="M233.674 43.025C233.728 43.6334 234.273 44.0817 234.892 44.0264C235.511 43.9711 235.969 43.4344 235.914 42.8259L235.768 41.1845C235.714 40.5777 235.169 40.1294 234.55 40.1847C233.932 40.24 233.474 40.7767 233.528 41.3835L233.674 43.025Z" fill="#E0E0E0"/>
<path d="M237.802 42.6572C237.855 43.2658 238.403 43.7139 239.02 43.6587C239.638 43.6034 240.097 43.0666 240.042 42.4582L239.897 40.8167C239.843 40.2099 239.296 39.7617 238.679 39.8169C238.061 39.8722 237.601 40.4091 237.656 41.0158L237.802 42.6572Z" fill="#E0E0E0"/>
<path d="M254.316 41.1865C254.371 41.795 254.915 42.2434 255.534 42.1881C256.152 42.1328 256.61 41.5961 256.556 40.9875L256.41 39.3461C256.355 38.7394 255.81 38.2911 255.192 38.3463C254.573 38.4016 254.117 38.9383 254.171 39.545L254.316 41.1865Z" fill="#E0E0E0"/>
<path d="M246.058 41.9223C246.112 42.5308 246.658 42.979 247.276 42.9238C247.895 42.8685 248.354 42.3308 248.299 41.7223L248.153 40.0809C248.099 39.4741 247.553 39.0267 246.934 39.0812C246.317 39.1364 245.858 39.6733 245.911 40.2801L246.058 41.9223Z" fill="#E0E0E0"/>
<path d="M250.187 41.5545C250.241 42.163 250.786 42.6113 251.406 42.5559C252.024 42.5006 252.482 41.9639 252.428 41.3546L252.281 39.7132C252.228 39.1063 251.682 38.6589 251.064 38.7133C250.444 38.7687 249.987 39.3054 250.041 39.9121L250.187 41.5545Z" fill="#E0E0E0"/>
<path d="M217.16 44.4948C217.214 45.1033 217.76 45.5515 218.378 45.4962C218.997 45.4409 219.455 44.9042 219.4 44.2957L219.254 42.6543C219.201 42.0475 218.655 41.6001 218.037 41.6545C217.419 41.7097 216.96 42.2466 217.014 42.8533L217.16 44.4948Z" fill="#E0E0E0"/>
<path d="M208.904 45.2303C208.958 45.8388 209.503 46.2871 210.122 46.2318C210.74 46.1765 211.199 45.6388 211.144 45.0304L210.999 43.3889C210.945 42.7821 210.398 42.3339 209.78 42.3892C209.161 42.4445 208.704 42.9812 208.757 43.588L208.904 45.2303Z" fill="#E0E0E0"/>
<path d="M213.032 44.8626C213.086 45.4711 213.631 45.9194 214.25 45.8641C214.868 45.8089 215.326 45.2721 215.272 44.6627L215.126 43.0213C215.071 42.4146 214.526 41.9672 213.908 42.0215C213.289 42.0768 212.832 42.6136 212.886 43.2203L213.032 44.8626Z" fill="#E0E0E0"/>
<path d="M229.546 43.3928C229.6 44.0013 230.145 44.4496 230.763 44.3944C231.382 44.3391 231.84 43.8022 231.786 43.1938L231.639 41.5524C231.585 40.9456 231.04 40.4973 230.421 40.5526C229.803 40.6079 229.346 41.1446 229.4 41.7514L229.546 43.3928Z" fill="#E0E0E0"/>
<path d="M221.29 44.1268C221.344 44.7353 221.888 45.1837 222.507 45.1284C223.126 45.0731 223.583 44.5363 223.529 43.927L223.383 42.2863C223.329 41.6796 222.784 41.2313 222.165 41.2866C221.546 41.3419 221.09 41.8786 221.144 42.4853L221.29 44.1268Z" fill="#E0E0E0"/>
<path d="M225.417 43.7597C225.472 44.3682 226.017 44.8165 226.634 44.7613C227.254 44.706 227.711 44.1693 227.657 43.5607L227.511 41.9193C227.456 41.3126 226.912 40.8642 226.292 40.9196C225.675 40.9747 225.218 41.5115 225.271 42.1183L225.417 43.7597Z" fill="#E0E0E0"/>
<path d="M192.389 46.7001C192.444 47.3086 192.989 47.756 193.608 47.7016C194.227 47.6463 194.684 47.1095 194.631 46.501L194.484 44.8596C194.43 44.2528 193.884 43.8046 193.266 43.8598C192.647 43.9151 192.19 44.4519 192.244 45.0595L192.389 46.7001Z" fill="#E0E0E0"/>
<path d="M184.134 47.435C184.188 48.0435 184.733 48.4918 185.352 48.4365C185.971 48.3812 186.428 47.8445 186.373 47.2352L186.227 45.5946C186.173 44.9879 185.629 44.5394 185.01 44.5947C184.391 44.6501 183.934 45.1868 183.988 45.7935L184.134 47.435Z" fill="#E0E0E0"/>
<path d="M188.263 47.0679C188.316 47.6765 188.862 48.1248 189.48 48.0695C190.1 48.0141 190.556 47.4775 190.502 46.869L190.356 45.2275C190.302 44.6208 189.757 44.1724 189.139 44.2277C188.52 44.283 188.062 44.8198 188.116 45.4265L188.263 47.0679Z" fill="#E0E0E0"/>
<path d="M204.776 45.5973C204.83 46.2059 205.374 46.6543 205.992 46.599C206.612 46.5436 207.068 46.0061 207.014 45.3977L206.869 43.7562C206.814 43.1494 206.27 42.7019 205.65 42.7564C205.032 42.8117 204.575 43.3483 204.63 43.9551L204.776 45.5973Z" fill="#E0E0E0"/>
<path d="M196.52 46.3322C196.574 46.9407 197.119 47.389 197.736 47.3338C198.355 47.2785 198.813 46.7417 198.759 46.1332L198.613 44.4918C198.559 43.885 198.013 43.4368 197.395 43.4921C196.777 43.5473 196.32 44.0839 196.373 44.6908L196.52 46.3322Z" fill="#E0E0E0"/>
<path d="M200.647 45.9653C200.701 46.5737 201.247 47.022 201.866 46.9666C202.484 46.9114 202.941 46.3747 202.887 45.7663L202.74 44.1248C202.687 43.518 202.142 43.0697 201.524 43.1249C200.905 43.1803 200.447 43.717 200.501 44.3238L200.647 45.9653Z" fill="#E0E0E0"/>
<path d="M287.127 38.2659C287.182 38.8744 287.726 39.3228 288.345 39.2675C288.964 39.2122 289.422 38.6753 289.368 38.0669L289.222 36.4254C289.167 35.8187 288.622 35.3704 288.003 35.4257C287.385 35.481 286.928 36.0177 286.982 36.6244L287.127 38.2659Z" fill="#E0E0E0"/>
<path d="M282.999 38.633C283.053 39.2415 283.597 39.6899 284.217 39.6345C284.836 39.5791 285.292 39.0425 285.239 38.4331L285.092 36.7925C285.038 36.1858 284.494 35.7374 283.875 35.7927C283.255 35.8481 282.798 36.3848 282.853 36.9915L282.999 38.633Z" fill="#E0E0E0"/>
<path d="M180.006 47.8027C180.06 48.4111 180.605 48.8595 181.224 48.8042C181.841 48.749 182.298 48.2123 182.245 47.6029L182.098 45.9615C182.044 45.3547 181.5 44.9072 180.882 44.9616C180.263 45.0169 179.806 45.5536 179.86 46.1603L180.006 47.8027Z" fill="#E0E0E0"/>
<path d="M171.749 48.5375C171.803 49.1461 172.348 49.5944 172.967 49.5391C173.585 49.4838 174.042 48.9462 173.988 48.3378L173.842 46.6963C173.788 46.0895 173.243 45.6413 172.625 45.6965C172.006 45.7518 171.548 46.2885 171.603 46.8953L171.749 48.5375Z" fill="#E0E0E0"/>
<path d="M175.877 48.1705C175.93 48.7791 176.476 49.2273 177.095 49.172C177.714 49.1167 178.171 48.5791 178.118 47.9705L177.972 46.3291C177.917 45.7223 177.372 45.2749 176.753 45.3294C176.134 45.3847 175.676 45.9215 175.73 46.5282L175.877 48.1705Z" fill="#E0E0E0"/>
<path d="M142.732 50.7937C142.785 51.4005 143.331 51.8496 143.95 51.7943C144.568 51.739 145.026 51.2014 144.972 50.5946L144.826 48.9532C144.772 48.3464 144.226 47.8982 143.608 47.9534C142.989 48.0087 142.531 48.5464 142.585 49.1523L142.732 50.7937Z" fill="#E0E0E0"/>
<path d="M134.476 51.5286C134.53 52.1353 135.074 52.5846 135.693 52.5293C136.312 52.474 136.769 51.9364 136.715 51.3287L136.57 49.6881C136.516 49.0814 135.97 48.6331 135.351 48.6884C134.733 48.7437 134.276 49.2803 134.33 49.8871L134.476 51.5286Z" fill="#E0E0E0"/>
<path d="M138.603 51.1615C138.657 51.7683 139.204 52.2174 139.822 52.1621C140.441 52.1068 140.899 51.5691 140.845 50.9615L140.698 49.321C140.645 48.7141 140.099 48.2659 139.48 48.3212C138.862 48.3765 138.404 48.9141 138.457 49.5201L138.603 51.1615Z" fill="#E0E0E0"/>
<path d="M155.117 49.6911C155.171 50.2978 155.717 50.7469 156.334 50.6918C156.954 50.6364 157.412 50.0988 157.357 49.492L157.212 47.8505C157.158 47.2438 156.612 46.7955 155.993 46.8509C155.375 46.9061 154.917 47.4429 154.97 48.0497L155.117 49.6911Z" fill="#E0E0E0"/>
<path d="M146.861 50.4257C146.915 51.0325 147.46 51.4817 148.078 51.4265C148.696 51.3712 149.154 50.8335 149.1 50.2268L148.954 48.5853C148.9 47.9786 148.355 47.5303 147.736 47.5856C147.118 47.6408 146.661 48.1775 146.715 48.7842L146.861 50.4257Z" fill="#E0E0E0"/>
<path d="M150.989 50.0589C151.043 50.6657 151.589 51.1148 152.207 51.0596C152.825 51.0043 153.283 50.4667 153.229 49.8599L153.082 48.2185C153.029 47.6117 152.484 47.1634 151.864 47.2188C151.247 47.2739 150.789 47.8107 150.844 48.4174L150.989 50.0589Z" fill="#E0E0E0"/>
<path d="M117.963 52.999C118.017 53.6057 118.562 54.0549 119.179 53.9997C119.799 53.9443 120.256 53.4068 120.202 52.8L120.055 51.1586C120.002 50.5518 119.457 50.1034 118.838 50.1588C118.22 50.214 117.763 50.7507 117.816 51.3576L117.963 52.999Z" fill="#E0E0E0"/>
<path d="M113.834 53.3661C113.888 53.9738 114.432 54.4221 115.05 54.3669C115.67 54.3115 116.126 53.774 116.072 53.1673L115.927 51.5257C115.872 50.919 115.328 50.4706 114.708 50.526C114.09 50.5812 113.634 51.1179 113.688 51.7247L113.834 53.3661Z" fill="#E0E0E0"/>
<path d="M130.345 51.8964C130.4 52.5032 130.946 52.9522 131.565 52.8969C132.183 52.8417 132.639 52.3042 132.586 51.6974L132.44 50.0559C132.385 49.45 131.841 49.0017 131.223 49.0561C130.604 49.1114 130.146 49.6482 130.2 50.2549L130.345 51.8964Z" fill="#E0E0E0"/>
<path d="M122.089 52.6314C122.143 53.2381 122.69 53.6871 123.309 53.6318C123.927 53.5766 124.384 53.0391 124.33 52.4323L124.184 50.7908C124.13 50.1841 123.585 49.7366 122.967 49.7909C122.348 49.8462 121.889 50.3832 121.943 50.9899L122.089 52.6314Z" fill="#E0E0E0"/>
<path d="M126.219 52.2642C126.273 52.871 126.818 53.3202 127.435 53.265C128.055 53.2096 128.512 52.672 128.458 52.0653L128.312 50.4238C128.258 49.8179 127.713 49.3696 127.094 49.4241C126.476 49.4793 126.019 50.016 126.072 50.6228L126.219 52.2642Z" fill="#E0E0E0"/>
<path d="M109.857 53.72C109.912 54.3267 110.457 54.7758 111.075 54.7206C111.694 54.6653 112.152 54.1276 112.098 53.5209L111.952 51.8794C111.898 51.2735 111.352 50.8253 110.733 50.8797C110.115 50.935 109.658 51.4717 109.711 52.0785L109.857 53.72Z" fill="#E0E0E0"/>
<path d="M343.912 42.8758C343.903 42.8232 343.892 42.7698 343.877 42.7177C335.113 45.4716 322.228 49.1414 313.066 50.1353L92.0839 68.7205C100.453 70.0141 104.393 70.4967 111.076 71.1962C111.076 71.1962 112.891 71.4231 115.989 71.6363C117.361 71.7318 118.987 71.8231 120.816 71.8926C124.25 72.0243 128.412 72.0744 133.013 71.9009C133.448 71.8839 133.894 71.8607 134.334 71.8423C135.005 71.815 135.681 71.776 136.362 71.7376C136.594 71.7234 136.818 71.7082 137.049 71.6933C137.425 71.6704 137.805 71.6463 138.174 71.6188C138.496 71.5956 138.811 71.5678 139.139 71.5442C140.097 71.4701 141.076 71.383 142.06 71.2842L292.113 59.8924C292.113 59.8924 292.124 59.8929 292.134 59.892L292.183 59.8869C292.183 59.8869 292.237 59.882 292.326 59.8687C292.374 59.8644 292.433 59.8539 292.497 59.848C292.535 59.8394 292.583 59.8351 292.63 59.8308C292.721 59.8225 292.828 59.8076 292.945 59.7919C293.014 59.7856 293.089 59.7736 293.17 59.7662C299.04 59.0384 329.424 55.0397 339.099 49.1473C339.099 49.1473 342.123 47.6219 343.401 45.3723C343.522 45.1681 343.622 44.9546 343.71 44.73C343.819 44.4406 343.9 44.1365 343.937 43.8269C343.967 43.5644 343.971 43.3009 343.936 43.0281C343.927 42.9832 343.922 42.9293 343.912 42.8758Z" fill="#EBEBEB"/>
<path d="M227.224 57.3555C227.224 57.3555 224.64 50.8168 196.501 49.337C180.106 48.4734 69.5488 46.4053 64.8232 51.0297C60.0969 55.6541 146.055 65.0376 146.055 65.0376L227.224 57.3555Z" fill="#EBEBEB"/>
<path d="M58.6402 51.6014L31.4717 54.0202L0 48.2282L18.7037 46.5631L55.133 48.2635C56.9754 48.3353 58.4769 49.7648 58.6402 51.6014Z" fill="#EBEBEB"/>
<path d="M242.123 56.1023C242.133 56.2256 208.552 59.1498 167.125 62.6342C125.685 66.1199 92.0925 68.8448 92.0822 68.7215C92.0718 68.5974 125.648 65.6737 167.088 62.1881C208.514 58.7046 242.113 55.9799 242.123 56.1023Z" fill="#E0E0E0"/>
<path d="M193.443 51.3547C193.443 51.3547 162.454 54.4895 163.033 64.63C163.538 73.4797 176.542 73.1345 195.273 71.1623L193.443 51.3547Z" fill="#F5F5F5"/>
<path d="M195.447 71.1975C195.99 71.1482 196.026 66.6624 195.528 61.1781C195.031 55.6939 194.187 51.288 193.644 51.3373C193.101 51.3866 193.064 55.8724 193.562 61.3566C194.06 66.8409 194.904 71.2468 195.447 71.1975Z" fill="#E0E0E0"/>
<path d="M191.38 71.5598C191.352 71.571 191.234 71.3212 191.044 70.8562C190.868 70.3864 190.646 69.6965 190.423 68.8317C189.972 67.1015 189.529 64.6699 189.229 61.9623C188.94 59.2529 188.876 56.7749 189.02 54.988C189.101 54.0938 189.233 53.3761 189.36 52.8901C189.522 52.4104 189.625 52.1551 189.654 52.1646C189.683 52.1758 189.636 52.4501 189.53 52.9282C189.457 53.4171 189.375 54.1242 189.336 55.0068C189.274 56.7741 189.386 59.2244 189.673 61.9151C189.972 64.6038 190.362 67.0264 190.73 68.7606C191.083 70.4998 191.445 71.5341 191.38 71.5598Z" fill="#E0E0E0"/>
<path d="M178.594 72.3125C169.216 72.3286 163.369 70.5075 163.033 64.63C162.749 59.6632 169.434 56.5469 176.946 54.4863C176.946 54.4863 175.656 57.1769 176.269 63.5331C176.996 71.0754 178.594 72.3125 178.594 72.3125Z" fill="#EBEBEB"/>
<path d="M193.443 51.3547C193.449 51.3473 193.466 51.4631 193.494 51.6935C193.524 51.9556 193.562 52.2964 193.61 52.726C193.709 53.6763 193.849 55.0147 194.026 56.7051C194.373 60.2082 194.864 65.1665 195.457 71.1449L195.475 71.3261L195.293 71.3453C191.667 71.733 187.653 72.1474 183.342 72.3835C181.188 72.4954 178.958 72.571 176.67 72.5052C174.385 72.4322 172.027 72.2623 169.689 71.6757C168.152 71.2924 166.646 70.7018 165.393 69.7372C164.144 68.7782 163.249 67.3592 162.98 65.8531C162.888 65.4819 162.865 65.1026 162.824 64.7285C162.82 64.3509 162.831 63.9617 162.874 63.5877C163.02 62.8437 163.272 62.122 163.685 61.5108C164.479 60.2638 165.595 59.3359 166.73 58.5626C169.028 57.0288 171.481 56.0892 173.768 55.2829C176.073 54.5077 178.263 53.9302 180.271 53.4624C184.294 52.5364 187.597 52.0338 189.881 51.7238C191.023 51.5701 191.913 51.4721 192.517 51.4138C192.798 51.3909 193.025 51.372 193.205 51.3565C193.359 51.3469 193.452 51.3487 193.443 51.3547C193.433 51.3608 193.368 51.3797 193.211 51.4025C193.033 51.4291 192.808 51.4625 192.529 51.5042C191.896 51.5987 191.02 51.73 189.907 51.8966C187.634 52.2599 184.344 52.8088 180.346 53.7713C178.348 54.2572 176.173 54.8497 173.889 55.6342C171.626 56.4471 169.198 57.3964 166.961 58.9039C165.859 59.6614 164.786 60.5663 164.049 61.7366C163.661 62.3102 163.438 62.9749 163.303 63.6549C163.266 63.999 163.258 64.3483 163.26 64.7001C163.301 65.0553 163.321 65.4158 163.41 65.7648C163.668 67.184 164.494 68.4824 165.668 69.3878C166.848 70.2953 168.298 70.8702 169.801 71.2437C172.083 71.8181 174.417 71.9902 176.683 72.0657C178.954 72.1331 181.175 72.0643 183.322 71.9591C187.618 71.7365 191.629 71.3422 195.256 70.9794L195.091 71.1798C194.582 65.2431 194.16 60.3181 193.862 56.8399C193.725 55.1269 193.615 53.773 193.537 52.8094C193.505 52.3637 193.48 52.0097 193.459 51.7381C193.441 51.4921 193.436 51.3622 193.443 51.3547Z" fill="#E0E0E0"/>
<path d="M327.469 30.7889L320.192 31.4376C318.992 31.5447 317.883 32.1233 317.111 33.0475L313.169 37.7595L334.376 35.5877L327.469 30.7889Z" fill="#E0E0E0"/>
<path d="M320.484 31.0522L321.029 37.172L322.099 37.0766L321.553 30.9568L320.484 31.0522Z" fill="#F5F5F5"/>
</svg>
