<svg width="493" height="452" viewBox="0 0 493 452" fill="none" xmlns="http://www.w3.org/2000/svg">
<mask id="mask0_1101_3665" style="mask-type:alpha" maskUnits="userSpaceOnUse" x="0" y="0" width="493" height="452">
<rect width="493" height="452" fill="#D9D9D9"/>
</mask>
<g mask="url(#mask0_1101_3665)">
<path d="M176.242 188.433C173.729 182.712 171.167 176.911 166.941 171.978C162.715 167.046 156.539 163.005 149.428 162.263C142.319 161.52 134.442 164.793 132.125 170.574C131.104 157.547 128.94 144.183 121.294 132.872C113.648 121.562 99.3825 112.676 84.102 113.473C69.6948 114.224 57.3595 123.352 50.505 134.185C43.6505 145.019 41.2976 157.445 39.0474 169.604C33.586 163.888 22.0549 165.685 16.3547 171.228C10.6545 176.772 9.21051 184.52 8 191.82H202.685L176.242 188.433Z" fill="#F5F5F5"/>
<path d="M202.685 191.821C148.427 191.821 62.2567 191.821 8 191.821C8 191.821 36.2664 189.028 46.9546 189.452C57.6438 189.876 165.034 190.615 165.034 190.615L202.685 191.821Z" fill="#F5F5F5"/>
<path fill-rule="evenodd" clip-rule="evenodd" d="M471.169 158.218C471.093 158.222 471.015 158.225 470.936 158.231C470.936 158.231 470.942 158.22 470.953 158.197C471.379 157.437 478.879 143.726 471.365 140.61C463.635 137.406 452.476 143.803 452.476 143.803C452.476 143.803 459.504 117.652 439.633 113.404C419.762 109.155 408.212 139.82 408.212 139.82C408.212 139.82 397.944 133.892 392.912 146.372C392.912 146.372 368.971 139.833 367.134 162.328C367.134 162.328 359.173 158.134 360.071 164.298L360.255 165.244L471.582 163.331C471.582 163.331 476.591 158.057 471.169 158.218Z" fill="#EBEBEB"/>
<path fill-rule="evenodd" clip-rule="evenodd" d="M264.648 36.0242C264.59 36.0285 264.533 36.0296 264.472 36.0339C264.472 36.0339 264.478 36.0263 264.485 36.0091C264.806 35.4373 270.45 25.1199 264.795 22.7756C258.978 20.3643 250.583 25.1783 250.583 25.1783C250.583 25.1783 255.871 5.50102 240.919 2.30399C225.967 -0.893048 217.276 22.1812 217.276 22.1812C217.276 22.1812 209.552 17.7207 205.765 27.1107C205.765 27.1107 187.749 22.1909 186.367 39.1164C186.367 39.1164 180.378 35.9615 181.053 40.6003L181.193 41.3115L264.96 39.8719C264.96 39.8719 268.728 35.9021 264.648 36.0242Z" fill="#F5F5F5"/>
</g>
</svg>
