<svg width="338" height="255" viewBox="0 0 338 255" fill="none" xmlns="http://www.w3.org/2000/svg">
<mask id="mask0_1036_2857" style="mask-type:alpha" maskUnits="userSpaceOnUse" x="0" y="0" width="338" height="254">
<rect width="338" height="254" fill="#D9D9D9"/>
</mask>
<g mask="url(#mask0_1036_2857)">
<path d="M330 253.98C330 254.129 256.121 254.249 165.008 254.249C73.8626 254.249 0 254.129 0 253.98C0 253.832 73.8633 253.711 165.008 253.711C256.121 253.711 330 253.832 330 253.98Z" fill="#263238"/>
<path d="M228.276 74.5634C227.292 73.3935 226.012 72.337 225.701 70.8414C225.402 69.4036 226.087 67.9719 226.397 66.535C227.257 62.5358 224.75 58.0913 220.882 56.7595C218.66 55.9937 215.805 55.9277 214.676 53.8652C213.566 51.8398 214.974 49.4393 215.801 47.2819C217.17 43.7063 216.809 39.537 214.919 36.2139C214.652 35.4522 214.338 34.708 213.973 33.9916C211.063 28.2597 205.146 24.4511 199.081 24.4047C198.17 19.7015 194.269 16.0702 189.895 15.1219C189.896 13.4521 189.544 11.772 188.786 10.2981C186.608 6.06587 181.985 3.49419 177.286 2.73557C170.483 1.63784 163.209 4.04873 158.409 8.99111C155.814 11.6617 153.713 15.1467 150.196 16.3712C147.105 17.4473 143.685 16.4753 140.438 16.8958C136.087 17.4596 132.357 20.5529 130.126 24.3315C127.894 28.1102 126.974 32.5156 126.457 36.8735C125.984 40.8728 125.672 45.2617 122.898 48.1807C120.193 51.0266 115.918 51.6295 112.554 53.6549C106.222 57.4645 104.171 66.9009 108.348 72.9957C109.68 74.9386 111.591 76.7197 111.747 79.0719C111.888 81.2179 110.501 83.1289 109.851 85.179C108.178 90.4584 112.499 96.7294 118.028 97.0479C120.819 97.2077 123.81 96.1202 126.311 97.3674C128.796 98.6074 129.722 101.604 131.311 103.881C134.437 108.36 140.978 110.049 145.883 107.644C147.935 106.637 149.874 104.975 152.156 105.129C154.432 105.282 156.224 107.226 158.464 107.66C161.397 108.227 164.181 106.067 165.925 103.643C167.668 101.217 168.884 98.36 171.115 96.3748C174.038 93.7764 178.143 93.1332 181.841 91.8602C187.146 90.0337 191.864 86.6406 195.417 82.3022L195.055 102.895C198.109 102.895 199.894 101.827 201.033 100.248C201.671 100.672 202.349 101.037 203.079 101.278C206.685 102.47 210.98 101.124 213.262 98.089C214.451 96.5057 215.19 94.4773 216.877 93.4383C218.348 92.5333 220.191 92.6044 221.889 92.2962C225.624 91.618 228.904 88.8412 230.191 85.2707C231.474 81.6982 230.719 77.468 228.276 74.5634Z" fill="#263238"/>
<path d="M159.123 26.4365C154.855 29.1246 145.168 40.9647 144.979 44.4527L145.974 115.296C145.817 120.619 144.906 125.202 148.018 129.523C156.654 139.842 176.641 141.107 181.209 132.608C181.56 131.955 181.817 131.381 181.941 130.899C182.087 130.203 182.288 129.747 182.342 129.152C183.581 123.155 183.383 117.376 183.383 117.376C183.978 110.451 184.188 107.608 184.188 107.674C184.188 107.674 198.987 106.331 203.432 87.4808C205.642 78.1062 206.32 62.5174 206.461 49.7455C206.485 47.5892 205.932 45.0825 204.942 42.4325C199.448 27.7311 186.817 20.5963 171.63 21.9012C167.826 22.227 162.005 23.9297 159.123 26.4365Z" fill="#FFBF9D"/>
<path d="M184.68 76.3874C184.679 76.2369 186.336 76.075 189.014 75.9328C189.69 75.9132 190.337 75.8266 190.484 75.3772C190.678 74.9021 190.452 74.1579 190.184 73.3508C189.672 71.6779 189.137 69.9236 188.575 68.0858C186.355 60.5934 184.801 54.4523 185.104 54.3657C185.406 54.2791 187.451 60.2811 189.671 67.7735C190.203 69.6195 190.711 71.3801 191.194 73.0643C191.392 73.8466 191.766 74.7464 191.347 75.7287C191.129 76.2183 190.608 76.5451 190.168 76.6296C189.727 76.7296 189.349 76.7079 189.015 76.7028C186.336 76.6481 184.679 76.5368 184.68 76.3874Z" fill="#263238"/>
<path d="M184.188 107.671C184.188 107.671 171.293 107.546 159.147 98.9614C159.147 98.9614 164.59 112.642 183.815 112.273L184.188 107.671Z" fill="#FF9A6C"/>
<path d="M183.097 82.6493C182.244 81.3279 180.635 80.5178 178.976 80.5724C177.824 80.6106 176.63 81.0754 175.866 81.9546C175.102 82.8339 174.859 84.1429 175.424 85.0767C176.061 86.1281 177.527 86.4693 178.81 86.2054C180.093 85.9415 181.236 85.1953 182.323 84.447C182.624 84.2398 182.933 84.0243 183.132 83.7244C183.333 83.4255 183.401 83.0194 183.202 82.7452" fill="#FF9A6C"/>
<path d="M176.798 77.6334C177.228 77.6396 177.021 80.4978 179.316 82.7077C181.607 84.9228 184.676 84.829 184.669 85.2289C184.695 85.4113 183.95 85.734 182.661 85.6732C181.396 85.6237 179.586 85.0815 178.182 83.7292C176.782 82.3758 176.263 80.6679 176.252 79.4887C176.233 78.2859 176.605 77.6014 176.798 77.6334Z" fill="#263238"/>
<path d="M176.32 49.0166C176.006 49.7124 173.404 49.1785 170.288 49.3217C167.168 49.4021 164.611 50.1205 164.249 49.4485C164.089 49.1279 164.572 48.4868 165.631 47.8694C166.681 47.251 168.322 46.7119 170.192 46.6438C172.061 46.5789 173.737 46.9984 174.828 47.5396C175.928 48.0807 176.457 48.6847 176.32 49.0166Z" fill="#263238"/>
<path d="M202.564 49.0121C201.968 49.5677 199.851 48.7874 197.253 48.5647C194.661 48.2668 192.42 48.6101 191.958 47.9463C191.759 47.6257 192.151 47.0537 193.154 46.5589C194.144 46.0652 195.764 45.7209 197.55 45.8992C199.333 46.0796 200.841 46.7362 201.701 47.4155C202.575 48.0999 202.83 48.7389 202.564 49.0121Z" fill="#263238"/>
<path d="M148.813 69.079C148.915 67.6587 147.521 64.1882 146.134 63.8645C142.431 63.0029 135.657 62.8029 134.888 72.3114C133.837 85.3101 147.105 83.6836 147.157 83.3125C147.199 83.0229 148.46 73.9853 148.813 69.079Z" fill="#FFBF9D"/>
<path d="M143.586 78.0691C143.532 78.0227 143.347 78.2093 142.951 78.3536C142.563 78.4938 141.912 78.5597 141.254 78.2505C139.922 77.6362 138.942 75.3624 139.068 73.0144C139.131 71.829 139.469 70.722 139.964 69.8222C140.438 68.9038 141.106 68.2895 141.808 68.2225C142.508 68.1184 142.964 68.5719 143.093 68.9502C143.24 69.3285 143.135 69.581 143.201 69.6088C143.235 69.6449 143.498 69.414 143.437 68.8688C143.404 68.6059 143.278 68.2874 142.991 68.0122C142.7 67.7329 142.252 67.5669 141.766 67.5803C140.758 67.569 139.781 68.4183 139.238 69.4047C138.639 70.3922 138.23 71.6332 138.16 72.9649C138.032 75.5912 139.174 78.1495 141.01 78.8453C141.905 79.1576 142.691 78.9442 143.11 78.669C143.537 78.3804 143.629 78.0959 143.586 78.0691Z" fill="#FF9A6C"/>
<path d="M143.594 44.4514C143.594 43.799 143.357 45.0596 143.594 44.4514Z" fill="#455A64"/>
<path d="M196.879 26.2075C192.041 22.9484 188.067 19.1841 176.254 19.1655C167.131 19.1532 160.452 24.4604 153.265 30.7304C144.034 38.7835 138.183 51.9079 142.075 63.5243L145.953 65.0405L149.638 56.1308C155.987 42.319 169.193 30.7026 183.442 30.0202C184.873 29.9522 186.204 29.9635 187.382 30.0831C196.808 31.0273 206.463 48.1849 206.463 48.1849C206.463 48.1849 208.212 33.8412 196.879 26.2075Z" fill="#24ABE1"/>
<path d="M145.975 64.9778C146.184 67.6742 146.598 70.1098 146.805 72.8083C146.894 73.9452 147.181 75.3408 148.28 75.6469C149.065 75.8665 149.903 75.3449 150.318 74.644C150.732 73.9431 150.821 73.1041 150.9 72.2939C151.701 64.1171 152.383 57.8853 153.186 49.7095C150.826 52.9862 148.409 58.6326 145.975 64.9778Z" fill="#263238"/>
<path d="M143.822 85.4687C143.847 85.4667 143.899 85.7295 143.728 86.1573C143.565 86.583 143.119 87.1375 142.372 87.49C141.632 87.8508 140.578 87.9363 139.553 87.5642C138.538 87.2086 137.513 86.3676 137.097 85.1441C136.68 83.9371 136.873 82.6476 137.428 81.7076C137.986 80.749 138.883 80.2027 139.653 79.9749C140.433 79.7358 141.106 79.7822 141.539 79.876C141.977 79.9749 142.191 80.1048 142.179 80.1326C142.17 80.2398 141.197 79.8193 139.774 80.3336C139.084 80.5861 138.318 81.1067 137.858 81.9508C137.394 82.7837 137.242 83.9237 137.603 84.9668C137.958 86.013 138.832 86.7572 139.725 87.0994C140.625 87.4519 141.551 87.4158 142.222 87.1396C142.904 86.8674 143.34 86.4191 143.54 86.0635C143.751 85.7089 143.775 85.4615 143.822 85.4687Z" fill="#E0E0E0"/>
<path d="M171.224 33.2743C171.224 33.2743 181.501 36.1099 184.977 35.0348C188.891 33.8237 190.597 30.8222 190.597 30.8222C190.597 30.8222 182.616 27.3002 171.224 33.2743Z" fill="#263238"/>
<path d="M228.258 59.6614C228.221 59.6232 228.739 59.2728 229.343 58.3492C229.94 57.4473 230.602 55.8868 230.438 53.8872C230.303 51.9082 229.107 49.6034 226.932 47.9893C224.771 46.3577 221.672 45.5825 218.447 45.8042L217.998 45.8351L218.197 45.429C219.241 43.3087 220.217 40.9525 220.612 38.3983C220.921 36.3626 220.816 34.3032 220.212 32.4664C219.615 30.6276 218.472 29.0784 217.123 27.9199C214.386 25.5821 211.094 24.7266 208.408 24.4978C205.688 24.2638 203.464 24.5164 201.944 24.6833C201.229 24.772 200.647 24.8452 200.189 24.9029C199.788 24.9555 199.574 24.973 199.571 24.9554C199.568 24.9379 199.774 24.8833 200.17 24.7967C200.567 24.7122 201.153 24.5978 201.914 24.4762C203.433 24.2442 205.665 23.933 208.438 24.1195C211.173 24.3061 214.578 25.1338 217.443 27.5457C218.856 28.7372 220.075 30.3658 220.71 32.3015C221.351 34.229 221.46 36.3729 221.14 38.4797C220.732 41.1205 219.725 43.5231 218.661 45.6609L218.413 45.2857C221.736 45.0713 224.955 45.8949 227.201 47.6306C229.454 49.3416 230.672 51.7803 230.767 53.8614C230.891 55.9579 230.148 57.5535 229.489 58.4503C228.82 59.3687 228.258 59.6614 228.258 59.6614Z" fill="#263238"/>
<path d="M121.553 81.5854C121.551 81.5947 121.456 81.5978 121.27 81.5936C121.053 81.5854 120.78 81.5751 120.443 81.5627C119.719 81.5256 118.648 81.47 117.274 81.3092C115.905 81.1381 114.215 80.8732 112.357 80.1815C110.528 79.4806 108.466 78.3241 106.956 76.2822C105.436 74.2373 104.873 71.3873 104.989 68.4806C105.037 67.018 105.211 65.5183 105.427 63.9866C105.645 62.4611 105.859 60.8604 106.405 59.2833C106.942 57.7187 107.872 56.1695 109.337 55.1357C110.819 54.0482 112.757 53.9813 114.499 54.0091C116.247 54.0287 118.124 54.0792 119.553 53.0433C120.966 52.0156 121.689 50.1933 121.853 48.3936C122.03 46.5589 121.742 44.716 121.648 42.873C121.541 41.0259 121.637 39.1984 121.875 37.4245C122.344 33.8737 123.459 30.5475 125.032 27.6562C126.6 24.764 128.626 22.3078 130.877 20.437C133.123 18.5507 135.571 17.2602 137.91 16.4336C142.616 14.737 146.793 14.9277 149.486 15.4482C152.209 16.0058 153.568 16.7552 153.568 16.7552C153.564 16.7634 153.471 16.7387 153.294 16.682C153.089 16.6129 152.832 16.5253 152.513 16.4171C151.828 16.1862 150.8 15.8883 149.448 15.6544C146.77 15.2019 142.653 15.0751 138.038 16.7913C135.744 17.6282 133.35 18.9156 131.162 20.7781C128.968 22.6273 126.993 25.0475 125.466 27.8923C123.936 30.7351 122.849 34.0066 122.396 37.4936C122.166 39.2355 122.073 41.0311 122.182 42.8431C122.273 44.6521 122.571 46.5187 122.388 48.4452C122.21 50.3448 121.459 52.3104 119.866 53.4762C119.072 54.0369 118.13 54.3451 117.211 54.4492C116.287 54.5626 115.379 54.543 114.494 54.5337C112.745 54.5038 110.97 54.5749 109.629 55.5562C108.282 56.4983 107.39 57.9496 106.871 59.4462C106.339 60.9552 106.119 62.5271 105.895 64.0515C105.671 65.576 105.491 67.0582 105.434 68.495C105.302 71.3512 105.831 74.0899 107.264 76.0606C108.69 78.0314 110.68 79.1899 112.466 79.9022C114.277 80.6072 115.944 80.901 117.301 81.102C118.662 81.2947 119.729 81.3823 120.452 81.4555C120.787 81.4895 121.058 81.5184 121.274 81.539C121.458 81.5596 121.553 81.5751 121.553 81.5854Z" fill="#263238"/>
<path d="M154.568 30.739C154.596 30.7627 154.296 31.1781 153.732 31.9027C153.447 32.2624 153.102 32.7046 152.729 33.2416C152.354 33.7745 151.899 34.361 151.464 35.0557C150.542 36.4121 149.55 38.0933 148.554 40.0156C147.585 41.9513 146.63 44.1334 145.817 46.4948C145.025 48.8655 144.456 51.1795 144.047 53.3038C143.668 55.4344 143.433 57.3742 143.339 59.011C143.261 59.8274 143.266 60.5695 143.239 61.2209C143.209 61.8734 143.213 62.4341 143.221 62.8928C143.227 63.8122 143.213 64.3224 143.176 64.3255C143.14 64.3276 143.083 63.8215 143.013 62.901C142.971 62.4403 142.936 61.8764 142.94 61.2209C142.936 60.5643 142.907 59.817 142.96 58.9914C143.007 57.3381 143.203 55.3756 143.56 53.2173C143.946 51.064 144.507 48.7191 145.308 46.3227C146.13 43.9344 147.11 41.7318 148.114 39.7888C149.145 37.8593 150.183 36.1812 151.15 34.8413C151.609 34.1538 152.089 33.5776 152.49 33.0591C152.887 32.5366 153.258 32.1098 153.571 31.7697C154.188 31.0822 154.54 30.7142 154.568 30.739Z" fill="#263238"/>
<path d="M164.964 25.8105C164.986 25.8394 164.54 26.2641 163.713 27.0062C163.296 27.3721 162.79 27.8277 162.232 28.3853C161.67 28.9388 161.005 29.5408 160.336 30.2736C158.948 31.6909 157.401 33.4772 155.795 35.5458C154.217 37.6351 152.596 40.0213 151.098 42.6466C149.622 45.2863 148.417 47.9064 147.442 50.3369C146.501 52.7818 145.77 55.0299 145.273 56.9491C144.99 57.9005 144.819 58.7817 144.635 59.5476C144.445 60.3134 144.317 60.9813 144.22 61.5276C144.011 62.6181 143.878 63.2211 143.842 63.216C143.805 63.2108 143.867 62.5985 144.014 61.4926C144.081 60.9391 144.179 60.2639 144.342 59.4878C144.497 58.7116 144.645 57.819 144.905 56.8553C145.358 54.9103 146.057 52.6324 146.981 50.1586C147.939 47.6972 149.143 45.0461 150.631 42.3827C152.142 39.7337 153.79 37.3342 155.404 35.2428C157.045 33.1741 158.635 31.3992 160.066 30.0077C160.755 29.2862 161.445 28.6987 162.028 28.1647C162.608 27.6246 163.135 27.1917 163.575 26.8485C164.448 26.1528 164.939 25.7827 164.964 25.8105Z" fill="#263238"/>
<path d="M128.522 87.0444C128.527 87.0526 128.432 87.1196 128.241 87.2454C128.054 87.3783 127.762 87.5525 127.357 87.7412C126.554 88.1205 125.269 88.5606 123.556 88.5596C121.864 88.5554 119.717 88.1215 117.707 86.7228C115.698 85.3447 114.026 82.9019 113.364 79.9096C113.039 78.4151 112.957 76.7875 113.21 75.1311C113.474 73.4789 114.049 71.808 114.95 70.2496C115.844 68.689 117.024 67.2213 118.458 65.9535C119.878 64.663 121.592 63.6487 123.339 62.6994C125.072 61.7316 126.876 60.7431 128.264 59.2392C129.678 57.7601 130.605 55.8213 131.179 53.7671C131.739 51.6984 131.98 49.5081 132.093 47.2806C132.21 45.0563 132.196 42.7691 132.425 40.4623C132.638 38.1597 133.066 35.8683 133.967 33.7646C134.834 31.6465 136.345 29.8293 138.189 28.5986C140.029 27.3503 142.096 26.6237 144.104 26.0434C146.124 25.4692 148.119 25.025 150.011 24.4365C151.899 23.8531 153.697 23.114 155.195 22.0194C155.569 21.7452 155.942 21.4772 156.253 21.1422C156.58 20.8258 156.914 20.5197 157.19 20.164C157.755 19.4662 158.232 18.7107 158.68 17.9511C159.575 16.4348 160.392 14.8867 161.549 13.6539C162.697 12.4253 164.062 11.5193 165.463 10.9039C168.286 9.68971 171.234 9.65878 173.537 10.4184C175.862 11.1616 177.555 12.5098 178.689 13.7621C179.834 15.0279 180.434 16.2297 180.773 17.0492C181.113 17.8748 181.185 18.3427 181.185 18.3427C181.15 18.3541 181.042 17.8954 180.673 17.0925C180.306 16.2936 179.683 15.1258 178.535 13.9034C177.397 12.6943 175.719 11.4007 173.446 10.705C171.2 9.99274 168.342 10.0525 165.615 11.2502C164.261 11.8574 162.949 12.7438 161.853 13.9343C160.752 15.1217 159.956 16.64 159.062 18.1758C158.613 18.9447 158.131 19.7229 157.544 20.4527C157.259 20.8237 156.913 21.1484 156.572 21.4793C156.246 21.8307 155.86 22.1121 155.472 22.4007C153.917 23.5459 152.067 24.3097 150.156 24.9085C148.24 25.5105 146.241 25.9619 144.245 26.5361C142.255 27.1143 140.243 27.8327 138.483 29.0315C136.72 30.2137 135.292 31.933 134.456 33.9749C133.59 36.0023 133.167 38.2401 132.958 40.5128C132.73 42.7887 132.744 45.0584 132.624 47.3095C132.51 49.5545 132.262 51.7819 131.684 53.9062C131.092 56.0172 130.123 58.0405 128.636 59.5897C127.168 61.1657 125.311 62.1686 123.577 63.1313C121.821 64.0785 120.16 65.0547 118.769 66.307C117.366 67.5357 116.212 68.9601 115.333 70.4712C114.451 71.9812 113.884 73.5995 113.617 75.1961C113.363 76.7968 113.43 78.3759 113.734 79.8303C114.353 82.739 115.951 85.1231 117.879 86.4785C119.811 87.8587 121.9 88.3163 123.555 88.3514C125.232 88.3833 126.504 87.9865 127.311 87.6422C128.128 87.3031 128.5 87.0073 128.522 87.0444Z" fill="#455A64"/>
<path d="M199.568 64.1784C199.62 65.5349 198.514 66.6955 197.099 66.7759C195.686 66.8542 194.498 65.8224 194.446 64.467C194.396 63.1116 195.502 61.9479 196.914 61.8685C198.329 61.7892 199.518 62.823 199.568 64.1784Z" fill="#263238"/>
<path d="M201.74 56.3459C201.422 56.6809 199.474 55.2472 196.71 55.2595C193.948 55.2338 191.924 56.6582 191.623 56.3212C191.475 56.1717 191.799 55.5667 192.68 54.9225C193.548 54.2803 195.028 53.6547 196.75 53.6567C198.472 53.6629 199.921 54.2927 200.754 54.94C201.607 55.5914 201.896 56.1965 201.74 56.3459Z" fill="#263238"/>
<path d="M175.643 64.1794C175.694 65.5349 174.588 66.6965 173.173 66.7759C171.762 66.8542 170.572 65.8224 170.521 64.467C170.47 63.1116 171.576 61.9489 172.989 61.8685C174.403 61.7892 175.592 62.824 175.643 64.1794Z" fill="#263238"/>
<path d="M175.575 56.3459C175.256 56.6819 173.305 55.2472 170.544 55.2595C167.783 55.2338 165.758 56.6593 165.457 56.3212C165.31 56.1717 165.63 55.5677 166.514 54.9225C167.382 54.2803 168.864 53.6547 170.585 53.6567C172.305 53.6629 173.754 54.2927 174.589 54.94C175.44 55.5914 175.729 56.1965 175.575 56.3459Z" fill="#263238"/>
<path d="M222.463 142.84C210.533 128.325 200.219 126.263 200.219 126.263L200.288 178.059L238.318 226.158L253.79 186.572C253.79 186.572 230.545 152.676 222.463 142.84Z" fill="#24ABE1"/>
<path d="M183.324 122.161L200.372 126.299C200.372 126.299 209.175 177.35 205.982 190.555C203.265 201.79 194.547 253.635 194.547 253.635H89.4363L124.654 152.46C124.654 152.46 124.858 130.218 119.421 119.94C122.717 119.148 133.847 117.1 143.464 115.295C143.464 115.295 149.858 123.275 164.907 125.555C179.956 127.835 183.324 122.161 183.324 122.161Z" fill="#24ABE1"/>
<path d="M204.191 164.92H138.152C132.379 198.695 118.329 211.644 93.5474 231.196L89.4379 253.636H194.547L200.647 218.38L200.288 205.396L204.191 164.92Z" fill="#455A64"/>
<path d="M121.954 119.442C121.954 119.442 96.8385 121.454 87.8268 162.603C83.7512 181.215 78.6007 203.028 77.1154 217.688C76.0382 228.32 79.8417 243.016 90.0635 245.451L108.627 247.819C116.919 247.942 122.609 241.204 124.355 233.983L127.25 222.505C129.246 208.469 118.56 207.253 112.551 207.383L125.767 155.116L128.326 129.826L121.954 119.442Z" fill="#24ABE1"/>
<path d="M207.747 154.443C207.76 154.441 207.799 154.639 207.861 155.017C207.925 155.435 208.008 155.986 208.114 156.676C208.166 157.041 208.224 157.441 208.287 157.876C208.332 158.32 208.381 158.798 208.433 159.31C208.537 160.341 208.663 161.514 208.717 162.816C208.907 165.416 208.904 168.525 208.778 171.969C208.633 175.414 208.242 179.188 207.667 183.122C207.089 187.057 206.364 190.777 205.627 194.14C204.904 197.508 204.163 200.518 203.538 203.046C202.899 205.569 202.369 207.608 201.985 209.011C201.797 209.683 201.649 210.22 201.535 210.626C201.428 210.994 201.365 211.185 201.352 211.182C201.339 211.178 201.375 210.98 201.457 210.605C201.552 210.195 201.677 209.651 201.832 208.972C202.18 207.514 202.666 205.476 203.262 202.978C203.852 200.444 204.564 197.428 205.265 194.063C205.98 190.699 206.693 186.987 207.268 183.062C207.843 179.14 208.242 175.382 208.407 171.95C208.553 168.521 208.586 165.424 208.431 162.829C208.395 161.531 208.29 160.36 208.207 159.33C208.166 158.818 208.129 158.339 208.095 157.895C208.045 157.459 207.998 157.057 207.957 156.693C207.883 156 207.824 155.446 207.779 155.027C207.745 154.646 207.732 154.445 207.747 154.443Z" fill="#263238"/>
<path d="M92.7194 221.817C92.6978 221.811 92.7514 221.44 92.9183 220.782C93.0832 220.123 93.3884 219.184 93.8883 218.075C94.8706 215.863 96.8114 212.97 99.8408 210.763C102.872 208.557 106.223 207.601 108.63 207.346C109.84 207.21 110.826 207.209 111.504 207.254C112.181 207.298 112.552 207.361 112.55 207.383C112.548 207.467 111.046 207.289 108.666 207.627C106.303 207.95 103.041 208.931 100.077 211.088C97.1145 213.244 95.1787 216.048 94.1439 218.196C93.0925 220.357 92.7988 221.841 92.7194 221.817Z" fill="#263238"/>
<path d="M98.5262 201.32C98.5262 201.292 98.7417 201.272 99.1333 201.262C99.524 201.247 100.092 201.269 100.788 201.335C102.182 201.466 104.101 201.856 106.088 202.67C108.073 203.489 109.712 204.562 110.793 205.45C111.335 205.893 111.755 206.277 112.021 206.562C112.292 206.844 112.431 207.01 112.412 207.03C112.365 207.078 111.734 206.493 110.62 205.676C109.509 204.856 107.881 203.845 105.934 203.041C103.986 202.243 102.118 201.817 100.753 201.617C99.3869 201.416 98.5252 201.387 98.5262 201.32Z" fill="#263238"/>
<path d="M124.526 148.035C124.498 148.034 124.478 147.641 124.464 146.935C124.459 146.228 124.419 145.205 124.332 143.948C124.164 141.432 123.696 137.964 122.661 134.256C121.615 130.55 120.21 127.346 119.043 125.109C118.463 123.99 117.964 123.095 117.603 122.489C117.245 121.879 117.058 121.534 117.081 121.518C117.104 121.503 117.336 121.82 117.734 122.407C118.141 122.989 118.678 123.865 119.295 124.975C120.532 127.19 121.993 130.408 123.049 134.148C124.094 137.888 124.521 141.396 124.617 143.931C124.667 145.199 124.664 146.229 124.622 146.937C124.587 147.645 124.554 148.036 124.526 148.035Z" fill="#263238"/>
<g opacity="0.3">
<path d="M206.591 188.992C212.999 178.14 213.136 164.039 207.546 152.744C209.213 164.772 209.077 177.1 206.403 188.945" fill="black"/>
</g>
<path d="M119.699 243.284C119.658 243.249 119.262 243.809 118.326 244.582C117.384 245.339 115.827 246.221 113.729 246.775C111.639 247.35 109.031 247.588 106.165 247.441C103.296 247.234 100.132 246.899 96.8426 246.409C93.5638 245.9 90.4139 245.31 87.7443 244.313C86.4342 243.769 85.3344 242.936 84.4006 242.081C83.4688 241.215 82.6978 240.304 82.0629 239.425C80.7889 237.666 79.9952 236.079 79.4963 234.97C79.2572 234.411 79.0696 233.976 78.9583 233.675C78.8408 233.376 78.7707 233.221 78.7583 233.224C78.746 233.227 78.7882 233.392 78.882 233.7C78.9696 234.012 79.1335 234.458 79.352 235.031C79.8107 236.166 80.5714 237.786 81.832 239.591C82.4597 240.493 83.2307 241.43 84.1728 242.324C85.118 243.208 86.2384 244.075 87.5989 244.653C90.3428 245.699 93.4803 246.292 96.7818 246.807C100.089 247.298 103.25 247.623 106.145 247.811C109.048 247.939 111.686 247.67 113.804 247.05C115.93 246.451 117.5 245.513 118.425 244.703C118.877 244.282 119.217 243.948 119.405 243.683C119.608 243.427 119.711 243.291 119.699 243.284Z" fill="#263238"/>
<path d="M118.324 184.194C121.482 171.484 123.956 161.16 123.848 161.133C123.74 161.106 121.092 171.387 117.934 184.097C114.775 196.806 112.302 207.131 112.409 207.158C112.517 207.185 115.165 196.903 118.324 184.194Z" fill="#263238"/>
<path d="M127.042 219.178C127.068 219.18 127.117 218.88 127.17 218.334C127.216 217.788 127.291 216.992 127.224 215.998C127.166 215.008 126.829 213.808 126.095 212.705C125.73 212.157 125.327 211.596 124.806 211.086C124.29 210.576 123.677 210.14 123.021 209.757C120.347 208.303 117.652 207.695 115.71 207.398C114.735 207.259 113.94 207.206 113.39 207.192C112.841 207.177 112.537 207.199 112.536 207.223C112.532 207.29 113.746 207.335 115.665 207.678C117.566 208.039 120.229 208.693 122.82 210.105C123.453 210.474 124.041 210.889 124.531 211.367C125.023 211.839 125.425 212.386 125.785 212.907C126.505 213.958 126.846 215.066 126.94 216.025C127.042 216.985 127.012 217.778 127.013 218.325C127.009 218.873 127.014 219.177 127.042 219.178Z" fill="#263238"/>
<path d="M177.837 217.734C177.822 217.742 177.807 217.749 177.79 217.757C177.805 217.75 177.822 217.743 177.837 217.734Z" fill="#FFBF9D"/>
<path d="M177.559 217.865C177.523 217.884 177.49 217.899 177.458 217.914C177.486 217.901 177.519 217.885 177.559 217.865Z" fill="#FFBF9D"/>
<path d="M177.789 217.758C177.7 217.8 177.622 217.838 177.56 217.866C177.639 217.829 177.72 217.79 177.789 217.758Z" fill="#FFBF9D"/>
<path d="M177.935 217.688C177.897 217.708 177.869 217.72 177.834 217.737C177.894 217.708 177.935 217.688 177.935 217.688Z" fill="#FFBF9D"/>
<path d="M201.528 239.36C199.512 235.547 183.753 225.488 183.753 225.488L188.019 224.503L192.728 226.495C192.728 226.495 193.022 228.437 194.755 230.907C196.488 233.377 199.426 230.822 199.426 230.822L197.436 221.283L188.118 215.675C188.118 215.675 179.351 217.015 177.935 217.689L174.198 221.11C172.557 222.395 167.822 227.464 166.527 227.618C165.232 227.77 124.559 218.621 124.559 218.621C118.983 223.036 116.044 231.811 115.159 238.139C115.159 238.139 114.167 241.248 115.246 242.935L165.176 246.854L175.755 249.777C175.755 249.777 181.609 252.167 184.449 252.764C187.97 253.503 190.34 252.368 190.435 250.42C190.53 248.472 187.8 248.26 187.8 248.26C187.8 248.26 183.357 246.654 180.996 245.268C178.634 243.883 177.154 241.055 177.154 241.055L180.927 241.506C180.927 241.506 188.946 247.072 191.961 248.705C194.976 250.337 195.57 247.342 195.814 246.428C196.056 245.515 186.807 236.467 186.807 236.467C186.807 236.467 195.601 241.889 197.183 243.257C198.766 244.625 201.111 245.035 201.613 244.117C202.118 243.2 203.545 243.174 201.528 239.36Z" fill="#FFBF9D"/>
<path d="M177.458 217.917C177.421 217.934 177.392 217.947 177.37 217.959C177.394 217.947 177.424 217.933 177.458 217.917Z" fill="#FFBF9D"/>
<path d="M177.322 217.981C177.306 217.988 177.306 217.988 177.322 217.981Z" fill="#FFBF9D"/>
<path d="M177.37 217.958C177.348 217.969 177.331 217.977 177.32 217.982C177.33 217.977 177.346 217.97 177.37 217.958Z" fill="#FFBF9D"/>
<path d="M158.134 240.239C158.11 240.24 158.094 240.022 158.088 239.621C158.075 239.42 158.096 239.177 158.136 238.895C158.163 238.611 158.213 238.29 158.31 237.944C158.625 236.54 159.527 234.733 160.865 233.019C162.203 231.299 163.643 229.95 164.711 229.021C165.785 228.094 166.497 227.58 166.527 227.616C166.563 227.658 165.91 228.243 164.888 229.215C163.869 230.188 162.473 231.553 161.157 233.245C159.841 234.933 158.932 236.665 158.561 238.013C158.17 239.355 158.212 240.241 158.134 240.239Z" fill="#FF9A6C"/>
<path d="M183.389 225.191C183.405 225.283 182.148 225.442 180.701 224.95C179.249 224.469 178.343 223.583 178.41 223.519C178.477 223.43 179.441 224.145 180.818 224.599C182.19 225.068 183.389 225.08 183.389 225.191Z" fill="#FF9A6C"/>
<path d="M182 234.192C184.177 235.088 185.973 235.738 186.012 235.644C186.05 235.549 184.317 234.747 182.14 233.851C179.963 232.956 178.167 232.306 178.128 232.4C178.09 232.494 179.823 233.297 182 234.192Z" fill="#FF9A6C"/>
<path d="M177.559 240.969C177.509 241.062 176.614 240.675 175.501 240.241C174.389 239.804 173.469 239.484 173.496 239.382C173.519 239.285 174.5 239.452 175.636 239.897C176.772 240.339 177.606 240.882 177.559 240.969Z" fill="#FF9A6C"/>
<path d="M184.71 236.33C184.75 236.432 183.837 236.771 183.154 237.688C182.45 238.59 182.368 239.561 182.26 239.55C182.214 239.549 182.167 239.3 182.23 238.899C182.289 238.501 182.484 237.96 182.86 237.463C183.238 236.97 183.708 236.636 184.076 236.473C184.445 236.307 184.696 236.286 184.71 236.33Z" fill="#FF9A6C"/>
<path d="M188.412 230.5C188.46 230.596 187.771 230.97 187.316 231.768C186.843 232.558 186.857 233.341 186.748 233.346C186.654 233.38 186.459 232.491 186.996 231.582C187.524 230.669 188.395 230.402 188.412 230.5Z" fill="#FF9A6C"/>
<path d="M187.156 220.088C187.115 220.108 186.971 219.935 186.861 219.592C186.751 219.253 186.702 218.74 186.831 218.202C186.962 217.665 187.24 217.232 187.493 216.981C187.748 216.726 187.955 216.638 187.983 216.674C188.054 216.754 187.413 217.318 187.191 218.289C186.944 219.254 187.256 220.048 187.156 220.088Z" fill="#FF9A6C"/>
<path d="M114.805 244.364C114.833 244.362 114.855 243.954 114.872 243.216C114.876 242.848 114.886 242.397 114.924 241.875C114.958 241.353 114.971 240.757 115.047 240.102C115.275 237.485 115.858 233.871 117.227 230.097C117.922 228.217 118.744 226.491 119.592 224.976C120.05 224.24 120.453 223.518 120.913 222.896C121.133 222.582 121.348 222.277 121.554 221.982C121.776 221.703 121.99 221.434 122.195 221.175C123.852 219.135 125.124 218.092 125.065 218.026C125.046 218.005 124.729 218.262 124.168 218.747C123.882 218.984 123.546 219.289 123.188 219.674C122.822 220.054 122.389 220.471 121.977 220.993C121.762 221.249 121.538 221.516 121.309 221.792C121.086 222.078 120.872 222.388 120.641 222.704C120.163 223.324 119.746 224.048 119.273 224.788C118.396 226.311 117.553 228.054 116.85 229.958C115.464 233.775 114.92 237.438 114.764 240.079C114.706 240.739 114.712 241.339 114.7 241.865C114.682 242.391 114.695 242.843 114.715 243.214C114.746 243.957 114.777 244.365 114.805 244.364Z" fill="#263238"/>
<g opacity="0.3">
<path d="M149.395 171.88V173.239L141.8 173.732L137.953 143.141C137.953 143.141 136.318 132.848 135.26 129.096C134.202 125.344 129.688 117.88 129.688 117.88L133.031 117.248L139.541 127.845L149.395 171.88Z" fill="black"/>
</g>
<path d="M150.395 171.834C150.395 171.834 147.027 143.424 143.849 132.076C140.669 120.727 135.71 116.683 135.71 116.683L130.818 117.603C130.818 117.603 135.687 123.531 137.573 133.979C139.458 144.427 142.981 172.175 142.981 172.175L150.395 171.834Z" fill="#455A64"/>
<path d="M150.395 171.835C150.403 171.842 150.25 171.856 149.939 171.879C149.593 171.902 149.13 171.934 148.539 171.973C147.243 172.049 145.386 172.158 142.987 172.299L142.875 172.306L142.858 172.19C142.144 167.025 141.066 159.232 139.747 149.709C139.054 144.939 138.318 139.724 137.355 134.233C136.876 131.497 136.11 128.735 135.06 126.009C133.999 123.296 132.66 120.595 130.895 118.146L130.611 117.773L130.342 117.418L130.769 117.339C132.446 117.023 134.099 116.713 135.661 116.419L135.791 116.395L135.879 116.475C137.428 117.904 138.589 119.561 139.621 121.264C140.642 122.97 141.489 124.734 142.219 126.503C143.66 130.052 144.587 133.628 145.289 137.038C146.686 143.863 147.6 150.025 148.347 155.182C149.083 160.342 149.602 164.504 149.94 167.376C150.097 168.786 150.22 169.891 150.307 170.681C150.34 171.037 150.367 171.32 150.387 171.542C150.4 171.748 150.401 171.84 150.395 171.835C150.39 171.829 150.367 171.724 150.334 171.545C150.3 171.326 150.258 171.045 150.204 170.694C150.094 169.907 149.939 168.805 149.742 167.403C149.343 164.539 148.768 160.384 147.985 155.236C147.191 150.09 146.24 143.936 144.818 137.138C144.104 133.742 143.174 130.206 141.741 126.7C141.016 124.953 140.176 123.213 139.169 121.537C138.163 119.874 136.984 118.218 135.541 116.889L135.759 116.946C134.198 117.24 132.545 117.551 130.869 117.867L131.025 117.434L131.327 117.829C133.135 120.339 134.482 123.066 135.555 125.82C136.615 128.578 137.385 131.378 137.862 134.143C138.816 139.655 139.531 144.868 140.201 149.646C141.513 159.202 142.489 167.026 143.103 172.159L142.975 172.052C145.344 171.974 147.178 171.913 148.457 171.872C149.063 171.855 149.536 171.844 149.891 171.835C150.216 171.827 150.386 171.827 150.395 171.835Z" fill="#263238"/>
<path d="M200.218 126.263C200.218 126.263 201.35 157.318 197.458 173.239L190.037 173.003C190.037 173.003 195.551 134.384 194.824 124.751C194.824 124.751 197.946 124.74 200.218 126.263Z" fill="#455A64"/>
<path d="M200.22 126.263C200.191 126.28 199.801 126.002 198.917 125.641C198.038 125.3 196.653 124.903 194.826 124.868L194.942 124.741C195.216 129.08 194.692 135.86 193.862 144.198C193.002 152.535 191.789 162.436 190.303 173.039L190.046 172.732C190.107 172.734 190.172 172.737 190.238 172.739C192.714 172.818 195.152 172.896 197.468 172.973L197.201 173.175C198.673 166.702 199.24 160.426 199.616 154.78C199.979 149.127 200.111 144.067 200.178 139.841C200.243 135.615 200.226 132.219 200.213 129.882C200.206 128.744 200.201 127.848 200.198 127.196C200.197 126.58 200.205 126.276 200.22 126.263C200.234 126.248 200.266 126.585 200.298 127.193C200.324 127.846 200.361 128.742 200.405 129.879C200.477 132.216 200.55 135.613 200.533 139.845C200.513 144.075 200.421 149.142 200.087 154.81C199.738 160.473 199.195 166.762 197.716 173.3L197.669 173.511L197.449 173.503C195.134 173.43 192.696 173.353 190.219 173.275C190.154 173.273 190.087 173.27 190.027 173.268L189.729 173.259L189.77 172.962C191.255 162.368 192.499 152.472 193.411 144.149C194.292 135.827 194.89 129.056 194.706 124.758L194.7 124.627L194.823 124.632C196.698 124.704 198.081 125.144 198.962 125.527C199.402 125.726 199.715 125.904 199.925 126.044C200.134 126.186 200.229 126.258 200.22 126.263Z" fill="#263238"/>
<path d="M194.692 170.953C195.918 170.953 196.912 169.959 196.912 168.732C196.912 167.506 195.918 166.512 194.692 166.512C193.466 166.512 192.472 167.506 192.472 168.732C192.472 169.959 193.466 170.953 194.692 170.953Z" fill="#E0E0E0"/>
<path d="M194.692 170.978C193.453 170.978 192.445 169.97 192.445 168.731C192.445 167.492 193.453 166.484 194.692 166.484C195.931 166.484 196.939 167.492 196.939 168.731C196.939 169.97 195.931 170.978 194.692 170.978ZM194.692 166.537C193.481 166.537 192.497 167.522 192.497 168.732C192.497 169.942 193.481 170.926 194.692 170.926C195.902 170.926 196.886 169.942 196.886 168.732C196.886 167.522 195.902 166.537 194.692 166.537Z" fill="#263238"/>
<path d="M146.177 170.209C147.403 170.209 148.397 169.215 148.397 167.989C148.397 166.763 147.403 165.769 146.177 165.769C144.951 165.769 143.957 166.763 143.957 167.989C143.957 169.215 144.951 170.209 146.177 170.209Z" fill="#E0E0E0"/>
<path d="M146.175 170.236C144.937 170.236 143.929 169.228 143.929 167.99C143.929 166.751 144.937 165.743 146.175 165.743C147.414 165.743 148.422 166.751 148.422 167.99C148.422 169.229 147.414 170.236 146.175 170.236ZM146.175 165.796C144.965 165.796 143.982 166.781 143.982 167.991C143.982 169.201 144.965 170.184 146.175 170.184C147.385 170.184 148.37 169.201 148.37 167.991C148.37 166.781 147.385 165.796 146.175 165.796Z" fill="#263238"/>
<path d="M190.504 191.473C190.513 191.473 190.519 191.588 190.521 191.813C190.52 192.066 190.518 192.395 190.516 192.809C190.501 193.687 190.48 194.978 190.349 196.642C190.212 198.299 189.99 200.345 189.306 202.629C188.66 204.927 187.308 207.351 185.398 209.652C181.671 214.383 174.939 218.012 167.084 219.009C165.115 219.235 163.074 219.278 161.004 219.091C158.943 218.908 156.807 218.443 154.86 217.467C150.935 215.585 147.634 212.223 145.506 208.165C143.365 204.089 142.469 199.591 142.319 195.297C142.291 194.213 142.264 193.165 142.354 192.082C142.411 191.545 142.513 190.994 142.763 190.482C143.006 189.973 143.438 189.518 143.97 189.294C145.053 188.852 146.116 189.06 147.105 189.065C148.112 189.105 149.105 189.144 150.089 189.183C157.941 189.506 165.015 189.797 170.969 190.041C176.886 190.304 181.685 190.517 185.044 190.666C186.678 190.75 187.96 190.816 188.869 190.862C189.282 190.889 189.611 190.911 189.864 190.927C190.087 190.945 190.202 190.958 190.202 190.968C190.202 190.977 190.086 190.982 189.862 190.983C189.608 190.98 189.28 190.976 188.865 190.971C187.955 190.948 186.672 190.915 185.036 190.874C181.675 190.767 176.873 190.611 170.954 190.42C164.999 190.209 157.923 189.956 150.07 189.677C149.087 189.641 148.092 189.605 147.085 189.568C146.085 189.554 145.033 189.395 144.178 189.762C143.313 190.124 142.952 191.136 142.87 192.134C142.788 193.145 142.813 194.223 142.844 195.278C142.998 199.512 143.887 203.932 145.981 207.917C148.06 211.883 151.283 215.163 155.088 216.996C156.978 217.946 159.021 218.394 161.052 218.583C163.081 218.772 165.091 218.734 167.028 218.519C174.774 217.558 181.402 214.031 185.105 209.41C187.013 207.15 188.355 204.797 189.018 202.543C189.721 200.301 189.972 198.273 190.141 196.626C190.302 194.973 190.357 193.683 190.408 192.809C190.432 192.396 190.451 192.067 190.467 191.814C190.482 191.587 190.495 191.473 190.504 191.473Z" fill="#263238"/>
<g opacity="0.3">
<path d="M132.89 220.409C133.454 216.59 132.315 212.803 129.886 209.803C127.457 206.804 123.738 204.886 119.885 204.646C119.449 191.645 120.402 178.598 122.722 165.799L112.414 207.031C112.414 207.031 126.769 207.229 127.042 219.178L132.89 220.409Z" fill="black"/>
</g>
<g opacity="0.3">
<path d="M143.847 63.4239C144.93 54.9832 147.9 46.7878 152.478 39.6139C152.982 38.8243 153.517 37.8214 153.044 37.0133C152.638 36.3207 151.638 36.1836 150.905 36.5113C150.173 36.8381 149.654 37.5029 149.192 38.1574C144.145 45.3056 142.197 54.5626 143.932 63.1384" fill="black"/>
</g>
<path d="M321.979 182.215L307.397 253.804H206.305H180.826C179.43 253.804 178.297 252.672 178.297 251.277C178.297 249.881 179.43 248.748 180.826 248.748H206.305L219.825 182.17C220.084 180.893 221.201 179.969 222.504 179.956L319.241 178.901C321.002 178.88 322.33 180.49 321.979 182.215Z" fill="#E0E0E0"/>
<path d="M321.979 182.216C321.979 182.216 321.996 182.145 322.019 182C322.042 181.857 322.061 181.637 322.032 181.35C321.98 180.796 321.68 179.868 320.693 179.257C320.451 179.108 320.165 179.001 319.856 178.927C319.544 178.857 319.205 178.862 318.859 178.865C318.165 178.87 317.406 178.876 316.582 178.882C314.934 178.896 313.032 178.911 310.888 178.93C302.302 179.011 289.839 179.129 274.311 179.276C266.544 179.354 258.011 179.441 248.813 179.534C244.213 179.581 239.447 179.63 234.529 179.681C232.069 179.706 229.571 179.733 227.036 179.758C225.769 179.772 224.491 179.784 223.206 179.798C222.88 179.807 222.574 179.792 222.227 179.821C221.889 179.856 221.556 179.953 221.25 180.104C220.635 180.404 220.132 180.928 219.86 181.56C219.717 181.878 219.659 182.221 219.595 182.533L219.4 183.496C219.269 184.139 219.137 184.784 219.005 185.432C218.742 186.726 218.476 188.029 218.21 189.34C217.676 191.962 217.137 194.616 216.59 197.304C215.497 202.677 214.378 208.175 213.237 213.786C210.956 225.01 208.582 236.686 206.137 248.715L206.306 248.576C201.52 248.576 196.618 248.574 191.633 248.574C189.14 248.574 186.628 248.573 184.1 248.573H182.2H181.249C180.94 248.577 180.601 248.558 180.264 248.634C179.597 248.771 178.992 249.177 178.605 249.738C178.213 250.298 178.053 251.01 178.157 251.685C178.272 252.514 178.809 253.256 179.538 253.654C179.904 253.85 180.315 253.961 180.728 253.976L181.896 253.981C183.444 253.981 184.988 253.981 186.527 253.981C189.605 253.981 192.666 253.98 195.707 253.98C201.788 253.98 207.792 253.979 213.703 253.978C225.526 253.975 236.983 253.972 247.968 253.969C269.94 253.958 290.028 253.948 307.397 253.939H307.505L307.526 253.832C311.983 231.828 315.609 213.928 318.121 201.524C319.368 195.326 320.337 190.503 320.998 187.222C321.322 185.587 321.57 184.338 321.738 183.492C321.905 182.649 321.979 182.216 321.979 182.216C321.979 182.216 321.878 182.644 321.701 183.482C321.524 184.327 321.263 185.574 320.923 187.204C320.247 190.482 319.253 195.301 317.976 201.493C315.435 213.891 311.771 231.783 307.265 253.778L307.397 253.67C290.027 253.661 269.94 253.651 247.968 253.641C236.983 253.638 225.526 253.635 213.703 253.632C207.792 253.631 201.788 253.631 195.707 253.63C192.666 253.63 189.605 253.63 186.527 253.63C184.988 253.63 183.444 253.629 181.896 253.629L180.741 253.625C180.38 253.612 180.024 253.516 179.705 253.346C179.071 252.998 178.603 252.351 178.503 251.632C178.411 251.043 178.551 250.424 178.893 249.937C179.229 249.448 179.755 249.094 180.336 248.973C180.621 248.909 180.923 248.924 181.249 248.922H182.2H184.1C186.627 248.922 189.14 248.922 191.633 248.921C196.618 248.921 201.521 248.921 206.306 248.92H206.448L206.476 248.781C208.916 236.751 211.285 225.075 213.561 213.85C214.699 208.238 215.815 202.739 216.903 197.364C217.447 194.678 217.985 192.022 218.516 189.4C218.782 188.089 219.047 186.785 219.309 185.49C219.44 184.843 219.571 184.198 219.702 183.555L219.896 182.592C219.962 182.265 220.014 181.959 220.141 181.679C220.383 181.113 220.834 180.643 221.383 180.373C221.658 180.238 221.955 180.151 222.259 180.119C222.554 180.093 222.893 180.104 223.209 180.097C224.495 180.081 225.772 180.068 227.039 180.052C229.574 180.023 232.072 179.994 234.532 179.967C239.45 179.909 244.217 179.855 248.816 179.802C258.014 179.695 266.546 179.594 274.313 179.502C289.841 179.31 302.304 179.156 310.889 179.05C313.034 179.021 314.936 178.995 316.584 178.973C317.407 178.961 318.166 178.951 318.86 178.941C319.209 178.935 319.536 178.928 319.841 178.994C320.142 179.064 320.421 179.166 320.659 179.31C321.63 179.897 321.938 180.805 321.999 181.351C322.057 181.923 321.96 182.215 321.979 182.216Z" fill="#263238"/>
<path d="M267.835 219.159C270.144 219.159 272.016 217.287 272.016 214.979C272.016 212.67 270.144 210.798 267.835 210.798C265.526 210.798 263.654 212.67 263.654 214.979C263.654 217.287 265.526 219.159 267.835 219.159Z" fill="white"/>
<path d="M321.861 182.794C321.861 182.794 321.712 182.783 321.425 182.78C321.124 182.778 320.699 182.776 320.145 182.771C319.007 182.774 317.352 182.776 315.224 182.778C310.939 182.799 304.759 182.829 297.126 182.865C281.835 182.974 260.729 183.122 237.419 183.287C234.504 183.31 231.623 183.333 228.783 183.355C228.074 183.361 227.367 183.367 226.662 183.373C226.318 183.381 225.951 183.358 225.578 183.438C225.213 183.512 224.863 183.655 224.551 183.854C223.925 184.252 223.455 184.885 223.267 185.596C223.109 186.297 222.991 186.958 222.853 187.637C221.783 193.028 220.75 198.23 219.768 203.186C217.809 213.096 216.045 222.021 214.562 229.521C213.095 237.011 211.907 243.075 211.083 247.28C210.682 249.368 210.369 250.995 210.155 252.112C210.054 252.656 209.977 253.075 209.922 253.371C209.87 253.654 209.854 253.802 209.854 253.802C209.854 253.802 209.895 253.659 209.957 253.378C210.021 253.084 210.108 252.669 210.225 252.126C210.455 251.012 210.789 249.391 211.218 247.307C212.067 243.108 213.292 237.05 214.806 229.569C216.308 222.074 218.097 213.155 220.084 203.25C221.073 198.295 222.112 193.095 223.19 187.705C223.327 187.037 223.453 186.34 223.6 185.687C223.768 185.058 224.183 184.497 224.738 184.145C225.015 183.968 225.323 183.842 225.647 183.777C225.964 183.707 226.306 183.726 226.665 183.72C227.369 183.714 228.076 183.708 228.786 183.702C231.626 183.681 234.507 183.658 237.422 183.635C260.732 183.431 281.837 183.246 297.128 183.112C304.76 183.028 310.939 182.96 315.226 182.914C317.353 182.883 319.009 182.858 320.146 182.842C320.699 182.829 321.125 182.821 321.425 182.815C321.712 182.808 321.861 182.794 321.861 182.794Z" fill="#263238"/>
<path d="M32.0343 229.613C32.0343 229.613 19.8107 215.545 15.1981 201.476C10.5854 187.408 12.7766 189.022 12.7766 189.022C12.7766 189.022 19.0035 202.688 23.7313 209.289C28.4592 215.89 36.8773 225.577 36.8773 225.577L32.0343 229.613Z" fill="#03BC37"/>
<path d="M34.47 191.213C34.0758 190.526 33.0258 190.883 33.1441 191.666C33.889 196.608 35.5002 208.204 35.437 215.725C35.355 225.496 35.4401 229.273 35.4401 229.273H40.5279C40.5279 229.273 39.6243 209.075 38.4747 202.917C37.6685 198.599 35.9577 193.805 34.47 191.213Z" fill="#03BC37"/>
<path d="M37.243 227.631C37.243 227.631 40.4458 220.899 41.4303 212.442C41.8495 208.845 41.1025 203.984 39.9903 197.498C39.4518 194.356 39.3294 191.966 39.3471 190.308C39.3606 189.055 41.0133 188.646 41.6264 189.738C42.2406 190.834 44.0178 194.577 44.4681 196.923C45.7006 203.328 47.096 206.53 46.0284 212.605C44.9609 218.681 41.0205 228.042 41.0205 228.042L37.243 227.631Z" fill="#03BC37"/>
<path d="M41.826 228.042C41.826 228.042 55.2469 199.201 56.1765 194.922C57.1071 190.644 60.2694 180.784 60.6419 181.342C61.0144 181.9 61.5725 187.109 59.1531 193.062C56.7347 199.015 46.4086 228.921 46.4086 228.921H41.826" fill="#03BC37"/>
<path d="M35.7744 226.752C35.7681 226.76 35.6385 226.671 35.3978 226.493C35.1602 226.313 34.7981 226.059 34.3582 225.7C33.465 224.998 32.2117 223.93 30.752 222.516C27.8221 219.702 24.1754 215.365 21.0152 210.019C17.8477 204.675 15.7167 199.448 14.369 195.622C13.6936 193.707 13.2008 192.139 12.8823 191.049C12.7184 190.506 12.6053 190.08 12.5254 189.792C12.4486 189.503 12.4123 189.35 12.4216 189.347C12.431 189.345 12.4859 189.492 12.5814 189.775C12.682 190.084 12.818 190.497 12.9881 191.016C13.3398 192.094 13.8616 193.651 14.5599 195.553C15.9543 199.355 18.1071 204.551 21.261 209.873C24.4097 215.196 28.0108 219.531 30.894 222.371C32.3299 223.799 33.5593 224.887 34.4287 225.613C34.8572 225.985 35.2068 226.253 35.433 226.448C35.6624 226.64 35.7806 226.744 35.7744 226.752Z" fill="#185629"/>
<path d="M37.2419 212.914C37.2223 212.916 37.1807 212.614 37.1216 212.068C37.0573 211.471 36.9743 210.693 36.8747 209.756C36.662 207.805 36.33 205.114 35.8559 202.158C35.3797 199.201 34.8505 196.542 34.4418 194.622C34.2426 193.702 34.0776 192.936 33.9521 192.35C33.8359 191.813 33.782 191.513 33.8006 191.508C33.8203 191.504 33.9116 191.794 34.06 192.323C34.2104 192.852 34.4086 193.622 34.6389 194.578C35.1006 196.489 35.6619 199.149 36.1391 202.113C36.6143 205.076 36.9152 207.777 37.076 209.736C37.1569 210.716 37.2098 211.51 37.2326 212.059C37.2575 212.609 37.2616 212.913 37.2419 212.914Z" fill="#185629"/>
<path d="M40.3859 189.512C40.3952 189.508 40.4492 189.634 40.5446 189.878C40.6463 190.149 40.7801 190.505 40.9461 190.949C41.1246 191.414 41.3279 191.987 41.523 192.667C41.7222 193.344 41.9805 194.107 42.1745 194.976C42.2814 195.409 42.3924 195.861 42.5076 196.332C42.6207 196.804 42.6995 197.304 42.8033 197.816C43.0222 198.841 43.1571 199.951 43.3199 201.117C43.5824 203.455 43.7256 206.044 43.6405 208.76C43.5316 211.476 43.2027 214.048 42.7742 216.362C42.5283 217.513 42.3136 218.611 42.021 219.617C41.882 220.121 41.7668 220.614 41.6205 221.076C41.4711 221.538 41.329 221.981 41.1921 222.405C40.9358 223.258 40.6235 224.001 40.3756 224.662C40.1338 225.326 39.889 225.883 39.6784 226.333C39.4802 226.764 39.3215 227.11 39.2001 227.373C39.089 227.609 39.0258 227.731 39.0165 227.728C39.0071 227.723 39.0528 227.593 39.1482 227.349C39.2561 227.081 39.3982 226.729 39.5756 226.29C39.7696 225.834 39.9989 225.272 40.2261 224.605C40.4585 223.941 40.7563 223.196 40.999 222.343C41.1298 221.919 41.2657 221.476 41.4078 221.015C41.5479 220.552 41.6578 220.06 41.7917 219.557C42.0718 218.554 42.2773 217.459 42.5148 216.313C42.9266 214.009 43.2452 211.45 43.3541 208.749C43.4392 206.048 43.3043 203.474 43.0574 201.147C42.9028 199.987 42.7773 198.881 42.5688 197.86C42.4712 197.349 42.3976 196.851 42.2918 196.379C42.1828 195.909 42.078 195.457 41.9784 195.025C41.7979 194.156 41.5531 193.392 41.3694 192.713C41.19 192.031 41.0022 191.455 40.8414 190.986C40.6961 190.535 40.5789 190.173 40.4907 189.898C40.4129 189.648 40.3766 189.515 40.3859 189.512Z" fill="#185629"/>
<path d="M60.4887 181.92C60.4929 181.921 60.4897 181.965 60.4773 182.05C60.4617 182.151 60.442 182.274 60.4181 182.424C60.359 182.752 60.2853 183.24 60.1536 183.86C59.8942 185.101 59.4626 186.886 58.7914 189.052C58.1232 191.219 57.2061 193.759 56.1188 196.55C55.0367 199.342 53.7782 202.384 52.5862 205.623C51.3764 208.856 50.4448 212.011 49.5691 214.875C48.7008 217.74 47.878 220.312 47.0812 222.436C46.2938 224.563 45.5354 226.237 44.9627 227.368C44.6878 227.94 44.4409 228.365 44.2811 228.659C44.2064 228.791 44.1441 228.899 44.0933 228.988C44.0497 229.062 44.0259 229.098 44.0207 229.096C44.0165 229.094 44.0321 229.052 44.0674 228.975C44.112 228.882 44.1649 228.769 44.2302 228.632C44.3724 228.33 44.6037 227.897 44.8621 227.32C45.4026 226.176 46.1299 224.496 46.8914 222.366C47.6612 220.239 48.4621 217.667 49.316 214.798C50.1771 211.932 51.1046 208.766 52.3175 205.524C53.5116 202.277 54.7784 199.238 55.8729 196.454C56.9727 193.671 57.9064 191.144 58.5984 188.991C59.2925 186.839 59.7531 185.067 60.0447 183.836C60.192 183.221 60.2844 182.738 60.3611 182.414C60.3963 182.265 60.4254 182.144 60.4493 182.044C60.47 181.961 60.4835 181.919 60.4887 181.92Z" fill="#185629"/>
<path d="M19.1045 175.549C18.2589 174.709 16.8521 175.588 17.2027 176.728C17.5575 177.883 18.095 179.378 18.8887 181.064C20.7333 184.985 26.1531 199.053 28.6908 206.779C31.2275 214.505 34.8016 228.92 34.8016 228.92L40.2194 228.041C40.2194 228.041 35.2633 204.358 30.4203 195.824C26.5287 188.968 22.6371 179.059 19.1045 175.549Z" fill="#03BC37"/>
<path d="M30.1728 211.612C30.1915 211.606 30.289 211.837 30.4519 212.261C30.6117 212.686 30.8306 213.307 31.0764 214.08C31.5755 215.625 32.1855 217.784 32.8007 220.182C33.4139 222.581 33.9254 224.764 34.2823 226.346C34.4441 227.094 34.5811 227.723 34.689 228.223C34.7803 228.668 34.8207 228.916 34.801 228.92C34.7823 228.925 34.7045 228.686 34.5811 228.249C34.4483 227.755 34.2823 227.133 34.0852 226.394C33.6702 224.764 33.1255 222.622 32.5227 220.253C31.9085 217.858 31.3306 215.696 30.8824 214.139C30.6687 213.404 30.4882 212.787 30.3461 212.297C30.2164 211.863 30.1541 211.619 30.1728 211.612Z" fill="#185629"/>
<path d="M37.5239 228.481C37.5187 228.481 37.5083 228.432 37.4927 228.336C37.4761 228.224 37.4564 228.084 37.4315 227.91C37.3744 227.535 37.3236 226.979 37.2095 226.269C37.0103 224.846 36.6554 222.795 36.0734 220.294C35.4955 217.791 34.6521 214.848 33.5379 211.639C32.4267 208.429 31.0323 204.961 29.4533 201.372C26.2661 194.202 23.0831 187.843 20.9905 183.141C19.9333 180.795 19.1137 178.88 18.5753 177.546C18.3003 176.881 18.1032 176.358 17.9663 176.005C17.9051 175.84 17.8553 175.707 17.8159 175.601C17.7827 175.509 17.7692 175.462 17.7733 175.46C17.7775 175.458 17.8013 175.502 17.8428 175.59C17.8895 175.694 17.9476 175.823 18.0192 175.983C18.1789 176.351 18.3989 176.859 18.678 177.503C19.2486 178.822 20.0941 180.723 21.1753 183.056C23.3125 187.733 26.5234 194.076 29.7158 201.257C31.298 204.851 32.6872 208.33 33.788 211.553C34.8908 214.774 35.7166 217.733 36.2717 220.248C36.8299 222.763 37.1546 224.825 37.3206 226.255C37.4181 226.968 37.4503 227.527 37.4886 227.904C37.5021 228.079 37.5136 228.22 37.5218 228.333C37.528 228.431 37.528 228.481 37.5239 228.481Z" fill="#185629"/>
<path d="M40.219 228.04C40.1993 228.043 40.136 227.719 40.0364 227.13C39.9285 226.494 39.7864 225.654 39.6152 224.64C39.2417 222.541 38.6711 219.65 37.8515 216.503C37.0402 213.353 36.1261 210.552 35.4238 208.539C35.0783 207.569 34.792 206.767 34.5762 206.16C34.3728 205.599 34.2701 205.285 34.2877 205.277C34.3064 205.27 34.4444 205.57 34.6799 206.119C34.9133 206.669 35.2402 207.47 35.6136 208.47C36.3668 210.469 37.3151 213.271 38.1295 216.431C38.9512 219.588 39.4918 222.495 39.8144 224.606C39.969 225.664 40.0873 226.52 40.1474 227.114C40.2117 227.708 40.2387 228.038 40.219 228.04Z" fill="#185629"/>
<path d="M51.3389 227.262H30.1929V253.026H51.3389V227.262Z" fill="#F3725F"/>
<g opacity="0.3">
<path d="M51.3389 227.262H30.1929V253.026H51.3389V227.262Z" fill="black"/>
</g>
<path d="M44.593 227.262H25.8322V253.026H44.593V227.262Z" fill="#F3725F"/>
</g>
</svg>
