<svg width="108" height="88" viewBox="0 0 108 88" fill="none" xmlns="http://www.w3.org/2000/svg">
<path d="M74.8585 24.9816C74.5178 24.5762 74.0742 24.2101 73.9663 23.6918C73.8627 23.1935 74.1002 22.6974 74.2074 22.1995C74.5056 20.8136 73.637 19.2734 72.2964 18.8119C71.5263 18.5465 70.5369 18.5236 70.1458 17.8089C69.7611 17.107 70.249 16.2751 70.5355 15.5276C71.0102 14.2885 70.8848 12.8436 70.2301 11.6921C70.1376 11.4281 70.0287 11.1702 69.9022 10.922C68.8939 8.93564 66.8433 7.61584 64.7416 7.59976C64.4258 5.96991 63.0738 4.71154 61.5583 4.38293C61.5586 3.80428 61.4365 3.22207 61.174 2.71129C60.4192 1.24467 58.8172 0.353493 57.1888 0.0906028C54.8314 -0.289802 52.3107 0.54566 50.6473 2.25838C49.7479 3.18385 49.0199 4.3915 47.8012 4.81584C46.73 5.18875 45.5448 4.85191 44.4197 4.99765C42.9117 5.19303 41.6193 6.26495 40.846 7.5744C40.0727 8.88385 39.7538 10.4105 39.5748 11.9207C39.4109 13.3066 39.3026 14.8275 38.3414 15.839C37.4038 16.8252 35.9226 17.0342 34.7567 17.736C32.5625 19.0562 31.8517 22.3263 33.2994 24.4383C33.7609 25.1116 34.4231 25.7288 34.477 26.5439C34.526 27.2876 34.0452 27.9498 33.8202 28.6603C33.2404 30.4898 34.7378 32.6629 36.6537 32.7733C37.621 32.8287 38.6572 32.4518 39.5241 32.884C40.3853 33.3137 40.706 34.3521 41.2568 35.1411C42.3402 36.6934 44.6069 37.2785 46.3064 36.4452C47.0175 36.0962 47.6894 35.5204 48.4802 35.5737C49.2689 35.6269 49.89 36.3005 50.6662 36.4509C51.6828 36.6474 52.6475 35.8987 53.2519 35.0586C53.8559 34.2181 54.277 33.228 55.0503 32.5401C56.0633 31.6396 57.4856 31.4167 58.7672 30.9756C60.6057 30.3426 62.2405 29.1668 63.4717 27.6634L63.3464 34.7996C64.4047 34.7996 65.0234 34.4296 65.4181 33.8824C65.6392 34.0292 65.8738 34.1556 66.1271 34.2392C67.3765 34.6521 68.8649 34.186 69.6557 33.1341C70.0679 32.5854 70.324 31.8825 70.9084 31.5224C71.4181 31.2088 72.0568 31.2335 72.6454 31.1267C73.9395 30.8916 75.0764 29.9294 75.5222 28.6921C75.9669 27.4541 75.7054 25.9882 74.8585 24.9816Z" fill="#263238"/>
<path d="M50.8951 8.30365C49.416 9.2352 46.0591 13.3382 45.9934 14.5469L46.3385 39.0968C46.2838 40.9413 45.9684 42.5294 47.0468 44.0271C50.0393 47.6029 56.9655 48.0412 58.5486 45.0961C58.6704 44.8697 58.7593 44.6707 58.8022 44.5039C58.8529 44.2625 58.9225 44.1046 58.9411 43.8985C59.3705 41.82 59.3019 39.8176 59.3019 39.8176C59.5083 37.4177 59.5808 36.4326 59.5808 36.4554C59.5808 36.4554 64.7093 35.99 66.2495 29.4577C67.0157 26.2091 67.2504 20.807 67.2993 16.3811C67.3075 15.6339 67.1161 14.7652 66.7728 13.8468C64.869 8.75227 60.492 6.27982 55.2292 6.73202C53.9108 6.84489 51.8938 7.43497 50.8951 8.30365Z" fill="#FFBF9D"/>
<path d="M59.7517 25.6136C59.7514 25.5614 60.3253 25.5054 61.2533 25.4561C61.4876 25.4493 61.7119 25.4193 61.763 25.2635C61.8302 25.0989 61.7516 24.841 61.6587 24.5613C61.4816 23.9816 61.2962 23.3737 61.1012 22.7368C60.3321 20.1404 59.7935 18.0123 59.8985 17.9823C60.0032 17.9523 60.7118 20.0322 61.4812 22.6286C61.6655 23.2683 61.8416 23.8784 62.0088 24.462C62.0774 24.7331 62.207 25.0449 62.062 25.3853C61.9863 25.555 61.8059 25.6682 61.6534 25.6975C61.5005 25.7322 61.3694 25.7247 61.2537 25.7229C60.3253 25.704 59.7514 25.6654 59.7517 25.6136Z" fill="#263238"/>
<path d="M59.5811 36.455C59.5811 36.455 55.1127 36.4118 50.9036 33.4368C50.9036 33.4368 52.7899 38.1777 59.4518 38.0499L59.5811 36.455Z" fill="#FF9A6C"/>
<path d="M59.2031 27.7834C58.9074 27.3255 58.3498 27.0447 57.7747 27.0636C57.3757 27.0769 56.9618 27.238 56.6971 27.5426C56.4324 27.8473 56.3481 28.3009 56.5438 28.6246C56.7646 28.9889 57.2729 29.1071 57.7172 29.0157C58.1619 28.9242 58.558 28.6656 58.9349 28.4063C59.0392 28.3345 59.146 28.2599 59.2153 28.1559C59.2849 28.0523 59.3085 27.9116 59.2392 27.8166" fill="#FF9A6C"/>
<path d="M57.0201 26.0455C57.1691 26.0477 57.0973 27.0382 57.8927 27.804C58.6864 28.5716 59.7501 28.5391 59.7476 28.6777C59.7565 28.7409 59.4983 28.8527 59.0518 28.8316C58.6135 28.8145 57.9863 28.6266 57.4995 28.1579C57.0144 27.689 56.8348 27.0971 56.8308 26.6885C56.824 26.2716 56.953 26.0345 57.0201 26.0455Z" fill="#263238"/>
<path d="M56.8543 16.1285C56.7457 16.3696 55.8438 16.1846 54.764 16.2342C53.6828 16.2621 52.7966 16.5111 52.6712 16.2782C52.6159 16.1671 52.7834 15.9449 53.1502 15.731C53.5142 15.5166 54.0829 15.3298 54.7308 15.3063C55.3784 15.2838 55.9592 15.4291 56.3374 15.6167C56.7185 15.8042 56.9018 16.0135 56.8543 16.1285Z" fill="#263238"/>
<path d="M65.9489 16.1267C65.7425 16.3193 65.0088 16.0489 64.1084 15.9717C63.21 15.8685 62.4335 15.9874 62.2735 15.7574C62.2045 15.6463 62.3403 15.4481 62.6878 15.2766C63.0311 15.1055 63.5926 14.9862 64.2112 15.048C64.8292 15.1105 65.3517 15.3381 65.6496 15.5734C65.9525 15.8106 66.0411 16.0321 65.9489 16.1267Z" fill="#263238"/>
<path d="M47.3222 23.0812C47.3576 22.589 46.8747 21.3863 46.3939 21.2742C45.1105 20.9756 42.7631 20.9063 42.4966 24.2013C42.1326 28.7058 46.7303 28.1422 46.7486 28.0136C46.7628 27.9132 47.2001 24.7814 47.3222 23.0812Z" fill="#FFBF9D"/>
<path d="M45.5108 26.1963C45.4922 26.1802 45.4279 26.2449 45.2908 26.2949C45.1565 26.3434 44.9307 26.3663 44.7028 26.2591C44.241 26.0463 43.9017 25.2583 43.9452 24.4446C43.967 24.0339 44.0842 23.6502 44.2556 23.3384C44.42 23.0202 44.6514 22.8073 44.8947 22.7841C45.1372 22.748 45.2954 22.9052 45.3401 23.0362C45.3908 23.1673 45.3547 23.2548 45.3776 23.2645C45.3894 23.277 45.4804 23.197 45.4594 23.008C45.4479 22.9169 45.404 22.8066 45.3047 22.7112C45.204 22.6144 45.0486 22.5569 44.88 22.5615C44.5307 22.5576 44.1924 22.8519 44.0042 23.1938C43.7967 23.5359 43.6549 23.966 43.6306 24.4275C43.5863 25.3376 43.982 26.2242 44.6182 26.4653C44.9282 26.5735 45.2008 26.4995 45.3458 26.4042C45.494 26.3042 45.5258 26.2056 45.5108 26.1963Z" fill="#FF9A6C"/>
<path d="M45.5136 14.5467C45.4314 14.7574 45.5136 14.3206 45.5136 14.5467V14.5467Z" fill="#455A64"/>
<path d="M63.9787 8.2245C62.3024 7.09507 60.9251 5.79062 56.8314 5.78419C53.6699 5.7799 51.3557 7.61906 48.865 9.79184C45.666 12.5825 43.6386 17.1306 44.9874 21.1561L46.3311 21.6815L47.6081 18.594C49.8083 13.8077 54.3846 9.78219 59.3224 9.54574C59.8182 9.52216 60.2797 9.52609 60.6879 9.56752C63.9541 9.8947 67.3002 15.8405 67.3002 15.8405C67.3002 15.8405 67.906 10.8698 63.9787 8.2245Z" fill="#24ABE1"/>
<path d="M46.3386 21.6599C46.4108 22.5943 46.5544 23.4384 46.6262 24.3735C46.6569 24.7675 46.7565 25.2511 47.1373 25.3572C47.4095 25.4333 47.6999 25.2525 47.8434 25.0096C47.987 24.7667 48.0178 24.476 48.0453 24.1952C48.3228 21.3617 48.5593 19.2021 48.8375 16.3689C48.0196 17.5044 47.1819 19.4611 46.3386 21.6599Z" fill="#263238"/>
<path d="M45.5926 28.7611C45.6011 28.7604 45.619 28.8515 45.5597 28.9997C45.5033 29.1472 45.349 29.3394 45.09 29.4616C44.8335 29.5866 44.4681 29.6162 44.1131 29.4873C43.7612 29.3641 43.4062 29.0726 43.2619 28.6486C43.1176 28.2304 43.1844 27.7835 43.3766 27.4577C43.5702 27.1256 43.8809 26.9363 44.1477 26.8573C44.4181 26.7744 44.6514 26.7905 44.8014 26.823C44.9532 26.8573 45.0271 26.9023 45.0232 26.912C45.02 26.9491 44.6828 26.8034 44.1895 26.9816C43.9506 27.0691 43.6852 27.2495 43.5255 27.542C43.3648 27.8307 43.3123 28.2257 43.4373 28.5872C43.5602 28.9497 43.863 29.2076 44.1727 29.3262C44.4846 29.4484 44.8053 29.4359 45.0378 29.3401C45.2743 29.2458 45.4254 29.0905 45.4947 28.9672C45.5679 28.8444 45.5761 28.7586 45.5926 28.7611Z" fill="#E0E0E0"/>
<path d="M55.0884 10.6732C55.0884 10.6732 58.6495 11.6558 59.8543 11.2832C61.2106 10.8635 61.8017 9.82341 61.8017 9.82341C61.8017 9.82341 59.036 8.6029 55.0884 10.6732Z" fill="#263238"/>
<path d="M74.8523 19.818C74.8394 19.8048 75.0191 19.6833 75.2284 19.3633C75.4352 19.0508 75.6645 18.51 75.6077 17.817C75.561 17.1312 75.1466 16.3326 74.3929 15.7732C73.6439 15.2078 72.5702 14.9392 71.4526 15.016L71.2968 15.0267L71.3658 14.8859C71.7276 14.1512 72.0659 13.3347 72.2027 12.4496C72.3098 11.7441 72.2734 11.0305 72.0641 10.394C71.8573 9.75674 71.4611 9.21988 70.9936 8.8184C70.0453 8.0083 68.9044 7.71183 67.9736 7.63254C67.0309 7.55146 66.2605 7.63897 65.7336 7.69683C65.4857 7.72755 65.2843 7.75291 65.1253 7.77291C64.9864 7.79113 64.9125 7.7972 64.9114 7.79113C64.9103 7.78506 64.9818 7.76613 65.1189 7.73613C65.2564 7.70684 65.4597 7.66719 65.7233 7.62504C66.2498 7.54467 67.0231 7.4368 67.9839 7.50145C68.9319 7.5661 70.1117 7.85292 71.1047 8.68874C71.5944 9.10165 72.0166 9.66601 72.2366 10.3368C72.4588 11.0047 72.4966 11.7477 72.3859 12.4778C72.2445 13.3929 71.8955 14.2255 71.5269 14.9663L71.4408 14.8363C72.5924 14.762 73.7079 15.0474 74.4862 15.6489C75.267 16.2418 75.6888 17.0869 75.722 17.8081C75.7649 18.5346 75.5074 19.0876 75.2791 19.3983C75.0473 19.7166 74.8523 19.818 74.8523 19.818Z" fill="#263238"/>
<path d="M37.8752 27.4149C37.8748 27.4181 37.8416 27.4192 37.7773 27.4178C37.7019 27.4149 37.6076 27.4114 37.4908 27.4071C37.2397 27.3942 36.8686 27.3749 36.3925 27.3192C35.9182 27.2599 35.3324 27.1681 34.6887 26.9284C34.0547 26.6856 33.3403 26.2848 32.817 25.5772C32.2902 24.8685 32.0952 23.8809 32.1352 22.8736C32.152 22.3668 32.2123 21.8471 32.287 21.3163C32.3627 20.7877 32.4366 20.2329 32.6259 19.6864C32.812 19.1442 33.1342 18.6074 33.6421 18.2491C34.1558 17.8723 34.8273 17.8491 35.4309 17.8587C36.0367 17.8655 36.6872 17.883 37.1822 17.524C37.6719 17.1679 37.9223 16.5364 37.9795 15.9128C38.0406 15.277 37.9409 14.6383 37.9084 13.9997C37.8713 13.3596 37.9045 12.7263 37.987 12.1116C38.1495 10.8811 38.536 9.72841 39.0811 8.72649C39.6243 7.72423 40.3266 6.87305 41.1063 6.22475C41.8846 5.5711 42.7329 5.1239 43.5438 4.83743C45.1743 4.2495 46.622 4.31558 47.5553 4.49596C48.4987 4.6892 48.9698 4.94887 48.9698 4.94887C48.9684 4.95173 48.9362 4.94316 48.8748 4.92351C48.8037 4.89958 48.7148 4.86923 48.604 4.83172C48.3669 4.75171 48.0104 4.64848 47.5421 4.5674C46.6141 4.41059 45.1872 4.36666 43.588 4.96138C42.7929 5.25141 41.9636 5.69754 41.2053 6.34298C40.4448 6.98377 39.7604 7.82245 39.2314 8.80829C38.701 9.79342 38.3245 10.9271 38.1674 12.1355C38.0877 12.7391 38.0556 13.3614 38.0934 13.9893C38.1249 14.6162 38.2281 15.263 38.1649 15.9306C38.1031 16.5889 37.8427 17.2701 37.2908 17.674C37.0154 17.8684 36.6893 17.9752 36.3707 18.0112C36.0507 18.0505 35.736 18.0437 35.4292 18.0405C34.823 18.0302 34.2079 18.0548 33.7432 18.3949C33.2764 18.7213 32.9674 19.2243 32.7874 19.7429C32.6031 20.2658 32.527 20.8105 32.4491 21.3388C32.3716 21.8671 32.3091 22.3807 32.2895 22.8786C32.2438 23.8684 32.427 24.8175 32.9238 25.5004C33.4178 26.1833 34.1076 26.5848 34.7262 26.8316C35.3538 27.0759 35.9317 27.1777 36.4018 27.2474C36.8736 27.3142 37.2433 27.3446 37.4937 27.3699C37.6098 27.3817 37.7037 27.3917 37.7787 27.3989C37.8423 27.406 37.8752 27.4114 37.8752 27.4149Z" fill="#263238"/>
<path d="M49.3163 9.79484C49.326 9.80305 49.2221 9.947 49.0267 10.1981C48.9277 10.3228 48.8081 10.476 48.6791 10.6621C48.5491 10.8468 48.3912 11.05 48.2405 11.2907C47.9212 11.7608 47.5772 12.3434 47.2322 13.0095C46.8964 13.6803 46.5653 14.4365 46.2838 15.2548C46.0091 16.0763 45.812 16.8782 45.6702 17.6144C45.5391 18.3527 45.4577 19.0249 45.4251 19.5921C45.398 19.875 45.3998 20.1322 45.3905 20.358C45.3798 20.5841 45.3812 20.7784 45.3841 20.9373C45.3862 21.2559 45.3812 21.4327 45.3684 21.4338C45.3559 21.4345 45.3362 21.2591 45.3119 20.9402C45.2976 20.7805 45.2855 20.5851 45.2866 20.358C45.2855 20.1304 45.2751 19.8715 45.2937 19.5854C45.3098 19.0124 45.378 18.3323 45.5016 17.5844C45.6352 16.8382 45.8298 16.0256 46.1074 15.1952C46.3921 14.3676 46.7317 13.6042 47.0796 12.9309C47.4368 12.2623 47.7965 11.6808 48.1319 11.2164C48.2909 10.9782 48.4573 10.7785 48.5963 10.5989C48.7338 10.4178 48.8624 10.2699 48.9706 10.152C49.1845 9.91378 49.3067 9.78627 49.3163 9.79484Z" fill="#263238"/>
<path d="M52.9188 8.08718C52.9267 8.09718 52.772 8.24434 52.4855 8.50152C52.3409 8.62832 52.1655 8.78619 51.9723 8.97943C51.7776 9.17124 51.5468 9.37984 51.315 9.6338C50.8343 10.1249 50.2981 10.7439 49.7416 11.4608C49.1948 12.1848 48.6329 13.0117 48.1139 13.9215C47.6024 14.8362 47.1849 15.7442 46.847 16.5865C46.5209 17.4337 46.2676 18.2127 46.0955 18.8778C45.9972 19.2075 45.9379 19.5129 45.8744 19.7783C45.8083 20.0437 45.764 20.2751 45.7304 20.4644C45.6579 20.8424 45.6118 21.0513 45.5993 21.0495C45.5865 21.0477 45.6082 20.8356 45.659 20.4523C45.6822 20.2605 45.7161 20.0265 45.7726 19.7576C45.8265 19.4886 45.8776 19.1793 45.9679 18.8453C46.1247 18.1713 46.3669 17.3819 46.6873 16.5247C47.0191 15.6717 47.4363 14.753 47.9521 13.83C48.4758 12.9121 49.0469 12.0805 49.6059 11.3558C50.1749 10.6389 50.7257 10.0238 51.2215 9.54164C51.4604 9.29161 51.6994 9.08802 51.9015 8.90299C52.1026 8.71583 52.2852 8.56581 52.4377 8.44687C52.7402 8.20576 52.9102 8.07753 52.9188 8.08718Z" fill="#263238"/>
<path d="M40.2903 29.3067C40.2921 29.3096 40.2592 29.3328 40.1931 29.3763C40.1281 29.4224 40.027 29.4828 39.8867 29.5482C39.6084 29.6796 39.163 29.8321 38.5693 29.8318C37.9832 29.8303 37.2392 29.68 36.5427 29.1952C35.8465 28.7177 35.2671 27.8712 35.0375 26.8342C34.925 26.3163 34.8964 25.7523 34.9842 25.1783C35.0757 24.6057 35.275 24.0267 35.5872 23.4867C35.8969 22.9459 36.3058 22.4373 36.8027 21.9979C37.2949 21.5507 37.8889 21.1992 38.4943 20.8703C39.0948 20.5349 39.7198 20.1923 40.201 19.6712C40.691 19.1586 41.0122 18.4868 41.2111 17.7749C41.4051 17.058 41.4886 16.299 41.5279 15.5271C41.5683 14.7563 41.5636 13.9637 41.6429 13.1643C41.7169 12.3663 41.8651 11.5723 42.1773 10.8433C42.4777 10.1093 43.0013 9.47955 43.6403 9.05307C44.2779 8.62051 44.9941 8.36869 45.6902 8.1676C46.39 7.96864 47.0815 7.8147 47.7369 7.61074C48.3913 7.40858 49.0146 7.15247 49.5336 6.77314C49.6632 6.67813 49.7925 6.58526 49.9001 6.46917C50.0136 6.35951 50.1294 6.25343 50.2247 6.1302C50.4208 5.88838 50.5859 5.62656 50.7412 5.36332C51.0513 4.83789 51.3345 4.3014 51.7353 3.8742C52.1332 3.44843 52.6061 3.13447 53.0919 2.92122C54.0702 2.50046 55.0918 2.48974 55.8897 2.75299C56.6956 3.01052 57.2821 3.47772 57.675 3.91171C58.0718 4.35033 58.2797 4.76681 58.3972 5.05078C58.5151 5.33688 58.5401 5.49905 58.5401 5.49905C58.5279 5.50298 58.4904 5.34403 58.3626 5.06578C58.2354 4.78896 58.0197 4.38426 57.6217 3.96064C57.2274 3.54166 56.6459 3.09339 55.8583 2.85228C55.08 2.60547 54.0895 2.62619 53.1444 3.04124C52.6754 3.25162 52.2207 3.5588 51.8407 3.97135C51.4592 4.38283 51.1834 4.90897 50.8738 5.44118C50.718 5.70764 50.5509 5.97732 50.3476 6.23021C50.2487 6.3588 50.129 6.47131 50.0108 6.58597C49.8979 6.70777 49.764 6.80528 49.6297 6.9053C49.0907 7.30213 48.4495 7.56681 47.7873 7.77433C47.1233 7.98293 46.4307 8.13938 45.7388 8.33834C45.0494 8.53872 44.3522 8.78768 43.7421 9.20308C43.1313 9.61278 42.6363 10.2086 42.3466 10.9162C42.0466 11.6187 41.9001 12.3942 41.8276 13.1818C41.7487 13.9705 41.7533 14.757 41.7119 15.5371C41.6722 16.3151 41.5865 17.0869 41.3861 17.8231C41.1811 18.5546 40.8453 19.2558 40.3299 19.7926C39.8213 20.3388 39.1776 20.6863 38.5768 21.0199C37.9682 21.3482 37.3928 21.6865 36.9106 22.1204C36.4244 22.5462 36.0244 23.0398 35.7201 23.5635C35.4143 24.0867 35.2179 24.6475 35.1253 25.2008C35.0371 25.7555 35.0603 26.3027 35.1657 26.8067C35.3804 27.8147 35.934 28.6409 36.6023 29.1106C37.2717 29.5889 37.9957 29.7475 38.569 29.7596C39.1501 29.7707 39.5909 29.6332 39.8706 29.5139C40.1538 29.3963 40.2828 29.2938 40.2903 29.3067Z" fill="#455A64"/>
<path d="M64.9105 21.383C64.9283 21.8531 64.545 22.2553 64.0546 22.2831C63.5653 22.3103 63.1534 21.9527 63.1356 21.483C63.1181 21.0133 63.5013 20.61 63.9907 20.5825C64.4811 20.555 64.8929 20.9133 64.9105 21.383Z" fill="#263238"/>
<path d="M65.6629 18.6687C65.5529 18.7848 64.8778 18.288 63.9199 18.2922C62.963 18.2833 62.2614 18.7769 62.1571 18.6601C62.1061 18.6084 62.2182 18.3987 62.5236 18.1754C62.8244 17.9529 63.3373 17.7361 63.9338 17.7368C64.5307 17.739 65.0329 17.9572 65.3215 18.1815C65.6169 18.4073 65.7172 18.6169 65.6629 18.6687Z" fill="#263238"/>
<path d="M56.6196 21.3834C56.6371 21.8531 56.2538 22.2556 55.7634 22.2831C55.2744 22.3103 54.8622 21.9527 54.8443 21.483C54.8268 21.0133 55.2101 20.6104 55.6998 20.5825C56.1898 20.555 56.6017 20.9137 56.6196 21.3834Z" fill="#263238"/>
<path d="M56.5957 18.6687C56.4854 18.7852 55.8092 18.288 54.8523 18.2922C53.8957 18.2833 53.1939 18.7773 53.0896 18.6601C53.0385 18.6084 53.1496 18.399 53.4561 18.1754C53.7568 17.9529 54.2701 17.7361 54.8666 17.7368C55.4627 17.739 55.9649 17.9572 56.2543 18.1815C56.5489 18.4073 56.6493 18.6169 56.5957 18.6687Z" fill="#263238"/>
<path d="M72.8441 48.6419C68.71 43.6116 65.136 42.8972 65.136 42.8972L65.1599 60.8463L78.3387 77.5144L83.7001 63.7963C83.7001 63.7963 75.6448 52.0501 72.8441 48.6419Z" fill="#24ABE1"/>
<path d="M59.2811 41.4759L65.189 42.91C65.189 42.91 68.2394 60.6012 67.1329 65.1771C66.1913 69.0705 63.1702 87.0367 63.1702 87.0367H26.7456L38.95 51.9758C38.95 51.9758 39.0204 44.268 37.1366 40.7065C38.2785 40.4318 42.1354 39.7221 45.4683 39.0967C45.4683 39.0967 47.684 41.862 52.8989 42.6521C58.1139 43.4422 59.2811 41.4759 59.2811 41.4759Z" fill="#24ABE1"/>
<path d="M66.5124 56.2932H43.6277C41.6271 67.9975 36.7583 72.4849 28.1704 79.2604L26.7463 87.0367H63.1706L65.2844 74.8191L65.1601 70.3196L66.5124 56.2932Z" fill="#455A64"/>
<path d="M38.0145 40.5339C38.0145 40.5339 29.3109 41.2312 26.188 55.4908C24.7757 61.9406 22.9908 69.4994 22.4761 74.5797C22.1029 78.264 23.4209 83.3568 26.9631 84.2005L33.3961 85.021C36.2697 85.0638 38.2413 82.7289 38.8464 80.2264L39.8497 76.2488C40.5413 71.385 36.8383 70.9635 34.7559 71.0085L39.3358 52.8962L40.2227 44.1322L38.0145 40.5339Z" fill="#24ABE1"/>
<path d="M67.7448 52.6628C67.7494 52.6621 67.763 52.7307 67.7844 52.8618C67.8066 53.0065 67.8355 53.1976 67.8719 53.4365C67.8901 53.563 67.9101 53.7015 67.9319 53.8523C67.9477 54.0062 67.9644 54.172 67.9827 54.3495C68.0187 54.7067 68.0623 55.1132 68.0809 55.5643C68.147 56.4651 68.1459 57.5427 68.1023 58.7361C68.052 59.9298 67.9166 61.2379 67.7173 62.6009C67.5169 63.9646 67.2658 65.2537 67.0104 66.4192C66.7597 67.5862 66.5028 68.6295 66.2864 69.5053C66.0649 70.3797 65.8813 71.0862 65.7481 71.5724C65.6831 71.8053 65.6317 71.9914 65.5924 72.1321C65.5552 72.2596 65.5334 72.326 65.5288 72.325C65.5241 72.3235 65.5366 72.255 65.5652 72.1249C65.5981 71.9828 65.6413 71.7942 65.6952 71.5592C65.8156 71.0537 65.9842 70.3476 66.1906 69.4818C66.395 68.6038 66.6418 67.5586 66.8847 66.3924C67.1326 65.2269 67.3797 63.9403 67.579 62.5802C67.778 61.2211 67.9166 59.9188 67.9737 58.7297C68.0241 57.5413 68.0355 56.468 67.9819 55.5689C67.9694 55.1189 67.933 54.7131 67.9044 54.3563C67.8901 54.1788 67.8773 54.0127 67.8655 53.8591C67.848 53.708 67.8319 53.5687 67.8176 53.4426C67.7919 53.2022 67.7716 53.0104 67.7559 52.865C67.7441 52.7332 67.7398 52.6636 67.7448 52.6628Z" fill="#263238"/>
<path d="M27.8834 76.01C27.8759 76.0082 27.8945 75.8796 27.9524 75.6514C28.0095 75.4231 28.1152 75.0977 28.2885 74.7134C28.6289 73.9469 29.3015 72.9442 30.3512 72.1795C31.4017 71.4151 32.5629 71.0836 33.397 70.9954C33.8163 70.9483 34.1581 70.9479 34.3928 70.9636C34.6275 70.9786 34.7561 71.0004 34.7553 71.0083C34.7546 71.0372 34.2342 70.9758 33.4095 71.0929C32.5908 71.2047 31.4603 71.5448 30.433 72.292C29.4065 73.0393 28.7357 74.0108 28.377 74.7552C28.0127 75.5042 27.9109 76.0186 27.8834 76.01Z" fill="#263238"/>
<path d="M29.8958 68.9074C29.8958 68.8977 29.9704 68.8909 30.1061 68.8874C30.2415 68.882 30.4383 68.8899 30.6794 68.9127C31.1627 68.9581 31.8278 69.0931 32.5161 69.3753C33.204 69.6592 33.7719 70.0311 34.1466 70.3386C34.3345 70.4922 34.4799 70.6251 34.5721 70.724C34.666 70.8219 34.7142 70.8794 34.7078 70.8862C34.6914 70.903 34.4727 70.7001 34.0866 70.4168C33.7016 70.1329 33.1376 69.7825 32.4629 69.5039C31.7878 69.2274 31.1405 69.0795 30.6673 69.0102C30.194 68.9406 29.8954 68.9306 29.8958 68.9074Z" fill="#263238"/>
<path d="M38.9056 50.4419C38.8959 50.4415 38.8888 50.3055 38.8841 50.0608C38.8823 49.8157 38.8684 49.4614 38.8384 49.0256C38.7802 48.1537 38.618 46.9518 38.2594 45.667C37.8969 44.3829 37.41 43.2724 37.0057 42.4973C36.8046 42.1094 36.6317 41.7994 36.5063 41.5893C36.3824 41.3779 36.3177 41.2582 36.3256 41.2529C36.3335 41.2475 36.4138 41.3575 36.5521 41.5608C36.6928 41.7626 36.8789 42.0662 37.0928 42.4509C37.5215 43.2185 38.028 44.3336 38.3937 45.6295C38.7559 46.9257 38.9038 48.1413 38.937 49.0199C38.9545 49.4593 38.9534 49.8161 38.9388 50.0615C38.9266 50.3069 38.9152 50.4423 38.9056 50.4419Z" fill="#263238"/>
<g opacity="0.3">
<path d="M67.3442 64.6354C69.5648 60.875 69.6123 55.9883 67.6749 52.0742C68.2529 56.2422 68.2057 60.5146 67.2788 64.619" fill="black"/>
</g>
<path d="M37.2329 83.4498C37.2186 83.4377 37.0815 83.6316 36.7571 83.8995C36.4307 84.162 35.891 84.4674 35.1641 84.6596C34.4397 84.8589 33.536 84.9411 32.5427 84.8903C31.5486 84.8185 30.4521 84.7025 29.3123 84.5328C28.1761 84.3563 27.0845 84.1517 26.1594 83.8063C25.7054 83.6177 25.3243 83.3291 25.0007 83.033C24.6778 82.7329 24.4106 82.4172 24.1905 82.1125C23.7491 81.5028 23.474 80.953 23.3012 80.5687C23.2183 80.3748 23.1533 80.224 23.1147 80.1197C23.074 80.0161 23.0497 79.9626 23.0454 79.9636C23.0411 79.9647 23.0558 80.0219 23.0883 80.1287C23.1186 80.2365 23.1754 80.3912 23.2511 80.5898C23.4101 80.9831 23.6737 81.5446 24.1105 82.17C24.3281 82.4825 24.5952 82.8072 24.9217 83.1169C25.2493 83.4234 25.6375 83.7238 26.109 83.9241C27.0598 84.2867 28.1471 84.4921 29.2912 84.6707C30.4374 84.8407 31.5326 84.9532 32.5359 85.0186C33.5417 85.0629 34.4561 84.9696 35.1902 84.755C35.9267 84.5471 36.4707 84.222 36.7914 83.9416C36.9479 83.7956 37.0657 83.6798 37.1311 83.588C37.2015 83.4994 37.2368 83.4523 37.2329 83.4498Z" fill="#263238"/>
<path d="M36.7566 62.9725C37.8512 58.5682 38.7083 54.9903 38.6709 54.981C38.6336 54.9717 37.716 58.5346 36.6214 62.9389C35.5268 67.3432 34.6697 70.9211 34.707 70.9304C34.7443 70.9397 35.662 67.3768 36.7566 62.9725Z" fill="#263238"/>
<path d="M39.7776 75.0958C39.7865 75.0965 39.8036 74.9926 39.8218 74.8032C39.8379 74.6139 39.8636 74.3382 39.8404 73.9939C39.8204 73.6506 39.7036 73.2348 39.4493 72.8526C39.3229 72.6626 39.1832 72.4683 39.0025 72.2915C38.8239 72.1147 38.6113 71.9636 38.3842 71.8311C37.4573 71.3271 36.5236 71.1164 35.8506 71.0135C35.5127 70.9653 35.237 70.947 35.0466 70.942C34.8562 70.937 34.7508 70.9445 34.7505 70.9528C34.7491 70.976 35.1698 70.9917 35.8349 71.1106C36.4936 71.2357 37.4165 71.4625 38.3145 71.9514C38.5338 72.0793 38.7374 72.2233 38.9074 72.389C39.0778 72.5526 39.2171 72.7419 39.3418 72.9227C39.5915 73.287 39.7097 73.671 39.7422 74.0031C39.7776 74.3357 39.7672 74.6107 39.7676 74.8C39.7661 74.99 39.7679 75.0954 39.7776 75.0958Z" fill="#263238"/>
<path d="M57.3797 74.5959C57.3745 74.5986 57.3692 74.6012 57.3633 74.6038C57.3685 74.6015 57.3745 74.5989 57.3797 74.5959Z" fill="#FFBF9D"/>
<path d="M57.2836 74.6411C57.2711 74.6475 57.2597 74.6529 57.2483 74.6582C57.2583 74.6536 57.2697 74.6479 57.2836 74.6411Z" fill="#FFBF9D"/>
<path d="M57.3633 74.604C57.3323 74.6186 57.3051 74.6319 57.2837 74.6415C57.3112 74.6286 57.3394 74.6151 57.3633 74.604Z" fill="#FFBF9D"/>
<path d="M57.4139 74.5796C57.4008 74.5864 57.3908 74.5906 57.3787 74.5963C57.3997 74.5864 57.4139 74.5796 57.4139 74.5796Z" fill="#FFBF9D"/>
<path d="M65.5897 82.0897C64.891 80.7684 59.43 77.2826 59.43 77.2826L60.9084 76.9412L62.54 77.6316C62.54 77.6316 62.6422 78.3045 63.2426 79.1604C63.843 80.0162 64.8614 79.1311 64.8614 79.1311L64.1717 75.8253L60.9427 73.8818C60.9427 73.8818 57.9044 74.3462 57.414 74.5798L56.1189 75.7653C55.5502 76.2107 53.9093 77.9674 53.4607 78.0206C53.0117 78.0734 38.917 74.9027 38.917 74.9027C36.9847 76.4329 35.9663 79.4736 35.6595 81.6664C35.6595 81.6664 35.3159 82.744 35.6898 83.3284L52.9924 84.6864L56.6586 85.6994C56.6586 85.6994 58.687 86.5277 59.6711 86.7345C60.8912 86.9906 61.7128 86.5974 61.7456 85.9223C61.7785 85.2472 60.8323 85.174 60.8323 85.174C60.8323 85.174 59.2928 84.6171 58.4745 84.1371C57.6562 83.657 57.1433 82.6769 57.1433 82.6769L58.4506 82.8333C58.4506 82.8333 61.2295 84.7621 62.2743 85.3279C63.319 85.8937 63.5251 84.8557 63.6094 84.5389C63.6934 84.2224 60.4883 81.087 60.4883 81.087C60.4883 81.087 63.5359 82.9662 64.0842 83.4402C64.6324 83.9142 65.445 84.0563 65.619 83.7381C65.794 83.4202 66.2887 83.4113 65.5897 82.0897Z" fill="#FFBF9D"/>
<path d="M57.2484 74.6587C57.2356 74.6647 57.2256 74.6694 57.2178 74.6733C57.2263 74.6694 57.2367 74.6644 57.2484 74.6587Z" fill="#FFBF9D"/>
<path d="M57.2021 74.6814C57.1957 74.6842 57.1957 74.6842 57.2021 74.6814V74.6814Z" fill="#FFBF9D"/>
<path d="M57.2178 74.6733C57.2102 74.677 57.2043 74.6799 57.2007 74.6814C57.204 74.6799 57.2098 74.6773 57.2178 74.6733Z" fill="#FFBF9D"/>
<path d="M50.5521 82.3946C50.5435 82.395 50.5382 82.3193 50.536 82.1803C50.5314 82.1107 50.5389 82.0264 50.5528 81.9289C50.5621 81.8303 50.5793 81.7192 50.6128 81.5992C50.7221 81.1127 51.0347 80.4865 51.4983 79.8925C51.9619 79.2964 52.4609 78.8288 52.8313 78.507C53.2035 78.1859 53.45 78.0076 53.4603 78.0201C53.4728 78.0348 53.2467 78.2373 52.8924 78.5741C52.5395 78.9113 52.0555 79.3846 51.5997 79.9708C51.1436 80.5558 50.8286 81.1559 50.7 81.6231C50.5646 82.0882 50.5789 82.3953 50.5521 82.3946Z" fill="#FF9A6C"/>
<path d="M59.3039 77.1794C59.3093 77.2112 58.8739 77.2662 58.3724 77.0959C57.8691 76.929 57.5551 76.6222 57.5784 76.6001C57.6016 76.569 57.9355 76.8169 58.4127 76.9741C58.8882 77.1366 59.3039 77.1409 59.3039 77.1794Z" fill="#FF9A6C"/>
<path d="M58.8224 80.2989C59.5767 80.6093 60.1992 80.8344 60.2126 80.8018C60.2261 80.7691 59.6254 80.491 58.871 80.1806C58.1167 79.8703 57.4942 79.6451 57.4808 79.6778C57.4674 79.7104 58.068 79.9885 58.8224 80.2989Z" fill="#FF9A6C"/>
<path d="M57.2834 82.6474C57.2662 82.6796 56.9562 82.5456 56.5704 82.3952C56.185 82.2438 55.8661 82.1327 55.8757 82.0974C55.8836 82.0638 56.2236 82.1216 56.6172 82.2759C57.0108 82.4292 57.2998 82.6174 57.2834 82.6474Z" fill="#FF9A6C"/>
<path d="M59.7615 81.0395C59.7754 81.0749 59.459 81.1924 59.2225 81.5103C58.9785 81.8228 58.95 82.1593 58.9125 82.1554C58.8968 82.155 58.8803 82.0689 58.9021 81.93C58.9228 81.7921 58.9903 81.6046 59.1207 81.4324C59.2514 81.2613 59.4143 81.1456 59.5418 81.0891C59.6697 81.0316 59.7569 81.0245 59.7615 81.0395Z" fill="#FF9A6C"/>
<path d="M61.0442 79.0196C61.061 79.0531 60.8221 79.1824 60.6645 79.4592C60.5006 79.7329 60.5056 80.0043 60.4677 80.0061C60.4352 80.0179 60.3674 79.7096 60.5534 79.3946C60.7367 79.0781 61.0385 78.9856 61.0442 79.0196Z" fill="#FF9A6C"/>
<path d="M60.6093 75.4115C60.5951 75.4187 60.545 75.3587 60.5072 75.2397C60.469 75.1222 60.4518 74.9447 60.4968 74.7582C60.5422 74.5721 60.6383 74.4221 60.7261 74.3349C60.8144 74.2467 60.8862 74.216 60.8958 74.2285C60.9204 74.2564 60.6983 74.4517 60.6215 74.7882C60.5358 75.1225 60.644 75.3979 60.6093 75.4115Z" fill="#FF9A6C"/>
<path d="M35.5368 83.8238C35.5465 83.8235 35.5543 83.682 35.56 83.4263C35.5615 83.2988 35.565 83.1423 35.5782 82.9616C35.59 82.7805 35.5943 82.574 35.6208 82.3472C35.6997 81.4403 35.9019 80.1877 36.3762 78.88C36.617 78.2285 36.902 77.6302 37.196 77.1055C37.3545 76.8505 37.4942 76.6001 37.6535 76.3847C37.7299 76.2757 37.8042 76.17 37.8757 76.0679C37.9525 75.9711 38.0268 75.8778 38.0978 75.7882C38.6722 75.0813 39.113 74.7198 39.0923 74.697C39.0858 74.6895 38.9758 74.7788 38.7815 74.9466C38.6826 75.0288 38.5661 75.1345 38.4418 75.2681C38.315 75.3996 38.165 75.5442 38.0221 75.725C37.9478 75.8139 37.8703 75.9064 37.7907 76.0021C37.7135 76.1011 37.6392 76.2086 37.5592 76.3179C37.3938 76.5329 37.2492 76.7837 37.0852 77.0401C36.7813 77.568 36.4891 78.172 36.2455 78.8318C35.7654 80.1544 35.5768 81.4239 35.5229 82.339C35.5025 82.568 35.5047 82.7758 35.5004 82.958C35.4943 83.1402 35.499 83.297 35.5057 83.4256C35.5165 83.6831 35.5272 83.8242 35.5368 83.8238Z" fill="#263238"/>
<g opacity="0.3">
<path d="M47.5237 58.7052V59.176L44.8919 59.3471L43.5585 48.7461C43.5585 48.7461 42.992 45.1792 42.6255 43.8791C42.2587 42.5789 40.6946 39.9921 40.6946 39.9921L41.8529 39.7732L44.1089 43.4454L47.5237 58.7052Z" fill="black"/>
</g>
<path d="M47.8703 58.6897C47.8703 58.6897 46.7033 48.8445 45.6018 44.9119C44.4998 40.9792 42.7814 39.5776 42.7814 39.5776L41.0862 39.8966C41.0862 39.8966 42.7735 41.9508 43.4268 45.5716C44.0801 49.1921 45.301 58.8079 45.301 58.8079L47.8703 58.6897Z" fill="#455A64"/>
<path d="M47.8702 58.6896C47.8731 58.6921 47.8199 58.6971 47.7124 58.705C47.5923 58.7128 47.432 58.7239 47.2269 58.7375C46.778 58.7639 46.1343 58.8018 45.3031 58.8503L45.2642 58.8528L45.2585 58.8128C45.0109 57.023 44.6373 54.3223 44.1805 51.0222C43.9401 49.3691 43.6851 47.5621 43.3515 45.6594C43.1854 44.7111 42.92 43.7538 42.556 42.8094C42.1884 41.8693 41.7245 40.9331 41.113 40.0844L41.0144 39.9551L40.9211 39.8322L41.069 39.8047C41.6502 39.6954 42.2231 39.5879 42.7642 39.4861L42.8096 39.4775L42.84 39.5054C43.3768 40.0005 43.779 40.5748 44.1366 41.1649C44.4905 41.756 44.7841 42.3675 45.037 42.9805C45.5364 44.2103 45.8575 45.4497 46.1007 46.6313C46.5851 48.9962 46.9015 51.1319 47.1605 52.9189C47.4155 54.707 47.5956 56.1493 47.7127 57.1444C47.767 57.633 47.8095 58.0159 47.8399 58.2899C47.8513 58.4131 47.8606 58.5114 47.8674 58.5882C47.872 58.6596 47.8724 58.6914 47.8702 58.6896C47.8685 58.6875 47.8606 58.6514 47.8492 58.5892C47.8374 58.5131 47.8227 58.416 47.8042 58.2942C47.7659 58.0217 47.7124 57.6398 47.6441 57.1537C47.5056 56.1614 47.3066 54.7216 47.0351 52.9374C46.7601 51.1544 46.4304 49.0216 45.9375 46.6659C45.6903 45.489 45.3678 44.2639 44.8713 43.0487C44.6202 42.4433 44.3291 41.8403 43.9801 41.2595C43.6315 40.6834 43.2229 40.1094 42.7228 39.649L42.7985 39.6686C42.2574 39.7704 41.6845 39.8783 41.1037 39.988L41.158 39.8376L41.2626 39.9747C41.8891 40.8445 42.356 41.7896 42.7278 42.7437C43.095 43.6995 43.3618 44.67 43.5272 45.628C43.8576 47.5382 44.1055 49.3445 44.3376 51.0004C44.7923 54.3119 45.1306 57.0233 45.3435 58.8021L45.2988 58.765C46.12 58.7378 46.7555 58.7168 47.1987 58.7025C47.4088 58.6967 47.5727 58.6928 47.6956 58.6896C47.8081 58.6871 47.867 58.6871 47.8702 58.6896Z" fill="#263238"/>
<path d="M65.1357 42.8975C65.1357 42.8975 65.5279 53.6592 64.1792 59.1764L61.6074 59.0946C61.6074 59.0946 63.5184 45.7118 63.2666 42.3735C63.2666 42.3735 64.3485 42.3696 65.1357 42.8975Z" fill="#455A64"/>
<path d="M65.1362 42.8974C65.1262 42.9035 64.9912 42.807 64.6847 42.682C64.38 42.5638 63.9003 42.4263 63.267 42.4141L63.3074 42.3702C63.4024 43.8736 63.2206 46.2232 62.933 49.1125C62.6352 52.0018 62.2147 55.4329 61.6997 59.107L61.6107 59.0009C61.6318 59.0016 61.6543 59.0023 61.6772 59.003C62.5351 59.0305 63.3803 59.0577 64.1825 59.0841L64.09 59.1541C64.6004 56.911 64.7969 54.7364 64.9269 52.7797C65.053 50.8206 65.0987 49.0671 65.1219 47.6027C65.1444 46.1382 65.1383 44.9616 65.134 44.1515C65.1315 43.7572 65.1298 43.4468 65.1287 43.2207C65.1283 43.0074 65.1312 42.9021 65.1362 42.8974C65.1412 42.8924 65.1523 43.0092 65.1633 43.22C65.1723 43.4461 65.1851 43.7565 65.2005 44.1504C65.2255 44.9605 65.2508 46.1375 65.2448 47.6041C65.238 49.07 65.2058 50.8259 65.0901 52.7901C64.9694 54.7525 64.7811 56.932 64.2686 59.1977L64.2522 59.2706L64.1761 59.2681C63.3738 59.2427 62.5291 59.2159 61.6707 59.1888C61.6482 59.188 61.625 59.1873 61.604 59.1866L61.5007 59.1834L61.515 59.0805C62.0297 55.4094 62.4609 51.98 62.7766 49.0957C63.082 46.2118 63.2892 43.8654 63.2256 42.3759L63.2234 42.3306L63.266 42.3324C63.9157 42.3574 64.395 42.5099 64.7004 42.6424C64.8529 42.7113 64.9612 42.7731 65.034 42.8217C65.1065 42.871 65.1394 42.8956 65.1362 42.8974Z" fill="#263238"/>
<path d="M63.2208 58.384C63.6457 58.384 63.9902 58.0395 63.9902 57.6146C63.9902 57.1897 63.6457 56.8452 63.2208 56.8452C62.7959 56.8452 62.4514 57.1897 62.4514 57.6146C62.4514 58.0395 62.7959 58.384 63.2208 58.384Z" fill="#E0E0E0"/>
<path d="M63.2206 58.3928C62.7912 58.3928 62.4419 58.0435 62.4419 57.6141C62.4419 57.1848 62.7912 56.8354 63.2206 56.8354C63.6499 56.8354 63.9992 57.1848 63.9992 57.6141C63.9992 58.0435 63.6499 58.3928 63.2206 58.3928ZM63.2206 56.854C62.8012 56.854 62.4601 57.1951 62.4601 57.6145C62.4601 58.0338 62.8012 58.3749 63.2206 58.3749C63.6399 58.3749 63.981 58.0338 63.981 57.6145C63.981 57.1951 63.6399 56.854 63.2206 56.854Z" fill="#263238"/>
<path d="M46.4085 58.1269C46.8335 58.1269 47.1779 57.7824 47.1779 57.3575C47.1779 56.9326 46.8335 56.5881 46.4085 56.5881C45.9836 56.5881 45.6392 56.9326 45.6392 57.3575C45.6392 57.7824 45.9836 58.1269 46.4085 58.1269Z" fill="#E0E0E0"/>
<path d="M46.4079 58.1358C45.979 58.1358 45.6296 57.7865 45.6296 57.3575C45.6296 56.9282 45.979 56.5789 46.4079 56.5789C46.8373 56.5789 47.1866 56.9282 47.1866 57.3575C47.1866 57.7869 46.8373 58.1358 46.4079 58.1358ZM46.4079 56.5974C45.9886 56.5974 45.6479 56.9385 45.6479 57.3579C45.6479 57.7772 45.9886 58.118 46.4079 58.118C46.8273 58.118 47.1684 57.7772 47.1684 57.3579C47.1684 56.9385 46.8273 56.5974 46.4079 56.5974Z" fill="#263238"/>
<path d="M61.7693 65.4951C61.7725 65.4951 61.7746 65.5351 61.7754 65.613C61.775 65.7009 61.7743 65.8148 61.7736 65.9584C61.7682 66.2623 61.7611 66.7099 61.7157 67.2864C61.6682 67.8608 61.5914 68.5698 61.3542 69.3613C61.1303 70.1575 60.662 70.9976 59.9998 71.7948C58.7085 73.4343 56.3754 74.692 53.6536 75.0374C52.971 75.116 52.2638 75.1306 51.5466 75.066C50.8322 75.0024 50.0921 74.8413 49.4174 74.503C48.0572 73.8508 46.9135 72.686 46.1759 71.2798C45.434 69.8671 45.1236 68.3083 45.0715 66.8203C45.0618 66.4449 45.0525 66.0816 45.0836 65.7062C45.1033 65.5201 45.1386 65.3294 45.2254 65.1518C45.3097 64.9754 45.4594 64.8179 45.6437 64.74C46.0191 64.5871 46.3873 64.6589 46.7299 64.6607C47.0789 64.6746 47.4232 64.6882 47.764 64.7018C50.485 64.8136 52.9364 64.9143 54.9999 64.999C57.0501 65.0901 58.7132 65.164 59.8773 65.2154C60.4434 65.2447 60.8877 65.2676 61.2028 65.2836C61.346 65.2929 61.46 65.3004 61.5475 65.3062C61.625 65.3122 61.6646 65.3169 61.6646 65.3201C61.6646 65.3233 61.6246 65.3251 61.5468 65.3254C61.4589 65.3244 61.3453 65.3229 61.2014 65.3212C60.886 65.3133 60.4413 65.3019 59.8744 65.2876C58.7096 65.2504 57.0458 65.1965 54.9945 65.1304C52.931 65.0572 50.4789 64.9697 47.7575 64.8729C47.4168 64.8604 47.0721 64.8479 46.7231 64.835C46.3766 64.8304 46.0119 64.775 45.7158 64.9022C45.4158 65.0279 45.2908 65.3783 45.2626 65.7244C45.234 66.0748 45.2426 66.4481 45.2533 66.8139C45.3068 68.2812 45.6147 69.8128 46.3406 71.1937C47.061 72.5681 48.1779 73.7047 49.4963 74.3398C50.1514 74.6691 50.8593 74.8245 51.563 74.8899C52.2663 74.9552 52.9628 74.9424 53.634 74.8677C56.3182 74.5348 58.6153 73.3125 59.8983 71.7113C60.5595 70.9279 61.0245 70.1125 61.2546 69.3313C61.4982 68.5544 61.585 67.8518 61.6436 67.281C61.6993 66.7081 61.7186 66.2613 61.7361 65.9584C61.7443 65.8151 61.7511 65.7012 61.7564 65.6133C61.7618 65.5348 61.7661 65.4951 61.7693 65.4951Z" fill="#263238"/>
<g opacity="0.3">
<path d="M41.8038 75.5223C41.9995 74.1989 41.6048 72.8866 40.7629 71.8472C39.921 70.8078 38.6323 70.1431 37.2971 70.0598C37.1461 65.5546 37.4765 61.0333 38.2805 56.5981L34.7083 70.8864C34.7083 70.8864 39.6828 70.955 39.7775 75.0958L41.8038 75.5223Z" fill="black"/>
</g>
<g opacity="0.3">
<path d="M45.6007 21.1215C45.9761 18.1965 47.0055 15.3565 48.5918 12.8705C48.7665 12.5969 48.9519 12.2493 48.7879 11.9693C48.6472 11.7292 48.3007 11.6817 48.0467 11.7953C47.7931 11.9086 47.6131 12.1389 47.4531 12.3658C45.7043 14.8429 45.0292 18.0508 45.6304 21.0226" fill="black"/>
</g>
<path d="M107.33 62.287L102.277 87.0951H67.2452H58.4155C57.9319 87.0951 57.5393 86.7029 57.5393 86.2193C57.5393 85.7356 57.9319 85.3431 58.4155 85.3431H67.2452L71.9301 62.2713C72.0201 61.8287 72.4069 61.5087 72.8587 61.504L106.382 61.1383C106.992 61.1311 107.452 61.689 107.33 62.287Z" fill="#E0E0E0"/>
<path d="M107.331 62.2875C107.331 62.2875 107.336 62.2628 107.344 62.2128C107.352 62.1632 107.359 62.0871 107.349 61.9874C107.331 61.7956 107.227 61.4738 106.885 61.2623C106.801 61.2105 106.702 61.1734 106.595 61.1477C106.487 61.1234 106.369 61.1252 106.249 61.1263C106.009 61.128 105.746 61.1302 105.46 61.1323C104.889 61.137 104.23 61.1423 103.487 61.1488C100.511 61.177 96.1927 61.2177 90.8117 61.2688C88.1203 61.2959 85.1631 61.3259 81.9756 61.3581C80.3818 61.3745 78.7302 61.3913 77.0257 61.4091C76.1734 61.4177 75.3076 61.427 74.4293 61.4359C73.9903 61.4406 73.5474 61.4449 73.102 61.4495C72.9891 61.4527 72.883 61.4477 72.7626 61.4577C72.6455 61.4699 72.5301 61.5034 72.424 61.5556C72.2111 61.6595 72.0368 61.8413 71.9425 62.0603C71.8929 62.1703 71.8729 62.2893 71.8507 62.3975L71.7829 62.7311C71.7375 62.954 71.6918 63.1776 71.6461 63.4019C71.555 63.8505 71.4628 64.302 71.3707 64.7564C71.1857 65.665 70.9988 66.5848 70.8092 67.516C70.4306 69.378 70.0426 71.2833 69.6472 73.2278C68.8568 77.1172 68.0342 81.1634 67.1869 85.3318L67.2455 85.2836C65.5871 85.2836 63.8883 85.2832 62.1606 85.2832C61.2969 85.2832 60.4264 85.2829 59.5502 85.2829H58.892H58.5623C58.4551 85.284 58.3376 85.2775 58.2208 85.3039C57.9897 85.3515 57.78 85.4922 57.6461 85.6865C57.5103 85.8804 57.4546 86.1273 57.4907 86.3612C57.5307 86.6484 57.7168 86.9056 57.9693 87.0435C58.0961 87.1113 58.2387 87.1499 58.3819 87.1549L58.7866 87.1567C59.3231 87.1567 59.8581 87.1567 60.3914 87.1567C61.458 87.1567 62.5188 87.1563 63.5725 87.1563C65.68 87.1563 67.7606 87.156 69.8087 87.1556C73.906 87.1545 77.8761 87.1538 81.683 87.1528C89.2969 87.1488 96.2581 87.1453 102.277 87.1424H102.315L102.322 87.1052C103.867 79.48 105.123 73.2771 105.994 68.9787C106.425 66.8305 106.762 65.1593 106.991 64.0223C107.103 63.4558 107.189 63.0229 107.247 62.7297C107.305 62.4375 107.331 62.2875 107.331 62.2875C107.331 62.2875 107.296 62.4361 107.234 62.7265C107.173 63.019 107.082 63.4512 106.964 64.0163C106.73 65.1521 106.386 66.822 105.943 68.9676C105.063 73.2642 103.793 79.4643 102.231 87.0863L102.277 87.0492C96.2577 87.046 89.2969 87.0424 81.683 87.0388C77.8761 87.0381 73.906 87.037 69.8087 87.036C67.7606 87.0356 65.68 87.0356 63.5725 87.0352C62.5188 87.0352 61.458 87.0352 60.3914 87.0352C59.8581 87.0352 59.3231 87.0349 58.7866 87.0349L58.3862 87.0335C58.2612 87.0288 58.1379 86.9956 58.0272 86.9367C57.8075 86.8163 57.6454 86.592 57.6107 86.3426C57.5789 86.1387 57.6275 85.924 57.7457 85.7554C57.8622 85.5858 58.0447 85.4633 58.2458 85.4215C58.3447 85.3993 58.4494 85.4043 58.5623 85.4036H58.892H59.5502C60.4261 85.4036 61.2969 85.4036 62.1606 85.4032C63.8883 85.4032 65.5874 85.4033 67.2455 85.4029H67.2948L67.3044 85.3547C68.1499 81.1859 68.9707 77.1397 69.7598 73.2499C70.1541 71.305 70.5406 69.3994 70.9178 67.5371C71.1064 66.6062 71.2928 65.6858 71.4768 64.7771C71.5689 64.3227 71.6607 63.8709 71.7514 63.4223C71.7968 63.1979 71.8422 62.9743 71.8875 62.7515L71.955 62.4179C71.9779 62.3046 71.9957 62.1985 72.0397 62.1014C72.1236 61.9053 72.2801 61.7424 72.4701 61.6488C72.5655 61.602 72.6683 61.572 72.7737 61.5609C72.8759 61.552 72.9934 61.5556 73.103 61.5531C73.5488 61.5477 73.991 61.5431 74.4303 61.5377C75.3087 61.5277 76.1745 61.5177 77.0267 61.5081C78.7312 61.4881 80.3829 61.4695 81.9767 61.4509C85.1642 61.4138 88.121 61.3788 90.8124 61.347C96.1934 61.2806 100.512 61.2273 103.487 61.1906C104.231 61.1805 104.89 61.1713 105.461 61.1638C105.746 61.1595 106.009 61.1563 106.25 61.1527C106.37 61.1505 106.484 61.148 106.589 61.1709C106.694 61.1952 106.79 61.2305 106.873 61.2806C107.209 61.4838 107.316 61.7985 107.337 61.9878C107.357 62.186 107.324 62.2871 107.331 62.2875Z" fill="#263238"/>
<path d="M88.5674 75.0896C89.3675 75.0896 90.0162 74.441 90.0162 73.6409C90.0162 72.8408 89.3675 72.1921 88.5674 72.1921C87.7673 72.1921 87.1187 72.8408 87.1187 73.6409C87.1187 74.441 87.7673 75.0896 88.5674 75.0896Z" fill="white"/>
<path d="M107.29 62.4878C107.29 62.4878 107.238 62.4839 107.139 62.4828C107.034 62.4821 106.887 62.4814 106.695 62.48C106.301 62.4807 105.727 62.4814 104.99 62.4821C103.505 62.4896 101.363 62.5 98.7182 62.5125C93.4193 62.55 86.1052 62.6014 78.0274 62.6586C77.0173 62.6664 76.0189 62.6747 75.0349 62.6822C74.7891 62.6843 74.5441 62.6864 74.2998 62.6886C74.1805 62.6911 74.0533 62.6832 73.924 62.7111C73.7976 62.7364 73.6765 62.7861 73.5682 62.855C73.3514 62.9929 73.1885 63.2122 73.1232 63.4587C73.0685 63.7016 73.0275 63.9309 72.9796 64.1659C72.6088 66.0344 72.2509 67.8371 71.9105 69.5544C71.2319 72.9884 70.6204 76.0813 70.1067 78.6802C69.5981 81.2759 69.1866 83.3773 68.9009 84.8346C68.7619 85.5582 68.6537 86.1219 68.5794 86.5091C68.5444 86.6977 68.5176 86.8427 68.4987 86.9452C68.4808 87.0434 68.4751 87.0945 68.4751 87.0945C68.4751 87.0945 68.4894 87.0452 68.5108 86.9477C68.533 86.8459 68.5633 86.702 68.6037 86.5137C68.6833 86.128 68.7991 85.5661 68.9477 84.8439C69.242 83.3887 69.6667 81.2895 70.191 78.697C70.7118 76.0999 71.3315 73.0088 72.0202 69.5766C72.3631 67.8596 72.7231 66.0576 73.0964 64.1895C73.1439 63.958 73.1878 63.7166 73.2386 63.4905C73.2968 63.2722 73.4407 63.0779 73.6329 62.9561C73.729 62.8947 73.8358 62.8511 73.9479 62.8286C74.058 62.8043 74.1765 62.8107 74.3008 62.8086C74.5448 62.8065 74.7898 62.8047 75.0359 62.8025C76.02 62.795 77.0183 62.7872 78.0284 62.7793C86.1063 62.7086 93.42 62.6443 98.7189 62.5979C101.364 62.5689 103.505 62.5453 104.99 62.5293C105.728 62.5186 106.301 62.51 106.695 62.5043C106.887 62.5 107.035 62.4971 107.139 62.495C107.238 62.4925 107.29 62.4878 107.29 62.4878Z" fill="#263238"/>
<path d="M6.85376 78.7115C6.85376 78.7115 2.61783 73.8363 1.01937 68.961C-0.579089 64.0858 0.180234 64.6452 0.180234 64.6452C0.180234 64.6452 2.3381 69.3811 3.97646 71.6686C5.61483 73.9561 8.53202 77.3128 8.53202 77.3128L6.85376 78.7115Z" fill="#03BC37"/>
<path d="M7.69802 65.4051C7.5614 65.1671 7.19756 65.2906 7.23855 65.562C7.49669 67.2745 8.05503 71.2931 8.0331 73.8995C8.0047 77.2853 8.03418 78.5942 8.03418 78.5942H9.79731C9.79731 78.5942 9.48417 71.5947 9.08581 69.4608C8.80643 67.9644 8.21357 66.3034 7.69802 65.4051Z" fill="#03BC37"/>
<path d="M8.65894 78.025C8.65894 78.025 9.76879 75.6919 10.11 72.7612C10.2552 71.5147 9.99638 69.8305 9.61097 67.5827C9.42437 66.4939 9.38195 65.6656 9.38806 65.091C9.39274 64.6569 9.96546 64.5151 10.1779 64.8937C10.3908 65.2735 11.0066 66.5705 11.1627 67.3836C11.5898 69.6029 12.0733 70.7126 11.7034 72.818C11.3335 74.9236 9.96796 78.1672 9.96796 78.1672L8.65894 78.025Z" fill="#03BC37"/>
<path d="M10.2471 78.1673C10.2471 78.1673 14.8979 68.1726 15.22 66.6899C15.5425 65.2072 16.6384 61.7905 16.7674 61.9837C16.8965 62.1771 17.0899 63.9823 16.2515 66.0453C15.4135 68.1082 11.8351 78.4718 11.8351 78.4718H10.2471" fill="#03BC37"/>
<path d="M8.14998 77.7201C8.14782 77.723 8.10288 77.6921 8.01947 77.6306C7.93715 77.568 7.81167 77.4801 7.65923 77.3555C7.34969 77.1123 6.91538 76.7423 6.40953 76.2521C5.39422 75.2773 4.13049 73.7741 3.03537 71.9216C1.93772 70.0697 1.19925 68.2584 0.73223 66.9327C0.498186 66.2688 0.327405 65.7254 0.217025 65.3479C0.16022 65.1597 0.121029 65.0119 0.0933425 64.9121C0.0667381 64.812 0.0541518 64.7591 0.0573813 64.7581C0.0606283 64.7572 0.0796737 64.8082 0.112755 64.9064C0.147633 65.0133 0.194732 65.1564 0.253684 65.3364C0.375568 65.7101 0.556405 66.2494 0.798375 66.9088C1.28158 68.2261 2.0276 70.0266 3.12054 71.8709C4.2117 73.7157 5.45963 75.2179 6.45876 76.2021C6.95635 76.6969 7.38238 77.0738 7.68365 77.3257C7.83214 77.4546 7.95329 77.5471 8.03168 77.6147C8.11116 77.6813 8.15213 77.7174 8.14998 77.7201Z" fill="#185629"/>
<path d="M8.65865 72.9253C8.65182 72.9258 8.63744 72.8212 8.61694 72.6319C8.59465 72.425 8.5659 72.1555 8.53139 71.8309C8.45768 71.1546 8.34262 70.2222 8.17832 69.1979C8.0133 68.1732 7.82993 67.2516 7.68829 66.5865C7.61925 66.2674 7.56209 66.0022 7.51859 65.7989C7.47832 65.6129 7.45964 65.509 7.4661 65.5073C7.47292 65.5057 7.50457 65.6062 7.55598 65.7896C7.60811 65.9729 7.67678 66.2399 7.7566 66.571C7.91659 67.2333 8.11109 68.1551 8.27648 69.1821C8.44115 70.2089 8.5454 71.1451 8.60113 71.8241C8.62916 72.1636 8.64751 72.4387 8.65542 72.629C8.66404 72.8194 8.66547 72.9247 8.65865 72.9253Z" fill="#185629"/>
<path d="M9.74793 64.8155C9.75116 64.8142 9.76986 64.8579 9.80294 64.9424C9.83817 65.0364 9.88455 65.1597 9.94207 65.3136C10.0039 65.4747 10.0744 65.6733 10.142 65.9088C10.211 66.1434 10.3005 66.408 10.3678 66.7089C10.4048 66.859 10.4433 67.0158 10.4832 67.179C10.5224 67.3426 10.5497 67.5157 10.5856 67.6933C10.6615 68.0483 10.7082 68.433 10.7647 68.8369C10.8556 69.6471 10.9053 70.5443 10.8758 71.4856C10.838 72.4268 10.724 73.3183 10.5756 74.1202C10.4904 74.5189 10.4159 74.8995 10.3145 75.248C10.2664 75.4228 10.2265 75.5933 10.1758 75.7537C10.124 75.9137 10.0747 76.0674 10.0273 76.2143C9.93849 76.5098 9.83027 76.7672 9.74435 76.9962C9.66058 77.2263 9.57574 77.4194 9.50275 77.5754C9.43407 77.7248 9.37907 77.8445 9.337 77.9359C9.29852 78.0176 9.27659 78.0599 9.27336 78.0586C9.27012 78.057 9.28595 78.0121 9.31901 77.9276C9.35641 77.8346 9.40565 77.7126 9.46714 77.5605C9.53436 77.4023 9.61383 77.2078 9.69256 76.9766C9.77309 76.7464 9.87628 76.4882 9.9604 76.1927C10.0057 76.0458 10.0528 75.8921 10.1021 75.7323C10.1506 75.572 10.1887 75.4016 10.2351 75.2274C10.3322 74.8795 10.4034 74.5002 10.4857 74.1031C10.6284 73.3046 10.7388 72.418 10.7765 71.482C10.806 70.546 10.7593 69.654 10.6737 68.8474C10.6201 68.4454 10.5766 68.0622 10.5044 67.7084C10.4706 67.5312 10.4451 67.3586 10.4084 67.1952C10.3706 67.0322 10.3343 66.8756 10.2998 66.7258C10.2372 66.4249 10.1524 66.1601 10.0888 65.9246C10.0266 65.6884 9.96148 65.4887 9.90576 65.3262C9.85543 65.17 9.81481 65.0447 9.78424 64.9492C9.75727 64.8627 9.7447 64.8165 9.74793 64.8155Z" fill="#185629"/>
<path d="M16.7143 62.1848C16.7158 62.185 16.7147 62.2003 16.7104 62.2296C16.705 62.2646 16.6981 62.3074 16.6899 62.3594C16.6694 62.4732 16.6438 62.642 16.5982 62.8569C16.5083 63.2869 16.3587 63.9057 16.1261 64.6562C15.8946 65.4071 15.5768 66.2874 15.2 67.2545C14.825 68.2222 14.3889 69.2763 13.9758 70.3986C13.5566 71.5188 13.2337 72.6123 12.9303 73.6046C12.6294 74.5976 12.3443 75.4891 12.0681 76.2249C11.7953 76.9619 11.5324 77.5422 11.334 77.9341C11.2387 78.1322 11.1532 78.2797 11.0978 78.3813C11.0719 78.4271 11.0503 78.4647 11.0327 78.4956C11.0176 78.5212 11.0094 78.5337 11.0076 78.5328C11.0061 78.5321 11.0115 78.5177 11.0237 78.4908C11.0392 78.4586 11.0575 78.4196 11.0802 78.372C11.1294 78.2675 11.2096 78.1174 11.2991 77.9173C11.4864 77.5211 11.7385 76.9387 12.0024 76.2008C12.2691 75.4637 12.5467 74.5725 12.8426 73.5782C13.141 72.585 13.4624 71.4877 13.8827 70.3642C14.2965 69.2393 14.7355 68.186 15.1148 67.2211C15.4959 66.2568 15.8195 65.3812 16.0593 64.635C16.2998 63.8891 16.4594 63.2751 16.5605 62.8485C16.6115 62.6355 16.6435 62.4681 16.6701 62.3558C16.6823 62.3043 16.6924 62.2623 16.7007 62.2278C16.7079 62.199 16.7125 62.1845 16.7143 62.1848Z" fill="#185629"/>
<path d="M2.37316 59.9769C2.08014 59.6857 1.59262 59.9902 1.71414 60.3852C1.83709 60.7857 2.02334 61.3036 2.29837 61.888C2.93761 63.2467 4.81578 68.1218 5.69519 70.7992C6.57423 73.4766 7.8128 78.4717 7.8128 78.4717L9.69025 78.1672C9.69025 78.1672 7.97279 69.9601 6.29452 67.003C4.94592 64.6271 3.59734 61.1932 2.37316 59.9769Z" fill="#03BC37"/>
<path d="M6.20889 72.4737C6.21537 72.4715 6.24917 72.5515 6.3056 72.6987C6.36098 72.846 6.43683 73.061 6.52203 73.329C6.69496 73.8645 6.90637 74.6125 7.11957 75.4436C7.33203 76.275 7.50929 77.0312 7.63297 77.5795C7.68906 77.8389 7.73651 78.0568 7.7739 78.2299C7.80555 78.3841 7.81957 78.4701 7.81273 78.4717C7.80625 78.4733 7.7793 78.3904 7.73651 78.2391C7.6905 78.0679 7.63297 77.8524 7.56466 77.5961C7.42085 77.0313 7.23211 76.2892 7.02322 75.4682C6.81039 74.6382 6.61012 73.8888 6.45481 73.3493C6.38074 73.0948 6.31819 72.881 6.26894 72.711C6.22399 72.5605 6.20242 72.476 6.20889 72.4737Z" fill="#185629"/>
<path d="M8.75616 78.3194C8.75436 78.3196 8.75077 78.3027 8.74537 78.2694C8.73961 78.2304 8.73279 78.1819 8.72416 78.1217C8.70439 77.9919 8.68677 77.7992 8.64721 77.5531C8.57819 77.06 8.45522 76.3492 8.25354 75.4824C8.05328 74.615 7.761 73.5951 7.37487 72.483C6.9898 71.3708 6.50661 70.1691 5.95941 68.9253C4.85495 66.4406 3.75192 64.2371 3.02676 62.6076C2.66041 61.7947 2.37636 61.131 2.18979 60.6686C2.09451 60.4382 2.0262 60.257 1.97875 60.1347C1.95754 60.0776 1.94027 60.0316 1.92662 59.9947C1.91512 59.9629 1.91044 59.9464 1.91187 59.9458C1.91332 59.9451 1.92158 59.9604 1.93596 59.9909C1.95214 60.0269 1.97227 60.0717 1.99708 60.127C2.05243 60.2545 2.12867 60.4304 2.22538 60.6537C2.42313 61.111 2.71613 61.7697 3.09077 62.5783C3.8314 64.199 4.94412 66.397 6.0504 68.8853C6.59868 70.1308 7.08007 71.3365 7.46154 72.4532C7.84373 73.5697 8.1299 74.5949 8.32225 75.4666C8.51568 76.3381 8.6282 77.0525 8.68572 77.548C8.71952 77.7952 8.73068 77.989 8.74396 78.1195C8.74864 78.1801 8.7526 78.2292 8.75546 78.2683C8.75761 78.3021 8.75761 78.3194 8.75616 78.3194Z" fill="#185629"/>
<path d="M9.69012 78.1673C9.68327 78.1682 9.66136 78.0558 9.62684 77.8518C9.58944 77.6314 9.5402 77.3404 9.48088 76.9888C9.35144 76.2615 9.1537 75.2596 8.86968 74.1692C8.58853 73.0777 8.27178 72.1068 8.0284 71.4095C7.90868 71.0733 7.80945 70.7954 7.73466 70.5849C7.66419 70.3904 7.6286 70.2816 7.63471 70.2791C7.64118 70.2764 7.689 70.3805 7.77061 70.5707C7.8515 70.7612 7.96476 71.0388 8.09419 71.3856C8.3552 72.0782 8.68381 73.0491 8.96604 74.1442C9.25078 75.2382 9.43811 76.2456 9.5499 76.9773C9.60348 77.3436 9.64447 77.6404 9.66531 77.8464C9.6876 78.0522 9.69694 78.1664 9.69012 78.1673Z" fill="#185629"/>
<path d="M13.5437 77.8975H6.21582V86.8256H13.5437V77.8975Z" fill="#F3725F"/>
<g opacity="0.3">
<path d="M13.5437 77.8975H6.21582V86.8256H13.5437V77.8975Z" fill="black"/>
</g>
<path d="M11.2059 77.8975H4.70459V86.8256H11.2059V77.8975Z" fill="#F3725F"/>
</svg>
